<svg width="1280" height="770" viewBox="0 0 1280 929" fill="none" xmlns="http://www.w3.org/2000/svg"><path d="M-81.85 593.731c31.564-51.766 116.346-57.637 160.945-30.444 44.599 27.193 55.166 91.202 23.603 142.968-31.564 51.766-93.305 71.686-137.904 44.493-44.598-27.193-78.207-105.251-46.644-157.017z" fill="url(#paint0_radial)" fill-opacity=".3"/><path d="M551.847 198.42c-13.697-15.165-4.674-45.638 10.49-59.336 15.164-13.697 38.561-12.508 52.259 2.656 13.697 15.164 12.508 38.561-2.656 52.259-15.164 13.697-46.396 19.585-60.093 4.421z" fill="url(#paint1_linear)"/><path d="M644.938 70.212C553.885-53.123 443.559-72.555 353.559-68.852c-132 5.432-308.585-89.132-154.001-324 193.231-293.585 732-278.047 974.002-160 164 80 311.55 222.262 378 464 46.26 168.312 35.25 346-53.69 521.537-141.07 278.439-553.131 347.569-715.062 278.439-141.845-60.556-152.114-200.651-118.935-295.422 29.251-83.552 72.117-222.154-18.935-345.49z" fill="url(#paint2_linear)"/><path d="M1088.16 517.319c-161.953-172.785-58.99-342.193 35.56-405.941 94.54-63.747 274.4-124.422 362.11-42.126 87.7 82.296 106.9 184.522 76.51 279.057-30.38 94.535-272.74 383.914-474.18 169.01z" fill="url(#paint3_radial)"/><defs><radialGradient id="paint0_radial" cx="0" cy="0" r="1" gradientUnits="userSpaceOnUse" gradientTransform="rotate(-58.628 584.016 315.714) scale(109.78 108.073)"><stop stop-color="#FBC97D"/><stop offset="1" stop-color="#FFD28F"/></radialGradient><radialGradient id="paint3_radial" cx="0" cy="0" r="1" gradientUnits="userSpaceOnUse" gradientTransform="rotate(80.219 551.356 765.828) scale(502.049 316.774)"><stop stop-color="#FBC97D"/><stop offset="1" stop-color="#FFD28F"/></radialGradient><linearGradient id="paint1_linear" x1="608.023" y1="197.537" x2="558.42" y2="142.623" gradientUnits="userSpaceOnUse"><stop stop-color="#60AAC8"/><stop offset="1" stop-color="#85D5F4"/></linearGradient><linearGradient id="paint2_linear" x1="682.662" y1="-516.241" x2="1172.93" y2="701.538" gradientUnits="userSpaceOnUse"><stop stop-color="#60AAC8"/><stop offset="1" stop-color="#85D5F4"/></linearGradient></defs></svg>