<svg width="375" height="833" fill="none" xmlns="http://www.w3.org/2000/svg"><path d="M-75.051 533.17c26.308-43.146 96.93-48.065 134.07-25.42 37.141 22.646 45.923 75.981 19.615 119.127-26.307 43.146-77.742 59.765-114.882 37.12-37.14-22.646-65.111-87.68-38.803-130.827z" fill="url(#paint0_radial)" fill-opacity=".3"/><path d="M329.384 114.931C253.287 11.856 161.081-4.384 85.862-1.288-24.457 3.253-172.038-75.776-42.84-272.066c161.496-245.362 611.777-232.381 814.029-133.727 137.064 66.858 260.382 185.751 315.912 387.78 38.66 140.664 29.46 289.165-44.88 435.869-117.9 232.703-462.282 290.482-597.616 232.708-118.547-50.607-127.128-167.69-99.398-246.894 24.447-69.828 60.275-185.664-15.822-288.739z" fill="url(#paint1_linear)"/><path d="M260.815 367.822c-10.18-11.27-3.437-33.953 7.861-44.158 11.298-10.205 28.71-9.342 38.891 1.929 10.18 11.27 9.274 28.68-2.024 38.886-11.298 10.205-34.547 14.614-44.728 3.343z" fill="url(#paint2_linear)"/><defs><linearGradient id="paint1_linear" x1="360.917" y1="-375.191" x2="770.654" y2="642.55" gradientUnits="userSpaceOnUse"><stop stop-color="#60AAC8"/><stop offset="1" stop-color="#85D5F4"/></linearGradient><linearGradient id="paint2_linear" x1="302.624" y1="367.115" x2="265.757" y2="326.3" gradientUnits="userSpaceOnUse"><stop stop-color="#60AAC8"/><stop offset="1" stop-color="#85D5F4"/></linearGradient><radialGradient id="paint0_radial" cx="0" cy="0" r="1" gradientUnits="userSpaceOnUse" gradientTransform="matrix(47.6342 -78.12319 76.84248 46.85332 1.79 580.023)"><stop stop-color="#FBC97D"/><stop offset="1" stop-color="#FFD28F"/></radialGradient></defs></svg>