<svg width="408" height="582" fill="none" xmlns="http://www.w3.org/2000/svg"><path d="M150.909 251.592a160.315 160.315 0 011.601-41.83c-.165 2.317-2.096 30.292-1.601 41.83zm1.618-41.987a125.252 125.252 0 014.538-19.021s5.776.908 13.863 1.816a176.718 176.718 0 01-18.401 17.205zm96.281.002l-23.534-5.198a188.972 188.972 0 01-.941 5.198v.016c5.826 12.414 11.189 25.001 16.372 37.666 5.182 12.681 10.034 25.455 14.721 38.308 4.522 12.9 8.912 25.847 12.79 38.935 3.812 13.103 7.278 26.3 9.869 39.67l-2.525-9.894c-.792-3.319-1.832-6.575-2.723-9.847-.908-3.288-1.815-6.576-2.839-9.832l-3.003-9.769a1083.262 1083.262 0 00-13.121-38.762c-4.555-12.868-9.423-25.627-14.341-38.386a1565.072 1565.072 0 00-7.509-19.084c-2.492-6.356-5.1-12.665-7.691-19.005a167.795 167.795 0 01-4.39 17.893c5.694 18.317 10.892 36.759 15.843 55.248 4.968 18.504 9.523 37.102 13.814 55.748 4.126 18.692 7.971 37.447 10.909 56.343 1.436 9.455 2.64 18.942 3.433 28.461.907 9.521.874 19.102-.099 28.617a151.39 151.39 0 00-.71-28.539c-.941-9.487-2.294-18.943-3.878-28.352-1.634-9.408-3.334-18.801-5.232-28.163a1271.181 1271.181 0 00-6.04-28.039c-4.143-18.661-8.731-37.228-13.418-55.779a1880.548 1880.548 0 00-7.195-27.804c-2.41-9.252-4.918-18.504-7.427-27.741a106.918 106.918 0 01-4.604 12.337v.015c1.072 12.008 1.749 24.031 2.294 36.07.561 12.07.775 24.125.907 36.195 0 12.07-.181 24.156-.874 36.21a231.314 231.314 0 01-4.275 35.96l1.221-8.97.826-9.002c.412-6.012.808-12.023.973-18.051.413-12.038.611-24.077.479-36.132.016-12.054-.231-24.109-.512-36.163l-.495-18.082-.544-18.035c-22.841 50.551-64.43 11.726-64.43 11.726a123.001 123.001 0 01-1.684 34.254c-4.753 25.236-13.929 67.286-26.009 90.674-18.039 34.958-57.895 94.871-63.16 116.271 0 0 58.654 61.353 166.191 26.395 107.521-34.942 110.541-19.976 110.541-19.976s-21.058-186.876-87.98-289.605zM67.418 492.762a2.539 2.539 0 01-1.694-.717 2.289 2.289 0 01-.694-1.631c0-.609.25-1.193.694-1.631a2.539 2.539 0 011.693-.717 2.538 2.538 0 011.693.717c.445.438.694 1.022.694 1.631a2.29 2.29 0 01-.694 1.631 2.538 2.538 0 01-1.693.717zm13.07 7.89a2.538 2.538 0 01-1.693-.717 2.288 2.288 0 01-.694-1.631c0-.608.249-1.193.694-1.631a2.538 2.538 0 011.693-.717 2.54 2.54 0 011.693.717 2.29 2.29 0 01.694 1.631 2.29 2.29 0 01-.694 1.631 2.538 2.538 0 01-1.693.717zm15.447 9.018a2.544 2.544 0 01-1.692-.718 2.286 2.286 0 01-.694-1.631c0-.608.248-1.193.694-1.631a2.538 2.538 0 011.692-.717 2.538 2.538 0 011.693.717 2.29 2.29 0 01.694 1.631c0 .609-.249 1.193-.694 1.631a2.544 2.544 0 01-1.693.718zm17.23 6.763a2.544 2.544 0 01-1.693-.718 2.287 2.287 0 01-.694-1.631c0-.608.249-1.193.694-1.631a2.538 2.538 0 011.693-.717 2.538 2.538 0 011.693.717 2.29 2.29 0 01.694 1.631c0 .609-.249 1.193-.694 1.631a2.544 2.544 0 01-1.693.718zm18.418 4.508a2.538 2.538 0 01-1.693-.717 2.29 2.29 0 01-.694-1.631c0-.608.249-1.193.694-1.631a2.538 2.538 0 011.693-.717 2.538 2.538 0 011.693.717 2.29 2.29 0 01.694 1.631 2.29 2.29 0 01-.694 1.631 2.538 2.538 0 01-1.693.717zm19.012 3.945a2.538 2.538 0 01-1.693-.717 2.287 2.287 0 01-.694-1.631c0-.608.249-1.193.694-1.631a2.538 2.538 0 011.693-.717 2.538 2.538 0 011.693.717 2.29 2.29 0 01.694 1.631c0 .609-.249 1.193-.694 1.631a2.538 2.538 0 01-1.693.717zm20.2.564a2.538 2.538 0 01-1.692-.717 2.285 2.285 0 01-.694-1.631c0-.609.248-1.193.694-1.631a2.538 2.538 0 011.692-.717 2.538 2.538 0 011.693.717c.446.438.694 1.022.694 1.631 0 .608-.248 1.193-.694 1.631a2.538 2.538 0 01-1.693.717zm19.013-1.691a2.538 2.538 0 01-1.693-.717 2.29 2.29 0 01-.694-1.631c0-.608.249-1.193.694-1.631a2.538 2.538 0 011.693-.717 2.536 2.536 0 011.692.717c.446.438.694 1.023.694 1.631 0 .608-.248 1.193-.694 1.631a2.536 2.536 0 01-1.692.717zm19.012-5.636a2.538 2.538 0 01-1.693-.717 2.287 2.287 0 01-.694-1.631c0-.608.249-1.193.694-1.631a2.538 2.538 0 011.693-.717 2.54 2.54 0 011.693.717c.445.438.693 1.023.693 1.631 0 .609-.248 1.193-.693 1.631a2.54 2.54 0 01-1.693.717zm19.606-5.072a2.538 2.538 0 01-1.693-.717 2.29 2.29 0 01-.694-1.631c0-.608.249-1.193.694-1.631a2.538 2.538 0 011.693-.717 2.538 2.538 0 011.693.717 2.29 2.29 0 01.694 1.631 2.29 2.29 0 01-.694 1.631 2.538 2.538 0 01-1.693.717zm19.606-6.199a2.544 2.544 0 01-1.693-.718 2.287 2.287 0 01-.694-1.631c0-.608.249-1.193.694-1.631a2.543 2.543 0 011.693-.717c.641.022 1.248.28 1.693.717a2.29 2.29 0 01.694 1.631c0 .609-.249 1.193-.694 1.631a2.544 2.544 0 01-1.693.718zm21.983-6.763a2.544 2.544 0 01-1.693-.718 2.287 2.287 0 01-.694-1.631c0-.608.249-1.193.694-1.631a2.538 2.538 0 011.693-.717 2.538 2.538 0 011.693.717 2.29 2.29 0 01.694 1.631c0 .609-.249 1.193-.694 1.631a2.544 2.544 0 01-1.693.718zm22.577-5.636a2.543 2.543 0 01-1.693-.717 2.29 2.29 0 01-.694-1.631c0-.609.249-1.194.694-1.631a2.54 2.54 0 011.693-.718c.641.022 1.247.28 1.693.718.445.437.693 1.022.693 1.631 0 .608-.248 1.193-.693 1.631a2.545 2.545 0 01-1.693.717zm18.418-2.818a2.538 2.538 0 01-1.693-.717 2.29 2.29 0 01-.694-1.631c0-.609.249-1.193.694-1.631a2.544 2.544 0 011.693-.718c.641.023 1.247.28 1.693.718.445.438.693 1.022.693 1.631 0 .608-.248 1.193-.693 1.631a2.54 2.54 0 01-1.693.717zm16.635-1.127a2.54 2.54 0 01-1.693-.718 2.287 2.287 0 01-.694-1.631c0-.608.249-1.193.694-1.631a2.543 2.543 0 011.693-.717c.641.022 1.248.28 1.693.717a2.29 2.29 0 01.694 1.631c0 .609-.249 1.193-.694 1.631a2.54 2.54 0 01-1.693.718zM222.482 5.606s-9.775-.357-11.279 12.127c-1.504 12.482-16.168 9.273-16.168 9.273s-7.143.356-4.135 8.916 7.143 6.063 7.143 6.063.986 17.767 12.408 19.617c0 0-26.767 13.165-32.282-.765a11.233 11.233 0 01-.555-5.835 27.712 27.712 0 013.036-9.052 22.252 22.252 0 003.073-11.84 21.488 21.488 0 00-1.471-6.748c-3.384-8.56 0-28.176 27.823-27.106 0 0 10.151-1.426 12.407 5.35z" fill="#000"/><path d="M179.97 63.654a456.193 456.193 0 01-3.613 7.809l-.144-.636c3.833 2.7 7.729 5.326 11.686 7.88 3.952 2.547 8.024 4.91 12.109 7.22a119.532 119.532 0 0012.619 6.164 40.5 40.5 0 0013.256 3.432l-.955 2.464a46.06 46.06 0 01-9.632-10.596 20.973 20.973 0 01-2.881-6.589 11.034 11.034 0 01.76-7.18 24.642 24.642 0 013.877-5.953 46.069 46.069 0 014.967-5.052 26.253 26.253 0 016.13-3.772 14.365 14.365 0 002.998-1.655c.872-.7 1.63-1.52 2.246-2.433a19.925 19.925 0 002.622-6.128 38.94 38.94 0 001.158-6.632c.411-4.5.55-9.018.418-13.533l-.072-3.4c-.093-1.1-.105-2.186-.303-3.255a19.82 19.82 0 00-1.942-6.137c-1.95-3.813-5.204-6.887-9.232-8.72l-.11-.046a1.51 1.51 0 01-.482-.322 1.427 1.427 0 01-.314-.472 1.353 1.353 0 01.029-1.096 1.46 1.46 0 01.457-.55 1.56 1.56 0 01.676-.281 12.46 12.46 0 014.998.23c.797.193 1.573.454 2.321.78a16.69 16.69 0 012.101 1.203c2.515 1.866 4.458 4.336 5.628 7.154a43.083 43.083 0 012.84 16.706 56.98 56.98 0 001.937 15.78 24.154 24.154 0 003.239 7.022 13.406 13.406 0 002.554 2.775c.484.376 1 .714 1.543 1.01.481.253.994.45 1.526.586l.106.017c.278.047.534.172.734.36.201.188.336.43.388.692.052.263.018.535-.097.779s-.305.449-.547.587a163.323 163.323 0 01-19.369 9.57 70.085 70.085 0 01-10.331 3.455 26.792 26.792 0 01-5.462.77 6.937 6.937 0 01-2.784-.288 6.676 6.676 0 01-2.406-1.358.15.15 0 01.005-.216.17.17 0 01.227-.005l.011.009c.691.5 1.484.856 2.329 1.047a6.555 6.555 0 002.577.062 25.778 25.778 0 005.179-1.103 82.885 82.885 0 009.88-3.962 160.033 160.033 0 009.459-4.89c3.1-1.714 6.198-3.477 9.18-5.327l.584 2.435a8.885 8.885 0 01-2.516-.809 14.19 14.19 0 01-2.056-1.248 16.38 16.38 0 01-3.234-3.268 25.786 25.786 0 01-3.913-7.812c-.439-1.364-.745-2.75-1.078-4.13-.222-1.388-.516-2.776-.676-4.168-.13-1.393-.301-2.787-.395-4.18l-.123-4.176a42.986 42.986 0 00-2.432-15.495 13.94 13.94 0 00-4.426-5.926c-.5-.348-1.024-.662-1.57-.941a10.888 10.888 0 00-1.732-.614 9.565 9.565 0 00-3.558-.271l.256-2.767a20.996 20.996 0 016.264 4.333 20.833 20.833 0 014.239 6.007 21.632 21.632 0 011.933 6.924c.155 1.178.113 2.377.148 3.541l-.102 3.416c-.105 4.574-.462 9.14-1.07 13.68-.321 2.28-.8 4.54-1.432 6.762a20.98 20.98 0 01-2.871 6.401 12.106 12.106 0 01-2.51 2.63 17.177 17.177 0 01-3.202 1.74 25.22 25.22 0 00-5.847 3.677c-3.465 3.013-6.201 6.703-8.02 10.814-1.77 4.094.042 8.387 2.599 11.99a50.476 50.476 0 009.451 9.659l.029.022c.232.185.398.434.474.713.076.278.059.572-.049.84a1.4 1.4 0 01-.554.659c-.253.159-.551.24-.854.23a40.025 40.025 0 01-14.347-3.7 102.09 102.09 0 01-12.804-6.572c-4.109-2.418-8.054-5.06-11.914-7.793-3.86-2.737-7.637-5.56-11.248-8.597l-.03-.025a.478.478 0 01-.114-.611 453.159 453.159 0 014.31-7.484.16.16 0 01.095-.073.174.174 0 01.122.01.16.16 0 01.082.085.155.155 0 01-.003.116z" fill="#000"/><path d="M221.873 63.45a26.782 26.782 0 017.735-4.741c8.733-3.824 9.042-20.591 9.042-33.843 0-14.623-12.032-19.26-12.032-19.26s15.792-3.21 15.792 24.253 12.407 28.89 12.407 28.89-32.926 19.937-39.478 13.16l6.534-8.459zm-12.31-40.83a7.549 7.549 0 013.011-1.611 11.662 11.662 0 013.448-.481c1.164.019 2.319.206 3.424.555a9.649 9.649 0 013.036 1.537c-1.164-.079-2.235-.252-3.309-.343a35.654 35.654 0 00-3.174-.185 30.963 30.963 0 00-3.166.109 38.848 38.848 0 00-3.27.419z" fill="#000"/><path d="M229.25 22.62a7.186 7.186 0 012.236-.977 10.756 10.756 0 012.396-.358 9.452 9.452 0 012.443.247 5.185 5.185 0 012.219 1.088c-1.676.1-3.085.175-4.61.229a23.55 23.55 0 01-4.684-.23zm-13.911 9a1.906 1.906 0 001.272-.537c.334-.328.521-.767.521-1.224a1.72 1.72 0 00-.521-1.225 1.906 1.906 0 00-1.272-.536 1.902 1.902 0 00-1.272.536 1.715 1.715 0 00-.522 1.225c0 .457.187.896.522 1.224.334.329.79.521 1.272.537zm-20.25 9.36a1.906 1.906 0 001.272-.537c.334-.329.521-.767.521-1.224a1.72 1.72 0 00-.521-1.225 1.907 1.907 0 00-1.272-.536 1.902 1.902 0 00-1.272.536 1.714 1.714 0 00-.522 1.225c0 .456.187.895.522 1.224.334.329.79.521 1.272.537zm37.169-10.073a1.907 1.907 0 001.272-.537c.335-.328.522-.767.522-1.224 0-.457-.187-.896-.522-1.225a1.907 1.907 0 00-1.272-.537 1.907 1.907 0 00-1.272.537 1.715 1.715 0 00-.522 1.225c0 .457.187.896.522 1.224.335.329.791.521 1.272.537zm-12.032 13.218a19.035 19.035 0 006.065 1.385 9.682 9.682 0 002.947-.33 23.94 23.94 0 003.02-1.055 6.472 6.472 0 01-2.547 2.191 7.562 7.562 0 01-1.671.605 9.49 9.49 0 01-1.794.153 8.33 8.33 0 01-3.409-.848 7.018 7.018 0 01-2.611-2.101zm2.256-8.203a20.884 20.884 0 003.192 1.978c.527.26 1.075.477 1.64.65.587.204 1.215.333 1.936.582a3.975 3.975 0 01-2.104.63 4.726 4.726 0 01-2.216-.465 4.643 4.643 0 01-1.715-1.398 3.363 3.363 0 01-.733-1.977zm15.791 77.821a.857.857 0 01-.529-.181.775.775 0 01-.282-.461c-.582-3.036-9.018-12.336-12.219-15.663a.759.759 0 01-.213-.562.77.77 0 01.268-.54.851.851 0 01.592-.205c.218.01.424.1.571.252 1.212 1.258 11.852 12.41 12.624 16.437a.746.746 0 01-.133.586.81.81 0 01-.531.325.923.923 0 01-.148.012zm-62.411-42.51c-6.326 6.627-11.447 14.204-15.154 22.423a69.899 69.899 0 00-6.205 25.622c-.052 2.204.035 4.394.051 6.622.085 2.208.258 4.432.429 6.648.347 4.425.944 8.829 1.789 13.194.396 2.195.943 4.278 1.547 6.46a69.611 69.611 0 011.544 6.693 74.366 74.366 0 011.224 13.626l-.633-.894c3.575 1.442 7.31 2.718 11.043 3.91 3.749 1.174 7.558 2.183 11.396 3.137-1.962-.268-3.935-.515-5.88-.892a146.802 146.802 0 01-5.831-1.186 107.046 107.046 0 01-11.499-3.18.942.942 0 01-.44-.309.873.873 0 01-.188-.488l-.006-.098a82.06 82.06 0 00-1.876-13.139c-.485-2.164-1.026-4.315-1.695-6.427-.662-2.147-1.325-4.413-1.79-6.638a116.97 116.97 0 01-2.374-27.173c.556-9.174 3.04-18.15 7.305-26.401 4.216-8.167 10.073-15.474 17.243-21.51zm6.749 23.739a45.226 45.226 0 0120.733 2.218c6.712 2.258 12.752 6.019 17.605 10.963a59.51 59.51 0 016.324 7.985 92.742 92.742 0 014.926 8.724 103.759 103.759 0 017.172 18.546.952.952 0 01-.042.629c-.085.2-.236.369-.431.481l-.084.048c-3.533 2.031-7.13 3.922-10.754 5.785a426.931 426.931 0 01-11.011 5.35c-3.724 1.695-7.491 3.328-11.402 4.698-1.959.682-3.931 1.351-5.995 1.863-1.05.273-2.116.484-3.193.635a8.887 8.887 0 01-3.765-.119 1.406 1.406 0 01-.503-.265 1.308 1.308 0 01-.345-.438 499.79 499.79 0 01-4.803-10.379 280.368 280.368 0 01-4.563-10.491.146.146 0 010-.114.158.158 0 01.081-.084.171.171 0 01.215.06c2.051 3.25 4.039 6.53 5.964 9.838a467.313 467.313 0 015.724 9.95l-.847-.702a6.839 6.839 0 002.343-.14c.946-.182 1.88-.417 2.797-.706a82.848 82.848 0 005.642-1.951 360.483 360.483 0 0011.186-4.616c7.445-3.178 14.787-6.646 22.149-10.04l-.557 1.158a66.082 66.082 0 00-5.878-18.589 47.858 47.858 0 00-5.297-8.304 60.68 60.68 0 00-6.85-7.104 60.708 60.708 0 00-16.762-10.356 59.323 59.323 0 00-19.745-4.222h-.016a.167.167 0 01-.109-.045.148.148 0 01-.049-.103.147.147 0 01.036-.107.168.168 0 01.104-.056z" fill="#000"/><path d="M213.384 80.522a16.595 16.595 0 018.87 1.78c2.754 1.407 5.088 3.453 6.784 5.946a23.56 23.56 0 013.411 8.101 60.13 60.13 0 01.596 4.288c-.01 1.444.035 2.875-.027 4.299-.312-1.409-.516-2.811-.775-4.2l-1.044-4.093-.711-1.976-.343-.988c-.137-.32-.306-.627-.457-.94l-.899-1.883-1.131-1.752a19.467 19.467 0 00-6.132-5.796 20.64 20.64 0 00-8.142-2.786zm-23.596-13.297a62.81 62.81 0 005.592 2.887 61.09 61.09 0 005.786 2.327 63.289 63.289 0 005.999 1.782c2.034.522 4.105.915 6.219 1.357a28.02 28.02 0 01-6.474-.16 31.999 31.999 0 01-12.155-4.243 21.602 21.602 0 01-4.967-3.95zm46.56 77.397a136.113 136.113 0 019.913 12.257 132.572 132.572 0 018.556 13.146 134.53 134.53 0 01-9.913-12.257 134.131 134.131 0 01-8.556-13.146z" fill="#000"/><path d="M229.688 121.318c3.06-3.418 6.231-6.738 9.471-9.995a319.97 319.97 0 019.962-9.552c3.415-3.097 6.86-6.17 10.494-9.067 1.838-1.425 3.677-2.855 5.653-4.148.987-.65 1.984-1.29 3.043-1.882a18.16 18.16 0 011.663-.838 5.903 5.903 0 012.138-.564.788.788 0 01.362.063l.02.009c3.244 1.422 6.437 2.934 9.683 4.334a588.853 588.853 0 009.749 4.175l9.795 4.112a139.33 139.33 0 014.867 2.184c.809.38 1.612.782 2.415 1.218.403.231.799.445 1.21.729.224.142.435.301.631.476.114.106.213.183.336.317.154.204.281.425.381.657a.9.9 0 01-.008.728.933.933 0 01-.22.306 1.007 1.007 0 01-.327.204l-.098.032-.214.057a110.938 110.938 0 00-19.803 7.713c-3.191 1.549-6.259 3.316-9.301 5.106l-4.511 2.77-4.389 2.944a147.655 147.655 0 00-16.43 13.194c-2.688 2.286-5.044 4.877-7.536 7.366-2.458 2.518-4.669 5.237-7.096 7.822l-.008.009a.172.172 0 01-.223.02.159.159 0 01-.063-.097.154.154 0 01.023-.112 241.34 241.34 0 012.996-4.339c1.042-1.419 1.944-2.949 3.129-4.269 2.288-2.7 4.437-5.534 6.972-8.051 1.248-1.273 2.46-2.585 3.744-3.83l3.989-3.606c1.307-1.229 2.724-2.341 4.142-3.453 1.438-1.086 2.791-2.279 4.302-3.279a109.3 109.3 0 0118.802-10.934 92.43 92.43 0 0120.798-7.081l-.866 1.327a.088.088 0 00.002.062c.009.02.025.036.045.046l-.131-.135a2.74 2.74 0 00-.389-.339c-.288-.238-.65-.473-.992-.703-.71-.457-1.45-.901-2.207-1.326a116.99 116.99 0 00-4.634-2.457 172.115 172.115 0 00-9.558-4.496 224.522 224.522 0 00-9.796-4.036c-3.289-1.292-6.647-2.44-9.974-3.631l.381.072a5.273 5.273 0 00-1.19.488c-.478.259-.942.541-1.39.845a45.699 45.699 0 00-2.722 1.994 218.136 218.136 0 00-5.292 4.333 782.26 782.26 0 00-10.502 8.884l-10.477 8.973a824.844 824.844 0 01-10.617 8.871.17.17 0 01-.225-.006.16.16 0 01-.049-.105.157.157 0 01.04-.109z" fill="#000"/><path d="M251.81 110.463l9.022 8.491 15.04-11.7-9.775-7.49-14.287 10.699zm47.383-3.218a40.5 40.5 0 015.606 4.904c.868.92 1.672 1.893 2.408 2.912a8.147 8.147 0 011.615 3.893c.025.261-.044.522-.196.74-.153.219-.38.381-.643.46l-.182.055c-.989.297-1.993.542-2.988.816-1 .259-1.991.551-2.998.783l.712-2.31c.8.865 1.515 1.798 2.135 2.787a21.31 21.31 0 011.613 3.001 25.439 25.439 0 011.876 6.438l.011.069a.617.617 0 01-.128.481.675.675 0 01-.45.254l-.049.006a52.824 52.824 0 00-16.178 4.095 167.149 167.149 0 00-15.026 6.999c-4.81 2.643-9.57 5.354-14.114 8.409-4.64 2.948-8.916 6.348-13.386 9.696a.172.172 0 01-.234-.015.156.156 0 01-.038-.098.155.155 0 01.031-.101 68.949 68.949 0 0111.798-11.758 77.38 77.38 0 016.892-4.891c1.18-.779 2.458-1.407 3.682-2.117a39.614 39.614 0 013.796-1.925 79.9 79.9 0 0115.986-5.877c5.532-1.403 11.001-2.612 16.631-3.758l-.616.809a23.427 23.427 0 00-2.677-5.667 38.52 38.52 0 00-1.782-2.576c-.631-.81-1.3-1.675-1.948-2.357a1.39 1.39 0 01-.344-.628 1.347 1.347 0 01.019-.707c.07-.231.2-.441.379-.61.178-.17.399-.294.642-.36l.017-.004c.997-.268 2.012-.473 3.017-.713 1.009-.225 2.011-.478 3.027-.68l-1.021 1.254a6.57 6.57 0 00-.964-2.73c-.537-.998-1.195-1.971-1.857-2.953-1.36-1.945-2.829-3.868-4.307-5.805a.15.15 0 01-.032-.117.154.154 0 01.065-.104.177.177 0 01.2 0z" fill="#000"/><path d="M245.583 157.323a115.755 115.755 0 0111.442-12.364 123.664 123.664 0 0113.082-10.861 93.887 93.887 0 0114.782-8.73 57.96 57.96 0 0116.55-4.918c-1.388.397-2.773.777-4.155 1.141l-1.035.276-1.002.38-1.999.758-2.005.727c-.654.277-1.292.59-1.939.882-1.278.615-2.597 1.142-3.836 1.825a121.924 121.924 0 00-14.367 8.907c-4.604 3.244-8.93 6.834-13.203 10.48a154.165 154.165 0 00-6.253 5.643c-2.081 1.892-4.075 3.864-6.062 5.854zM162.816 173.5a27.977 27.977 0 01.823 8.699 24.93 24.93 0 01-.629 4.362 8.862 8.862 0 01-1.939 4.032 19.25 19.25 0 00.666-4.22l.255-4.256c.111-2.885.386-5.761.824-8.617zM61.06 537.502s1.92-24.252 8.354-26.154c0 0 38.518 46.603 56.064 39.945 0 0 5.264-3.329 2.005-10.937 0 0 30.33 26.868 30.33 32.812 0 5.944-26.821 13.791-50.633 0-23.813-13.791-25.818-23.777-25.818-23.777l-2.256 5.706-19.05-1.902 1.003-15.693zM75.467 505a10.8 10.8 0 01-2.415 3.699 11.266 11.266 0 01-3.637 2.648 10.87 10.87 0 012.415-3.699A11.59 11.59 0 0175.467 505zm42.808 19.207c1.566 2.769 2.901 5.531 4.364 8.236.721 1.355 1.486 2.68 2.265 4.007a87.145 87.145 0 002.579 3.905c-2.717-1.85-4.891-4.329-6.314-7.202a29.357 29.357 0 01-1.868-4.351 20.2 20.2 0 01-1.026-4.595zm186.674 19.001s51.263 5.344 66.187-10.64c.9-.96 1.5-2.138 1.733-3.402a6.58 6.58 0 00-.412-3.758 6.977 6.977 0 00-2.434-2.991 7.53 7.53 0 00-3.729-1.329 62.044 62.044 0 00-14.974.959s48.377-15.456 53.891-11.651c5.515 3.804 4.262 40.183-68.429 47.554l8.522 14.98-26.569 8.56s-1.003-13.316-6.016-17.12c-5.013-3.804-11.28-12.602-7.77-21.162z" fill="#000"/><path d="M336.782 499.221c.501 2.375 1.107 4.701 1.762 6.995a45.24 45.24 0 002.482 6.665 20.06 20.06 0 003.937 5.806c1.707 1.71 3.926 2.883 6.357 3.36-2.658.1-5.254-.785-7.237-2.467a17.263 17.263 0 01-4.561-6.055 29.352 29.352 0 01-2.229-7.038 29.878 29.878 0 01-.511-7.266zm-51.842 3.025c7.662 3.791 13.85 9.8 17.666 17.155a38.04 38.04 0 012.332 5.722 32.229 32.229 0 011.088 6.037c.123 1.011.177 2.029.161 3.046l-.142 3.043a18.377 18.377 0 01-.471 3 88.668 88.668 0 01-.625 2.96 46.765 46.765 0 00-.184-11.908 40.651 40.651 0 00-1.326-5.76 39.168 39.168 0 00-2.317-5.457 44.09 44.09 0 00-6.871-9.818 50.417 50.417 0 00-4.407-4.236 45.432 45.432 0 00-4.904-3.784zm-89.459-340.548a145.632 145.632 0 01-18.153 26.639c-1.733 2.083-3.561 4.094-5.41 6.082-1.844 1.992-3.728 3.96-5.702 5.843a112.094 112.094 0 01-12.601 10.614l.637-1.271c-.008.13-.022.259-.042.387l.013-.12c-.865 6.92-1.704 13.867-2.133 20.826-.22 3.48-.343 6.963-.389 10.445-.027 3.48.014 6.97.287 10.407l-.321-.688a62.972 62.972 0 0012.577 7.904 48.974 48.974 0 0013.943 4.476c4.684.769 9.501.288 13.913-1.39 4.369-1.785 8.231-4.522 11.273-7.991a53.356 53.356 0 008.088-11.686 105.31 105.31 0 005.907-13.21c3.388-9.108 5.785-18.6 8.239-28.129a.235.235 0 01.107-.148.24.24 0 01.09-.034.244.244 0 01.097.001.258.258 0 01.145.09.234.234 0 01.051.158 146.413 146.413 0 01-4.895 29.194 90.91 90.91 0 01-5.31 14.118c-.572 1.14-1.114 2.292-1.737 3.412l-2.015 3.306a33.89 33.89 0 01-2.248 3.199l-1.182 1.572c-.419.508-.903.977-1.352 1.466a36.918 36.918 0 01-6.043 5.362 30.09 30.09 0 01-7.393 3.79 31.512 31.512 0 01-16.507 1.12 45.633 45.633 0 01-14.9-5.758 67.656 67.656 0 01-12.363-9.361l-.039-.037a.903.903 0 01-.283-.652c.013-3.538.152-7.029.297-10.525l.375-10.477c.225-6.984.198-13.973.295-20.98l.013-.12a.15.15 0 00-.009.073l.637-1.27c3.959-3.487 7.779-7.294 11.606-10.999a359.108 359.108 0 0011.191-11.468 335.93 335.93 0 0010.636-11.98c3.453-4.08 6.822-8.235 10.189-12.436a.252.252 0 01.152-.09.272.272 0 01.177.031.235.235 0 01.108.136.22.22 0 01-.015.169h-.001zm23.176-53.175a.871.871 0 01-.472-.14.792.792 0 01-.341-.504.746.746 0 01.006-.305 136.848 136.848 0 002.56-14.932.763.763 0 01.304-.526.847.847 0 01.607-.168.86.86 0 01.308.092.804.804 0 01.395.468c.03.1.039.203.027.305a138.35 138.35 0 01-2.589 15.094.773.773 0 01-.288.443.851.851 0 01-.517.173z" fill="#000"/><path d="M198.278 161.012c5.91 11.727 13.268 22.745 21.919 32.824a61.674 61.674 0 007.036 6.969 38.043 38.043 0 008.379 5.469 28.286 28.286 0 009.747 2.627c3.366.261 6.754-.06 9.999-.946a25.798 25.798 0 008.703-4.363 29.87 29.87 0 006.472-7.021 54.256 54.256 0 007.08-17.734 140.748 140.748 0 002.608-38.75.15.15 0 01.04-.114.172.172 0 01.225-.02.166.166 0 01.062.092 95.968 95.968 0 01.508 39.491c-1.347 6.649-4.041 12.986-7.935 18.661a29.715 29.715 0 01-7.477 7.374 26.155 26.155 0 01-9.848 4.047c-6.976 1.289-14.203.44-20.637-2.424-6.395-2.815-12.166-6.757-17.007-11.618a78.947 78.947 0 01-12.1-16.231 91.48 91.48 0 01-8.084-18.224.152.152 0 01.055-.166.17.17 0 01.057-.029.176.176 0 01.198.086zm-39.365 88.28a2.545 2.545 0 001.696-.716 2.29 2.29 0 00.696-1.633c0-.609-.25-1.194-.696-1.632a2.54 2.54 0 00-1.696-.716 2.54 2.54 0 00-1.695.716 2.284 2.284 0 00-.696 1.632c0 .609.249 1.195.696 1.633a2.544 2.544 0 001.695.716zm12.477 6.762a2.539 2.539 0 001.696-.715 2.289 2.289 0 00.695-1.633c0-.609-.249-1.194-.695-1.632a2.54 2.54 0 00-1.696-.716 2.54 2.54 0 00-1.696.716 2.287 2.287 0 00-.695 1.632c0 .609.249 1.195.695 1.633a2.539 2.539 0 001.696.715zm14.853 2.255a2.54 2.54 0 001.696-.716 2.288 2.288 0 00.696-1.633c0-.609-.25-1.194-.696-1.632a2.54 2.54 0 00-1.696-.716 2.542 2.542 0 00-1.696.716 2.287 2.287 0 00-.695 1.632c0 .61.249 1.195.695 1.633a2.542 2.542 0 001.696.716zm14.853-9.581a2.545 2.545 0 001.696-.716 2.29 2.29 0 00.696-1.633c0-.609-.25-1.194-.696-1.632a2.54 2.54 0 00-1.696-.716 2.54 2.54 0 00-1.695.716 2.288 2.288 0 00-.696 1.632c0 .609.25 1.195.696 1.633a2.544 2.544 0 001.695.716zm8.318-14.654a2.539 2.539 0 001.696-.715 2.289 2.289 0 00.695-1.633c0-.609-.249-1.194-.695-1.632a2.54 2.54 0 00-1.696-.716 2.54 2.54 0 00-1.696.716 2.287 2.287 0 00-.695 1.632c0 .609.249 1.195.695 1.633a2.539 2.539 0 001.696.715zm4.753-12.399a2.535 2.535 0 001.696-.716 2.287 2.287 0 00.695-1.632c0-.609-.249-1.194-.695-1.632a2.535 2.535 0 00-1.696-.716 2.54 2.54 0 00-1.696.716 2.287 2.287 0 00-.695 1.632c0 .609.249 1.194.695 1.632a2.54 2.54 0 001.696.716zm4.753-14.653a2.54 2.54 0 001.696-.716 2.288 2.288 0 00.696-1.632c0-.609-.25-1.194-.696-1.633a2.539 2.539 0 00-1.696-.715 2.543 2.543 0 00-1.696.715 2.29 2.29 0 00-.695 1.633c0 .609.249 1.194.695 1.632a2.544 2.544 0 001.696.716zM29.43 317.436a97.968 97.968 0 00-3.969 12.814 100.26 100.26 0 00-2.34 13.13 93.06 93.06 0 00-.541 13.267 69.633 69.633 0 001.774 13.122c2.892 13.081 10.346 24.856 21.16 33.424a66.007 66.007 0 005.527 4.112c.922.695 1.945 1.244 2.929 1.852l2.966 1.815c-8.502-4.009-16.023-9.667-22.074-16.608l-2.197-2.667-1.945-2.839c-.681-.928-1.202-1.946-1.782-2.932a31.186 31.186 0 01-1.614-3.019 56.993 56.993 0 01-4.58-12.803 74.555 74.555 0 01-.879-26.866 90.81 90.81 0 017.565-25.802zM1.306 355.504a96.762 96.762 0 00.604 13.344 100.225 100.225 0 002.252 13.144 94.283 94.283 0 004.002 12.722 71.714 71.714 0 006.144 11.878c7.187 11.495 18.25 20.358 31.4 25.156a68.826 68.826 0 006.63 2.201c1.108.375 2.263.581 3.402.855l3.424.811c-9.411-1.192-18.454-4.245-26.543-8.961l-2.986-1.852-2.807-2.092c-.96-.67-1.8-1.474-2.684-2.23a32.772 32.772 0 01-2.556-2.363 59.527 59.527 0 01-8.69-10.716c-4.824-7.78-8.197-16.292-9.972-25.159a89.81 89.81 0 01-1.62-26.738zm358.472-66.28a97.081 97.081 0 002.259-13.183 99.91 99.91 0 00.603-13.305 93.138 93.138 0 00-1.202-13.227 70.11 70.11 0 00-3.48-12.812c-4.582-12.639-13.522-23.444-25.374-30.67a67.213 67.213 0 00-6.023-3.429c-1.005-.581-2.092-1.005-3.149-1.492l-3.18-1.452c8.961 2.976 17.165 7.704 24.078 13.877l2.529 2.388 2.302 2.587c.798.841 1.448 1.79 2.153 2.7a31.66 31.66 0 011.997 2.806 57.754 57.754 0 016.221 12.163 74.84 74.84 0 014.392 26.555 90.106 90.106 0 01-4.126 26.494zm22.918-41.089a97.174 97.174 0 00-2.347-13.17 101.138 101.138 0 00-3.956-12.777 95.64 95.64 0 00-5.638-12.152 72.958 72.958 0 00-7.652-11.06c-8.638-10.56-20.775-18.05-34.452-21.261a69.493 69.493 0 00-6.867-1.401c-1.149-.242-2.322-.311-3.488-.448l-3.504-.401c9.495.074 18.867 2.037 27.512 5.763l3.205 1.485 3.059 1.745c1.042.552 1.98 1.251 2.956 1.896a33.31 33.31 0 012.845 2.044 60.661 60.661 0 0110.027 9.608c5.806 7.152 10.268 15.199 13.191 23.789a90.229 90.229 0 015.109 26.34z" fill="#000"/></svg>