<svg width="519" height="412" fill="none" xmlns="http://www.w3.org/2000/svg"><path d="M207.678 103.073s4.399-2.502 8.505 1.946c0 0 7.333-9.876 38.422-1.324 0 0-4.106 7.441-7.039 7.441s5.572 12.789 13.491 12.233c0 0 13.492 18.628 3.226 36.699-10.117 17.812-17.386 23.47-27.421 11.916a7.41 7.41 0 00-1.026-.984c-2.886-2.256-15.663-11.636-20.191-4.642a6.51 6.51 0 00-.768 5.153c2.067 8.207 11.733 38.432 39.728 26.369 0 0 32.624-11.598 24.929-39.072a33.381 33.381 0 00-3.551-7.988 20.68 20.68 0 01-2.681-8.298 20.409 20.409 0 011.004-8.625c1.179-3.964 3.84-7.385 7.485-9.626 3.534-2.09 8.193-3.024 11.722 2.819a15.523 15.523 0 012.234 7.977c.007 2.561-.496 5.701-2.721 7.208l2.721 5.004a34.212 34.212 0 015.623-7.858c3.769-3.619 6.189-8.303 6.895-13.344.997-7.996-.203-19.934-10.253-33.847 0 0-13.492-25.578-38.715-25.022-25.223.556-46.926 6.95-51.619 35.865z" fill="#000"/><path d="M249.912 136.436a49.703 49.703 0 00-13.369-1.044c-2.26.106-4.502.429-6.694.962a13.838 13.838 0 00-6.04 2.862 21.382 21.382 0 016.303-1.682 70.332 70.332 0 016.527-.601c4.385-.258 8.794-.278 13.273-.497zm-42.234-.397a12.23 12.23 0 014.358 2.276 5.315 5.315 0 011.439 1.719c.346.662.542 1.386.574 2.125a11.595 11.595 0 01-1.236 4.365l-1.918 4.47a25.851 25.851 0 00-2.452 9.582c.002.872.171 1.736.498 2.551a5.103 5.103 0 001.664 2.096 8.364 8.364 0 005.04 1.135 8.625 8.625 0 01-4.529-1.717 5 5 0 01-1.175-1.88 4.792 4.792 0 01-.227-2.176 17.63 17.63 0 01.987-4.544c.493-1.505 1.082-2.997 1.71-4.483.603-1.497 1.255-2.985 1.841-4.518.281-.774.566-1.546.786-2.362a6.26 6.26 0 00.274-2.609 5.763 5.763 0 00-.88-2.467 6.133 6.133 0 00-1.903-1.877 11.351 11.351 0 00-4.851-1.686z" fill="#000"/><path d="M207.678 103.073a105.863 105.863 0 00-1.226 9.399 128.216 128.216 0 00-.566 9.463c-.052 3.163-.002 6.332.259 9.503a25.949 25.949 0 002.249 9.392.426.426 0 00.073.101 38.565 38.565 0 012.894 3.309c.446.578.843 1.188 1.187 1.826.382.62.535 1.344.434 2.057a2.994 2.994 0 00-.12-2.18 13.63 13.63 0 00-.981-2.015 24.844 24.844 0 00-2.646-3.646l.074.101a17.456 17.456 0 01-1.127-4.418c-.254-1.525-.357-3.082-.478-4.633-.194-3.115-.228-6.248-.247-9.383.001-6.275.146-12.562.221-18.876zm17.597 54.493c.31.603.56 1.233.748 1.88.191.597.232 1.229.122 1.845a3.03 3.03 0 01-.808 1.638c-.461.505-.972.966-1.528 1.377.355-.1.704-.219 1.046-.356.332-.173.645-.377.934-.61a3.3 3.3 0 001.158-1.921 3.822 3.822 0 00-.337-2.171 4.61 4.61 0 00-1.335-1.682zm67.751-15.291a14.651 14.651 0 00-2.401 4.003 10.543 10.543 0 00-.665 2.287 5.955 5.955 0 00-.086 1.243l.009.32-.02.174a.578.578 0 01-.075.325 2.309 2.309 0 01-1.245 1.121c-.651.316-1.338.562-2.046.735a20.635 20.635 0 01-4.616.635c1.54.572 3.21.762 4.85.55a9.006 9.006 0 002.486-.604 3.821 3.821 0 001.253-.757c.36-.328.649-.72.849-1.155.105-.244.157-.507.151-.771l.006-.39-.012-.244a6.403 6.403 0 01.023-1.008c.065-.713.183-1.42.352-2.117.332-1.428.77-2.864 1.187-4.347zm2.721 5.004a29.814 29.814 0 002.751 6.47 31.948 31.948 0 004.134 5.829c1.6 1.827 3.498 3.4 5.622 4.659a14.955 14.955 0 007.071 2.039 20.903 20.903 0 01-6.361-3.039 30.948 30.948 0 01-5.092-4.66 53.895 53.895 0 01-4.286-5.443c-1.315-1.907-2.621-3.841-3.839-5.855zm-21.492 65.058a26.405 26.405 0 01-5.222-2.897 44.021 44.021 0 01-4.553-3.7c-1.473-1.289-2.794-2.731-4.166-4.142l-1.997-2.186c-.65-.746-1.299-1.497-2.014-2.217.408.902.883 1.773 1.357 2.649.536.837 1.063 1.687 1.653 2.497a31.238 31.238 0 004.038 4.512 25.532 25.532 0 004.995 3.596 14.781 14.781 0 005.909 1.888z" fill="#000"/><path d="M303.597 159.077a23.093 23.093 0 015.344-5.354 3.415 3.415 0 011.521-.726 3.516 3.516 0 011.702.078 4.59 4.59 0 011.964 2.647c.401 1.152.689 2.336.862 3.537.088.597.165 1.219.222 1.794-.004.547-.054 1.19-.112 1.787a40.038 40.038 0 01-1.433 7.251 51.265 51.265 0 01-5.956 13.749 63.503 63.503 0 01-9.604 11.834 131.987 131.987 0 01-5.718 5.14c-2.024 1.583-3.958 3.284-6.066 4.737-1.016.779-2.137 1.41-3.198 2.123-1.124.612-2.203 1.308-3.374 1.828a32.089 32.089 0 01-7.162 2.661c-4.983 1.253-10.277.726-14.876-1.48-4.622-2.339-8.504-5.801-11.248-10.032a.08.08 0 00-.048-.038.089.089 0 00-.062.005.08.08 0 00-.035.103c2.387 4.594 6.138 8.427 10.792 11.026a22.076 22.076 0 007.722 2.455c2.726.305 5.487.139 8.15-.491a30.568 30.568 0 007.562-2.787c1.212-.57 2.312-1.309 3.462-1.968 1.079-.755 2.221-1.433 3.245-2.25 2.146-1.528 4.025-3.313 6.011-4.99 1.013-.817 1.872-1.792 2.802-2.691.896-.931 1.866-1.794 2.698-2.779a97.107 97.107 0 009.431-12.132 58.585 58.585 0 006.771-13.676 34.063 34.063 0 001.559-7.483c.045-.651.085-1.258.07-1.964a36.42 36.42 0 00-.281-1.931 20.105 20.105 0 00-1.015-3.751 5.172 5.172 0 00-1.017-1.843 5.5 5.5 0 00-1.69-1.326 3.464 3.464 0 00-2.283-.044 6.36 6.36 0 00-1.864.967 20.064 20.064 0 00-4.987 5.933.063.063 0 00-.01.029.061.061 0 00.002.03c.003.01.008.019.014.027a.091.091 0 00.024.02c.019.009.04.011.06.006a.085.085 0 00.049-.031zm75.505 21.009a12.758 12.758 0 00-5.619 3.185 16.404 16.404 0 00-3.75 5.2 16.26 16.26 0 00-1.301 9.222c.186 1.021.471 2.022.85 2.993.38-1.004.551-1.974.831-2.921.299-.942.479-1.88.812-2.776a41.735 41.735 0 011.951-5.225 36.85 36.85 0 012.693-4.891 47.111 47.111 0 013.533-4.787zm-7.474 38.924c-.66 7.21-.982 14.417-1.185 21.624-.224 7.208-.248 14.414-.234 21.619.079 7.206.201 14.411.522 21.615.3 7.204.722 14.407 1.484 21.608.664-7.21.988-14.418 1.19-21.625.224-7.207.248-14.413.229-21.619-.083-7.205-.205-14.41-.527-21.614-.301-7.204-.721-14.407-1.479-21.608zm-156.851-47.63a413.885 413.885 0 00-18.48 11.629 451.797 451.797 0 00-9.001 6.147l-4.429 3.207a19 19 0 00-2.188 1.815l-1.053 1.042-.885 1.065a78.862 78.862 0 00-6.268 8.827 354.993 354.993 0 00-5.525 9.141 601.573 601.573 0 01-10.936 18.278 460.603 460.603 0 01-5.736 8.983l-2.913 4.46a23.484 23.484 0 01-3.061 4.075c-1.242 1.154-2.72 2.298-4.006 3.735-1.523 1.504-2.441 3.468-2.592 5.548.116 2.133 1.096 4.141 2.736 5.605a28.35 28.35 0 002.209 1.908c.689.527 1.359 1.08 2.015 1.651 1.319 1.148 2.531 2.354 3.765 3.651a121.46 121.46 0 003.876 3.854 88.4 88.4 0 008.47 7.067 48.951 48.951 0 009.842 5.592 23.9 23.9 0 005.744 1.507c2.074.292 4.192.117 6.183-.509.317-.091.587-.29.759-.559l.011-.018c1.286-2.019 2.694-4.033 4.118-6.004a108.862 108.862 0 014.47-5.797 66.201 66.201 0 015.006-5.354 17.193 17.193 0 016.116-4.011l.013-.004a.172.172 0 00.095-.078.158.158 0 00-.062-.213.178.178 0 00-.124-.021 16.91 16.91 0 00-6.85 3.451 50.106 50.106 0 00-5.646 5.047 100.762 100.762 0 00-9.636 11.483l.77-.576a14.997 14.997 0 01-9.593-1.322 45.43 45.43 0 01-8.982-5.376 96.62 96.62 0 01-8.189-6.748 118.002 118.002 0 01-3.87-3.647c-1.273-1.27-2.646-2.567-4.082-3.749a45.292 45.292 0 00-2.224-1.725c-.692-.547-1.349-1.014-1.928-1.572a5.715 5.715 0 01-2.062-3.578 6.16 6.16 0 011.719-3.883c1.05-1.28 2.375-2.439 3.661-3.832.34-.364.657-.746.951-1.143l.743-1.191 1.336-2.325 2.613-4.637a440.375 440.375 0 015.281-9.229c3.605-6.104 7.405-12.107 11.521-17.913 4.081-5.798 8.22-11.667 12.641-17.024l.836-.99.871-.845a16.07 16.07 0 011.939-1.673l4.307-3.243 8.697-6.473a615.104 615.104 0 0017.208-13.243.162.162 0 00.06-.105.162.162 0 00-.031-.116.177.177 0 00-.23-.042z" fill="#000"/><path d="M191.84 223.829c2.999 10.684 5.832 21.395 8.197 32.148a119.564 119.564 0 012.544 16.164c.162 2.613.179 5.498.421 8.295a45.805 45.805 0 001.504 8.444c1.8 5.47 4.685 10.563 8.5 15.008 1.763 2.228 3.63 4.383 5.379 6.548.841 1.075 1.694 2.142 2.45 3.292.81 1.11 1.542 2.277 2.271 3.448a133.86 133.86 0 017.682 14.711c2.372 5.026 4.416 10.19 6.415 15.386a130.626 130.626 0 00-11.759-31.328 55.837 55.837 0 00-4.659-7.219c-1.727-2.265-3.497-4.426-5.165-6.66-3.509-4.182-6.16-8.949-7.815-14.057a42.832 42.832 0 01-1.472-7.853c-.272-2.706-.263-5.349-.526-8.244a104.612 104.612 0 00-3.171-16.49 247.693 247.693 0 00-10.796-31.593zM62.58 368.512a2.638 2.638 0 001.818-.712 2.375 2.375 0 00.754-1.722c0-.646-.27-1.266-.752-1.723a2.647 2.647 0 00-1.816-.715l-59.826-.074h-.003a2.68 2.68 0 00-.984.184 2.6 2.6 0 00-.834.528 2.426 2.426 0 00-.558.79 2.324 2.324 0 00-.001 1.864c.129.296.318.565.556.791.239.227.522.406.834.529.312.122.646.186.983.186l59.826.074h.003zm380.579-1.616l75.433.675-.049 4.872-75.433-.675.049-4.872zm-209.085-220.08a2.504 2.504 0 01-1.674-.707 2.253 2.253 0 01-.687-1.61c0-.601.246-1.179.687-1.611a2.508 2.508 0 011.674-.706 2.512 2.512 0 011.675.706c.44.432.686 1.01.686 1.611s-.246 1.178-.686 1.61a2.509 2.509 0 01-1.675.707z" fill="#000"/><path d="M169.389 386.998c-8.638 5.582-18.358 9.484-28.597 11.48a68.717 68.717 0 01-15.439 1.048 71.245 71.245 0 01-15.234-2.45c-9.912-2.861-19.264-7.241-27.684-12.966a48.008 48.008 0 01-5.975-4.511 61.9 61.9 0 01-5.245-5.32 66.597 66.597 0 01-8.434-12.139l.164.657v-.05a1.37 1.37 0 00-.162-.62 66.605 66.605 0 01-4.93-11.732 59.067 59.067 0 01-2.413-12.461l-.007-.089-.01-.057c-.025-.083.004-.044-.024.108l.014-.256a56.202 56.202 0 013.714-25.164c3.217-8.02 8.2-15.298 14.615-21.351 6.34-5.949 13.874-10.633 22.157-13.776a70.026 70.026 0 0126.064-4.52 69.853 69.853 0 0125.867 5.448c8.152 3.436 15.494 8.386 21.594 14.557 6.117 6.194 10.878 13.476 14.007 21.425a63.51 63.51 0 014.267 25.174c0 .021.004.043.012.064a.18.18 0 00.036.055.18.18 0 00.123.052.186.186 0 00.121-.043.166.166 0 00.06-.109 58.547 58.547 0 00-2.571-25.859c-2.807-8.437-7.467-16.214-13.674-22.82-6.224-6.658-13.853-12.002-22.395-15.686-8.558-3.676-17.845-5.579-27.241-5.58a69.672 69.672 0 00-27.148 5.212c-8.563 3.524-16.248 8.717-22.554 15.241-6.246 6.44-11.116 13.965-14.342 22.161a66.31 66.31 0 00-4.587 25.68l.014-.255c-.038.197-.034.399.01.595l-.017-.145a60.1 60.1 0 001.813 13.024 57.843 57.843 0 004.654 12.415l-.162-.654v.016c-.004.218.047.434.148.63l.016.028a60.972 60.972 0 008.829 12.716 65.128 65.128 0 005.565 5.502 54.344 54.344 0 006.39 4.676c8.724 5.808 18.433 10.157 28.706 12.86a69.83 69.83 0 0031.609.732c10.307-2.33 19.999-6.641 28.476-12.667a.163.163 0 00.042-.231.183.183 0 00-.242-.045z" fill="#000"/><path d="M154.276 279.69c.47 1.195.866 2.406 1.264 3.611.39 1.208.772 2.414 1.114 3.631.382 1.202.69 2.426.993 3.652l.992 3.643-.05-.305c.004.138.032.275.083.404.062.158.157.302.28.425.123.121.27.219.434.286.163.067.339.103.517.105l-1.249-.9c.722 3.527 1.613 6.998 2.372 10.503.696 3.518 1.396 7.038 1.983 10.582.611 3.541 1.217 7.084 1.728 10.656.583 3.563 1.134 7.143 1.789 10.731.343-3.625.456-7.267.339-10.905a100.516 100.516 0 00-.788-10.893c-.479-3.613-1.056-7.223-1.895-10.784-.382-1.788-.894-3.552-1.421-5.309-.529-1.756-1.017-3.521-1.589-5.261l-1.249-.901a1.359 1.359 0 01.927.383c.119.119.211.26.272.414.05.125.077.257.081.391l-.051-.305c-.946-2.404-1.82-4.816-2.943-7.151a41.276 41.276 0 00-3.933-6.703zm-66.501 0a64.69 64.69 0 00-5.758 12.004c-.83 2.066-1.418 4.196-2.134 6.299-.635 2.12-1.164 4.268-1.746 6.405a158.163 158.163 0 00-3.905 26.164 200.897 200.897 0 00-.022 26.389c.284 4.387.804 8.758 1.247 13.124.71 4.345 1.326 8.693 2.143 13.008-.075-4.396-.37-8.759-.535-13.126l-.288-13.092c.024-2.18.035-4.359.019-6.537l-.012-3.265.123-3.263.182-6.524.425-6.509a226.443 226.443 0 013.13-25.885l1.322-6.396c.53-2.11.957-4.256 1.585-6.346a80.557 80.557 0 014.224-12.45zm34.754 85.804a14.856 14.856 0 01-2.673-3.411c.017 1.462.051 2.907.085 4.369a817.448 817.448 0 001.285 31.67 813.481 813.481 0 001.285-31.67c0-.325.018-.634.018-.958zm-.463-10.444s-1.131-1.283-2.364-2.972c.017 1.64.034 3.297.068 4.938a6.592 6.592 0 012.296-1.966zm-2.484-21.844v3.118l.051 7.65c1.083.083 2.152.285 3.187.601l.051-8.251v-3.118c-.068-20.611-.377-41.205-1.645-61.815-1.25 20.61-1.576 41.204-1.644 61.815z" fill="#000"/><path d="M181.991 308.364a145.034 145.034 0 00-29.701-8.904 172.063 172.063 0 00-31.091-3.13c-5.227-.148-10.445.25-15.659.525-2.597.275-5.185.632-7.775.945-1.293.173-2.592.299-3.878.51l-3.832.779a133.8 133.8 0 00-29.58 9.275 329.084 329.084 0 007.448-2.106l3.697-1.077c1.237-.341 2.517-.547 3.771-.826l7.517-1.658c2.523-.458 5.071-.804 7.6-1.211l3.798-.59c1.271-.159 2.553-.254 3.828-.385 2.553-.234 5.101-.513 7.654-.711 5.126-.179 10.242-.55 15.374-.352 10.273.084 20.525.886 30.673 2.399l7.607 1.249c2.517.504 5.053.953 7.564 1.504 5.05 1.017 10.029 2.317 14.985 3.764zm-59.24 62.392l-15.758-1.928c-5.213-.697-10.414-1.437-15.583-2.325-5.175-.842-10.33-1.838-15.475-2.884a275.071 275.071 0 00-7.705-1.696l-1.95-.38-1.916-.472c-1.282-.31-2.58-.598-3.892-.872 1.18.579 2.374 1.14 3.584 1.686a37.877 37.877 0 003.683 1.497c2.495.89 5.004 1.77 7.536 2.59 5.1 1.517 10.3 2.72 15.564 3.601a117.824 117.824 0 0031.912 1.183zm65.312-35.991a527.663 527.663 0 00-10.126-.487c.921.233 1.825.52 2.707.86 2.484-.113 4.952-.243 7.419-.373zm-133.673 0a956 956 0 0033.41 1.218c10.605.227 21.193.308 31.781.341h3.29c1.336 0 2.656-.016 3.992-.016-.137-1.348.565-2.241 2.553-2.339a7.712 7.712 0 014.831 1.527c.309.227.651.471 1.046.747 10.399-.065 20.793-.255 31.182-.569.042-.35.158-.688.34-.995.183-.307.428-.576.722-.791-14.889-.487-29.777-.633-44.666-.682h-3.29c-10.588.032-21.176.113-31.782.341a883.518 883.518 0 00-33.41 1.218z" fill="#000"/><path d="M159.896 293.885l.001.006.004.006.005.003a.02.02 0 00.007.001 40.629 40.629 0 013.684 8.949c.017.033.017.082.034.114 1.285 4.694.651 5.555 2.347 10.183.96 2.615 1.816 4.126 1.337 6.286a24.261 24.261 0 01-1.731 3.947c-.206.406-.411.844-.651 1.331-1.182 2.469-1.473 3.054-1.216 3.801.325.909 1.079 1.023 2.467 1.819.489.271.953.581 1.388.926.822.586 1.58 1.25 2.261 1.981 5.136-.051 10.193 1.2 14.649 3.622a103.18 103.18 0 003.444 1.738h.017c.051-.699.068-1.397.103-2.095.017-.585.017-1.153.017-1.738.012-9.115-2.057-18.124-6.065-26.409l-.017-.016h-.018a60.682 60.682 0 00-5.756-9.599c-7.453-6.886-15.489-10.459-18.162-10.443a1.175 1.175 0 00-.805.227c-.599.569.84 2.128 2.656 5.36zM54.39 334.765c0 .536 0 1.072.034 1.608 0 .455.034.893.051 1.348 0 .081.018.162.018.243.003.473.031.944.085 1.413.604 8.116 2.868 16.043 6.665 23.339a.58.58 0 00.154.065v.017c.449.201.93.333 1.422.389a4.288 4.288 0 001.708-.179 4.121 4.121 0 001.48-.828c.016-.016.033-.048.068-.065 1.388-1.445.274-3.459.72-6.48.376-2.501 1.764-4.271 4.522-7.796a36.182 36.182 0 014.01-4.547c1.01-.926 1.953-1.495 2.621-1.235.84.358 1.097 2.047.788 3.281-.462 1.852-2.039 2.014-2.381 3.508-.463 1.965 1.644 4.239 3.443 5.279a7.279 7.279 0 003.374 1.112 7.35 7.35 0 003.514-.609c2.467-1.364 2.399-4.271 3.718-4.271 1.045.016 1.97 1.835 2.124 3.264a4.344 4.344 0 01-.464 2.609 4.655 4.655 0 01-1.917 1.922c-1.696.683-2.793-.73-4.78 0a3.605 3.605 0 00-1.546.958 3.32 3.32 0 00-.836 1.56c-.085 1.543 2.142 2.745 5.037 4.271 3.307 1.738 4.335 1.657 8.224 3.525.377.178.72.341 1.046.503a20.424 20.424 0 014.248 2.501c2.673 2.079 2.416 3.005 5.038 5.035a13.312 13.312 0 006.099 3.021c2.073.325 2.501-.276 6.099-.503a25.365 25.365 0 012.451-.049c1.574.02 3.147.117 4.711.292 1.831.172 3.646.47 5.431.894-9.183-4.434-10.4-11.142-6.579-12.734 0 0-10.862-7.812-2.724-12.376 0 0-13.158-14.844 1.696-10.199a15.46 15.46 0 013.495 1.64c.463.276.994.617 1.594.975l1.764-4.256v-.016c-3.478-4.482-5.808-9.014-1.199-9.225a7.715 7.715 0 014.832 1.527 104.48 104.48 0 004.506 3.069l3.889-3.8a10.152 10.152 0 001.593-4.515 12.161 12.161 0 00-.93-5.171 12.72 12.72 0 00-3.045-4.379c-2.441-2.452-5.566-4.198-9.012-5.035a18.57 18.57 0 00-8.498-1.007c-.479.081-.993.179-1.524.309-1.68.373-3.41.925-4.301 1.202a16.986 16.986 0 01-4.78 1.266c-2.159.098-2.759-.519-3.701 0-1.182.618-.994 1.917-1.867 5.019-.874 3.07-1.594 5.668-3.444 6.285-1.388.455-2.142-.617-3.718 0-1.028.406-1.028.991-2.639 2.518-1.422 1.332-2.141 1.998-3.186 2.257a5.283 5.283 0 01-2.987-.221 4.983 4.983 0 01-2.325-1.793c-.205-.341-.582-1.055-.257-4.011.394-3.736.583-5.603 1.85-6.789 1.543-1.446 2.742-.39 6.374-1.511 4.164-1.283 3.855-3.069 8.481-4.775 3.101-1.136 3.924-.6 6.357-2.013 1.97-1.137 4.471-3.249 3.992-4.532-.531-1.364-3.958-.308-5.312-2.257-1.062-1.511.412-2.989-.788-5.035-.702-1.169-2.159-2.29-3.187-1.998-1.13.309-.702 2.047-2.124 4.272-1.317 1.902-3.282 3.318-5.568 4.011-1.73.601-3.872 1.348-5.569.26-1.507-.958-2.347-3.151-1.593-4.271.977-1.446 3.94-.211 4.78-1.511a2.37 2.37 0 00-.017-1.965 4.507 4.507 0 00-1.18-1.911 4.861 4.861 0 00-1.99-1.159c-.873-.129-1.764.179-6.904 4.272-.274.227-.548.438-.788.633l-.017.017c-2.725 2.192-3.222 2.679-4.232 2.631a3.287 3.287 0 01-.977-.211 5.166 5.166 0 01-1.474-.894 12.167 12.167 0 01-2.844-3.93c-.873-1.917-.53-2.696-1.062-3.021-1.234-.747-5.637 1.754-10.263 6.253a58.603 58.603 0 00-3.495 6.301 60.318 60.318 0 00-5.928 21.959c-.051.731-.085 1.478-.12 2.225a94.617 94.617 0 00-.034 2.225zM249.912.42a95.98 95.98 0 00-2.208 11.212c-.566 3.749-.932 7.512-1.259 11.277-.264 3.77-.484 7.543-.506 11.33a94.51 94.51 0 00.453 11.398 95.129 95.129 0 002.214-11.211c.565-3.749.931-7.512 1.254-11.278.259-3.77.48-7.543.5-11.33A95.54 95.54 0 00249.912.42zm-24.704 48.335a104.366 104.366 0 00-3.401-11.386c-1.292-3.735-2.77-7.399-4.284-11.049-1.573-3.627-3.187-7.24-4.985-10.781a105.582 105.582 0 00-5.877-10.44c.91 3.851 2.044 7.653 3.397 11.387 1.293 3.734 2.77 7.398 4.288 11.047 1.577 3.626 3.191 7.238 4.99 10.78a106.472 106.472 0 005.872 10.442zm62.245-39.759a91.353 91.353 0 00-5.778 9.437c-1.769 3.21-3.355 6.495-4.905 9.796-1.492 3.324-2.944 6.665-4.213 10.081a87.654 87.654 0 00-3.33 10.445 90.429 90.429 0 005.783-9.435c1.768-3.21 3.354-6.496 4.9-9.798 1.488-3.326 2.94-6.667 4.208-10.083a88.652 88.652 0 003.335-10.443zm159.568 264.042a32.665 32.665 0 014.667-.774 5.21 5.21 0 012.213.21c.674.231.462.932.089 1.543a16.495 16.495 0 01-3.096 3.269 50.866 50.866 0 01-3.623 2.866.485.485 0 00-.1.706.564.564 0 00.492.193c3.241-.341 6.295-1.613 8.752-3.646a12.69 12.69 0 003.048-3.63 7.78 7.78 0 00.859-2.282 3.17 3.17 0 00-.029-1.401 1.987 1.987 0 00-.449-.798c-.066-.113-.127-.151-.224-.326-1.43-2.466-2.65-5.256-3.892-7.931l-3.645-8.139c-1.223-2.72-2.461-5.407-3.509-8.16-1.079-2.753-1.954-5.541-2.968-8.355l-2.973-8.415c-1.011-2.797-2.249-5.52-3.362-8.28a161.233 161.233 0 00-17.006-31.536 74.697 74.697 0 00-12.161-13.551c-.584-.501-1.152-1.019-1.748-1.507l-1.869-1.378a38.956 38.956 0 00-3.887-2.579 28.947 28.947 0 00-8.856-3.614l.176.04a74.885 74.885 0 00-16.456-2.712c-5.517-.425-11.044-.561-16.56-.566-5.517.002-11.029.104-16.538.305-5.507.247-11.002.561-16.504.986l.578.186a58.81 58.81 0 01-5.872-6.626l-2.75-3.536a11.404 11.404 0 00-3.39-3.245 13.702 13.702 0 00-9.292-1.332 23.733 23.733 0 00-8.652 3.293.088.088 0 00-.026.025.086.086 0 00-.015.032.103.103 0 000 .035.08.08 0 00.014.033.099.099 0 00.062.036.1.1 0 00.072-.012 23.427 23.427 0 018.637-2.842c2.98-.48 6.042.065 8.636 1.535a10.253 10.253 0 012.991 3.076l2.641 3.644a53.1 53.1 0 005.906 6.983.699.699 0 00.526.189l.052-.003a506.543 506.543 0 0116.454-.664 478.224 478.224 0 0116.462-.226c5.485.015 10.962.228 16.417.552a73.376 73.376 0 0116.02 2.444l.116.029.06.011c2.915.671 5.7 1.771 8.255 3.259a37.86 37.86 0 013.823 2.406l1.852 1.297c.593.462 1.161.956 1.743 1.432a39.057 39.057 0 013.381 2.984c1.06 1.063 2.19 2.067 3.195 3.179 1.968 2.26 4.026 4.459 5.755 6.904 7.121 9.669 12.851 20.194 17.039 31.297 1.014 2.786 2.152 5.528 3.063 8.345l2.676 8.463c.913 2.799 1.687 5.708 2.777 8.493 1.037 2.811 2.265 5.548 3.454 8.269 1.185 2.733 2.457 5.43 3.718 8.135 1.305 2.707 2.492 5.378 4.098 8.067.131.204.28.398.446.579-.011.091.069.03.071.177.057.262.058.531.006.792a6.513 6.513 0 01-.689 1.875 12.283 12.283 0 01-2.666 3.316c-2.211 1.939-4.994 3.191-7.977 3.589l.392.899a51.505 51.505 0 003.605-3.033 16.453 16.453 0 003.064-3.596c.216-.375.343-.789.374-1.214a1.145 1.145 0 00-.228-.68 1.247 1.247 0 00-.598-.433 5.603 5.603 0 00-2.49-.142 33.036 33.036 0 00-4.677 1.011.101.101 0 00-.033.016.101.101 0 00-.024.027.085.085 0 00-.011.034.104.104 0 00.003.035.093.093 0 00.045.053.106.106 0 00.07.01z" fill="#000"/><path d="M119.843 351.986a26.484 26.484 0 01-2.016-3.318 9.399 9.399 0 01-.687-1.764 2.731 2.731 0 01-.032-1.73c.122-.246.314-.454.555-.601.24-.147.52-.226.806-.23a6.995 6.995 0 011.917.058c1.307.226 2.589.57 3.826 1.029a18.07 18.07 0 013.467 1.851c1.129.72 2.284 1.41 3.452 2.083 1.171.667 2.355 1.319 3.586 1.91a16.642 16.642 0 003.953 1.452c.127.024.26.01.379-.042a.603.603 0 00.28-.245.56.56 0 00-.088-.683l-.028-.029a92.752 92.752 0 01-7.973-8.955l.152.438.001-.016a.681.681 0 00-.139-.419l-.012-.016a37.477 37.477 0 01-2.124-3.108 9.943 9.943 0 01-1.375-3.215c-.161-1.109.215-1.444 1.401-1.603a6.35 6.35 0 013.356.648c.539.269 1.047.59 1.516.957.535.398 1.079.773 1.624 1.141 1.097.734 2.162 1.505 3.285 2.21a101.837 101.837 0 006.857 4.033 69.92 69.92 0 0014.907 6.035 42.823 42.823 0 008.116 1.304 29.264 29.264 0 008.319-.783c.204-.052.391-.151.545-.288a1.161 1.161 0 00.127-1.627l-.021-.024-6.505-7.724-3.195-3.802a1.432 1.432 0 01-.221-1.296c.061-.205.171-.395.323-.553.091-.09.191-.172.298-.245a1.39 1.39 0 01.286-.156c.251-.097.522-.14.793-.128.337-.013.818-.007 1.212 0 .828.018 1.653.076 2.474.165 1.647.177 3.27.516 4.843 1.012.786.261 1.558.487 2.358.772.762.286 1.511.612 2.245.97l4.589 2.343c.189.097.399.148.614.149h.053l-.642-.145c8.639 4.09 17.356 7.702 25.577 12.206l3.094 1.709a34.663 34.663 0 0010.486 3.749c2.449.468 4.942.697 7.44.684 2.535-.017 4.898-.302 7.278-.467l28.613-2.27 28.603-2.38c19.07-1.564 38.141-3.156 57.22-4.541l7.153-.445a95.515 95.515 0 013.55-.146 4.484 4.484 0 002.041-.45 4.63 4.63 0 001.51-1.309 16.492 16.492 0 002.513-6.606c.423-2.256.711-4.532.863-6.818.487-9.093.318-18.207-.506-27.278l-.376.521c6.587-1.919 13.168-3.891 19.567-6.343a208.427 208.427 0 0018.852-8.075c6.133-2.996 12.108-6.277 18.037-9.569 5.931-3.259 11.915-6.524 18.414-8.204l-1.127-.81c-.013 17.97-.414 35.938-1.203 53.905-.411 8.975-.937 17.944-1.712 26.886-.168 2.238-.404 4.468-.625 6.699a193.565 193.565 0 01-.736 6.683c-.271 2.228-.481 4.467-.915 6.569a34.317 34.317 0 01-1.862 6.233c-3.39 8.121-9.539 14.94-17.473 19.38a49.921 49.921 0 01-12.624 5.06c-2.22.561-4.477.982-6.755 1.262-2.294.268-4.686.447-7.024.674l-7.053.641-7.07.434c-4.71.348-9.433.444-14.152.626-4.718.204-9.443.122-14.165.198-4.721-.11-9.447-.095-14.164-.334a417.486 417.486 0 01-56.279-6.012c-9.275-1.632-18.606-3.494-27.994-4.973-9.385-1.508-18.792-2.771-28.203-3.981-18.818-2.443-37.672-4.516-56.495-6.744-9.403-1.141-18.825-2.26-28.122-3.841l-3.458-.662c-1.156-.216-2.23-.573-3.352-.85a65.064 65.064 0 01-3.188-1.298 25.725 25.725 0 01-2.979-1.681 13.587 13.587 0 01-4.557-4.741 5.232 5.232 0 01-.673-2.998c.047-.489.228-.959.525-1.362a2.949 2.949 0 011.167-.937.409.409 0 00.244-.303.393.393 0 00-.129-.361l-.027-.024a36.036 36.036 0 01-2.934-2.564 12.347 12.347 0 01-2.22-3.098 4.434 4.434 0 01-.525-1.739 4.392 4.392 0 01.219-1.797 5.668 5.668 0 012.588-2.678.23.23 0 00.065-.055.207.207 0 00.011-.235l-.018-.025-2.393-2.93-.008-.011a.179.179 0 00-.239-.03.163.163 0 00-.066.106.163.163 0 00.031.12l2.336 3.013.058-.314a6.16 6.16 0 00-2.872 2.853 4.935 4.935 0 00.221 3.965 12.912 12.912 0 002.249 3.321 36.288 36.288 0 002.978 2.737l.089-.688a3.853 3.853 0 00-1.546 1.175 3.582 3.582 0 00-.735 1.745 6.076 6.076 0 00.672 3.527 14.578 14.578 0 004.779 5.254c.982.68 2.012 1.295 3.082 1.842 1.087.506 2.191.996 3.31 1.442 1.162.323 2.328.733 3.494.979l3.5.754c9.354 1.749 18.752 3.02 28.148 4.318l56.371 7.497c9.38 1.302 18.751 2.657 28.06 4.249 4.663.744 9.295 1.697 13.934 2.55 4.636.908 9.295 1.849 13.976 2.674a421.315 421.315 0 0056.755 6.186c19.051.815 38.14.268 57.105-1.636 2.379-.246 4.718-.431 7.131-.726a58.725 58.725 0 007.189-1.385 53.36 53.36 0 0013.47-5.493c8.523-4.841 15.102-12.236 18.696-21.017a37.152 37.152 0 001.969-6.741c.457-2.318.654-4.566.906-6.807.258-2.247.475-4.495.65-6.744.192-2.249.399-4.497.537-6.747.658-8.998 1.062-17.999 1.353-27.001.572-18.005.727-36.009.466-54.011l-.001-.017a.79.79 0 00-.071-.32.855.855 0 00-.484-.447.93.93 0 00-.572-.026c-6.805 1.86-12.819 5.276-18.713 8.611-5.902 3.362-11.763 6.74-17.853 9.739a207.425 207.425 0 01-18.698 8.116c-6.349 2.468-12.889 4.462-19.438 6.405a.537.537 0 00-.284.199.495.495 0 00-.092.323c.819 9.016.943 18.076.371 27.108a56.78 56.78 0 01-.893 6.682 15.55 15.55 0 01-2.324 6.091 3.368 3.368 0 01-1.107.965 2.99 2.99 0 01-1.414.288 95.466 95.466 0 00-3.622.124l-7.178.381c-19.119 1.081-38.215 2.356-57.314 3.628l-28.643 1.949-28.628 2.128c-2.392.157-4.79.424-7.044.423-2.292 0-4.577-.222-6.822-.662a34.262 34.262 0 01-6.518-1.965 32.278 32.278 0 01-3.056-1.457l-3.12-1.698c-8.399-4.533-17.28-8.148-25.787-12.115l-.02-.009a1.485 1.485 0 00-.624-.136h-.017l.65.149-4.609-2.317a28.493 28.493 0 00-2.506-1.064c-.829-.291-1.719-.552-2.577-.827-1.734-.53-3.52-.89-5.332-1.075a31.894 31.894 0 00-2.728-.165c-.475-.005-.864-.011-1.395.01a4.775 4.775 0 00-1.747.346c-.298.123-.579.28-.838.466a4.759 4.759 0 00-.672.576 3.864 3.864 0 00-.916 1.597 3.863 3.863 0 00-.091 1.775c.108.591.352 1.152.715 1.643l3.326 3.914 6.563 7.69.651-1.938a27.684 27.684 0 01-7.503.794 40.295 40.295 0 01-7.625-1.112 67.8 67.8 0 01-14.499-5.622 99.92 99.92 0 01-6.779-3.848c-1.11-.672-2.175-1.419-3.265-2.124a42.482 42.482 0 01-1.604-1.089 10.887 10.887 0 00-1.825-1.104 8.223 8.223 0 00-4.381-.76 3.588 3.588 0 00-2.344 1.068 2.913 2.913 0 00-.552 1.168c-.093.422-.089.858.012 1.279.31 1.333.865 2.603 1.641 3.753a35.313 35.313 0 002.293 3.197l-.151-.435.001.015v.022a.676.676 0 00.152.417 94.485 94.485 0 008.338 8.91l.543-.998a28.926 28.926 0 01-7.212-3.05 90.537 90.537 0 01-3.474-1.983 18.909 18.909 0 00-3.668-1.842 22.313 22.313 0 00-4.026-.98 7.656 7.656 0 00-2.138.007 2.232 2.232 0 00-1.092.386c-.32.222-.57.523-.721.87a3.198 3.198 0 00.076 2.067c.198.633.461 1.245.783 1.829a27.145 27.145 0 002.161 3.305.174.174 0 00.11.066.181.181 0 00.127-.026.16.16 0 00.046-.224z" fill="#000"/><path d="M138.232 352.888a108.086 108.086 0 007.875 3.976 46.242 46.242 0 008.296 3.001 45.216 45.216 0 01-7.84-3.794 105.067 105.067 0 01-7.267-4.682l-.013-.009a.998.998 0 00-.708-.167.971.971 0 00-.626.356.87.87 0 00-.177.672.895.895 0 00.46.647zm-16.733 2.897c4.429 2.856 8.913 5.594 13.511 8.178 2.302 1.283 4.622 2.543 7.02 3.665 1.19.579 2.41 1.099 3.656 1.559.617.247 1.253.448 1.902.603a8.095 8.095 0 001.972.289 7.94 7.94 0 01-1.939-.398 13.475 13.475 0 01-1.843-.702 40.085 40.085 0 01-3.524-1.749c-2.305-1.246-4.53-2.628-6.735-4.03-4.399-2.821-8.697-5.804-12.893-8.871l-.008-.007a.994.994 0 00-1.338.164.873.873 0 00.173 1.268l.046.031zm2.677 12.34a46.372 46.372 0 005.429 3.238 55.658 55.658 0 005.735 2.573 54.168 54.168 0 0012.136 3.164 53.278 53.278 0 01-11.744-3.987 53.98 53.98 0 01-5.397-2.915 44.578 44.578 0 01-4.936-3.458l-.03-.025a.981.981 0 00-.694-.221.993.993 0 00-.36.093.948.948 0 00-.295.217.89.89 0 00-.23.659.88.88 0 00.386.662zm46.343-67.89a.895.895 0 00.405-.096.853.853 0 00.31-.267l7.397-10.592a.78.78 0 00-.004-.903.855.855 0 00-.547-.343.893.893 0 00-.643.123.855.855 0 00-.235.225l-7.397 10.592c-.125.18-.17.4-.125.611a.812.812 0 00.366.516c.14.088.305.135.473.134zm-38.086-26.473a.886.886 0 00.714-.363l7.399-10.592a.787.787 0 00-.241-1.126.899.899 0 00-.952.003.83.83 0 00-.236.225l-7.398 10.592a.78.78 0 00-.041.833c.073.13.182.238.315.313a.897.897 0 00.44.115z" fill="#000"/></svg>