<svg width="206" height="351" fill="none" xmlns="http://www.w3.org/2000/svg"><path d="M48.916 151.822a95.38 95.38 0 01.98-25.256c-.1 1.399-1.284 18.29-.98 25.256zm.991-25.35a74.69 74.69 0 012.782-11.485s3.54.549 8.497 1.097a107.756 107.756 0 01-11.279 10.388zm59.014.001l-14.425-3.138a113.14 113.14 0 01-.577 3.138v.009c3.571 7.496 6.859 15.095 10.035 22.742 3.176 7.656 6.15 15.368 9.023 23.129 2.772 7.788 5.463 15.605 7.84 23.506 2.336 7.912 4.461 15.88 6.049 23.952l-1.548-5.974c-.485-2.004-1.123-3.97-1.669-5.945-.556-1.985-1.113-3.97-1.74-5.936l-1.841-5.898a645.824 645.824 0 00-8.042-23.403c-2.792-7.77-5.776-15.473-8.79-23.176a936.678 936.678 0 00-4.603-11.522c-1.527-3.838-3.126-7.647-4.714-11.475a100.155 100.155 0 01-2.69 10.804c3.49 11.059 6.676 22.193 9.711 33.356 3.044 11.172 5.836 22.401 8.466 33.658 2.529 11.286 4.886 22.609 6.687 34.018.88 5.709 1.618 11.436 2.104 17.183a86.522 86.522 0 01-.061 17.278 89.958 89.958 0 00-.435-17.23c-.576-5.728-1.406-11.437-2.377-17.118-1.002-5.681-2.043-11.352-3.207-17.004a752.496 752.496 0 00-3.702-16.928c-2.539-11.267-5.351-22.477-8.224-33.678-1.426-5.605-2.896-11.2-4.41-16.786-1.477-5.586-3.015-11.173-4.552-16.749a63.935 63.935 0 01-2.823 7.448v.009c.658 7.25 1.073 14.509 1.406 21.778.344 7.287.476 14.565.557 21.853 0 7.287-.112 14.584-.536 21.862a137.698 137.698 0 01-2.62 21.711l.748-5.416.506-5.435c.253-3.629.496-7.259.597-10.898.253-7.268.374-14.537.293-21.815.01-7.278-.141-14.556-.313-21.834l-.304-10.917-.334-10.889c-14 30.521-39.49 7.08-39.49 7.08a73.15 73.15 0 01-1.033 20.681c-2.913 15.236-8.537 40.624-15.942 54.745-11.056 21.107-35.485 57.279-38.712 70.2 0 0 35.95 37.042 101.864 15.936 65.903-21.097 67.754-12.061 67.754-12.061s-12.908-112.828-53.926-174.851zM-2.259 297.43a1.569 1.569 0 01-1.038-.433 1.37 1.37 0 01-.425-.985c0-.367.152-.72.425-.984a1.57 1.57 0 011.038-.434 1.57 1.57 0 011.037.434c.273.264.425.617.425.984 0 .368-.152.721-.425.985s-.645.42-1.037.433zm8.011 4.764a1.573 1.573 0 01-1.038-.433 1.373 1.373 0 01-.425-.985c0-.367.153-.72.425-.985a1.573 1.573 0 011.038-.433c.393.014.765.169 1.038.433.273.265.425.618.425.985s-.152.72-.425.985a1.573 1.573 0 01-1.038.433zm9.468 5.444a1.564 1.564 0 01-1.037-.433 1.37 1.37 0 01-.426-.985c0-.367.153-.72.426-.984.273-.265.644-.42 1.037-.433.393.013.765.168 1.038.433.273.264.425.617.425.984 0 .368-.152.721-.425.985-.273.265-.645.42-1.038.433zm10.56 4.083a1.564 1.564 0 01-1.037-.433 1.37 1.37 0 01-.425-.984c0-.368.152-.721.425-.985.273-.265.645-.42 1.038-.433.393.013.765.168 1.038.433.272.264.425.617.425.985 0 .367-.153.72-.425.984-.273.265-.645.42-1.038.433zm11.29 2.723a1.57 1.57 0 01-1.038-.434 1.37 1.37 0 01-.425-.984c0-.368.152-.721.425-.985s.645-.42 1.038-.433a1.57 1.57 0 011.038.433c.272.264.425.617.425.985 0 .367-.153.72-.425.984a1.57 1.57 0 01-1.038.434zm11.653 2.381a1.564 1.564 0 01-1.038-.433 1.37 1.37 0 01-.425-.984c0-.368.153-.721.425-.985a1.57 1.57 0 011.038-.433 1.57 1.57 0 011.038.433c.272.264.425.617.425.985 0 .367-.153.72-.425.984-.273.265-.645.42-1.038.433zm12.382.341a1.574 1.574 0 01-1.038-.433 1.373 1.373 0 01-.425-.985c0-.367.152-.72.425-.985a1.574 1.574 0 011.038-.433c.392.014.764.169 1.037.433.273.265.425.618.425.985s-.152.72-.425.985a1.573 1.573 0 01-1.038.433zm11.653-1.021a1.568 1.568 0 01-1.038-.433 1.373 1.373 0 01-.425-.985c0-.367.152-.72.425-.985a1.573 1.573 0 011.038-.433c.392.014.764.169 1.037.433.273.265.425.618.425.985s-.152.72-.425.985c-.273.264-.645.42-1.037.433zm11.653-3.403a1.564 1.564 0 01-1.038-.433 1.37 1.37 0 01-.425-.985c0-.367.152-.72.425-.984.273-.265.645-.42 1.038-.433a1.56 1.56 0 011.037.433c.273.264.426.617.426.984 0 .368-.153.721-.426.985a1.56 1.56 0 01-1.037.433zm12.017-3.062a1.574 1.574 0 01-1.038-.433 1.374 1.374 0 01-.425-.985c0-.367.153-.72.425-.985a1.574 1.574 0 011.038-.433c.393.014.765.169 1.038.433.273.265.425.618.425.985s-.153.72-.425.985a1.573 1.573 0 01-1.038.433zm12.017-3.743a1.574 1.574 0 01-1.037-.433 1.373 1.373 0 01-.426-.985c0-.367.153-.72.426-.985a1.574 1.574 0 011.037-.433c.393.014.765.169 1.038.433.273.265.425.618.425.985s-.152.72-.425.985a1.574 1.574 0 01-1.038.433zm13.474-4.083a1.57 1.57 0 01-1.037-.433 1.373 1.373 0 01-.426-.985c0-.368.153-.721.426-.985.272-.264.644-.42 1.037-.433a1.57 1.57 0 011.038.433c.273.264.425.617.425.985 0 .367-.152.72-.425.985a1.574 1.574 0 01-1.038.433zm13.838-3.403a1.574 1.574 0 01-1.037-.433 1.373 1.373 0 01-.426-.985c0-.367.153-.72.426-.985a1.574 1.574 0 011.037-.433c.393.014.765.169 1.038.433.273.265.425.618.425.985s-.152.72-.425.985a1.574 1.574 0 01-1.038.433zm11.289-1.701a1.57 1.57 0 01-1.037-.434 1.37 1.37 0 01-.426-.984c0-.368.153-.721.426-.985s.645-.42 1.037-.433a1.57 1.57 0 011.038.433c.273.264.425.617.425.985 0 .367-.152.72-.425.984a1.57 1.57 0 01-1.038.434zm10.197-.681a1.57 1.57 0 01-1.038-.433 1.37 1.37 0 01-.425-.985c0-.367.152-.72.425-.985a1.574 1.574 0 011.038-.433c.393.014.765.169 1.038.433.272.265.425.618.425.985 0 .368-.153.72-.425.985a1.57 1.57 0 01-1.038.433zM92.785 3.306s-5.992-.216-6.914 7.321c-.921 7.537-9.91 5.599-9.91 5.599s-4.378.215-2.534 5.383c1.843 5.168 4.378 3.66 4.378 3.66s.604 10.728 7.605 11.844c0 0-16.406 7.95-19.786-.461a6.686 6.686 0 01-.34-3.523 16.55 16.55 0 011.86-5.466 13.277 13.277 0 001.884-7.148 12.8 12.8 0 00-.902-4.074C66.052 11.273 68.126-.57 85.18.076c0 0 6.222-.862 7.605 3.23z" fill="#000"/><path d="M66.728 38.353c-.72 1.58-1.466 3.148-2.215 4.715l-.088-.384a212.11 212.11 0 007.163 4.757c2.422 1.538 4.918 2.965 7.422 4.36a73.751 73.751 0 007.734 3.721 25.127 25.127 0 008.125 2.072l-.585 1.488a27.956 27.956 0 01-5.904-6.397 12.557 12.557 0 01-1.766-3.979 6.571 6.571 0 01.466-4.334 14.867 14.867 0 012.376-3.595 28.052 28.052 0 013.045-3.05 16.146 16.146 0 013.757-2.277 8.842 8.842 0 001.838-1 6.702 6.702 0 001.377-1.469 11.937 11.937 0 001.607-3.7 23.23 23.23 0 00.71-4.003c.251-2.717.337-5.445.255-8.171l-.043-2.053c-.058-.665-.065-1.32-.186-1.965a11.86 11.86 0 00-1.191-3.706c-1.195-2.302-3.19-4.158-5.658-5.265l-.068-.028a.927.927 0 01-.295-.194.86.86 0 01-.193-.285.814.814 0 01.018-.661.885.885 0 01.28-.332.967.967 0 01.414-.17 7.75 7.75 0 013.064.138c.488.117.965.275 1.423.472.448.212.878.454 1.287.726a10.334 10.334 0 013.45 4.32 25.672 25.672 0 011.741 10.085 33.89 33.89 0 001.187 9.528 14.473 14.473 0 001.985 4.24 8.17 8.17 0 001.566 1.675c.296.227.613.431.945.61.296.153.61.272.936.354l.065.01c.17.028.327.104.45.217a.78.78 0 01.238.418.742.742 0 01-.06.47.808.808 0 01-.335.355 100.718 100.718 0 01-11.872 5.778 43.425 43.425 0 01-6.332 2.086 16.662 16.662 0 01-3.348.465 4.31 4.31 0 01-1.706-.174 4.11 4.11 0 01-1.475-.82.09.09 0 01-.027-.066.094.094 0 01.03-.064.105.105 0 01.069-.028c.026 0 .051.008.07.024l.007.006c.423.302.91.517 1.428.632a4.075 4.075 0 001.579.038 15.972 15.972 0 003.174-.666 51.224 51.224 0 006.056-2.392 99.098 99.098 0 005.798-2.952c1.9-1.035 3.799-2.1 5.627-3.217l.358 1.47a5.51 5.51 0 01-1.543-.488 8.707 8.707 0 01-1.26-.754 9.94 9.94 0 01-1.982-1.973 15.478 15.478 0 01-2.398-4.717c-.27-.823-.457-1.66-.661-2.493-.137-.838-.317-1.676-.415-2.517-.079-.84-.184-1.682-.242-2.523l-.075-2.522a25.613 25.613 0 00-1.491-9.355 8.426 8.426 0 00-2.713-3.578c-.306-.21-.627-.4-.962-.568a6.742 6.742 0 00-1.061-.371 5.948 5.948 0 00-2.181-.164l.157-1.67a12.881 12.881 0 013.84 2.616 12.577 12.577 0 012.597 3.627 12.907 12.907 0 011.185 4.18c.095.711.069 1.436.091 2.139l-.063 2.062a74.163 74.163 0 01-.655 8.259 30.273 30.273 0 01-.878 4.083 12.6 12.6 0 01-1.76 3.865 7.364 7.364 0 01-1.538 1.588 10.58 10.58 0 01-1.963 1.05 15.49 15.49 0 00-3.584 2.22 18.71 18.71 0 00-4.916 6.53c-1.085 2.471.026 5.063 1.593 7.238a30.691 30.691 0 005.793 5.832l.018.014a.83.83 0 01.29.43.784.784 0 01-.03.507.848.848 0 01-.34.398.94.94 0 01-.523.139 24.829 24.829 0 01-8.794-2.234 62.925 62.925 0 01-7.847-3.968c-2.519-1.46-4.937-3.055-7.303-4.705-2.366-1.652-4.68-3.357-6.894-5.191l-.018-.015a.298.298 0 01-.104-.173.285.285 0 01.033-.196c.87-1.511 1.742-3.02 2.642-4.518a.1.1 0 01.058-.044.108.108 0 01.075.005c.023.011.041.03.05.052a.09.09 0 01-.001.07z" fill="#000"/><path d="M92.412 38.23a16.465 16.465 0 014.74-2.863c5.353-2.308 5.542-12.432 5.542-20.433 0-8.828-7.374-11.628-7.374-11.628s9.679-1.938 9.679 14.643c0 16.58 7.605 17.442 7.605 17.442S92.422 47.43 88.406 43.337l4.006-5.107zm-7.545-24.652a4.65 4.65 0 011.845-.973 7.25 7.25 0 012.114-.29 7.483 7.483 0 012.099.335c.676.2 1.306.515 1.861.928-.714-.047-1.37-.152-2.029-.207a22.21 22.21 0 00-1.945-.112c-.648-.01-1.296.012-1.941.066-.653.056-1.308.135-2.004.253z" fill="#000"/><path d="M96.933 13.579c.416-.271.88-.471 1.371-.59a6.682 6.682 0 011.469-.217 5.866 5.866 0 011.497.15c.505.11.973.335 1.361.657-1.028.06-1.892.105-2.826.138a14.64 14.64 0 01-2.872-.139zm-8.526 5.433c.295-.01.574-.125.78-.324.204-.198.32-.463.32-.74 0-.275-.116-.54-.32-.739a1.177 1.177 0 00-.78-.324c-.295.01-.575.126-.78.324-.205.199-.32.464-.32.74 0 .276.115.54.32.74.205.198.485.314.78.323zm-12.412 5.651c.295-.01.574-.125.78-.324.205-.198.32-.463.32-.74 0-.275-.115-.54-.32-.739a1.176 1.176 0 00-.78-.324c-.295.01-.575.126-.78.324-.205.199-.32.464-.32.74 0 .276.115.54.32.74.205.198.485.314.78.323zm22.782-6.081c.295-.01.575-.126.78-.324.205-.199.32-.464.32-.74a1.03 1.03 0 00-.32-.74 1.177 1.177 0 00-.78-.323 1.172 1.172 0 00-.78.324c-.205.198-.32.463-.32.74 0 .275.115.54.32.739.205.198.485.314.78.324zm-7.374 7.979c1.178.477 2.436.76 3.717.837a6.03 6.03 0 001.806-.199 14.716 14.716 0 001.852-.638 3.954 3.954 0 01-1.561 1.324 4.72 4.72 0 01-1.025.365c-.362.065-.73.096-1.1.093a5.165 5.165 0 01-2.089-.512 4.287 4.287 0 01-1.6-1.27zm1.382-4.951c.611.453 1.266.852 1.956 1.194.323.157.66.288 1.006.393.36.122.745.2 1.186.35-.38.243-.829.375-1.29.38a2.92 2.92 0 01-1.358-.28 2.84 2.84 0 01-1.051-.844 2.011 2.011 0 01-.45-1.194zm9.678 46.984a.524.524 0 01-.323-.11.466.466 0 01-.174-.278c-.356-1.833-5.527-7.448-7.489-9.456a.454.454 0 01-.13-.34.46.46 0 01.164-.326.527.527 0 01.713.029c.742.76 7.264 7.492 7.737 9.923a.441.441 0 01-.081.354.526.526 0 01-.417.204zM64.21 42.928c-3.877 4.002-7.016 8.577-9.288 13.539a41.677 41.677 0 00-3.804 15.469c-.032 1.33.021 2.653.031 3.998.053 1.333.159 2.676.264 4.014a70.18 70.18 0 001.096 7.966c.243 1.325.578 2.583.948 3.9a41.2 41.2 0 01.946 4.04c.507 2.718.758 5.471.75 8.228l-.387-.54c2.19.871 4.48 1.641 6.769 2.361 2.298.709 4.632 1.318 6.984 1.894-1.202-.162-2.411-.311-3.604-.539a88.916 88.916 0 01-3.574-.716 66.191 66.191 0 01-7.048-1.92.584.584 0 01-.27-.186.526.526 0 01-.115-.295l-.003-.059a48.88 48.88 0 00-1.15-7.933 46.15 46.15 0 00-1.039-3.88c-.406-1.296-.812-2.664-1.097-4.008a69.592 69.592 0 01-1.455-16.406c.34-5.539 1.863-10.958 4.477-15.94 2.584-4.93 6.174-9.342 10.569-12.986zm4.137 14.332a28.116 28.116 0 0112.708 1.34c4.114 1.363 7.816 3.634 10.79 6.62a36.066 36.066 0 013.877 4.82 55.923 55.923 0 013.019 5.267 62.159 62.159 0 014.396 11.197.571.571 0 01-.026.38.618.618 0 01-.264.29l-.052.03c-2.165 1.226-4.37 2.368-6.591 3.492a260.894 260.894 0 01-6.75 3.23c-2.281 1.024-4.59 2.01-6.988 2.837-1.2.412-2.41.816-3.674 1.125-.644.164-1.297.292-1.957.383a5.52 5.52 0 01-2.308-.072.857.857 0 01-.308-.16.792.792 0 01-.212-.264 297.614 297.614 0 01-2.944-6.267 168.414 168.414 0 01-2.797-6.334.089.089 0 010-.068.098.098 0 01.05-.051.108.108 0 01.073-.006.1.1 0 01.059.042 191.552 191.552 0 013.655 5.94 278.237 278.237 0 013.509 6.008l-.52-.424c.48.053.967.024 1.436-.085.58-.11 1.153-.252 1.715-.426a51.443 51.443 0 003.459-1.178c2.29-.885 4.578-1.82 6.856-2.787 4.563-1.919 9.063-4.013 13.575-6.062l-.341.699a39.46 39.46 0 00-3.603-11.223 28.799 28.799 0 00-3.247-5.013 36.805 36.805 0 00-4.198-4.29 37.299 37.299 0 00-10.274-6.252 36.836 36.836 0 00-12.102-2.55h-.01a.104.104 0 01-.067-.026.09.09 0 01-.008-.127.103.103 0 01.064-.034z" fill="#000"/><path d="M87.209 48.537a10.3 10.3 0 015.436 1.074 11.108 11.108 0 014.159 3.59 14.123 14.123 0 012.09 4.891c.16.861.271 1.729.365 2.59-.006.87.022 1.735-.016 2.594-.191-.85-.316-1.696-.475-2.535l-.64-2.471-.436-1.193-.21-.597c-.084-.193-.188-.378-.28-.568l-.551-1.136-.694-1.058a11.86 11.86 0 00-3.758-3.5 12.78 12.78 0 00-4.99-1.681zm-14.463-8.029a38.725 38.725 0 003.427 1.744c1.155.527 2.34.996 3.547 1.405 1.205.418 2.432.777 3.677 1.076 1.246.315 2.516.553 3.812.82a17.43 17.43 0 01-3.969-.097 19.809 19.809 0 01-7.45-2.562 13.223 13.223 0 01-3.044-2.386zm28.538 46.729a82.47 82.47 0 016.076 7.401 79.904 79.904 0 015.244 7.937 81.4 81.4 0 01-6.076-7.4 80.687 80.687 0 01-5.244-7.938z" fill="#000"/><path d="M97.201 73.167a159.1 159.1 0 015.806-6.035 194.223 194.223 0 016.106-5.767c2.093-1.87 4.204-3.725 6.432-5.474 1.127-.86 2.254-1.724 3.465-2.504a29.976 29.976 0 011.865-1.136c.33-.185.67-.354 1.019-.506a3.67 3.67 0 011.311-.341.494.494 0 01.222.038l.012.006c1.988.858 3.945 1.771 5.935 2.617 1.982.86 3.977 1.694 5.976 2.52l6.003 2.483c1 .42 1.993.857 2.983 1.319.496.229.988.471 1.48.735.248.139.49.268.742.44.137.086.267.182.387.287.07.064.131.11.206.192.094.123.172.256.233.397.03.07.045.144.045.22a.556.556 0 01-.184.404.625.625 0 01-.201.123l-.06.019-.131.035a68.549 68.549 0 00-12.138 4.657c-1.956.935-3.837 2.001-5.701 3.082l-2.765 1.672-2.69 1.778a90.299 90.299 0 00-10.07 7.966c-1.648 1.38-3.092 2.944-4.62 4.447-1.506 1.52-2.862 3.162-4.349 4.723l-.005.005a.104.104 0 01-.066.03.104.104 0 01-.07-.018.093.093 0 01-.039-.058.094.094 0 01.014-.068 147.18 147.18 0 011.836-2.62c.639-.856 1.192-1.78 1.918-2.577 1.402-1.63 2.72-3.341 4.274-4.86.765-.77 1.507-1.562 2.294-2.313l2.445-2.178c.802-.742 1.67-1.413 2.539-2.084.881-.656 1.711-1.376 2.637-1.98a67.239 67.239 0 0111.524-6.602 57.277 57.277 0 0112.748-4.275l-.531.801a.05.05 0 00.002.038.055.055 0 00.027.028l-.08-.082a1.752 1.752 0 00-.238-.204c-.177-.144-.399-.286-.609-.425a26.668 26.668 0 00-1.352-.8 72.025 72.025 0 00-2.841-1.484 106.07 106.07 0 00-5.858-2.714c-1.98-.858-3.981-1.67-6.004-2.437-2.016-.78-4.075-1.473-6.114-2.192l.234.043a3.223 3.223 0 00-.729.295 9.906 9.906 0 00-.853.51 28.2 28.2 0 00-1.668 1.204 134.693 134.693 0 00-3.244 2.616 476.73 476.73 0 00-6.437 5.364l-6.422 5.417c-2.15 1.8-4.319 3.586-6.507 5.356a.105.105 0 01-.07.023.105.105 0 01-.068-.027.092.092 0 01-.03-.063.09.09 0 01.024-.066z" fill="#000"/><path d="M110.761 66.614l5.53 5.127 9.218-7.065-5.991-4.522-8.757 6.46zm29.043-1.944a24.697 24.697 0 013.436 2.961 17.52 17.52 0 011.476 1.758 4.88 4.88 0 01.989 2.351.654.654 0 01-.12.447.735.735 0 01-.394.278l-.111.032c-.606.18-1.222.328-1.832.493-.613.157-1.22.333-1.838.473l.437-1.394c.491.522.929 1.085 1.309 1.682.379.58.71 1.185.988 1.812a15.143 15.143 0 011.15 3.887l.007.042a.37.37 0 01-.079.29.412.412 0 01-.275.154l-.03.003a32.778 32.778 0 00-9.916 2.473c-3.146 1.26-6.22 2.67-9.211 4.225-2.948 1.596-5.865 3.233-8.65 5.077-2.844 1.78-5.465 3.833-8.205 5.855a.106.106 0 01-.143-.01.095.095 0 01-.005-.12 41.929 41.929 0 017.232-7.099 47.376 47.376 0 014.224-2.953c.723-.47 1.507-.85 2.257-1.278a24.454 24.454 0 012.326-1.162 49.487 49.487 0 019.799-3.549 220.734 220.734 0 0110.194-2.269l-.378.489a14.047 14.047 0 00-1.641-3.421 22.957 22.957 0 00-1.092-1.556c-.387-.49-.797-1.011-1.194-1.423a.843.843 0 01-.211-.379.795.795 0 01.012-.427.842.842 0 01.232-.369.927.927 0 01.394-.217l.01-.002c.611-.162 1.233-.286 1.849-.43.619-.136 1.233-.29 1.855-.41l-.625.756a3.924 3.924 0 00-.591-1.648c-.329-.603-.733-1.19-1.138-1.783-.834-1.175-1.734-2.336-2.64-3.505a.088.088 0 01-.02-.07.094.094 0 01.04-.063.111.111 0 01.123 0z" fill="#000"/><path d="M106.944 94.906a70.448 70.448 0 017.013-7.465 75.553 75.553 0 018.019-6.558 57.688 57.688 0 019.06-5.27 35.931 35.931 0 0110.144-2.97c-.851.24-1.7.47-2.546.69l-.635.166-.614.23-1.226.457-1.229.44c-.4.166-.792.355-1.188.531-.783.372-1.592.69-2.351 1.103a74.767 74.767 0 00-8.806 5.377c-2.822 1.958-5.473 4.126-8.093 6.327a93.922 93.922 0 00-3.832 3.407c-1.276 1.142-2.498 2.334-3.716 3.535zm-50.73 9.767a16.64 16.64 0 01.504 5.253 14.853 14.853 0 01-.385 2.633 5.313 5.313 0 01-1.188 2.435c.231-.834.368-1.688.408-2.548l.156-2.57a45.4 45.4 0 01.505-5.203zM-6.157 324.442s1.178-14.643 5.122-15.791c0 0 23.608 28.137 34.363 24.118 0 0 3.226-2.01 1.229-6.604 0 0 18.59 16.222 18.59 19.811 0 3.589-16.44 8.326-31.035 0C7.517 337.649 6.288 331.62 6.288 331.62l-1.383 3.445-11.676-1.148.614-9.475z" fill="#000"/><path d="M2.675 304.818a6.496 6.496 0 01-1.48 2.234 6.911 6.911 0 01-2.23 1.6 6.55 6.55 0 011.48-2.234 7.112 7.112 0 012.23-1.6zm26.238 11.597c.96 1.673 1.778 3.34 2.675 4.974.442.818.911 1.618 1.389 2.419a52.16 52.16 0 001.58 2.358 11.446 11.446 0 01-3.87-4.349 17.542 17.542 0 01-1.145-2.627c-.32-.9-.53-1.831-.629-2.775zm114.418 11.472s31.421 3.227 40.569-6.424a4.067 4.067 0 001.062-2.054 3.92 3.92 0 00-.253-2.269 4.227 4.227 0 00-1.492-1.805 4.653 4.653 0 00-2.285-.803 38.602 38.602 0 00-9.178.579s29.652-9.331 33.032-7.034c3.38 2.297 2.612 24.261-41.943 28.711l5.224 9.044L151.781 351s-.614-8.039-3.687-10.336c-3.073-2.297-6.914-7.609-4.763-12.777zm19.512-26.557a60.812 60.812 0 001.08 4.223 27.157 27.157 0 001.521 4.024 12.125 12.125 0 002.413 3.506 7.603 7.603 0 003.897 2.028c-1.629.06-3.22-.474-4.436-1.49a10.43 10.43 0 01-2.795-3.655 17.52 17.52 0 01-1.367-4.249 17.848 17.848 0 01-.313-4.387z" fill="#000"/><path d="M131.068 303.156c4.696 2.289 8.489 5.917 10.828 10.357a22.757 22.757 0 011.429 3.455 19.21 19.21 0 01.667 3.645c.075.61.108 1.225.099 1.839l-.087 1.838a11.033 11.033 0 01-.289 1.811 50.14 50.14 0 01-.384 1.787 27.78 27.78 0 00-.112-7.19 24.124 24.124 0 00-.813-3.477 23.346 23.346 0 00-1.42-3.295 26.584 26.584 0 00-4.211-5.928 30.696 30.696 0 00-2.702-2.557 27.67 27.67 0 00-3.005-2.285zM76.236 97.547a87.928 87.928 0 01-11.128 16.084c-1.062 1.258-2.182 2.471-3.315 3.672a79.662 79.662 0 01-3.495 3.528 68.537 68.537 0 01-7.724 6.408l.39-.767a2.558 2.558 0 01-.025.233l.008-.072c-.53 4.178-1.045 8.372-1.308 12.574-.134 2.101-.21 4.204-.238 6.306-.017 2.101.009 4.208.176 6.284l-.197-.416a38.679 38.679 0 007.709 4.772 30.344 30.344 0 008.546 2.703c2.871.464 5.824.173 8.528-.84 2.678-1.077 5.045-2.73 6.91-4.824a32.254 32.254 0 004.957-7.056 63.137 63.137 0 003.62-7.976c2.077-5.499 3.546-11.23 5.05-16.983a.143.143 0 01.024-.051.148.148 0 01.042-.038.138.138 0 01.055-.021.16.16 0 01.148.055.142.142 0 01.032.095 87.245 87.245 0 01-3 17.627 54.425 54.425 0 01-3.255 8.524c-.35.688-.683 1.383-1.065 2.06l-1.235 1.996a20.56 20.56 0 01-1.378 1.932l-.724.949c-.257.306-.554.589-.83.885a22.554 22.554 0 01-3.703 3.237 18.563 18.563 0 01-4.531 2.288 19.6 19.6 0 01-10.118.677 28.271 28.271 0 01-9.133-3.477 41.459 41.459 0 01-7.577-5.652l-.024-.022a.541.541 0 01-.174-.394c.008-2.136.093-4.244.182-6.355l.23-6.325c.138-4.217.122-8.437.18-12.667l.009-.073a.098.098 0 00-.006.045l.391-.767c2.426-2.106 4.768-4.404 7.114-6.641a205.862 205.862 0 0013.379-14.157 363.8 363.8 0 006.244-7.508.161.161 0 01.202-.036.143.143 0 01.066.082c.01.034.007.07-.01.102zM90.44 65.444a.55.55 0 01-.289-.085.49.49 0 01-.137-.133.455.455 0 01-.068-.355 81.581 81.581 0 001.57-9.017.452.452 0 01.186-.318.52.52 0 01.372-.101.533.533 0 01.34.174.462.462 0 01.107.348 82.466 82.466 0 01-1.587 9.115.468.468 0 01-.177.267.527.527 0 01-.317.105z" fill="#000"/><path d="M77.95 97.134a98.42 98.42 0 0013.435 19.817 37.588 37.588 0 004.312 4.208 23.347 23.347 0 005.136 3.301 17.531 17.531 0 005.974 1.587c2.063.157 4.14-.036 6.129-.572a15.892 15.892 0 005.334-2.634 18.123 18.123 0 003.967-4.239 32.494 32.494 0 004.34-10.707 83.773 83.773 0 001.598-23.395.089.089 0 01.025-.069.105.105 0 01.137-.012.09.09 0 01.038.056 57.08 57.08 0 01.312 23.842 30.432 30.432 0 01-4.863 11.267 18.113 18.113 0 01-4.584 4.452 16.139 16.139 0 01-6.036 2.443 21.847 21.847 0 01-12.649-1.463c-3.92-1.7-7.457-4.08-10.424-7.014a47.74 47.74 0 01-7.417-9.8 54.85 54.85 0 01-4.954-11.003.09.09 0 01.033-.1.104.104 0 01.035-.017.113.113 0 01.07.006.1.1 0 01.051.046zm-24.128 53.3a1.568 1.568 0 001.039-.433 1.37 1.37 0 00.426-.985 1.37 1.37 0 00-.426-.986 1.568 1.568 0 00-1.04-.433 1.569 1.569 0 00-1.039.433 1.371 1.371 0 00-.426.986c0 .367.153.721.426.985.274.265.646.42 1.04.433zm7.647 4.082a1.563 1.563 0 001.04-.432 1.37 1.37 0 00.426-.986 1.37 1.37 0 00-.427-.985 1.569 1.569 0 00-1.039-.433 1.568 1.568 0 00-1.04.433 1.37 1.37 0 00-.426.985c0 .368.153.722.426.986.274.265.647.42 1.04.432zm9.104 1.361a1.563 1.563 0 001.04-.432c.273-.264.426-.618.426-.986s-.153-.721-.426-.986a1.573 1.573 0 00-1.04-.432 1.572 1.572 0 00-1.04.432 1.372 1.372 0 00-.426.986c0 .368.153.722.427.986.273.265.646.42 1.039.432zm9.104-5.784a1.572 1.572 0 001.04-.432c.273-.265.426-.618.426-.986a1.37 1.37 0 00-.426-.986 1.563 1.563 0 00-1.04-.432 1.563 1.563 0 00-1.04.432 1.371 1.371 0 00-.426.986c0 .368.153.721.427.986.273.264.646.419 1.04.432zm5.098-8.847a1.573 1.573 0 001.04-.432c.273-.265.426-.618.426-.986s-.153-.721-.426-.986a1.573 1.573 0 00-1.04-.432 1.572 1.572 0 00-1.04.432 1.372 1.372 0 00-.425.986c0 .368.152.721.426.986.273.264.646.419 1.04.432zm2.913-7.486a1.573 1.573 0 001.04-.432c.273-.265.426-.619.426-.986 0-.368-.153-.722-.426-.986a1.569 1.569 0 00-1.04-.433 1.568 1.568 0 00-1.039.433 1.37 1.37 0 00-.426.986c0 .367.153.721.426.986.273.264.646.419 1.04.432zm2.914-8.847a1.573 1.573 0 001.04-.432c.273-.265.426-.618.426-.986s-.153-.721-.426-.986a1.573 1.573 0 00-1.04-.432 1.573 1.573 0 00-1.04.432 1.373 1.373 0 00-.426.986c0 .368.153.721.427.986.273.264.646.419 1.04.432zm86.336 49.629a57.914 57.914 0 001.385-7.959c.304-2.668.428-5.351.369-8.033a55.427 55.427 0 00-.736-7.986 41.911 41.911 0 00-2.133-7.735c-2.809-7.631-8.288-14.155-15.553-18.518a41.588 41.588 0 00-3.692-2.07c-.616-.351-1.282-.606-1.93-.901l-1.949-.876c5.493 1.797 10.521 4.651 14.759 8.378l1.549 1.442 1.411 1.562c.489.508.888 1.081 1.32 1.63a19.2 19.2 0 011.224 1.694 34.678 34.678 0 013.813 7.344 44.578 44.578 0 012.692 16.032 53.644 53.644 0 01-2.529 15.996zm14.047-24.808a57.862 57.862 0 00-1.438-7.951 60.322 60.322 0 00-2.425-7.714 57.262 57.262 0 00-3.456-7.337 43.978 43.978 0 00-4.69-6.678c-5.294-6.375-12.733-10.897-21.117-12.836a43.117 43.117 0 00-4.209-.846c-.704-.146-1.423-.188-2.137-.271l-2.148-.242a44.054 44.054 0 0116.862 3.48l1.965.897 1.875 1.053c.639.333 1.214.755 1.812 1.145.604.382 1.187.794 1.744 1.234a36.935 36.935 0 016.146 5.801c3.558 4.317 6.293 9.176 8.085 14.362a53.765 53.765 0 013.131 15.903z" fill="#000"/></svg>