<svg width="408" height="582" viewBox="0 0 408 582" fill="none" xmlns="http://www.w3.org/2000/svg">
<path d="M150.909 251.592C149.612 237.64 150.15 223.588 152.51 209.762C152.345 212.079 150.414 240.054 150.909 251.592Z" fill="black"/>
<path d="M152.527 209.605C153.539 203.167 155.056 196.809 157.065 190.584C157.065 190.584 162.841 191.492 170.928 192.4C165.234 198.544 159.085 204.294 152.527 209.605Z" fill="black"/>
<path d="M248.808 209.607L225.274 204.409C224.977 206.194 224.663 207.916 224.333 209.607V209.623C230.159 222.037 235.522 234.624 240.705 247.289C245.887 259.97 250.739 272.744 255.426 285.597C259.948 298.497 264.338 311.444 268.216 324.532C272.028 337.635 275.494 350.832 278.085 364.202L275.56 354.308C274.768 350.989 273.728 347.733 272.837 344.461C271.929 341.173 271.022 337.885 269.998 334.629L266.995 324.86C262.869 311.867 258.495 298.946 253.874 286.098C249.319 273.23 244.451 260.471 239.533 247.712C237.074 241.34 234.571 234.979 232.024 228.628C229.532 222.272 226.924 215.963 224.333 209.623C223.2 215.656 221.735 221.629 219.943 227.516C225.637 245.833 230.835 264.275 235.786 282.764C240.754 301.268 245.309 319.866 249.6 338.512C253.726 357.204 257.571 375.959 260.509 394.855C261.945 404.31 263.149 413.797 263.942 423.316C264.849 432.837 264.816 442.418 263.843 451.933C264.506 442.419 264.268 432.868 263.133 423.394C262.192 413.907 260.839 404.451 259.255 395.042C257.621 385.634 255.921 376.241 254.023 366.879C252.125 357.517 250.095 348.171 247.983 338.84C243.84 320.179 239.252 301.612 234.565 283.061C232.238 273.777 229.84 264.51 227.37 255.257C224.96 246.005 222.452 236.753 219.943 227.516C218.666 231.711 217.129 235.831 215.339 239.853V239.868C216.411 251.876 217.088 263.899 217.633 275.938C218.194 288.008 218.408 300.063 218.54 312.133C218.54 324.203 218.359 336.289 217.666 348.343C217.184 360.414 215.755 372.434 213.391 384.303L214.612 375.333L215.438 366.331C215.85 360.319 216.246 354.308 216.411 348.28C216.824 336.242 217.022 324.203 216.89 312.148C216.906 300.094 216.659 288.039 216.378 275.985L215.883 257.903L215.339 239.868C192.498 290.419 150.909 251.594 150.909 251.594C151.95 263.032 151.384 274.551 149.225 285.848C144.472 311.084 135.296 353.134 123.216 376.522C105.177 411.48 65.3213 471.393 60.0566 492.793C60.0566 492.793 118.71 554.146 226.247 519.188C333.768 484.246 336.788 499.212 336.788 499.212C336.788 499.212 315.73 312.336 248.808 209.607ZM67.4172 492.762C66.7763 492.74 66.1695 492.483 65.7243 492.045C65.2792 491.607 65.0304 491.022 65.0304 490.414C65.0304 489.805 65.2792 489.221 65.7243 488.783C66.1695 488.345 66.7763 488.088 67.4172 488.066C68.0581 488.088 68.665 488.345 69.1101 488.783C69.5553 489.221 69.804 489.805 69.804 490.414C69.804 491.022 69.5553 491.607 69.1101 492.045C68.665 492.483 68.0581 492.74 67.4172 492.762ZM80.488 500.652C79.8471 500.63 79.2403 500.373 78.7952 499.935C78.35 499.497 78.1013 498.912 78.1013 498.304C78.1013 497.696 78.35 497.111 78.7952 496.673C79.2403 496.235 79.8471 495.978 80.488 495.956C81.1289 495.978 81.7358 496.235 82.1809 496.673C82.6261 497.111 82.8748 497.696 82.8748 498.304C82.8748 498.912 82.6261 499.497 82.1809 499.935C81.7358 500.373 81.1289 500.63 80.488 500.652ZM95.9354 509.67C95.2945 509.647 94.6876 509.39 94.2425 508.952C93.7973 508.514 93.5486 507.93 93.5486 507.321C93.5486 506.713 93.7973 506.128 94.2425 505.69C94.6876 505.252 95.2945 504.995 95.9354 504.973C96.5763 504.995 97.1831 505.252 97.6283 505.69C98.0734 506.128 98.3221 506.713 98.3221 507.321C98.3221 507.93 98.0734 508.514 97.6283 508.952C97.1831 509.39 96.5763 509.647 95.9354 509.67ZM113.165 516.433C112.524 516.41 111.917 516.153 111.472 515.715C111.027 515.277 110.778 514.693 110.778 514.084C110.778 513.476 111.027 512.891 111.472 512.453C111.917 512.015 112.524 511.758 113.165 511.736C113.806 511.758 114.413 512.015 114.858 512.453C115.303 512.891 115.552 513.476 115.552 514.084C115.552 514.693 115.303 515.277 114.858 515.715C114.413 516.153 113.806 516.41 113.165 516.433ZM131.583 520.941C130.942 520.919 130.335 520.662 129.89 520.224C129.445 519.786 129.196 519.201 129.196 518.593C129.196 517.985 129.445 517.4 129.89 516.962C130.335 516.524 130.942 516.267 131.583 516.245C132.224 516.267 132.831 516.524 133.276 516.962C133.721 517.4 133.97 517.985 133.97 518.593C133.97 519.201 133.721 519.786 133.276 520.224C132.831 520.662 132.224 520.919 131.583 520.941ZM150.595 524.886C149.954 524.864 149.347 524.607 148.902 524.169C148.457 523.731 148.208 523.147 148.208 522.538C148.208 521.93 148.457 521.345 148.902 520.907C149.347 520.469 149.954 520.212 150.595 520.19C151.236 520.212 151.843 520.469 152.288 520.907C152.733 521.345 152.982 521.93 152.982 522.538C152.982 523.147 152.733 523.731 152.288 524.169C151.843 524.607 151.236 524.864 150.595 524.886ZM170.795 525.45C170.155 525.428 169.548 525.171 169.103 524.733C168.657 524.295 168.409 523.71 168.409 523.102C168.409 522.493 168.657 521.909 169.103 521.471C169.548 521.033 170.155 520.776 170.795 520.754C171.436 520.776 172.043 521.033 172.488 521.471C172.934 521.909 173.182 522.493 173.182 523.102C173.182 523.71 172.934 524.295 172.488 524.733C172.043 525.171 171.436 525.428 170.795 525.45ZM189.808 523.759C189.167 523.737 188.56 523.48 188.115 523.042C187.67 522.604 187.421 522.019 187.421 521.411C187.421 520.803 187.67 520.218 188.115 519.78C188.56 519.342 189.167 519.085 189.808 519.063C190.449 519.085 191.055 519.342 191.5 519.78C191.946 520.218 192.194 520.803 192.194 521.411C192.194 522.019 191.946 522.604 191.5 523.042C191.055 523.48 190.449 523.737 189.808 523.759ZM208.82 518.123C208.179 518.101 207.572 517.844 207.127 517.406C206.682 516.968 206.433 516.384 206.433 515.775C206.433 515.167 206.682 514.582 207.127 514.144C207.572 513.706 208.179 513.449 208.82 513.427C209.461 513.449 210.067 513.706 210.513 514.144C210.958 514.582 211.206 515.167 211.206 515.775C211.206 516.384 210.958 516.968 210.513 517.406C210.067 517.844 209.461 518.101 208.82 518.123ZM228.426 513.051C227.785 513.029 227.178 512.772 226.733 512.334C226.288 511.896 226.039 511.311 226.039 510.703C226.039 510.095 226.288 509.51 226.733 509.072C227.178 508.634 227.785 508.377 228.426 508.355C229.067 508.377 229.674 508.634 230.119 509.072C230.564 509.51 230.813 510.095 230.813 510.703C230.813 511.311 230.564 511.896 230.119 512.334C229.674 512.772 229.067 513.029 228.426 513.051ZM248.032 506.852C247.391 506.829 246.784 506.572 246.339 506.134C245.894 505.696 245.645 505.112 245.645 504.503C245.645 503.895 245.894 503.31 246.339 502.872C246.784 502.435 247.391 502.177 248.032 502.155C248.673 502.177 249.28 502.435 249.725 502.872C250.17 503.31 250.419 503.895 250.419 504.503C250.419 505.112 250.17 505.696 249.725 506.134C249.28 506.572 248.673 506.829 248.032 506.852ZM270.015 500.089C269.374 500.066 268.767 499.809 268.322 499.371C267.877 498.933 267.628 498.349 267.628 497.74C267.628 497.132 267.877 496.547 268.322 496.109C268.767 495.671 269.374 495.414 270.015 495.392C270.656 495.414 271.263 495.671 271.708 496.109C272.153 496.547 272.402 497.132 272.402 497.74C272.402 498.349 272.153 498.933 271.708 499.371C271.263 499.809 270.656 500.066 270.015 500.089ZM292.592 494.453C291.951 494.431 291.344 494.173 290.899 493.736C290.454 493.298 290.205 492.713 290.205 492.105C290.205 491.496 290.454 490.911 290.899 490.474C291.344 490.036 291.951 489.778 292.592 489.756C293.233 489.778 293.839 490.036 294.285 490.474C294.73 490.911 294.978 491.496 294.978 492.105C294.978 492.713 294.73 493.298 294.285 493.736C293.839 494.173 293.233 494.431 292.592 494.453ZM311.01 491.635C310.369 491.613 309.762 491.356 309.317 490.918C308.872 490.48 308.623 489.895 308.623 489.287C308.623 488.678 308.872 488.094 309.317 487.656C309.762 487.218 310.369 486.961 311.01 486.938C311.651 486.961 312.257 487.218 312.703 487.656C313.148 488.094 313.396 488.678 313.396 489.287C313.396 489.895 313.148 490.48 312.703 490.918C312.257 491.356 311.651 491.613 311.01 491.635ZM327.645 490.508C327.004 490.486 326.397 490.228 325.952 489.79C325.507 489.352 325.258 488.768 325.258 488.159C325.258 487.551 325.507 486.966 325.952 486.528C326.397 486.091 327.004 485.833 327.645 485.811C328.286 485.833 328.893 486.091 329.338 486.528C329.783 486.966 330.032 487.551 330.032 488.159C330.032 488.768 329.783 489.352 329.338 489.79C328.893 490.228 328.286 490.486 327.645 490.508Z" fill="black"/>
<path d="M222.482 5.60608C222.482 5.60608 212.707 5.24944 211.203 17.7325C209.699 30.2155 195.035 27.0056 195.035 27.0056C195.035 27.0056 187.892 27.3622 190.9 35.922C193.908 44.4818 198.043 41.9853 198.043 41.9853C198.043 41.9853 199.029 59.7525 210.451 61.6015C210.451 61.6015 183.684 74.7672 178.169 60.8374C177.47 58.9673 177.279 56.9602 177.614 55.0016C178.09 51.8454 179.116 48.7863 180.65 45.9497C182.769 42.3338 183.83 38.246 183.723 34.1101C183.601 31.8025 183.105 29.5264 182.252 27.3622C178.868 18.8024 182.252 -0.813753 210.075 0.256231C210.075 0.256231 220.226 -1.17042 222.482 5.60608Z" fill="black"/>
<path d="M179.97 63.6544C178.797 66.2716 177.579 68.8682 176.357 71.4625L176.213 70.8268C180.046 73.5269 183.942 76.1534 187.899 78.7063C191.851 81.2537 195.923 83.6178 200.008 85.9266C204.079 88.2216 208.293 90.2801 212.627 92.0909C216.796 93.9729 221.284 95.135 225.883 95.5227L224.928 97.9874C221.158 94.9501 217.909 91.3754 215.296 87.3913C213.957 85.362 212.983 83.1352 212.415 80.8023C211.856 78.3934 212.122 75.8781 213.175 73.6227C214.164 71.4743 215.47 69.4697 217.052 67.6686C218.569 65.8666 220.229 64.1777 222.019 62.6168C223.865 61.0929 225.929 59.8232 228.149 58.8451C229.216 58.412 230.223 57.8562 231.147 57.1901C232.019 56.4899 232.777 55.6696 233.393 54.7565C234.611 52.8618 235.496 50.7925 236.015 48.6289C236.592 46.4523 236.98 44.2343 237.173 41.9974C237.584 37.4975 237.723 32.9791 237.591 28.4641L237.519 25.0645C237.426 23.9638 237.414 22.8778 237.216 21.8093C236.91 19.6801 236.255 17.6093 235.274 15.672C233.324 11.859 230.07 8.7852 226.042 6.95213L225.932 6.90568C225.75 6.82938 225.587 6.72 225.45 6.58375C225.314 6.44751 225.207 6.28709 225.136 6.11164C225.064 5.9362 225.03 5.74916 225.035 5.56123C225.04 5.37329 225.084 5.18814 225.165 5.01633C225.267 4.80036 225.424 4.6116 225.622 4.46665C225.819 4.32169 226.051 4.225 226.298 4.18504C227.962 3.92275 229.666 4.00095 231.296 4.41441C232.093 4.60794 232.869 4.86932 233.617 5.19536C234.348 5.54609 235.05 5.94816 235.718 6.39819C238.233 8.26388 240.176 10.734 241.346 13.5523C243.393 18.9015 244.357 24.5693 244.186 30.2577C244.09 35.5758 244.742 40.8824 246.123 46.0374C246.812 48.5235 247.905 50.8928 249.362 53.0604C250.072 54.0941 250.932 55.028 251.916 55.8347C252.4 56.2114 252.916 56.5491 253.459 56.8443C253.94 57.0983 254.453 57.2952 254.985 57.4308L255.091 57.4484C255.369 57.4946 255.625 57.6201 255.825 57.808C256.026 57.996 256.161 58.2375 256.213 58.5003C256.265 58.7631 256.231 59.0347 256.116 59.2788C256.001 59.5229 255.811 59.7279 255.569 59.8665C249.35 63.4709 242.879 66.6682 236.2 69.4362C232.861 70.8508 229.406 72.0063 225.869 72.8911C224.083 73.3346 222.252 73.5928 220.407 73.6613C219.468 73.7551 218.519 73.6567 217.623 73.3726C216.728 73.0885 215.907 72.6255 215.217 72.0147C215.188 71.985 215.173 71.946 215.174 71.9059C215.175 71.8657 215.192 71.8275 215.222 71.7991C215.252 71.7707 215.292 71.7543 215.335 71.7533C215.377 71.7523 215.418 71.7668 215.449 71.7938L215.46 71.803C216.151 72.3024 216.944 72.659 217.789 72.8501C218.634 73.0411 219.512 73.0622 220.366 72.9121C222.129 72.7228 223.865 72.353 225.545 71.8091C228.927 70.6985 232.228 69.3748 235.425 67.8469C238.637 66.329 241.785 64.6831 244.884 62.9577C247.984 61.2432 251.082 59.4797 254.064 57.6297L254.648 60.0652C253.77 59.9212 252.921 59.6482 252.132 59.256C251.41 58.8974 250.722 58.4799 250.076 58.0082C248.842 57.0684 247.753 55.9683 246.842 54.7403C245.093 52.3584 243.771 49.7186 242.929 46.9277C242.49 45.5644 242.184 44.178 241.851 42.7986C241.629 41.4098 241.335 40.0216 241.175 38.6296C241.045 37.2372 240.874 35.843 240.78 34.4502L240.657 30.2737C240.805 25.0139 239.982 19.77 238.225 14.7793C237.329 12.4667 235.802 10.4214 233.799 8.85285C233.299 8.50539 232.775 8.19094 232.229 7.91175C231.672 7.6592 231.092 7.45368 230.497 7.29755C229.342 6.98512 228.132 6.89306 226.939 7.02671L227.195 4.25982C229.548 5.32314 231.673 6.79246 233.459 8.59279C235.23 10.3462 236.664 12.3792 237.698 14.6002C238.727 16.7958 239.38 19.1331 239.631 21.5239C239.786 22.7018 239.744 23.9011 239.779 25.0653L239.677 28.4812C239.572 33.0554 239.215 37.6213 238.607 42.1601C238.286 44.4414 237.807 46.7003 237.175 48.9226C236.59 51.1897 235.62 53.3516 234.304 55.324C233.611 56.3153 232.765 57.202 231.794 57.9544C230.797 58.6432 229.723 59.2265 228.592 59.694C226.471 60.6535 224.503 61.8912 222.745 63.3708C219.28 66.3843 216.544 70.0736 214.725 74.1853C212.955 78.2789 214.767 82.5724 217.324 86.1752C220.005 89.7812 223.184 93.0296 226.775 95.8336L226.804 95.8564C227.036 96.0412 227.202 96.2902 227.278 96.5685C227.354 96.8469 227.337 97.1409 227.229 97.4096C227.121 97.6783 226.927 97.9083 226.675 98.0676C226.422 98.2269 226.124 98.3075 225.821 98.2984C220.83 97.9635 215.956 96.7067 211.474 94.5986C207.044 92.705 202.764 90.5084 198.67 88.0261C194.561 85.6079 190.616 82.9661 186.756 80.2332C182.896 77.4965 179.119 74.6732 175.508 71.6357L175.478 71.6109C175.39 71.5361 175.33 71.435 175.309 71.3241C175.288 71.2132 175.308 71.0988 175.364 70.9996C176.782 68.4967 178.206 65.9962 179.674 63.5164C179.694 63.4814 179.728 63.4553 179.769 63.4434C179.809 63.4315 179.853 63.4347 179.891 63.4524C179.929 63.4701 179.958 63.5009 179.973 63.5385C179.987 63.576 179.986 63.6175 179.97 63.6544Z" fill="black"/>
<path d="M221.873 63.4503C224.141 61.4551 226.758 59.8505 229.608 58.7089C238.341 54.8854 238.65 38.118 238.65 24.8657C238.65 10.2427 226.618 5.60608 226.618 5.60608C226.618 5.60608 242.41 2.39615 242.41 29.8589C242.41 57.3217 254.817 58.7483 254.817 58.7483C254.817 58.7483 221.891 78.6857 215.339 71.9092L221.873 63.4503Z" fill="black"/>
<path d="M209.563 22.6196C210.419 21.8657 211.451 21.3137 212.574 21.0086C213.689 20.6772 214.853 20.515 216.022 20.5278C217.186 20.547 218.341 20.7343 219.446 21.0832C220.549 21.4155 221.578 21.9362 222.482 22.6196C221.318 22.541 220.247 22.3683 219.173 22.277C218.106 22.1582 217.049 22.1152 215.999 22.0921C214.942 22.0742 213.885 22.1104 212.833 22.2005C211.767 22.2939 210.699 22.4232 209.563 22.6196Z" fill="black"/>
<path d="M229.25 22.6197C229.929 22.1714 230.686 21.8409 231.486 21.6433C232.267 21.4343 233.071 21.3141 233.882 21.2851C234.704 21.261 235.526 21.3442 236.325 21.5324C237.148 21.714 237.911 22.0877 238.544 22.6197C236.868 22.7195 235.459 22.7947 233.934 22.849C232.368 22.9286 230.799 22.8517 229.25 22.6197Z" fill="black"/>
<path d="M215.339 31.6201C215.82 31.6044 216.276 31.4119 216.611 31.0833C216.945 30.7548 217.132 30.3157 217.132 29.8589C217.132 29.402 216.945 28.963 216.611 28.6344C216.276 28.3059 215.82 28.1134 215.339 28.0977C214.857 28.1134 214.401 28.3059 214.067 28.6344C213.732 28.963 213.545 29.402 213.545 29.8589C213.545 30.3157 213.732 30.7548 214.067 31.0833C214.401 31.4119 214.857 31.6044 215.339 31.6201Z" fill="black"/>
<path d="M195.089 40.9797C195.57 40.964 196.026 40.7715 196.361 40.443C196.695 40.1144 196.882 39.6755 196.882 39.2186C196.882 38.7618 196.695 38.3228 196.361 37.9943C196.026 37.6657 195.57 37.4733 195.089 37.4575C194.607 37.4733 194.151 37.6657 193.817 37.9943C193.482 38.3228 193.295 38.7618 193.295 39.2186C193.295 39.6755 193.482 40.1144 193.817 40.443C194.151 40.7715 194.607 40.964 195.089 40.9797Z" fill="black"/>
<path d="M232.258 30.907C232.739 30.8912 233.195 30.6988 233.53 30.3702C233.865 30.0416 234.052 29.6026 234.052 29.1458C234.052 28.6889 233.865 28.2499 233.53 27.9213C233.195 27.5927 232.739 27.4003 232.258 27.3845C231.777 27.4003 231.321 27.5927 230.986 27.9213C230.651 28.2499 230.464 28.6889 230.464 29.1458C230.464 29.6026 230.651 30.0416 230.986 30.3702C231.321 30.6988 231.777 30.8912 232.258 30.907Z" fill="black"/>
<path d="M220.226 44.1248C222.149 44.9137 224.2 45.3821 226.291 45.5095C227.285 45.5517 228.281 45.4405 229.238 45.1804C230.269 44.8956 231.278 44.5429 232.258 44.1248C231.629 45.0563 230.75 45.8127 229.711 46.3165C229.182 46.582 228.621 46.785 228.04 46.9208C227.449 47.0285 226.848 47.0797 226.246 47.0738C225.057 47.0355 223.893 46.7459 222.837 46.2261C221.799 45.7383 220.903 45.0169 220.226 44.1248Z" fill="black"/>
<path d="M222.482 35.9221C223.48 36.673 224.548 37.3352 225.674 37.9003C226.201 38.1598 226.749 38.3772 227.314 38.5505C227.901 38.7537 228.529 38.8833 229.25 39.1321C228.629 39.5332 227.897 39.7521 227.146 39.7616C226.377 39.7878 225.615 39.6278 224.93 39.2967C224.247 38.9699 223.658 38.4901 223.215 37.899C222.762 37.3273 222.506 36.6369 222.482 35.9221Z" fill="black"/>
<path d="M238.273 113.743C238.08 113.743 237.893 113.679 237.744 113.562C237.596 113.444 237.496 113.281 237.462 113.101C236.88 110.065 228.444 100.765 225.243 97.4382C225.096 97.2848 225.02 97.0825 225.03 96.8758C225.041 96.669 225.137 96.4746 225.298 96.3351C225.459 96.1956 225.672 96.1223 225.89 96.1314C226.108 96.1404 226.314 96.2309 226.461 96.3833C227.673 97.6415 238.313 108.793 239.085 112.82C239.104 112.921 239.103 113.025 239.08 113.125C239.057 113.226 239.014 113.321 238.952 113.406C238.89 113.491 238.812 113.563 238.721 113.619C238.629 113.674 238.528 113.712 238.421 113.731C238.372 113.739 238.322 113.743 238.273 113.743Z" fill="black"/>
<path d="M175.862 71.2327C169.536 77.8596 164.415 85.4374 160.708 93.6565C157.023 101.77 154.92 110.451 154.503 119.278C154.451 121.482 154.538 123.672 154.554 125.9C154.639 128.108 154.812 130.332 154.983 132.548C155.33 136.973 155.927 141.377 156.772 145.742C157.168 147.937 157.715 150.02 158.319 152.202C158.941 154.413 159.464 156.645 159.863 158.895C160.689 163.394 161.099 167.954 161.087 172.521L160.454 171.627C164.029 173.069 167.764 174.345 171.497 175.537C175.246 176.711 179.055 177.72 182.893 178.674C180.931 178.406 178.958 178.159 177.013 177.782C175.061 177.431 173.119 177.026 171.182 176.596C167.287 175.749 163.447 174.687 159.683 173.416C159.507 173.356 159.354 173.249 159.243 173.107C159.131 172.965 159.066 172.796 159.055 172.619L159.049 172.521C158.78 168.102 158.153 163.71 157.173 159.382C156.688 157.218 156.147 155.067 155.478 152.955C154.816 150.808 154.153 148.542 153.688 146.317C151.839 137.371 151.042 128.257 151.314 119.144C151.87 109.97 154.354 100.994 158.619 92.7429C162.835 84.5756 168.692 77.2686 175.862 71.2327Z" fill="black"/>
<path d="M182.611 94.9717C189.609 94.0869 196.729 94.8485 203.344 97.1895C210.056 99.4478 216.096 103.209 220.949 108.153C223.291 110.641 225.406 113.312 227.273 116.138C229.075 118.962 230.719 121.874 232.199 124.862C235.186 130.821 237.587 137.03 239.371 143.408C239.429 143.616 239.414 143.837 239.329 144.037C239.244 144.237 239.093 144.406 238.898 144.518L238.814 144.566C235.281 146.597 231.684 148.488 228.06 150.351C224.422 152.184 220.751 153.967 217.049 155.701C213.325 157.396 209.558 159.029 205.647 160.399C203.688 161.081 201.716 161.75 199.652 162.262C198.602 162.535 197.536 162.746 196.459 162.897C195.211 163.127 193.924 163.086 192.694 162.778C192.509 162.724 192.337 162.634 192.191 162.513C192.045 162.392 191.927 162.243 191.846 162.075C190.206 158.634 188.604 155.174 187.043 151.696C185.452 148.232 183.93 144.735 182.48 141.205C182.465 141.168 182.464 141.128 182.48 141.091C182.495 141.054 182.524 141.024 182.561 141.007C182.598 140.989 182.641 140.986 182.681 140.997C182.721 141.008 182.755 141.033 182.776 141.067C184.827 144.317 186.815 147.597 188.74 150.905C190.691 154.202 192.599 157.519 194.464 160.855L193.617 160.153C194.4 160.242 195.194 160.194 195.96 160.013C196.906 159.831 197.84 159.596 198.757 159.307C200.636 158.735 202.528 158.077 204.399 157.356C208.137 155.891 211.87 154.342 215.585 152.74C223.03 149.562 230.372 146.094 237.734 142.7L237.177 143.858C236.155 137.429 234.176 131.17 231.299 125.269C229.832 122.339 228.057 119.557 226.002 116.965C223.925 114.425 221.634 112.049 219.152 109.861C214.212 105.548 208.546 102.047 202.39 99.505C196.128 96.9862 189.44 95.5562 182.645 95.2832L182.629 95.2826C182.588 95.2813 182.549 95.2654 182.52 95.2381C182.49 95.2109 182.473 95.1742 182.471 95.1352C182.468 95.0963 182.481 95.0579 182.507 95.0277C182.533 94.9974 182.57 94.9775 182.611 94.9717L182.611 94.9717Z" fill="black"/>
<path d="M213.384 80.5223C216.46 80.2847 219.542 80.9031 222.254 82.3017C225.008 83.7091 227.342 85.7549 229.038 88.2484C230.682 90.7312 231.837 93.4758 232.449 96.3493C232.708 97.7749 232.891 99.212 233.045 100.637C233.035 102.081 233.08 103.512 233.018 104.936C232.706 103.527 232.502 102.125 232.243 100.736L231.199 96.6434L230.488 94.6671L230.145 93.679C230.008 93.3589 229.839 93.0518 229.688 92.7381L228.789 90.8558L227.658 89.104C226.086 86.7696 223.993 84.791 221.526 83.3082C219.06 81.8253 216.28 80.8743 213.384 80.5223Z" fill="black"/>
<path d="M189.788 67.2246C191.598 68.2777 193.465 69.2414 195.38 70.112C197.264 70.9843 199.196 71.761 201.166 72.439C203.132 73.1306 205.134 73.7254 207.165 74.221C209.199 74.7427 211.27 75.1361 213.384 75.5779C211.227 75.7752 209.053 75.7216 206.91 75.4185C202.588 74.8333 198.445 73.3869 194.755 71.1746C192.901 70.0994 191.227 68.7681 189.788 67.2246Z" fill="black"/>
<path d="M236.348 144.622C239.896 148.525 243.206 152.617 246.261 156.879C249.378 161.101 252.235 165.49 254.817 170.025C251.266 166.124 247.956 162.032 244.904 157.768C241.79 153.544 238.933 149.155 236.348 144.622Z" fill="black"/>
<path d="M229.688 121.318C232.748 117.9 235.919 114.58 239.159 111.323C242.406 108.072 245.727 104.888 249.121 101.771C252.536 98.6739 255.981 95.6004 259.615 92.7035C261.453 91.2785 263.292 89.8488 265.268 88.5555C266.255 87.9054 267.252 87.2663 268.311 86.6745C268.849 86.3677 269.404 86.088 269.974 85.8364C270.64 85.5163 271.367 85.3243 272.112 85.2715C272.237 85.264 272.361 85.2858 272.474 85.335L272.494 85.344C275.738 86.7658 278.931 88.2781 282.177 89.6781C285.411 91.1048 288.665 92.4842 291.926 93.8532L301.721 97.9647C303.353 98.6618 304.973 99.3843 306.588 100.149C307.397 100.529 308.2 100.931 309.003 101.367C309.406 101.598 309.802 101.812 310.213 102.096C310.437 102.238 310.648 102.397 310.844 102.572C310.958 102.678 311.057 102.755 311.18 102.889C311.334 103.093 311.461 103.314 311.561 103.546C311.61 103.662 311.635 103.786 311.633 103.911C311.632 104.036 311.605 104.159 311.553 104.274C311.502 104.389 311.427 104.493 311.333 104.58C311.239 104.668 311.128 104.737 311.006 104.784L310.908 104.816L310.694 104.873C303.839 106.813 297.205 109.397 290.891 112.586C287.7 114.135 284.632 115.902 281.59 117.692L277.079 120.462L272.69 123.406C266.886 127.423 261.395 131.833 256.26 136.6C253.572 138.886 251.216 141.477 248.724 143.966C246.266 146.484 244.055 149.203 241.628 151.788L241.62 151.797C241.592 151.826 241.554 151.844 241.513 151.848C241.471 151.852 241.43 151.841 241.397 151.817C241.364 151.793 241.342 151.759 241.334 151.72C241.327 151.681 241.335 151.642 241.357 151.608C242.334 150.153 243.339 148.71 244.353 147.269C245.395 145.85 246.297 144.32 247.482 143C249.77 140.3 251.919 137.466 254.454 134.949C255.702 133.676 256.914 132.364 258.198 131.119L262.187 127.513C263.494 126.284 264.911 125.172 266.329 124.06C267.767 122.974 269.12 121.781 270.631 120.781C276.489 116.538 282.789 112.874 289.433 109.847C296.03 106.678 303.016 104.3 310.231 102.766L309.365 104.093C309.358 104.113 309.359 104.135 309.367 104.155C309.376 104.175 309.392 104.191 309.412 104.201L309.281 104.066C309.163 103.942 309.033 103.828 308.892 103.727C308.604 103.489 308.242 103.254 307.9 103.024C307.19 102.567 306.45 102.123 305.693 101.698C304.182 100.843 302.624 100.036 301.059 99.2411C297.928 97.6489 294.742 96.1502 291.501 94.7451C288.272 93.3245 285.006 91.9793 281.705 90.7093C278.416 89.4171 275.058 88.2698 271.731 87.0779L272.112 87.1504C271.695 87.2644 271.296 87.4283 270.922 87.6381C270.444 87.8969 269.98 88.179 269.532 88.4833C268.608 89.0979 267.704 89.7814 266.81 90.4769C265.036 91.8911 263.26 93.3298 261.518 94.8102C258 97.7332 254.499 100.695 251.016 103.694L240.539 112.667C237.031 115.648 233.492 118.606 229.922 121.538C229.891 121.564 229.85 121.578 229.809 121.577C229.767 121.576 229.727 121.559 229.697 121.532C229.668 121.504 229.65 121.466 229.648 121.427C229.647 121.387 229.661 121.348 229.688 121.318L229.688 121.318Z" fill="black"/>
<path d="M251.81 110.463L260.832 118.954L275.872 107.254L266.097 99.7642L251.81 110.463Z" fill="black"/>
<path d="M299.193 107.245C301.218 108.712 303.094 110.354 304.799 112.149C305.667 113.069 306.471 114.042 307.207 115.061C308.083 116.208 308.639 117.548 308.822 118.954C308.847 119.215 308.778 119.476 308.626 119.694C308.473 119.913 308.246 120.075 307.983 120.154L307.801 120.209C306.812 120.506 305.808 120.751 304.813 121.025C303.813 121.284 302.822 121.576 301.815 121.808L302.527 119.498C303.327 120.363 304.042 121.296 304.662 122.285C305.281 123.244 305.82 124.248 306.275 125.286C307.184 127.349 307.815 129.512 308.151 131.724L308.162 131.793C308.175 131.878 308.17 131.963 308.148 132.046C308.126 132.128 308.087 132.206 308.034 132.274C307.98 132.343 307.913 132.4 307.836 132.444C307.758 132.487 307.673 132.516 307.584 132.528L307.535 132.534C301.94 133.038 296.473 134.422 291.357 136.629C286.225 138.717 281.21 141.053 276.331 143.628C271.521 146.271 266.761 148.982 262.217 152.037C257.577 154.985 253.301 158.385 248.831 161.733C248.798 161.761 248.755 161.774 248.711 161.772C248.667 161.769 248.626 161.75 248.597 161.718C248.573 161.69 248.56 161.656 248.559 161.62C248.557 161.584 248.568 161.549 248.59 161.519C252.008 157.162 255.97 153.214 260.388 149.761C262.588 148.011 264.889 146.378 267.28 144.87C268.46 144.091 269.738 143.463 270.962 142.753C272.189 142.045 273.456 141.403 274.758 140.828C279.84 138.313 285.202 136.342 290.744 134.951C296.276 133.548 301.745 132.339 307.375 131.193L306.759 132.002C306.129 130.011 305.229 128.106 304.082 126.335C303.529 125.448 302.921 124.595 302.3 123.759C301.669 122.949 301 122.084 300.352 121.402C300.183 121.224 300.065 121.008 300.008 120.774C299.951 120.541 299.958 120.297 300.027 120.067C300.097 119.836 300.227 119.626 300.406 119.457C300.584 119.287 300.805 119.163 301.048 119.097L301.065 119.093C302.062 118.825 303.077 118.62 304.082 118.38C305.091 118.155 306.093 117.902 307.109 117.7L306.088 118.954C305.976 117.99 305.647 117.059 305.124 116.224C304.587 115.226 303.929 114.253 303.267 113.271C301.907 111.326 300.438 109.403 298.96 107.466C298.933 107.433 298.922 107.391 298.928 107.349C298.934 107.308 298.957 107.27 298.993 107.245C299.022 107.225 299.057 107.214 299.093 107.214C299.129 107.214 299.164 107.225 299.193 107.245Z" fill="black"/>
<path d="M245.583 157.323C249.077 152.945 252.901 148.813 257.025 144.959C261.115 141.056 265.487 137.427 270.107 134.098C274.735 130.756 279.684 127.833 284.889 125.368C290.102 122.92 295.686 121.26 301.439 120.45C300.051 120.847 298.666 121.227 297.284 121.591L296.249 121.867L295.247 122.247L293.248 123.005L291.243 123.732C290.589 124.009 289.951 124.322 289.304 124.614C288.026 125.229 286.707 125.756 285.468 126.439C280.463 129.082 275.662 132.058 271.101 135.346C266.497 138.59 262.171 142.18 257.898 145.826C255.756 147.646 253.681 149.538 251.645 151.469C249.564 153.361 247.57 155.333 245.583 157.323Z" fill="black"/>
<path d="M162.816 173.5C163.545 176.344 163.822 179.277 163.639 182.199C163.559 183.667 163.348 185.127 163.01 186.561C162.725 188.036 162.059 189.422 161.071 190.593C161.449 189.212 161.673 187.798 161.737 186.373L161.992 182.117C162.103 179.232 162.378 176.356 162.816 173.5Z" fill="black"/>
<path d="M61.0591 537.502C61.0591 537.502 62.9808 513.25 69.4143 511.348C69.4143 511.348 107.932 557.951 125.478 551.293C125.478 551.293 130.742 547.964 127.483 540.356C127.483 540.356 157.813 567.224 157.813 573.168C157.813 579.112 130.992 586.959 107.18 573.168C83.3675 559.377 81.3623 549.391 81.3623 549.391L79.1064 555.097L60.0564 553.195L61.0591 537.502Z" fill="black"/>
<path d="M75.4671 505C74.9332 506.374 74.1117 507.633 73.0519 508.699C72.0426 509.808 70.8048 510.709 69.4146 511.347C69.9506 509.973 70.7719 508.715 71.8297 507.648C72.8455 506.545 74.0818 505.645 75.4671 505Z" fill="black"/>
<path d="M118.275 524.207C119.841 526.976 121.176 529.738 122.639 532.443C123.36 533.798 124.125 535.123 124.904 536.45C125.716 537.758 126.564 539.037 127.483 540.355C124.766 538.505 122.592 536.026 121.169 533.153C120.428 531.751 119.804 530.296 119.301 528.802C118.78 527.311 118.436 525.77 118.275 524.207Z" fill="black"/>
<path d="M304.949 543.208C304.949 543.208 356.212 548.552 371.136 532.568C372.036 531.608 372.636 530.43 372.869 529.166C373.102 527.901 372.96 526.6 372.457 525.408C371.954 524.216 371.111 523.18 370.023 522.417C368.934 521.654 367.643 521.194 366.294 521.088C361.28 520.801 356.248 521.123 351.32 522.047C351.32 522.047 399.697 506.591 405.211 510.396C410.726 514.2 409.473 550.579 336.782 557.95L345.304 572.93L318.735 581.49C318.735 581.49 317.732 568.174 312.719 564.37C307.706 560.566 301.439 551.768 304.949 543.208Z" fill="black"/>
<path d="M336.782 499.221C337.283 501.596 337.889 503.922 338.544 506.216C339.193 508.494 340.023 510.722 341.026 512.881C341.977 515.017 343.308 516.981 344.963 518.687C346.67 520.397 348.889 521.57 351.32 522.047C348.662 522.147 346.066 521.262 344.083 519.58C342.115 517.901 340.559 515.835 339.522 513.525C338.483 511.273 337.734 508.909 337.293 506.487C336.827 504.092 336.655 501.653 336.782 499.221Z" fill="black"/>
<path d="M284.94 502.246C292.602 506.037 298.79 512.046 302.606 519.401C303.54 521.248 304.319 523.161 304.938 525.123C305.492 527.1 305.857 529.12 306.026 531.16C306.149 532.171 306.203 533.189 306.187 534.206L306.045 537.249C305.971 538.259 305.814 539.262 305.574 540.249C305.383 541.243 305.172 542.23 304.949 543.209C305.395 539.247 305.334 535.248 304.765 531.301C304.464 529.354 304.021 527.43 303.439 525.541C302.808 523.671 302.033 521.847 301.122 520.084C299.304 516.535 296.993 513.233 294.251 510.266C292.874 508.771 291.402 507.356 289.844 506.03C288.303 504.663 286.665 503.399 284.94 502.246Z" fill="black"/>
<path d="M195.481 161.698C190.466 171.176 184.379 180.108 177.328 188.337C175.595 190.42 173.767 192.431 171.918 194.419C170.074 196.411 168.19 198.379 166.216 200.262C162.298 204.091 158.086 207.638 153.615 210.876L154.252 209.605C154.244 209.735 154.23 209.864 154.21 209.992L154.223 209.872C153.358 216.792 152.519 223.739 152.09 230.698C151.87 234.178 151.747 237.661 151.701 241.143C151.674 244.623 151.715 248.113 151.988 251.55L151.667 250.862C155.508 253.968 159.731 256.622 164.244 258.766C168.616 260.94 173.321 262.451 178.187 263.242C182.871 264.011 187.688 263.53 192.1 261.852C196.469 260.067 200.331 257.33 203.373 253.861C206.596 250.318 209.315 246.389 211.461 242.175C213.736 237.901 215.709 233.487 217.368 228.965C220.756 219.857 223.153 210.365 225.607 200.836C225.614 200.806 225.626 200.777 225.645 200.752C225.663 200.726 225.687 200.705 225.714 200.688C225.741 200.671 225.772 200.659 225.804 200.654C225.836 200.648 225.869 200.648 225.901 200.655C225.959 200.668 226.01 200.7 226.046 200.745C226.082 200.791 226.1 200.846 226.097 200.903C225.458 210.761 223.819 220.537 221.202 230.097C219.831 234.93 218.055 239.65 215.892 244.215C215.32 245.355 214.778 246.507 214.155 247.627L212.14 250.933C211.455 252.039 210.704 253.107 209.892 254.132L208.71 255.704C208.291 256.212 207.807 256.681 207.358 257.17C205.557 259.163 203.531 260.961 201.315 262.532C199.054 264.123 196.564 265.399 193.922 266.322C188.64 268.157 182.919 268.546 177.415 267.442C172.119 266.402 167.069 264.451 162.515 261.684C158.025 259.03 153.876 255.888 150.152 252.323L150.113 252.286C149.932 252.113 149.83 251.878 149.83 251.634C149.843 248.096 149.982 244.605 150.127 241.109L150.502 230.632C150.727 223.648 150.7 216.659 150.797 209.652L150.81 209.532C150.801 209.555 150.798 209.58 150.801 209.605L151.438 208.335C155.397 204.848 159.217 201.041 163.044 197.336C166.853 193.593 170.599 189.775 174.235 185.868C177.874 181.961 181.419 177.968 184.871 173.888C188.324 169.808 191.693 165.653 195.06 161.452C195.097 161.405 195.152 161.373 195.212 161.362C195.273 161.352 195.336 161.363 195.389 161.393C195.442 161.424 195.48 161.472 195.497 161.529C195.515 161.585 195.509 161.646 195.482 161.698L195.481 161.698Z" fill="black"/>
<path d="M218.657 108.523C218.597 108.523 218.538 108.517 218.48 108.505C218.374 108.483 218.274 108.441 218.185 108.383C218.096 108.324 218.02 108.25 217.962 108.163C217.903 108.077 217.863 107.98 217.844 107.879C217.825 107.778 217.827 107.674 217.85 107.574C218.979 102.643 219.834 97.6584 220.41 92.6419C220.422 92.5396 220.455 92.4404 220.507 92.3501C220.559 92.2598 220.63 92.1801 220.714 92.1157C220.799 92.0512 220.896 92.0032 221 91.9744C221.104 91.9456 221.213 91.9366 221.321 91.9478C221.429 91.9591 221.534 91.9904 221.629 92.04C221.724 92.0896 221.808 92.1565 221.875 92.2369C221.943 92.3172 221.994 92.4095 222.024 92.5084C222.054 92.6073 222.063 92.7108 222.051 92.8131C221.468 97.8841 220.604 102.922 219.462 107.907C219.422 108.082 219.321 108.238 219.174 108.35C219.028 108.462 218.845 108.523 218.657 108.523Z" fill="black"/>
<path d="M198.278 161.012C204.188 172.739 211.546 183.757 220.197 193.836C222.342 196.334 224.695 198.665 227.233 200.805C229.754 202.977 232.573 204.816 235.612 206.274C238.658 207.722 241.965 208.613 245.359 208.901C248.725 209.162 252.113 208.841 255.358 207.955C258.533 207.055 261.489 205.572 264.061 203.592C266.599 201.594 268.784 199.224 270.533 196.571C273.939 191.085 276.333 185.087 277.613 178.837C280.27 166.084 281.147 153.056 280.221 140.087C280.218 140.045 280.232 140.004 280.261 139.973C280.29 139.942 280.331 139.923 280.375 139.92C280.415 139.918 280.454 139.93 280.486 139.953C280.517 139.976 280.539 140.009 280.548 140.045C283.454 153.049 283.626 166.469 281.056 179.536C279.709 186.185 277.015 192.522 273.121 198.197C271.11 201.056 268.578 203.553 265.644 205.571C262.702 207.569 259.345 208.949 255.796 209.618C248.82 210.907 241.593 210.058 235.159 207.194C228.764 204.379 222.993 200.437 218.152 195.576C213.412 190.672 209.347 185.218 206.052 179.345C202.69 173.557 199.98 167.448 197.968 161.121C197.962 161.102 197.96 161.081 197.962 161.06C197.964 161.04 197.971 161.02 197.981 161.002C197.992 160.984 198.006 160.968 198.023 160.955C198.04 160.942 198.059 160.932 198.08 160.926C198.118 160.917 198.159 160.921 198.195 160.936C198.231 160.952 198.26 160.979 198.278 161.012Z" fill="black"/>
<path d="M158.913 249.292C159.555 249.27 160.163 249.014 160.609 248.576C161.055 248.138 161.305 247.552 161.305 246.943C161.305 246.334 161.055 245.749 160.609 245.311C160.163 244.873 159.555 244.616 158.913 244.595C158.272 244.616 157.664 244.873 157.218 245.311C156.771 245.749 156.522 246.334 156.522 246.943C156.522 247.552 156.771 248.138 157.218 248.576C157.664 249.014 158.272 249.27 158.913 249.292Z" fill="black"/>
<path d="M171.39 256.054C172.032 256.033 172.64 255.777 173.086 255.339C173.532 254.901 173.781 254.315 173.781 253.706C173.781 253.097 173.532 252.512 173.086 252.074C172.64 251.636 172.032 251.379 171.39 251.358C170.748 251.379 170.14 251.636 169.694 252.074C169.248 252.512 168.999 253.097 168.999 253.706C168.999 254.315 169.248 254.901 169.694 255.339C170.14 255.777 170.748 256.033 171.39 256.054Z" fill="black"/>
<path d="M186.243 258.309C186.885 258.288 187.493 258.031 187.939 257.593C188.385 257.155 188.635 256.57 188.635 255.96C188.635 255.351 188.385 254.766 187.939 254.328C187.493 253.89 186.885 253.633 186.243 253.612C185.602 253.633 184.993 253.89 184.547 254.328C184.101 254.766 183.852 255.351 183.852 255.96C183.852 256.57 184.101 257.155 184.547 257.593C184.993 258.031 185.602 258.288 186.243 258.309Z" fill="black"/>
<path d="M201.096 248.728C201.738 248.706 202.346 248.45 202.792 248.012C203.238 247.574 203.488 246.988 203.488 246.379C203.488 245.77 203.238 245.185 202.792 244.747C202.346 244.309 201.738 244.052 201.096 244.031C200.455 244.052 199.847 244.309 199.401 244.747C198.955 245.185 198.705 245.77 198.705 246.379C198.705 246.988 198.955 247.574 199.401 248.012C199.847 248.45 200.455 248.706 201.096 248.728Z" fill="black"/>
<path d="M209.414 234.074C210.056 234.053 210.664 233.797 211.11 233.359C211.556 232.921 211.805 232.335 211.805 231.726C211.805 231.117 211.556 230.532 211.11 230.094C210.664 229.656 210.056 229.399 209.414 229.378C208.772 229.399 208.164 229.656 207.718 230.094C207.272 230.532 207.023 231.117 207.023 231.726C207.023 232.335 207.272 232.921 207.718 233.359C208.164 233.797 208.772 234.053 209.414 234.074Z" fill="black"/>
<path d="M214.167 221.675C214.809 221.654 215.417 221.398 215.863 220.959C216.309 220.521 216.558 219.936 216.558 219.327C216.558 218.718 216.309 218.133 215.863 217.695C215.417 217.256 214.809 217 214.167 216.979C213.526 217 212.918 217.256 212.471 217.695C212.025 218.133 211.776 218.718 211.776 219.327C211.776 219.936 212.025 220.521 212.471 220.959C212.918 221.398 213.526 221.654 214.167 221.675Z" fill="black"/>
<path d="M218.92 207.022C219.562 207.001 220.17 206.744 220.616 206.306C221.062 205.868 221.312 205.283 221.312 204.674C221.312 204.065 221.062 203.48 220.616 203.041C220.17 202.603 219.562 202.347 218.92 202.326C218.279 202.347 217.671 202.603 217.224 203.041C216.778 203.48 216.529 204.065 216.529 204.674C216.529 205.283 216.778 205.868 217.224 206.306C217.671 206.744 218.279 207.001 218.92 207.022Z" fill="black"/>
<path d="M29.4295 317.436C27.8129 321.62 26.4873 325.901 25.4613 330.25C24.3893 334.576 23.6073 338.961 23.1201 343.38C22.6242 347.786 22.4436 352.218 22.5796 356.647C22.7524 361.063 23.3464 365.455 24.3543 369.769C27.2455 382.85 34.7001 394.625 45.5144 403.193C47.2789 404.655 49.1238 406.028 51.0414 407.305C51.9627 408 52.9858 408.549 53.97 409.157L56.9356 410.972C48.4335 406.963 40.9133 401.305 34.8616 394.364L32.6651 391.697L30.7204 388.858C30.0389 387.93 29.5179 386.912 28.938 385.926C28.3436 384.947 27.8046 383.94 27.3235 382.907C25.2851 378.819 23.7486 374.524 22.744 370.104C20.8254 361.263 20.5282 352.175 21.8654 343.238C23.0836 334.34 25.6305 325.652 29.4295 317.436Z" fill="black"/>
<path d="M1.30627 355.504C1.19995 359.96 1.40175 364.417 1.91032 368.848C2.36735 373.27 3.11929 377.66 4.16163 381.992C5.19116 386.314 6.52827 390.564 8.16374 394.714C9.82978 398.841 11.8863 402.817 14.3082 406.592C21.4952 418.087 32.5571 426.95 45.7076 431.748C47.8752 432.592 50.0884 433.327 52.338 433.949C53.4463 434.324 54.6013 434.53 55.7397 434.804L59.1643 435.615C49.753 434.423 40.7102 431.37 32.6211 426.654L29.6348 424.802L26.8283 422.71C25.8674 422.04 25.0278 421.236 24.1435 420.48C23.248 419.736 22.3951 418.947 21.5882 418.117C18.2683 414.872 15.3525 411.277 12.8979 407.401C8.07402 399.621 4.70052 391.109 2.92567 382.242C1.05145 373.447 0.506178 364.444 1.30627 355.504Z" fill="black"/>
<path d="M359.778 289.224C360.834 284.881 361.589 280.477 362.037 276.041C362.534 271.622 362.735 267.179 362.64 262.736C362.555 258.306 362.153 253.887 361.438 249.509C360.688 245.147 359.524 240.859 357.958 236.697C353.376 224.058 344.436 213.253 332.584 206.027C330.641 204.784 328.631 203.639 326.561 202.598C325.556 202.017 324.469 201.593 323.412 201.106L320.232 199.654C329.193 202.63 337.397 207.358 344.31 213.531L346.839 215.919L349.141 218.506C349.939 219.347 350.589 220.296 351.294 221.206C352.012 222.107 352.678 223.043 353.291 224.012C355.849 227.827 357.937 231.908 359.512 236.175C362.574 244.721 364.06 253.704 363.904 262.73C363.86 271.702 362.471 280.623 359.778 289.224Z" fill="black"/>
<path d="M382.696 248.135C382.218 243.701 381.434 239.302 380.349 234.965C379.316 230.631 377.995 226.364 376.393 222.188C374.805 218.022 372.922 213.962 370.755 210.036C368.562 206.138 366 202.436 363.103 198.976C354.465 188.416 342.328 180.926 328.651 177.715C326.39 177.133 324.097 176.666 321.784 176.314C320.635 176.072 319.462 176.003 318.296 175.866L314.792 175.465C324.287 175.539 333.659 177.502 342.304 181.228L345.509 182.713L348.568 184.458C349.61 185.01 350.548 185.709 351.524 186.354C352.51 186.987 353.46 187.669 354.369 188.398C358.089 191.226 361.453 194.45 364.396 198.006C370.202 205.158 374.664 213.205 377.587 221.795C380.599 230.301 382.319 239.169 382.696 248.135Z" fill="black"/>
</svg>
