<svg width="206" height="351" viewBox="0 0 206 351" fill="none" xmlns="http://www.w3.org/2000/svg">
<path d="M48.9156 151.822C48.1208 143.398 48.4504 134.914 49.8968 126.566C49.7955 127.965 48.6121 144.856 48.9156 151.822Z" fill="black"/>
<path d="M49.907 126.472C50.5275 122.584 51.4573 118.746 52.6888 114.987C52.6888 114.987 56.2292 115.536 61.1857 116.084C57.6959 119.793 53.9267 123.265 49.907 126.472Z" fill="black"/>
<path d="M108.921 126.473L94.496 123.335C94.3139 124.412 94.1217 125.452 93.9194 126.473V126.482C97.4902 133.978 100.778 141.577 103.954 149.224C107.13 156.88 110.104 164.592 112.977 172.353C115.749 180.141 118.44 187.958 120.817 195.859C123.153 203.771 125.278 211.739 126.866 219.811L125.318 213.837C124.833 211.833 124.195 209.867 123.649 207.892C123.093 205.907 122.536 203.922 121.909 201.956L120.068 196.058C117.539 188.213 114.859 180.412 112.026 172.655C109.234 164.885 106.25 157.182 103.236 149.479C101.729 145.632 100.194 141.791 98.6332 137.957C97.1058 134.119 95.5075 130.31 93.9194 126.482C93.2249 130.125 92.3267 133.731 91.2286 137.286C94.7185 148.345 97.9049 159.479 100.94 170.642C103.984 181.814 106.776 193.043 109.406 204.3C111.935 215.586 114.292 226.909 116.093 238.318C116.973 244.027 117.711 249.754 118.197 255.501C118.753 261.25 118.733 267.034 118.136 272.779C118.543 267.035 118.397 261.268 117.701 255.549C117.125 249.821 116.295 244.112 115.324 238.431C114.322 232.75 113.281 227.079 112.117 221.427C110.954 215.775 109.71 210.132 108.415 204.499C105.876 193.232 103.064 182.022 100.191 170.821C98.7647 165.216 97.2946 159.621 95.7806 154.035C94.3038 148.449 92.7662 142.862 91.2286 137.286C90.4462 139.818 89.5038 142.305 88.4064 144.734V144.743C89.0639 151.993 89.4786 159.252 89.8125 166.521C90.1564 173.808 90.2879 181.086 90.3688 188.374C90.3688 195.661 90.2575 202.958 89.8327 210.236C89.5372 217.524 88.6615 224.781 87.2128 231.947L87.9613 226.531L88.4671 221.096C88.72 217.467 88.9628 213.837 89.0639 210.198C89.3168 202.93 89.4382 195.661 89.3572 188.383C89.3674 181.105 89.2156 173.827 89.0437 166.549L88.7402 155.632L88.4064 144.743C74.4065 175.264 48.9152 151.823 48.9152 151.823C49.5537 158.729 49.2068 165.683 47.8834 172.504C44.9701 187.74 39.3459 213.128 31.9413 227.249C20.885 248.356 -3.54413 284.528 -6.771 297.449C-6.771 297.449 29.1797 334.491 95.0928 313.385C160.996 292.288 162.847 301.324 162.847 301.324C162.847 301.324 149.939 188.496 108.921 126.473ZM-2.25946 297.43C-2.65229 297.417 -3.02425 297.261 -3.29709 296.997C-3.56993 296.733 -3.72239 296.38 -3.72239 296.012C-3.72239 295.645 -3.56993 295.292 -3.29709 295.028C-3.02425 294.763 -2.65229 294.608 -2.25946 294.594C-1.86663 294.608 -1.49466 294.763 -1.22182 295.028C-0.948977 295.292 -0.796518 295.645 -0.796518 296.012C-0.796518 296.38 -0.948977 296.733 -1.22182 296.997C-1.49466 297.261 -1.86663 297.417 -2.25946 297.43ZM5.75207 302.194C5.35923 302.18 4.9873 302.025 4.71446 301.761C4.44162 301.496 4.28914 301.143 4.28914 300.776C4.28914 300.409 4.44162 300.056 4.71446 299.791C4.9873 299.527 5.35923 299.372 5.75207 299.358C6.1449 299.372 6.51687 299.527 6.78971 299.791C7.06255 300.056 7.21501 300.409 7.21501 300.776C7.21501 301.143 7.06255 301.496 6.78971 301.761C6.51687 302.025 6.1449 302.18 5.75207 302.194ZM15.2203 307.638C14.8274 307.625 14.4555 307.47 14.1826 307.205C13.9098 306.941 13.7573 306.588 13.7573 306.22C13.7573 305.853 13.9098 305.5 14.1826 305.236C14.4555 304.971 14.8274 304.816 15.2203 304.803C15.6131 304.816 15.9851 304.971 16.2579 305.236C16.5307 305.5 16.6832 305.853 16.6832 306.22C16.6832 306.588 16.5307 306.941 16.2579 307.205C15.9851 307.47 15.6131 307.625 15.2203 307.638ZM25.7809 311.721C25.3881 311.708 25.0161 311.553 24.7433 311.288C24.4704 311.024 24.318 310.671 24.318 310.304C24.318 309.936 24.4704 309.583 24.7433 309.319C25.0161 309.054 25.3881 308.899 25.7809 308.886C26.1737 308.899 26.5457 309.054 26.8185 309.319C27.0914 309.583 27.2438 309.936 27.2438 310.304C27.2438 310.671 27.0914 311.024 26.8185 311.288C26.5457 311.553 26.1737 311.708 25.7809 311.721ZM37.0699 314.444C36.6771 314.43 36.3051 314.275 36.0323 314.01C35.7594 313.746 35.607 313.393 35.607 313.026C35.607 312.658 35.7594 312.305 36.0323 312.041C36.3051 311.777 36.6771 311.621 37.0699 311.608C37.4627 311.621 37.8347 311.777 38.1075 312.041C38.3803 312.305 38.5328 312.658 38.5328 313.026C38.5328 313.393 38.3803 313.746 38.1075 314.01C37.8347 314.275 37.4627 314.43 37.0699 314.444ZM48.723 316.825C48.3302 316.812 47.9582 316.657 47.6854 316.392C47.4125 316.128 47.2601 315.775 47.2601 315.408C47.2601 315.04 47.4125 314.687 47.6854 314.423C47.9582 314.159 48.3302 314.003 48.723 313.99C49.1159 314.003 49.4878 314.159 49.7607 314.423C50.0335 314.687 50.186 315.04 50.186 315.408C50.186 315.775 50.0335 316.128 49.7607 316.392C49.4878 316.657 49.1159 316.812 48.723 316.825ZM61.1045 317.166C60.7116 317.152 60.3397 316.997 60.0668 316.733C59.794 316.468 59.6416 316.115 59.6416 315.748C59.6416 315.381 59.794 315.028 60.0668 314.763C60.3397 314.499 60.7116 314.344 61.1045 314.33C61.4973 314.344 61.8693 314.499 62.1421 314.763C62.415 315.028 62.5674 315.381 62.5674 315.748C62.5674 316.115 62.415 316.468 62.1421 316.733C61.8693 316.997 61.4973 317.152 61.1045 317.166ZM72.7576 316.145C72.3648 316.132 71.9928 315.976 71.72 315.712C71.4471 315.447 71.2947 315.094 71.2947 314.727C71.2947 314.36 71.4471 314.007 71.72 313.742C71.9928 313.478 72.3648 313.323 72.7576 313.309C73.1505 313.323 73.5224 313.478 73.7952 313.742C74.0681 314.007 74.2205 314.36 74.2205 314.727C74.2205 315.094 74.0681 315.447 73.7952 315.712C73.5224 315.976 73.1505 316.132 72.7576 316.145ZM84.4108 312.742C84.0179 312.729 83.646 312.574 83.3731 312.309C83.1003 312.045 82.9478 311.692 82.9478 311.324C82.9478 310.957 83.1003 310.604 83.3731 310.34C83.646 310.075 84.0179 309.92 84.4108 309.907C84.8036 309.92 85.1756 310.075 85.4484 310.34C85.7212 310.604 85.8737 310.957 85.8737 311.324C85.8737 311.692 85.7212 312.045 85.4484 312.309C85.1756 312.574 84.8036 312.729 84.4108 312.742ZM96.4281 309.68C96.0352 309.666 95.6633 309.511 95.3904 309.247C95.1176 308.982 94.9651 308.629 94.9651 308.262C94.9651 307.895 95.1176 307.542 95.3904 307.277C95.6633 307.013 96.0352 306.858 96.4281 306.844C96.8209 306.858 97.1929 307.013 97.4657 307.277C97.7385 307.542 97.891 307.895 97.891 308.262C97.891 308.629 97.7385 308.982 97.4657 309.247C97.1929 309.511 96.8209 309.666 96.4281 309.68ZM108.445 305.937C108.053 305.923 107.681 305.768 107.408 305.504C107.135 305.239 106.982 304.886 106.982 304.519C106.982 304.152 107.135 303.799 107.408 303.534C107.681 303.27 108.053 303.115 108.445 303.101C108.838 303.115 109.21 303.27 109.483 303.534C109.756 303.799 109.908 304.152 109.908 304.519C109.908 304.886 109.756 305.239 109.483 305.504C109.21 305.768 108.838 305.923 108.445 305.937ZM121.919 301.854C121.526 301.84 121.154 301.685 120.882 301.421C120.609 301.156 120.456 300.803 120.456 300.436C120.456 300.068 120.609 299.715 120.882 299.451C121.154 299.187 121.526 299.031 121.919 299.018C122.312 299.031 122.684 299.187 122.957 299.451C123.23 299.715 123.382 300.068 123.382 300.436C123.382 300.803 123.23 301.156 122.957 301.421C122.684 301.685 122.312 301.84 121.919 301.854ZM135.757 298.451C135.365 298.437 134.993 298.282 134.72 298.018C134.447 297.753 134.294 297.4 134.294 297.033C134.294 296.666 134.447 296.313 134.72 296.048C134.993 295.784 135.365 295.629 135.757 295.615C136.15 295.629 136.522 295.784 136.795 296.048C137.068 296.313 137.22 296.666 137.22 297.033C137.22 297.4 137.068 297.753 136.795 298.018C136.522 298.282 136.15 298.437 135.757 298.451ZM147.046 296.75C146.654 296.736 146.282 296.581 146.009 296.316C145.736 296.052 145.583 295.699 145.583 295.332C145.583 294.964 145.736 294.611 146.009 294.347C146.282 294.083 146.654 293.927 147.046 293.914C147.439 293.927 147.811 294.083 148.084 294.347C148.357 294.611 148.509 294.964 148.509 295.332C148.509 295.699 148.357 296.052 148.084 296.316C147.811 296.581 147.439 296.736 147.046 296.75ZM157.243 296.069C156.85 296.056 156.478 295.9 156.205 295.636C155.932 295.371 155.78 295.019 155.78 294.651C155.78 294.284 155.932 293.931 156.205 293.666C156.478 293.402 156.85 293.247 157.243 293.233C157.636 293.247 158.008 293.402 158.281 293.666C158.553 293.931 158.706 294.284 158.706 294.651C158.706 295.019 158.553 295.371 158.281 295.636C158.008 295.9 157.636 296.056 157.243 296.069Z" fill="black"/>
<path d="M92.7849 3.30563C92.7849 3.30563 86.7931 3.09031 85.8713 10.627C84.9495 18.1638 75.9618 16.2257 75.9618 16.2257C75.9618 16.2257 71.5832 16.4411 73.4268 21.6091C75.2705 26.7772 77.8054 25.2698 77.8054 25.2698C77.8054 25.2698 78.4093 35.9969 85.4104 37.1133C85.4104 37.1133 69.0041 45.0622 65.6241 36.652C65.1955 35.5229 65.0784 34.3111 65.2837 33.1285C65.5752 31.223 66.204 29.376 67.1445 27.6634C68.4434 25.4803 69.0937 23.0122 69.028 20.5152C68.9534 19.1219 68.6493 17.7477 68.1264 16.4411C66.0523 11.273 68.1264 -0.570391 85.18 0.0756205C85.1799 0.0756205 91.4022 -0.78573 92.7849 3.30563Z" fill="black"/>
<path d="M66.7277 38.3533C66.0085 39.9334 65.2622 41.5012 64.5129 43.0675L64.4247 42.6837C66.7743 44.3139 69.162 45.8997 71.5878 47.441C74.01 48.9791 76.5057 50.4064 79.0096 51.8004C81.5049 53.186 84.0879 54.4289 86.7444 55.5222C89.2994 56.6584 92.0507 57.3601 94.8692 57.5942L94.2842 59.0823C91.9734 57.2485 89.9817 55.0902 88.3804 52.6847C87.5593 51.4595 86.9624 50.1151 86.6143 48.7065C86.2716 47.2521 86.4348 45.7334 87.0801 44.3717C87.6866 43.0746 88.4867 41.8643 89.4564 40.7768C90.3861 39.6889 91.4039 38.6692 92.5006 37.7268C93.6326 36.8067 94.8975 36.0401 96.2582 35.4496C96.9122 35.1881 97.5293 34.8525 98.0956 34.4503C98.6306 34.0275 99.0947 33.5323 99.4726 32.981C100.219 31.8371 100.762 30.5877 101.08 29.2814C101.434 27.9672 101.671 26.628 101.79 25.2775C102.041 22.5606 102.127 19.8326 102.045 17.1066L102.002 15.054C101.944 14.3895 101.937 13.7338 101.816 13.0887C101.628 11.8031 101.226 10.5528 100.625 9.38319C99.4303 7.081 97.4356 5.22517 94.9667 4.11842L94.8991 4.09038C94.788 4.04431 94.6878 3.97827 94.6041 3.89601C94.5204 3.81375 94.4549 3.71689 94.4112 3.61097C94.3676 3.50504 94.3467 3.39211 94.3498 3.27865C94.3528 3.16518 94.3798 3.05339 94.4291 2.94966C94.492 2.81926 94.5882 2.70529 94.7093 2.61778C94.8303 2.53026 94.9725 2.47188 95.1234 2.44775C96.1435 2.28939 97.1881 2.33661 98.187 2.58624C98.6754 2.70309 99.1515 2.8609 99.6096 3.05775C100.058 3.26951 100.488 3.51226 100.897 3.78398C102.439 4.91041 103.63 6.40178 104.347 8.1034C105.602 11.333 106.192 14.755 106.088 18.1895C106.029 21.4004 106.428 24.6043 107.275 27.7167C107.697 29.2178 108.367 30.6483 109.26 31.9569C109.696 32.5811 110.223 33.1449 110.826 33.632C111.122 33.8594 111.439 34.0633 111.771 34.2415C112.067 34.3949 112.381 34.5138 112.707 34.5957L112.772 34.6063C112.942 34.6342 113.099 34.7099 113.222 34.8234C113.345 34.9369 113.428 35.0827 113.46 35.2414C113.492 35.4 113.471 35.564 113.4 35.7114C113.33 35.8588 113.213 35.9826 113.065 36.0662C109.253 38.2425 105.287 40.1729 101.193 41.8441C99.1463 42.6982 97.0286 43.3958 94.861 43.93C93.7662 44.1978 92.6435 44.3537 91.5127 44.3951C90.9372 44.4517 90.3554 44.3923 89.8067 44.2207C89.2579 44.0492 88.7549 43.7696 88.3317 43.4009C88.3142 43.3829 88.3048 43.3594 88.3054 43.3352C88.306 43.3109 88.3166 43.2879 88.3349 43.2707C88.3533 43.2535 88.378 43.2437 88.4039 43.2431C88.4299 43.2425 88.455 43.2512 88.4743 43.2675L88.4808 43.2731C88.9043 43.5746 89.3906 43.7899 89.9085 43.9052C90.4263 44.0206 90.9643 44.0333 91.4878 43.9427C92.5684 43.8284 93.6327 43.6051 94.6619 43.2767C96.7353 42.6062 98.7584 41.807 100.718 40.8845C102.686 39.968 104.616 38.9743 106.516 37.9326C108.416 36.8975 110.315 35.8327 112.143 34.7158L112.501 36.1862C111.962 36.0992 111.442 35.9344 110.958 35.6977C110.515 35.4811 110.094 35.2291 109.698 34.9443C108.941 34.3768 108.274 33.7126 107.716 32.9713C106.644 31.5331 105.834 29.9393 105.318 28.2543C105.048 27.4311 104.861 26.5941 104.657 25.7612C104.52 24.9227 104.34 24.0846 104.242 23.2441C104.163 22.4035 104.058 21.5617 104 20.7208L103.925 18.1991C104.015 15.0235 103.511 11.8574 102.434 8.84422C101.885 7.44793 100.949 6.21303 99.7214 5.26601C99.415 5.05623 99.0935 4.86638 98.7593 4.69781C98.4177 4.54533 98.0624 4.42124 97.6975 4.32698C96.9893 4.13834 96.2481 4.08276 95.5168 4.16345L95.6735 2.4929C97.1159 3.1349 98.418 4.02202 99.5132 5.109C100.598 6.16766 101.478 7.39508 102.111 8.73608C102.742 10.0617 103.142 11.4729 103.296 12.9164C103.391 13.6275 103.365 14.3516 103.387 15.0545L103.324 17.1169C103.26 19.8787 103.041 22.6354 102.669 25.3757C102.471 26.7531 102.178 28.117 101.791 29.4587C101.432 30.8275 100.837 32.1328 100.031 33.3236C99.6061 33.9221 99.0876 34.4575 98.4925 34.9118C97.8812 35.3277 97.223 35.6799 96.5297 35.9621C95.2297 36.5414 94.0232 37.2887 92.9459 38.182C90.8223 40.0015 89.1453 42.2289 88.0303 44.7114C86.9454 47.183 88.0558 49.7753 89.6231 51.9505C91.2664 54.1276 93.2148 56.0889 95.4162 57.7819L95.4338 57.7957C95.5762 57.9073 95.6778 58.0576 95.7245 58.2256C95.7712 58.3937 95.7607 58.5712 95.6944 58.7334C95.6281 58.8956 95.5093 59.0345 95.3545 59.1307C95.1998 59.2269 95.0169 59.2756 94.8311 59.27C91.7721 59.0679 88.7849 58.3091 86.0374 57.0362C83.322 55.893 80.6992 54.5667 78.1897 53.068C75.6711 51.608 73.2529 50.013 70.887 48.3629C68.5211 46.7106 66.2062 45.006 63.9928 43.172L63.9747 43.1571C63.9203 43.1119 63.8837 43.0509 63.871 42.9839C63.8582 42.917 63.87 42.8479 63.9044 42.788C64.7739 41.2768 65.6465 39.7671 66.5461 38.2699C66.5588 38.2488 66.5797 38.233 66.6044 38.2258C66.6292 38.2187 66.6559 38.2206 66.6791 38.2313C66.7024 38.242 66.7204 38.2606 66.7294 38.2832C66.7384 38.3059 66.7378 38.331 66.7277 38.3533Z" fill="black"/>
<path d="M92.4116 38.23C93.8016 37.0254 95.4059 36.0566 97.1523 35.3673C102.505 33.0589 102.694 22.9354 102.694 14.9343C102.694 6.10552 95.3199 3.30615 95.3199 3.30615C95.3199 3.30615 104.999 1.36813 104.999 17.949C104.999 34.5298 112.604 35.3912 112.604 35.3912C112.604 35.3912 92.4224 47.4285 88.4062 43.3371L92.4116 38.23Z" fill="black"/>
<path d="M84.8667 13.5781C85.3915 13.1228 86.0237 12.7895 86.712 12.6052C87.3958 12.4051 88.1092 12.3071 88.8257 12.3149C89.5396 12.3265 90.2475 12.4396 90.925 12.6503C91.6007 12.8509 92.2314 13.1654 92.786 13.5781C92.0721 13.5306 91.4161 13.4264 90.7573 13.3712C90.1033 13.2995 89.4556 13.2735 88.8118 13.2595C88.164 13.2487 87.5161 13.2706 86.8709 13.325C86.2176 13.3814 85.5628 13.4595 84.8667 13.5781Z" fill="black"/>
<path d="M96.9333 13.5785C97.3493 13.3077 97.8134 13.1079 98.304 12.9886C98.7827 12.8623 99.2758 12.7896 99.7728 12.7721C100.277 12.7576 100.781 12.8078 101.27 12.9216C101.775 13.0313 102.243 13.2571 102.631 13.5786C101.603 13.6389 100.739 13.6843 99.8045 13.7171C98.8449 13.7652 97.8825 13.7187 96.9333 13.5785Z" fill="black"/>
<path d="M88.4066 19.0124C88.7016 19.0029 88.9812 18.8867 89.1863 18.6882C89.3914 18.4898 89.5061 18.2247 89.5061 17.9488C89.5061 17.6729 89.3914 17.4077 89.1863 17.2093C88.9812 17.0109 88.7016 16.8946 88.4066 16.8851C88.1116 16.8946 87.832 17.0109 87.6269 17.2093C87.4218 17.4077 87.3071 17.6729 87.3071 17.9488C87.3071 18.2247 87.4218 18.4898 87.6269 18.6882C87.832 18.8867 88.1116 19.0029 88.4066 19.0124Z" fill="black"/>
<path d="M75.9948 24.6634C76.2899 24.6539 76.5694 24.5377 76.7745 24.3393C76.9797 24.1409 77.0943 23.8758 77.0943 23.5999C77.0943 23.324 76.9797 23.0589 76.7745 22.8605C76.5694 22.6621 76.2899 22.5459 75.9948 22.5364C75.6997 22.5459 75.4202 22.6621 75.2151 22.8605C75.0099 23.0589 74.8953 23.324 74.8953 23.5999C74.8953 23.8758 75.0099 24.1409 75.2151 24.3393C75.4202 24.5377 75.6997 24.6539 75.9948 24.6634Z" fill="black"/>
<path d="M98.777 18.5818C99.072 18.5722 99.3516 18.456 99.5567 18.2576C99.7618 18.0592 99.8765 17.794 99.8765 17.5181C99.8765 17.2422 99.7618 16.9771 99.5567 16.7786C99.3516 16.5802 99.072 16.464 98.777 16.4545C98.4819 16.464 98.2024 16.5802 97.9972 16.7786C97.7921 16.9771 97.6775 17.2422 97.6775 17.5181C97.6775 17.794 97.7921 18.0592 97.9972 18.2576C98.2024 18.456 98.4819 18.5722 98.777 18.5818Z" fill="black"/>
<path d="M91.4026 26.5615C92.581 27.038 93.8386 27.3209 95.1199 27.3979C95.7296 27.4234 96.3397 27.3562 96.9264 27.1991C97.5586 27.0271 98.1773 26.8141 98.7778 26.5615C98.392 27.1242 97.8533 27.581 97.2168 27.8853C96.8924 28.0457 96.5482 28.1683 96.1919 28.2503C95.8297 28.3154 95.4613 28.3463 95.0925 28.3427C94.3639 28.3196 93.6501 28.1447 93.0031 27.8307C92.3668 27.5361 91.8173 27.1004 91.4026 26.5615Z" fill="black"/>
<path d="M92.7849 21.6091C93.3964 22.0626 94.0513 22.4625 94.7412 22.8038C95.0642 22.9605 95.4006 23.0919 95.7468 23.1965C96.1066 23.3192 96.4915 23.3975 96.9335 23.5477C96.5527 23.7899 96.1041 23.9222 95.6435 23.9279C95.1726 23.9437 94.705 23.8471 94.2851 23.6471C93.8665 23.4498 93.5057 23.16 93.2339 22.803C92.9562 22.4578 92.7994 22.0408 92.7849 21.6091Z" fill="black"/>
<path d="M102.463 68.5939C102.345 68.5939 102.23 68.5551 102.14 68.4843C102.049 68.4134 101.987 68.315 101.966 68.2062C101.61 66.3731 96.4388 60.7582 94.477 58.7497C94.3872 58.657 94.3404 58.5349 94.3468 58.4101C94.3531 58.2853 94.4122 58.1679 94.5109 58.0837C94.6097 57.9994 94.7402 57.9552 94.8738 57.9607C95.0074 57.9661 95.1332 58.0208 95.2238 58.1127C95.9662 58.8724 102.488 65.6051 102.961 68.0364C102.973 68.0975 102.972 68.1602 102.958 68.2209C102.944 68.2816 102.918 68.3392 102.88 68.3903C102.842 68.4414 102.794 68.485 102.738 68.5187C102.682 68.5523 102.62 68.5754 102.554 68.5865C102.524 68.5912 102.494 68.5937 102.463 68.5939Z" fill="black"/>
<path d="M64.2099 42.9285C60.3327 46.9295 57.1939 51.5046 54.9216 56.467C52.6625 61.3657 51.3739 66.607 51.1184 71.9358C51.0863 73.2667 51.1394 74.5887 51.1492 75.934C51.2015 77.2671 51.3077 78.6099 51.4126 79.9479C51.6252 82.6196 51.9912 85.2788 52.509 87.9138C52.7518 89.2393 53.087 90.4967 53.4573 91.8141C53.8385 93.1488 54.1587 94.4967 54.4033 95.8549C54.9098 98.5716 55.1609 101.325 55.1538 104.082L54.7657 103.542C56.9569 104.413 59.2463 105.183 61.5345 105.903C63.8325 106.612 66.1668 107.221 68.5191 107.797C67.317 107.635 66.1077 107.486 64.9152 107.258C63.7187 107.047 62.5287 106.802 61.3412 106.542C58.9539 106.031 56.6005 105.39 54.293 104.622C54.1855 104.586 54.0917 104.521 54.0233 104.436C53.9549 104.35 53.9149 104.248 53.9082 104.141L53.9048 104.082C53.7398 101.414 53.3554 98.7621 52.7549 96.1492C52.4575 94.8426 52.1258 93.5441 51.716 92.2686C51.3103 90.9726 50.9039 89.6046 50.6189 88.2611C49.4852 82.8597 48.9972 77.3574 49.1636 71.8553C49.5043 66.3163 51.0267 60.8968 53.6412 55.9154C56.2249 50.9844 59.8151 46.5727 64.2099 42.9285Z" fill="black"/>
<path d="M68.3466 57.2608C72.636 56.7266 77.0001 57.1864 81.0545 58.5998C85.1689 59.9632 88.8706 62.2339 91.8456 65.2191C93.2807 66.7211 94.5773 68.3338 95.7218 70.0398C96.8258 71.7451 97.8335 73.5033 98.7406 75.3072C100.571 78.9053 102.043 82.6535 103.137 86.5043C103.172 86.6303 103.163 86.7636 103.111 86.8843C103.059 87.0051 102.966 87.1069 102.847 87.1746L102.795 87.2038C100.63 88.4301 98.4253 89.5715 96.204 90.6964C93.974 91.8032 91.7242 92.8799 89.4547 93.9263C87.1725 94.9498 84.8637 95.9356 82.4662 96.7633C81.2656 97.1746 80.0568 97.5787 78.7916 97.8879C78.1481 98.0523 77.4946 98.1803 76.8346 98.271C76.0696 98.41 75.2808 98.3855 74.5273 98.1993C74.4134 98.167 74.3082 98.1125 74.2186 98.0393C74.129 97.9662 74.0571 97.8761 74.0075 97.7751C73.0017 95.6974 72.0204 93.6086 71.0634 91.5085C70.0879 89.4169 69.1555 87.3056 68.2663 85.1745C68.257 85.1523 68.257 85.1277 68.2662 85.1056C68.2754 85.0834 68.2932 85.0653 68.316 85.0548C68.3389 85.0443 68.3651 85.0422 68.3895 85.049C68.4139 85.0557 68.4348 85.0708 68.4478 85.0912C69.7051 87.0534 70.9236 89.0334 72.1034 91.0312C73.2994 93.0215 74.4689 95.0239 75.612 97.0386L75.0925 96.6146C75.5727 96.668 76.0593 96.6394 76.5285 96.5301C77.1086 96.4203 77.6811 96.2779 78.2429 96.1038C79.395 95.7583 80.5547 95.361 81.7015 94.9259C83.9922 94.0412 86.2804 93.1059 88.5577 92.1391C93.1209 90.2204 97.6212 88.1264 102.133 86.0768L101.792 86.776C101.166 82.8945 99.9526 79.1157 98.1893 75.5529C97.2902 73.7839 96.2024 72.1042 94.9423 70.5395C93.6696 69.0058 92.2655 67.5714 90.7438 66.2505C87.7158 63.6461 84.2434 61.5327 80.4699 59.9978C76.6319 58.4771 72.5325 57.6137 68.3675 57.4488L68.3581 57.4485C68.3329 57.4477 68.3089 57.4381 68.2909 57.4216C68.2729 57.4052 68.2621 57.383 68.2607 57.3595C68.2593 57.336 68.2673 57.3128 68.2832 57.2946C68.2991 57.2763 68.3218 57.2643 68.3467 57.2608L68.3466 57.2608Z" fill="black"/>
<path d="M87.2085 48.5366C89.0939 48.3931 90.9832 48.7665 92.645 49.6109C94.3332 50.4607 95.7639 51.6958 96.8037 53.2013C97.8108 54.7004 98.5192 56.3575 98.8943 58.0924C99.0531 58.9532 99.1653 59.8208 99.2594 60.6815C99.2534 61.5528 99.281 62.4168 99.2428 63.2765C99.0518 62.4261 98.9265 61.5797 98.7677 60.7408L98.1281 58.27L97.6924 57.0767L97.482 56.4802C97.398 56.2869 97.2945 56.1015 97.202 55.9121L96.651 54.7756L95.9573 53.7179C94.9939 52.3085 93.711 51.1139 92.1992 50.2186C90.6875 49.3233 88.9838 48.7491 87.2085 48.5366Z" fill="black"/>
<path d="M72.7458 40.5084C73.8555 41.1444 74.9996 41.7263 76.1734 42.252C77.3282 42.7788 78.5121 43.2478 79.7201 43.6572C80.9249 44.0749 82.152 44.434 83.3965 44.7333C84.6433 45.0483 85.9131 45.2859 87.2086 45.5527C85.8866 45.6718 84.5539 45.6395 83.2403 45.4564C80.5912 45.103 78.0522 44.2297 75.7901 42.8937C74.6541 42.2444 73.6281 41.4405 72.7458 40.5084Z" fill="black"/>
<path d="M101.284 87.2371C103.459 89.5937 105.487 92.0647 107.36 94.638C109.271 97.1869 111.021 99.8371 112.604 102.575C110.427 100.22 108.399 97.7488 106.528 95.1743C104.619 92.6242 102.868 89.9741 101.284 87.2371Z" fill="black"/>
<path d="M97.2015 73.1674C99.0773 71.1034 101.021 69.0991 103.007 67.1325C104.997 65.1699 107.032 63.2475 109.113 61.3655C111.206 59.4958 113.317 57.6401 115.545 55.8911C116.672 55.0307 117.799 54.1675 119.01 53.3867C119.615 52.9942 120.226 52.6083 120.875 52.2511C121.205 52.0658 121.545 51.8969 121.894 51.745C122.303 51.5518 122.748 51.4359 123.205 51.4039C123.281 51.3994 123.357 51.4126 123.427 51.4423L123.439 51.4477C125.427 52.3062 127.384 53.2192 129.374 54.0645C131.356 54.9259 133.351 55.7587 135.35 56.5852L141.353 59.0675C142.353 59.4884 143.346 59.9246 144.336 60.3865C144.832 60.6156 145.324 60.8585 145.816 61.1219C146.064 61.261 146.306 61.3902 146.558 61.5619C146.695 61.6476 146.825 61.7437 146.945 61.8493C147.015 61.9131 147.076 61.9596 147.151 62.0406C147.245 62.1639 147.323 62.2971 147.384 62.4375C147.414 62.5074 147.429 62.5822 147.429 62.6575C147.428 62.7329 147.411 62.8074 147.38 62.8768C147.348 62.9462 147.302 63.009 147.245 63.0618C147.187 63.1146 147.119 63.1563 147.044 63.1845L146.984 63.204L146.853 63.2388C142.651 64.4097 138.585 65.9697 134.715 67.8955C132.759 68.8307 130.878 69.8971 129.014 70.9779L126.249 72.6503L123.559 74.4279C120.002 76.8534 116.636 79.5155 113.489 82.3936C111.841 83.7742 110.397 85.3385 108.869 86.8412C107.363 88.3613 106.007 90.0032 104.52 91.5636L104.515 91.5689C104.498 91.5865 104.475 91.5976 104.449 91.5999C104.424 91.6022 104.399 91.5955 104.379 91.5812C104.358 91.5669 104.345 91.5461 104.34 91.5227C104.336 91.4994 104.341 91.4753 104.354 91.4553C104.953 90.5764 105.569 89.7053 106.19 88.8353C106.829 87.9787 107.382 87.0546 108.108 86.2577C109.51 84.6277 110.828 82.9167 112.382 81.3971C113.147 80.6284 113.889 79.8364 114.676 79.0848L117.121 76.9074C117.923 76.1653 118.791 75.4942 119.66 74.8228C120.541 74.1669 121.371 73.447 122.297 72.8434C125.887 70.2814 129.749 68.0693 133.821 66.2414C137.865 64.3284 142.147 62.8924 146.569 61.9662L146.038 62.7673C146.034 62.7797 146.034 62.7931 146.04 62.8051C146.045 62.8172 146.055 62.827 146.067 62.8328L145.987 62.7512C145.914 62.6763 145.835 62.6078 145.749 62.5465C145.572 62.403 145.35 62.2612 145.14 62.1221C144.705 61.8463 144.252 61.5784 143.788 61.3213C142.861 60.8052 141.907 60.3179 140.947 59.8382C139.028 58.8769 137.076 57.9721 135.089 57.1237C133.109 56.266 131.108 55.4538 129.085 54.6871C127.069 53.9069 125.01 53.2142 122.971 52.4946L123.205 52.5384C122.949 52.6072 122.704 52.7061 122.476 52.8328C122.182 52.9891 121.898 53.1594 121.623 53.3431C121.057 53.7142 120.503 54.1269 119.955 54.5467C118.868 55.4006 117.779 56.2692 116.711 57.163C114.555 58.9278 112.409 60.7157 110.274 62.5269L103.852 67.944C101.702 69.7442 99.5334 71.5296 97.3453 73.3002C97.326 73.316 97.3011 73.3243 97.2755 73.3235C97.25 73.3228 97.2256 73.313 97.2074 73.2962C97.1892 73.2794 97.1785 73.2568 97.1773 73.2329C97.1762 73.209 97.1848 73.1856 97.2014 73.1674L97.2015 73.1674Z" fill="black"/>
<path d="M110.761 66.6137L116.291 71.7406L125.509 64.6759L119.518 60.1539L110.761 66.6137Z" fill="black"/>
<path d="M139.804 64.6706C141.045 65.5562 142.195 66.5473 143.24 67.6313C143.772 68.1869 144.265 68.7741 144.716 69.3893C145.253 70.0823 145.593 70.891 145.705 71.7401C145.721 71.8975 145.679 72.0553 145.585 72.1871C145.492 72.3189 145.353 72.4168 145.191 72.4647L145.08 72.4975C144.474 72.6769 143.858 72.8249 143.248 72.9901C142.635 73.1465 142.028 73.3232 141.41 73.4629L141.847 72.0687C142.338 72.5907 142.776 73.154 143.156 73.7513C143.535 74.3303 143.866 74.9361 144.144 75.5633C144.702 76.8083 145.088 78.1143 145.294 79.4501L145.301 79.4919C145.309 79.5428 145.306 79.5946 145.292 79.6445C145.279 79.6943 145.255 79.7411 145.222 79.7823C145.189 79.8236 145.148 79.8583 145.101 79.8846C145.054 79.911 145.001 79.9283 144.947 79.9358L144.917 79.9389C141.487 80.2436 138.136 81.0793 135.001 82.4118C131.855 83.672 128.781 85.0825 125.79 86.6375C122.842 88.2332 119.925 89.8698 117.14 91.7144C114.296 93.494 111.675 95.5469 108.935 97.5686C108.915 97.5852 108.888 97.5935 108.861 97.5918C108.834 97.5901 108.809 97.5785 108.792 97.5595C108.777 97.5426 108.769 97.5218 108.768 97.5002C108.767 97.4785 108.774 97.4573 108.787 97.4395C110.882 94.8089 113.31 92.4251 116.019 90.3401C117.367 89.2834 118.778 88.2975 120.243 87.3872C120.966 86.9171 121.75 86.5376 122.5 86.1089C123.252 85.6816 124.029 85.2937 124.826 84.947C127.942 83.4285 131.228 82.2383 134.625 81.3983C138.016 80.5511 141.368 79.8212 144.819 79.1294L144.441 79.618C144.055 78.4159 143.503 77.2659 142.8 76.1966C142.461 75.6606 142.089 75.1455 141.708 74.641C141.321 74.1519 140.911 73.6298 140.514 73.2181C140.411 73.1105 140.338 72.98 140.303 72.839C140.268 72.6979 140.272 72.5509 140.315 72.4118C140.358 72.2726 140.437 72.1458 140.547 72.0434C140.656 71.941 140.792 71.8662 140.941 71.8261L140.951 71.8237C141.562 71.6624 142.184 71.5381 142.8 71.3935C143.419 71.2577 144.033 71.1047 144.655 70.9832L144.03 71.7403C143.961 71.1577 143.76 70.5957 143.439 70.0919C143.11 69.4891 142.706 68.9018 142.301 68.3089C141.467 67.1342 140.567 65.9734 139.661 64.8042C139.644 64.784 139.637 64.7585 139.641 64.7335C139.645 64.7084 139.659 64.6857 139.681 64.6705C139.699 64.6584 139.72 64.6518 139.742 64.6519C139.764 64.6519 139.786 64.6584 139.804 64.6706Z" fill="black"/>
<path d="M106.944 94.9058C109.086 92.2627 111.43 89.7679 113.957 87.4409C116.464 85.0845 119.144 82.8934 121.976 80.8835C124.812 78.8655 127.846 77.1008 131.036 75.6128C134.231 74.1346 137.654 73.1327 141.18 72.6434C140.329 72.8831 139.48 73.1128 138.634 73.3324L137.999 73.4991L137.385 73.7282L136.159 74.1863L134.93 74.6251C134.53 74.7922 134.138 74.9809 133.742 75.1575C132.959 75.5288 132.15 75.8467 131.391 76.2596C128.323 77.8548 125.38 79.6519 122.585 81.6372C119.763 83.5954 117.112 85.7632 114.492 87.9641C113.18 89.0629 111.907 90.2055 110.66 91.3714C109.384 92.5133 108.162 93.7045 106.944 94.9058Z" fill="black"/>
<path d="M56.214 104.673C56.6609 106.39 56.8309 108.161 56.7184 109.926C56.6693 110.812 56.5403 111.693 56.3328 112.559C56.1584 113.45 55.7502 114.287 55.1445 114.994C55.3763 114.16 55.5132 113.306 55.5528 112.446L55.7088 109.876C55.777 108.134 55.9456 106.397 56.214 104.673Z" fill="black"/>
<path d="M-6.15666 324.442C-6.15666 324.442 -4.97878 309.799 -1.03545 308.651C-1.03545 308.651 22.5733 336.788 33.3278 332.769C33.3278 332.769 36.5541 330.759 34.5568 326.165C34.5568 326.165 53.1468 342.387 53.1468 345.976C53.1468 349.565 36.7077 354.302 22.1123 345.976C7.5169 337.649 6.28783 331.62 6.28783 331.62L4.90512 335.065L-6.77124 333.917L-6.15666 324.442Z" fill="black"/>
<path d="M2.675 304.818C2.34773 305.649 1.84414 306.409 1.19451 307.052C0.575836 307.722 -0.182953 308.266 -1.03516 308.652C-0.706573 307.822 -0.203134 307.062 0.445331 306.418C1.06797 305.752 1.82584 305.208 2.675 304.818Z" fill="black"/>
<path d="M28.9131 316.415C29.8731 318.088 30.6914 319.755 31.5878 321.389C32.0301 322.207 32.4991 323.007 32.9766 323.808C33.4741 324.598 33.9938 325.37 34.5576 326.166C32.8917 325.049 31.5593 323.552 30.6869 321.817C30.2328 320.971 29.85 320.092 29.542 319.19C29.2225 318.29 29.0115 317.359 28.9131 316.415Z" fill="black"/>
<path d="M143.331 327.887C143.331 327.887 174.752 331.114 183.9 321.463C184.451 320.884 184.819 320.173 184.962 319.409C185.105 318.646 185.017 317.86 184.709 317.14C184.401 316.421 183.884 315.796 183.217 315.335C182.55 314.874 181.759 314.596 180.932 314.532C177.859 314.359 174.774 314.553 171.754 315.111C171.754 315.111 201.406 305.78 204.786 308.077C208.166 310.374 207.398 332.338 162.843 336.788L168.067 345.832L151.781 351C151.781 351 151.167 342.961 148.094 340.664C145.021 338.367 141.18 333.055 143.331 327.887Z" fill="black"/>
<path d="M162.843 301.33C163.15 302.764 163.521 304.168 163.923 305.553C164.321 306.928 164.83 308.274 165.444 309.577C166.027 310.867 166.843 312.052 167.857 313.083C168.904 314.115 170.264 314.823 171.754 315.111C170.125 315.171 168.534 314.637 167.318 313.621C166.112 312.608 165.158 311.36 164.523 309.966C163.885 308.606 163.427 307.179 163.156 305.717C162.871 304.271 162.766 302.798 162.843 301.33Z" fill="black"/>
<path d="M131.068 303.156C135.764 305.445 139.557 309.073 141.896 313.513C142.468 314.628 142.946 315.783 143.325 316.968C143.665 318.162 143.888 319.382 143.992 320.613C144.067 321.223 144.1 321.838 144.091 322.452L144.004 324.29C143.958 324.899 143.862 325.505 143.715 326.101C143.598 326.7 143.469 327.297 143.331 327.888C143.605 325.496 143.568 323.081 143.219 320.698C143.035 319.523 142.763 318.361 142.406 317.221C142.019 316.091 141.545 314.99 140.986 313.926C139.872 311.783 138.456 309.789 136.775 307.998C135.93 307.095 135.028 306.241 134.073 305.441C133.129 304.615 132.125 303.852 131.068 303.156Z" fill="black"/>
<path d="M76.2355 97.5472C73.1614 103.269 69.4304 108.662 65.1084 113.631C64.0465 114.889 62.9259 116.102 61.7926 117.303C60.6625 118.506 59.5078 119.694 58.2978 120.831C55.8963 123.142 53.3147 125.284 50.5741 127.239L50.9647 126.472C50.9596 126.55 50.9509 126.628 50.9387 126.705L50.9469 126.633C50.4168 130.811 49.9022 135.005 49.6393 139.207C49.5047 141.308 49.4294 143.411 49.4008 145.513C49.3842 147.614 49.4097 149.721 49.577 151.797L49.3799 151.381C51.7342 153.256 54.3227 154.859 57.089 156.153C59.7688 157.466 62.6525 158.378 65.6349 158.856C68.506 159.32 71.4587 159.029 74.1631 158.016C76.8406 156.939 79.2081 155.286 81.0727 153.192C83.0478 151.052 84.7145 148.68 86.03 146.136C87.4242 143.555 88.6337 140.891 89.6506 138.16C91.7269 132.661 93.1965 126.93 94.7003 121.177C94.7044 121.159 94.7123 121.142 94.7236 121.126C94.7349 121.111 94.7493 121.098 94.7661 121.088C94.7828 121.077 94.8016 121.07 94.8212 121.067C94.8408 121.064 94.861 121.064 94.8805 121.068C94.9161 121.076 94.9476 121.095 94.9695 121.122C94.9914 121.15 95.0024 121.183 95.0007 121.217C94.6089 127.169 93.6042 133.072 92.0007 138.844C91.1599 141.762 90.0715 144.612 88.7458 147.368C88.3954 148.056 88.0631 148.751 87.681 149.428L86.4462 151.424C86.026 152.092 85.566 152.736 85.0684 153.356L84.3438 154.305C84.0867 154.611 83.7903 154.894 83.5148 155.19C82.4112 156.393 81.1691 157.478 79.8111 158.427C78.425 159.387 76.8992 160.158 75.2799 160.715C72.042 161.823 68.5358 162.058 65.1621 161.392C61.9162 160.763 58.8207 159.585 56.0291 157.915C53.277 156.312 50.7341 154.415 48.4516 152.263L48.4278 152.241C48.3165 152.136 48.2541 151.994 48.2544 151.847C48.262 149.711 48.3475 147.603 48.4363 145.492L48.6659 139.167C48.8038 134.95 48.7876 130.73 48.8469 126.5L48.855 126.427C48.8496 126.441 48.8477 126.457 48.8493 126.472L49.2401 125.705C51.6665 123.599 54.0078 121.301 56.3538 119.064C58.6884 116.804 60.9843 114.499 63.2128 112.14C65.4431 109.781 67.6162 107.37 69.7321 104.907C71.8483 102.444 73.9136 99.9351 75.9771 97.3988C76 97.3704 76.0333 97.3511 76.0706 97.3445C76.1078 97.3379 76.1464 97.3446 76.1787 97.3632C76.2111 97.3817 76.2348 97.4109 76.2453 97.445C76.2558 97.479 76.2523 97.5156 76.2356 97.5474L76.2355 97.5472Z" fill="black"/>
<path d="M90.4405 65.4439C90.404 65.4438 90.3675 65.4401 90.3318 65.4328C90.267 65.4196 90.2056 65.3946 90.1511 65.3591C90.0966 65.3237 90.0501 65.2786 90.0142 65.2264C89.9784 65.1742 89.9539 65.1159 89.9422 65.0548C89.9305 64.9938 89.9318 64.9312 89.946 64.8706C90.6381 61.8929 91.162 58.8832 91.5154 55.854C91.5226 55.7922 91.5427 55.7323 91.5746 55.6778C91.6066 55.6232 91.6497 55.5751 91.7016 55.5362C91.7534 55.4973 91.813 55.4683 91.8768 55.4509C91.9407 55.4335 92.0076 55.428 92.0737 55.4348C92.1399 55.4416 92.2039 55.4606 92.2622 55.4905C92.3205 55.5205 92.3719 55.5608 92.4134 55.6094C92.455 55.6579 92.4859 55.7136 92.5044 55.7733C92.5229 55.8331 92.5286 55.8956 92.5212 55.9574C92.1637 59.0195 91.6339 62.0618 90.934 65.0719C90.9096 65.1772 90.8473 65.2716 90.7575 65.3392C90.6677 65.4069 90.5559 65.4439 90.4405 65.4439Z" fill="black"/>
<path d="M77.9493 97.1337C81.5718 104.213 86.0819 110.866 91.3846 116.951C92.6991 118.459 94.1412 119.866 95.6971 121.159C97.2424 122.47 98.9698 123.58 100.833 124.46C102.7 125.335 104.727 125.873 106.807 126.047C108.87 126.204 110.947 126.011 112.936 125.475C114.881 124.932 116.694 124.037 118.27 122.841C119.826 121.635 121.165 120.204 122.237 118.602C124.324 115.29 125.792 111.669 126.577 107.895C128.205 100.196 128.742 92.3299 128.175 84.4997C128.173 84.4746 128.182 84.4499 128.2 84.4311C128.218 84.4122 128.243 84.4007 128.269 84.3991C128.294 84.3979 128.318 84.4049 128.337 84.4187C128.357 84.4326 128.37 84.4524 128.375 84.4747C130.157 92.3257 130.262 100.428 128.687 108.317C127.862 112.332 126.21 116.158 123.824 119.584C122.59 121.31 121.038 122.818 119.24 124.036C117.437 125.243 115.379 126.076 113.204 126.479C108.928 127.257 104.498 126.745 100.555 125.016C96.6356 123.316 93.0981 120.936 90.1308 118.002C87.2258 115.041 84.7338 111.748 82.7142 108.202C80.6536 104.707 78.9929 101.019 77.7595 97.1993C77.7558 97.1874 77.7545 97.1749 77.7559 97.1625C77.7573 97.1502 77.7613 97.1382 77.7677 97.1273C77.7741 97.1163 77.7827 97.1067 77.793 97.0989C77.8034 97.0911 77.8152 97.0852 77.828 97.0817C77.8515 97.0761 77.8764 97.0782 77.8985 97.0877C77.9205 97.0971 77.9385 97.1134 77.9493 97.1337Z" fill="black"/>
<path d="M53.8215 150.434C54.2149 150.421 54.5876 150.266 54.861 150.001C55.1345 149.737 55.2873 149.383 55.2873 149.016C55.2873 148.648 55.1345 148.294 54.861 148.03C54.5876 147.765 54.2149 147.61 53.8215 147.597C53.4281 147.61 53.0555 147.765 52.782 148.03C52.5086 148.294 52.3557 148.648 52.3557 149.016C52.3557 149.383 52.5086 149.737 52.782 150.001C53.0555 150.266 53.4281 150.421 53.8215 150.434Z" fill="black"/>
<path d="M61.469 154.516C61.8623 154.504 62.235 154.349 62.5085 154.084C62.7819 153.82 62.9347 153.466 62.9347 153.098C62.9347 152.731 62.7819 152.377 62.5085 152.113C62.235 151.848 61.8623 151.693 61.469 151.68C61.0756 151.693 60.7029 151.848 60.4295 152.113C60.156 152.377 60.0032 152.731 60.0032 153.098C60.0032 153.466 60.156 153.82 60.4295 154.084C60.7029 154.349 61.0756 154.504 61.469 154.516Z" fill="black"/>
<path d="M70.573 155.877C70.9664 155.865 71.3391 155.71 71.6126 155.445C71.886 155.181 72.0389 154.827 72.0389 154.459C72.0389 154.091 71.886 153.738 71.6126 153.473C71.3391 153.209 70.9664 153.054 70.573 153.041C70.1797 153.054 69.8069 153.209 69.5335 153.473C69.26 153.738 69.1072 154.091 69.1072 154.459C69.1072 154.827 69.26 155.181 69.5335 155.445C69.8069 155.71 70.1797 155.865 70.573 155.877Z" fill="black"/>
<path d="M79.6772 150.093C80.0706 150.08 80.4433 149.925 80.7167 149.661C80.9902 149.396 81.143 149.043 81.143 148.675C81.143 148.307 80.9902 147.953 80.7167 147.689C80.4433 147.424 80.0706 147.269 79.6772 147.257C79.2839 147.269 78.9112 147.424 78.6377 147.689C78.3643 147.953 78.2114 148.307 78.2114 148.675C78.2114 149.043 78.3643 149.396 78.6377 149.661C78.9112 149.925 79.2839 150.08 79.6772 150.093Z" fill="black"/>
<path d="M84.7754 141.246C85.1687 141.233 85.5414 141.078 85.8149 140.814C86.0883 140.549 86.2412 140.196 86.2412 139.828C86.2412 139.46 86.0883 139.107 85.8149 138.842C85.5414 138.578 85.1687 138.423 84.7754 138.41C84.382 138.423 84.0093 138.578 83.7359 138.842C83.4624 139.107 83.3096 139.46 83.3096 139.828C83.3096 140.196 83.4624 140.549 83.7359 140.814C84.0093 141.078 84.382 141.233 84.7754 141.246Z" fill="black"/>
<path d="M87.6884 133.76C88.0818 133.747 88.4545 133.592 88.728 133.328C89.0014 133.063 89.1543 132.709 89.1543 132.342C89.1543 131.974 89.0014 131.62 88.728 131.356C88.4545 131.091 88.0818 130.936 87.6884 130.923C87.2951 130.936 86.9224 131.091 86.649 131.356C86.3755 131.62 86.2227 131.974 86.2227 132.342C86.2227 132.709 86.3755 133.063 86.649 133.328C86.9224 133.592 87.2951 133.747 87.6884 133.76Z" fill="black"/>
<path d="M90.6021 124.913C90.9954 124.9 91.3681 124.745 91.6416 124.481C91.915 124.216 92.0679 123.863 92.0679 123.495C92.0679 123.127 91.915 122.774 91.6416 122.509C91.3681 122.245 90.9954 122.09 90.6021 122.077C90.2087 122.09 89.836 122.245 89.5625 122.509C89.2891 122.774 89.1362 123.127 89.1362 123.495C89.1362 123.863 89.2891 124.216 89.5625 124.481C89.836 124.745 90.2087 124.9 90.6021 124.913Z" fill="black"/>
<path d="M176.938 174.542C177.585 171.92 178.048 169.261 178.323 166.583C178.627 163.915 178.751 161.232 178.692 158.55C178.64 155.875 178.394 153.207 177.956 150.564C177.496 147.93 176.782 145.342 175.823 142.829C173.014 135.198 167.535 128.674 160.27 124.311C159.079 123.561 157.847 122.87 156.578 122.241C155.962 121.89 155.296 121.635 154.648 121.34L152.699 120.464C158.192 122.261 163.22 125.115 167.458 128.842L169.007 130.284L170.418 131.846C170.907 132.354 171.306 132.927 171.738 133.476C172.178 134.02 172.586 134.585 172.962 135.17C174.53 137.473 175.809 139.937 176.775 142.514C178.652 147.673 179.562 153.097 179.467 158.546C179.44 163.963 178.589 169.349 176.938 174.542Z" fill="black"/>
<path d="M190.985 149.734C190.692 147.057 190.212 144.401 189.547 141.783C188.914 139.166 188.104 136.59 187.122 134.069C186.149 131.553 184.994 129.102 183.666 126.732C182.322 124.378 180.752 122.143 178.976 120.054C173.682 113.679 166.243 109.157 157.859 107.218C156.473 106.867 155.068 106.584 153.65 106.372C152.946 106.226 152.227 106.184 151.513 106.101L149.365 105.859C155.184 105.904 160.929 107.089 166.227 109.339L168.192 110.236L170.067 111.289C170.706 111.622 171.281 112.044 171.879 112.434C172.483 112.816 173.066 113.228 173.623 113.668C175.903 115.375 177.965 117.322 179.769 119.469C183.327 123.786 186.062 128.645 187.854 133.831C189.7 138.967 190.754 144.321 190.985 149.734Z" fill="black"/>
</svg>
