<svg width="300" height="248" fill="none" xmlns="http://www.w3.org/2000/svg"><path d="M128.081 61.912s2.716-1.51 5.25 1.174c0 0 4.526-5.957 23.717-.799 0 0-2.535 4.488-4.345 4.488-1.811 0 3.44 7.713 8.328 7.378 0 0 8.328 11.234 1.991 22.134-6.245 10.743-10.732 14.155-16.926 7.187a4.574 4.574 0 00-.633-.594c-1.782-1.36-9.669-7.018-12.464-2.799a3.851 3.851 0 00-.474 3.108c1.276 4.949 7.242 23.178 24.523 15.903 0 0 20.138-6.995 15.388-23.565a19.892 19.892 0 00-2.192-4.818 12.26 12.26 0 01-1.655-5.004 12.043 12.043 0 01.62-5.203c.728-2.39 2.37-4.454 4.62-5.805 2.182-1.26 5.057-1.824 7.236 1.7a9.207 9.207 0 011.379 4.811c.004 1.544-.306 3.438-1.68 4.347l1.68 3.018a20.626 20.626 0 013.471-4.74c2.326-2.181 3.82-5.007 4.256-8.047.615-4.822-.125-12.023-6.329-20.414 0 0-8.328-15.427-23.898-15.091-15.569.335-28.966 4.192-31.863 21.63z" fill="#000"/><path d="M154.151 82.034a31.368 31.368 0 00-8.252-.63 22.298 22.298 0 00-4.132.58 8.632 8.632 0 00-3.729 1.727c1.23-.529 2.544-.872 3.891-1.015a44.456 44.456 0 014.029-.362c2.707-.156 5.428-.168 8.193-.3zM128.081 81.794c.99.279 1.907.746 2.69 1.373.372.284.674.637.888 1.036.214.4.335.837.355 1.282a6.863 6.863 0 01-.763 2.633l-1.184 2.696a15.328 15.328 0 00-1.514 5.779c.002.526.106 1.047.308 1.539.216.497.571.933 1.027 1.264.927.54 2.021.781 3.111.685a5.414 5.414 0 01-2.796-1.036 3.003 3.003 0 01-.725-1.134 2.818 2.818 0 01-.14-1.312 10.46 10.46 0 01.609-2.741c.304-.908.668-1.808 1.056-2.704.372-.903.774-1.8 1.136-2.725.174-.467.349-.932.485-1.425a3.69 3.69 0 00.169-1.573 3.417 3.417 0 00-.543-1.488 3.735 3.735 0 00-1.174-1.132 7.114 7.114 0 00-2.995-1.017z" fill="#000"/><path d="M128.081 61.912a62.278 62.278 0 00-.756 5.669 74.968 74.968 0 00-.35 5.707c-.032 1.907-.001 3.819.16 5.731.094 1.95.564 3.868 1.388 5.665a.267.267 0 00.045.06c.636.635 1.232 1.3 1.787 1.996.275.349.52.717.732 1.102.236.374.33.81.268 1.24a1.766 1.766 0 00-.074-1.314 8.096 8.096 0 00-.605-1.216 15.038 15.038 0 00-1.634-2.199l.046.061a10.333 10.333 0 01-.696-2.664c-.157-.92-.22-1.86-.295-2.795-.12-1.878-.14-3.768-.152-5.659 0-3.784.09-7.576.136-11.384zM138.944 94.778c.191.364.345.743.461 1.133.118.361.144.742.075 1.114-.056.367-.23.712-.498.988a6.551 6.551 0 01-.943.83 6.48 6.48 0 00.645-.214 3.55 3.55 0 00.577-.368c.373-.3.626-.709.715-1.16.063-.445-.009-.899-.208-1.309a2.795 2.795 0 00-.824-1.014zM180.764 85.555a8.833 8.833 0 00-1.482 2.414 6.22 6.22 0 00-.41 1.38 3.425 3.425 0 00-.053.75l.005.193-.012.104a.348.348 0 01-.047.197 1.412 1.412 0 01-.768.676 6.45 6.45 0 01-1.263.443c-.93.232-1.887.36-2.85.383.952.345 1.982.459 2.994.331a5.663 5.663 0 001.535-.364c.288-.103.551-.258.773-.456.223-.198.401-.435.525-.697a1.1 1.1 0 00.093-.465l.004-.235-.008-.147a3.862 3.862 0 01.015-.608c.04-.43.112-.856.216-1.277.206-.861.476-1.727.733-2.622zM182.444 88.573a17.764 17.764 0 001.698 3.903 19.307 19.307 0 002.552 3.515 14.243 14.243 0 003.47 2.81 9.398 9.398 0 004.365 1.23 13.035 13.035 0 01-3.927-1.833 18.95 18.95 0 01-3.143-2.81 32.936 32.936 0 01-2.646-3.283c-.811-1.15-1.617-2.317-2.369-3.532zM169.178 127.811a16.437 16.437 0 01-3.224-1.747 27.082 27.082 0 01-2.81-2.231c-.91-.778-1.725-1.648-2.572-2.499l-1.232-1.318c-.402-.45-.802-.903-1.244-1.337.252.544.546 1.069.838 1.598.331.504.656 1.017 1.02 1.505.735.98 1.569 1.891 2.493 2.721a15.705 15.705 0 003.083 2.169 9.259 9.259 0 003.648 1.139z" fill="#000"/><path d="M187.29 95.689a14.09 14.09 0 013.298-3.23c.267-.218.591-.368.939-.437a2.227 2.227 0 011.051.047c.6.378 1.031.946 1.212 1.597.247.694.426 1.408.532 2.133.054.36.102.735.137 1.082-.002.33-.033.717-.069 1.078a23.724 23.724 0 01-.884 4.372 30.547 30.547 0 01-3.677 8.293 38.547 38.547 0 01-5.928 7.138 81.987 81.987 0 01-3.53 3.1c-1.249.954-2.443 1.98-3.744 2.856-.627.47-1.319.851-1.974 1.281-.694.369-1.36.789-2.083 1.102a20.067 20.067 0 01-4.421 1.605 13.902 13.902 0 01-9.182-.893c-2.853-1.41-5.25-3.498-6.943-6.05a.053.053 0 00-.068-.02.05.05 0 00-.024.028.048.048 0 00.002.035c1.473 2.77 3.789 5.082 6.662 6.65a13.89 13.89 0 004.766 1.48c1.683.184 3.387.084 5.031-.296a19.173 19.173 0 004.668-1.681c.748-.344 1.427-.789 2.137-1.187.666-.455 1.371-.864 2.003-1.357 1.325-.922 2.485-1.998 3.711-3.01.625-.492 1.155-1.08 1.729-1.622.553-.562 1.152-1.082 1.665-1.676a58.858 58.858 0 005.822-7.317 35.07 35.07 0 004.18-8.249c.494-1.468.816-2.981.962-4.513.027-.393.052-.759.043-1.185a21.623 21.623 0 00-.174-1.164 11.873 11.873 0 00-.626-2.263 3.097 3.097 0 00-.628-1.11 3.387 3.387 0 00-1.043-.801 2.188 2.188 0 00-1.409-.026c-.417.132-.806.329-1.151.583a12.175 12.175 0 00-3.085 3.596c0 .006 0 .012.002.018a.052.052 0 00.023.028.059.059 0 00.037.004.058.058 0 00.031-.02zM233.896 108.36a7.922 7.922 0 00-3.468 1.921 9.891 9.891 0 00-2.314 3.136 9.611 9.611 0 00-.804 5.562c.115.616.291 1.22.525 1.806.234-.606.34-1.191.513-1.763.185-.568.296-1.133.501-1.674.328-1.073.73-2.126 1.204-3.151a22.101 22.101 0 011.663-2.95 28.584 28.584 0 012.18-2.887zM229.283 131.836c-.407 4.348-.606 8.695-.731 13.042-.139 4.347-.153 8.693-.144 13.039.048 4.345.123 8.691.322 13.036.185 4.344.445 8.689.916 13.032.41-4.348.61-8.696.734-13.042.138-4.347.153-8.693.141-13.039-.051-4.345-.126-8.691-.325-13.036-.186-4.345-.445-8.689-.913-13.032zM132.463 103.109a256.772 256.772 0 00-11.407 7.014 283.689 283.689 0 00-5.556 3.707l-2.734 1.934c-.479.333-.931.699-1.351 1.095l-.649.629-.547.642a47.732 47.732 0 00-3.869 5.323 211.64 211.64 0 00-3.41 5.514 360.783 360.783 0 01-6.75 11.023 278.166 278.166 0 01-3.541 5.419l-1.799 2.689a14.135 14.135 0 01-1.89 2.458c-.766.696-1.678 1.386-2.472 2.252-.94.908-1.507 2.092-1.6 3.347.072 1.286.677 2.497 1.69 3.381.432.404.887.788 1.362 1.15.426.318.84.652 1.244.996a33.486 33.486 0 012.325 2.202 73.582 73.582 0 002.392 2.324 54.365 54.365 0 005.228 4.263 30.446 30.446 0 006.076 3.372c1.134.445 2.325.75 3.545.909a8.885 8.885 0 003.816-.307.823.823 0 00.469-.337l.007-.011a75.677 75.677 0 012.542-3.621 65.422 65.422 0 012.759-3.496 40.21 40.21 0 013.09-3.23 10.633 10.633 0 013.775-2.418l.008-.003a.103.103 0 00.059-.047.093.093 0 00.008-.071.102.102 0 00-.046-.058.112.112 0 00-.076-.012 10.525 10.525 0 00-4.229 2.081 30.711 30.711 0 00-3.485 3.044 61.047 61.047 0 00-5.948 6.926l.475-.348a9.452 9.452 0 01-5.922-.797 28.24 28.24 0 01-5.544-3.242 59.394 59.394 0 01-5.055-4.07 71.086 71.086 0 01-2.388-2.2 35.964 35.964 0 00-2.52-2.261 27.758 27.758 0 00-1.373-1.04c-.427-.33-.833-.612-1.19-.948a3.433 3.433 0 01-1.273-2.158c.055-.87.43-1.697 1.061-2.342.648-.772 1.466-1.471 2.26-2.311.21-.22.406-.45.587-.69l.459-.718.824-1.402 1.613-2.797a262.163 262.163 0 013.26-5.566c2.226-3.682 4.571-7.302 7.112-10.804 2.519-3.497 5.074-7.037 7.803-10.267l.516-.598.538-.509a9.909 9.909 0 011.196-1.009l2.659-1.956 5.368-3.904c3.587-2.6 7.128-5.262 10.622-7.987a.095.095 0 00.018-.133.112.112 0 00-.142-.026z" fill="#000"/><path d="M118.305 134.742c1.851 6.444 3.599 12.904 5.06 19.389a70.735 70.735 0 011.57 9.749c.1 1.576.11 3.316.259 5.003.146 1.72.457 3.424.929 5.093 1.111 3.299 2.892 6.371 5.247 9.051 1.088 1.344 2.241 2.644 3.32 3.95.519.648 1.046 1.291 1.512 1.985.5.67.952 1.373 1.402 2.08a80.1 80.1 0 014.742 8.873c1.464 3.031 2.726 6.145 3.96 9.279a77.657 77.657 0 00-7.259-18.894 33.573 33.573 0 00-2.875-4.355c-1.067-1.365-2.159-2.669-3.188-4.016a25.208 25.208 0 01-4.825-8.478 25.398 25.398 0 01-.908-4.737c-.168-1.632-.163-3.226-.325-4.972a61.789 61.789 0 00-1.957-9.946 147.196 147.196 0 00-6.664-19.054zM38.516 222.004a1.65 1.65 0 001.122-.429c.298-.276.465-.649.465-1.039 0-.39-.166-.764-.463-1.039a1.65 1.65 0 00-1.122-.431l-36.929-.045h-.002a1.672 1.672 0 00-.607.111 1.611 1.611 0 00-.515.318 1.479 1.479 0 00-.344.477 1.374 1.374 0 000 1.124c.079.179.196.341.343.477.147.137.322.245.514.319.193.074.399.112.607.112l36.929.045h.002zM273.437 221.029l46.563.407-.03 2.939-46.563-.407.03-2.939zM144.375 88.295a1.568 1.568 0 01-1.034-.426 1.346 1.346 0 01-.424-.972c0-.363.152-.711.424-.972.272-.26.643-.413 1.034-.426.391.013.761.165 1.033.426.272.26.424.61.424.972s-.152.71-.424.972c-.272.26-.642.413-1.033.426z" fill="#000"/><path d="M104.446 233.153c-5.331 3.366-11.331 5.72-17.652 6.924a43.44 43.44 0 01-9.53.632 45.017 45.017 0 01-9.403-1.478c-6.12-1.726-11.892-4.367-17.09-7.82a29.612 29.612 0 01-3.687-2.721 37.7 37.7 0 01-3.238-3.208 40.191 40.191 0 01-5.206-7.321l.101.396v-.031a.808.808 0 00-.1-.373 39.68 39.68 0 01-3.043-7.076 34.902 34.902 0 01-1.49-7.516l-.004-.053-.006-.035c-.015-.05.003-.026-.015.065l.01-.154a33.189 33.189 0 012.292-15.177c1.985-4.837 5.06-9.227 9.021-12.877 3.914-3.588 8.564-6.413 13.677-8.308a44.113 44.113 0 0116.089-2.727 43.994 43.994 0 0115.966 3.286c5.032 2.072 9.565 5.058 13.33 8.78 3.776 3.735 6.714 8.127 8.646 12.922a37.508 37.508 0 012.634 15.182.094.094 0 00.03.072c.01.01.021.018.034.023a.15.15 0 00.042.009c.027 0 .054-.01.075-.026a.104.104 0 00.036-.066 34.542 34.542 0 00-1.587-15.596c-1.733-5.089-4.609-9.779-8.441-13.763-3.841-4.016-8.55-7.239-13.823-9.461a43.546 43.546 0 00-16.815-3.366 43.918 43.918 0 00-16.758 3.144c-5.286 2.125-10.03 5.257-13.922 9.193-3.855 3.883-6.862 8.422-8.853 13.365a39.175 39.175 0 00-2.832 15.488l.01-.153a.84.84 0 00.006.358l-.011-.088c.077 2.648.452 5.28 1.119 7.856a34.375 34.375 0 002.873 7.487l-.1-.394v.01a.782.782 0 00.091.379l.01.018a36.78 36.78 0 005.45 7.669 39.657 39.657 0 003.435 3.318 33.439 33.439 0 003.945 2.82c5.385 3.503 11.378 6.127 17.719 7.756a44.088 44.088 0 0019.511.442c6.362-1.405 12.345-4.006 17.578-7.64a.102.102 0 00.043-.065.094.094 0 00-.017-.074.118.118 0 00-.069-.042.116.116 0 00-.08.015h-.001z" fill="#000"/><path d="M95.118 168.434c.29.72.534 1.45.78 2.177.24.729.476 1.456.688 2.19.235.725.425 1.463.612 2.203l.613 2.197-.031-.184c.002.083.02.166.051.244a.755.755 0 00.173.256.847.847 0 00.587.236l-.77-.543c.445 2.127.995 4.22 1.463 6.334.43 2.122.862 4.245 1.224 6.382.377 2.136.751 4.273 1.067 6.427.36 2.149.7 4.308 1.104 6.472.212-2.186.282-4.383.21-6.577a59.438 59.438 0 00-.487-6.569c-.296-2.179-.652-4.356-1.17-6.505-.235-1.078-.552-2.142-.877-3.201-.326-1.059-.627-2.124-.98-3.173l-.772-.544a.869.869 0 01.311.063.81.81 0 01.261.168c.074.072.131.157.169.25.03.075.047.155.05.236l-.032-.184c-.584-1.45-1.124-2.905-1.817-4.313a24.726 24.726 0 00-2.427-4.042zM54.068 168.433a38.665 38.665 0 00-3.554 7.24c-.512 1.246-.875 2.531-1.317 3.799-.393 1.279-.719 2.574-1.078 3.863a93.353 93.353 0 00-2.41 15.781 118.382 118.382 0 00-.014 15.915c.175 2.646.496 5.282.77 7.916.438 2.62.818 5.242 1.322 7.845-.046-2.651-.228-5.282-.33-7.917l-.178-7.896c.015-1.315.022-2.629.012-3.942l-.007-1.97.075-1.968.113-3.934.262-3.926c.337-5.233.981-10.444 1.932-15.612l.816-3.857c.328-1.273.59-2.567.978-3.828a47.839 47.839 0 012.608-7.509zM75.52 220.183a9.03 9.03 0 01-1.65-2.057c.011.881.032 1.753.054 2.635.137 6.367.401 12.734.793 19.101.391-6.367.655-12.734.793-19.101 0-.196.01-.382.01-.578zM75.235 213.885s-.698-.774-1.46-1.793c.011.989.022 1.989.043 2.978a4.042 4.042 0 011.417-1.185zM73.702 200.709v1.881l.031 4.614c.669.05 1.329.172 1.968.362l.031-4.976v-1.881c-.042-12.43-.233-24.851-1.015-37.281-.772 12.43-.973 24.851-1.015 37.281z" fill="#000"/><path d="M112.225 185.727a91.121 91.121 0 00-18.334-5.37 108.641 108.641 0 00-19.191-1.888c-3.227-.089-6.447.151-9.666.317-1.603.166-3.2.381-4.8.57-.797.104-1.6.18-2.393.307l-2.366.47a84.031 84.031 0 00-18.258 5.594c1.544-.408 3.077-.831 4.597-1.27l2.282-.65c.764-.205 1.554-.329 2.328-.498l4.64-1c1.557-.276 3.13-.485 4.692-.73l2.344-.356c.784-.096 1.575-.153 2.362-.232 1.577-.141 3.15-.31 4.725-.429 3.165-.108 6.322-.332 9.49-.213 6.341.051 12.67.535 18.934 1.447l4.695.754c1.554.304 3.119.574 4.669.907 3.118.613 6.191 1.397 9.25 2.27zM75.658 223.357l-9.727-1.162c-3.218-.421-6.428-.867-9.619-1.403-3.195-.508-6.376-1.108-9.552-1.739-1.573-.367-3.16-.698-4.756-1.023l-1.203-.229-1.183-.285a79.055 79.055 0 00-2.403-.526c.728.349 1.465.688 2.212 1.017.74.339 1.499.64 2.274.903 1.54.536 3.088 1.067 4.651 1.562a81.77 81.77 0 009.608 2.172 74.399 74.399 0 0019.698.713zM115.973 201.65a343.799 343.799 0 00-6.25-.294 14.83 14.83 0 011.671.52 668.47 668.47 0 004.579-.226zM33.46 201.65a601.9 601.9 0 0020.623.735c6.547.137 13.083.186 19.618.206h2.031c.825 0 1.64-.01 2.464-.01-.084-.813.35-1.352 1.576-1.411a4.842 4.842 0 012.982.921c.19.137.402.284.645.451 6.42-.039 12.836-.154 19.249-.343.026-.211.097-.415.21-.6.112-.185.264-.348.445-.478-9.19-.293-18.38-.382-27.571-.411h-2.03c-6.536.02-13.072.069-19.619.206-6.874.117-13.748.362-20.623.734z" fill="#000"/><path d="M98.586 176.995a.01.01 0 00.001.004l.002.003.004.002.004.001a24.176 24.176 0 012.274 5.397c.01.02.01.049.021.069.793 2.83.402 3.35 1.449 6.141.592 1.577 1.121 2.488.825 3.791a14.399 14.399 0 01-1.068 2.38c-.127.245-.254.51-.402.804-.73 1.489-.91 1.841-.751 2.292.201.548.666.617 1.523 1.097.302.163.588.35.856.558a9.15 9.15 0 011.396 1.195 18.916 18.916 0 019.043 2.185c.655.342 1.364.685 2.126 1.048h.01c.032-.421.042-.843.064-1.264.01-.353.01-.695.01-1.048.008-5.497-1.269-10.931-3.744-15.927l-.01-.01h-.011a36.42 36.42 0 00-3.553-5.789c-4.601-4.153-9.561-6.308-11.21-6.299a.738.738 0 00-.498.137c-.37.343.518 1.284 1.64 3.233zM33.46 201.65c0 .324 0 .647.021.97 0 .274.022.539.032.813 0 .049.01.098.01.147.003.285.02.569.054.852a35.676 35.676 0 004.114 14.076c.03.018.061.031.095.04v.009c.277.122.573.202.878.236.355.033.715-.004 1.054-.108.339-.105.65-.275.913-.5.01-.01.021-.029.042-.039.857-.872.17-2.086.444-3.908.233-1.509 1.09-2.577 2.792-4.702a22.01 22.01 0 012.475-2.743c.624-.558 1.206-.901 1.618-.744.518.215.677 1.234.487 1.978-.286 1.117-1.259 1.215-1.47 2.116-.286 1.185 1.015 2.557 2.125 3.184.62.386 1.338.617 2.083.67a4.616 4.616 0 002.169-.367c1.523-.823 1.48-2.576 2.295-2.576.645.01 1.216 1.107 1.311 1.969a2.565 2.565 0 01-.286 1.573 2.841 2.841 0 01-1.184 1.16c-1.047.411-1.724-.441-2.95 0a2.237 2.237 0 00-.955.577 1.996 1.996 0 00-.515.941c-.053.931 1.322 1.656 3.109 2.576 2.041 1.049 2.676 1 5.076 2.126.233.108.445.206.645.304.939.4 1.82.907 2.623 1.508 1.65 1.254 1.491 1.812 3.11 3.037a8.301 8.301 0 003.764 1.822c1.28.196 1.545-.167 3.766-.304a16.234 16.234 0 011.512-.029c.972.012 1.943.071 2.908.176 1.13.104 2.251.284 3.353.539-5.669-2.674-6.42-6.72-4.061-7.68 0 0-6.705-4.711-1.682-7.464 0 0-8.122-8.953 1.047-6.152a9.633 9.633 0 012.158.99c.285.166.613.372.983.588l1.09-2.567v-.01c-2.148-2.703-3.586-5.436-.74-5.564a4.842 4.842 0 012.981.921 64.505 64.505 0 002.782 1.852l2.4-2.293a6.029 6.029 0 00.984-2.723 7.188 7.188 0 00-.574-3.118 7.667 7.667 0 00-1.88-2.641c-1.507-1.479-3.435-2.532-5.562-3.037a11.71 11.71 0 00-5.246-.607 13.17 13.17 0 00-.941.186c-1.037.225-2.105.558-2.655.725-.935.393-1.93.65-2.95.764-1.333.058-1.703-.314-2.285 0-.73.372-.613 1.155-1.153 3.026-.539 1.852-.983 3.419-2.125 3.791-.857.275-1.322-.372-2.295 0-.635.245-.635.598-1.629 1.519-.878.803-1.322 1.204-1.967 1.361a3.337 3.337 0 01-1.844-.133 3.068 3.068 0 01-1.434-1.081c-.127-.206-.36-.637-.16-2.42.244-2.253.36-3.379 1.143-4.094.952-.872 1.692-.236 3.934-.912 2.57-.773 2.38-1.851 5.235-2.879 1.915-.686 2.422-.363 3.924-1.215 1.216-.686 2.76-1.959 2.464-2.733-.328-.823-2.443-.186-3.278-1.361-.656-.911.253-1.803-.487-3.037-.433-.705-1.332-1.381-1.967-1.205-.698.186-.434 1.234-1.311 2.576-.813 1.148-2.027 2.002-3.438 2.42-1.068.362-2.39.813-3.437.156-.93-.577-1.449-1.9-.983-2.576.603-.872 2.432-.127 2.95-.911a1.401 1.401 0 00-.01-1.185 2.71 2.71 0 00-.728-1.153 3.003 3.003 0 00-1.229-.698c-.539-.079-1.089.107-4.262 2.576-.169.137-.338.264-.486.382l-.01.01c-1.682 1.322-1.99 1.616-2.613 1.587a2.094 2.094 0 01-.603-.128 3.193 3.193 0 01-.91-.539 7.342 7.342 0 01-1.755-2.37c-.54-1.156-.328-1.626-.656-1.822-.761-.451-3.48 1.058-6.335 3.771a35.064 35.064 0 00-2.157 3.801 35.725 35.725 0 00-3.66 13.243c-.031.441-.052.892-.073 1.342-.011.441-.022.892-.022 1.342zM154.151 0a57.096 57.096 0 00-1.363 6.762c-.349 2.26-.575 4.53-.777 6.801-.163 2.274-.299 4.55-.312 6.834-.048 2.294.045 4.59.28 6.874a56.285 56.285 0 001.366-6.762c.349-2.26.575-4.53.774-6.802.16-2.274.296-4.55.309-6.833A56.159 56.159 0 00154.151 0zM138.902 29.152a61.676 61.676 0 00-2.099-6.867c-.798-2.253-1.71-4.462-2.645-6.664-.971-2.188-1.967-4.366-3.077-6.502a63.287 63.287 0 00-3.627-6.297 61.216 61.216 0 002.096 6.868c.798 2.252 1.711 4.462 2.647 6.662.974 2.187 1.97 4.366 3.08 6.502a64.052 64.052 0 003.625 6.298zM177.324 5.172a54.887 54.887 0 00-3.567 5.691c-1.092 1.936-2.071 3.918-3.028 5.909-.92 2.005-1.817 4.02-2.6 6.08a52.102 52.102 0 00-2.056 6.3 54.072 54.072 0 003.57-5.69c1.092-1.937 2.071-3.919 3.025-5.91.918-2.006 1.815-4.021 2.598-6.082a52.678 52.678 0 002.058-6.298zM275.821 164.421c.947-.223 1.91-.379 2.881-.467.46-.054.927-.011 1.367.127.415.139.284.562.054.93a10.02 10.02 0 01-1.911 1.972 31.549 31.549 0 01-2.236 1.729.298.298 0 00-.126.201c-.012.08.011.16.064.224a.356.356 0 00.303.117c2.001-.206 3.886-.973 5.403-2.199a7.672 7.672 0 001.881-2.189c.251-.432.43-.896.531-1.377a1.87 1.87 0 00-.018-.845 1.196 1.196 0 00-.277-.481c-.041-.068-.079-.091-.139-.197-.882-1.487-1.635-3.169-2.402-4.783l-2.25-4.909c-.755-1.64-1.519-3.261-2.166-4.921-.666-1.66-1.206-3.342-1.832-5.039l-1.835-5.076c-.624-1.687-1.389-3.328-2.075-4.993a96.558 96.558 0 00-10.498-19.02 45.408 45.408 0 00-7.507-8.173c-.36-.302-.71-.615-1.079-.909l-1.153-.831a24.143 24.143 0 00-2.4-1.556 18.106 18.106 0 00-5.466-2.18l.108.025a47.207 47.207 0 00-10.157-1.636c-3.406-.256-6.817-.338-10.222-.341-3.406.001-6.808.063-10.209.184-3.399.149-6.791.338-10.187.595l.356.112A35.756 35.756 0 01199 94.518l-1.698-2.132a6.969 6.969 0 00-2.092-1.957 8.632 8.632 0 00-5.736-.803 14.845 14.845 0 00-5.34 1.985.06.06 0 00-.017.015.07.07 0 00-.009.02.075.075 0 000 .02.07.07 0 00.009.02c.009.012.023.02.038.023a.07.07 0 00.045-.008 14.686 14.686 0 015.331-1.714 8.36 8.36 0 015.331.926 6.26 6.26 0 011.846 1.855l1.63 2.198a32.222 32.222 0 003.646 4.211c.042.04.093.07.149.09.056.02.116.028.176.024l.031-.001c3.378-.192 6.77-.317 10.157-.4 3.388-.1 6.776-.152 10.161-.137 3.387.009 6.767.138 10.134.333 3.347.133 6.666.628 9.889 1.474l.072.017.037.007a18.534 18.534 0 015.096 1.966c.817.438 1.605.923 2.359 1.451l1.143.782c.367.278.717.576 1.077.864a24.267 24.267 0 012.087 1.799c.654.641 1.351 1.247 1.972 1.918 1.214 1.363 2.485 2.689 3.552 4.164 4.395 5.831 7.933 12.179 10.518 18.875.626 1.681 1.328 3.334 1.89 5.033l1.652 5.105c.564 1.688 1.042 3.442 1.715 5.122.64 1.695 1.397 3.346 2.131 4.987.732 1.648 1.517 3.275 2.296 4.906.805 1.633 1.538 3.244 2.529 4.866.081.123.173.24.275.349-.007.055.043.018.044.107.035.158.036.32.004.478a3.878 3.878 0 01-.425 1.13 7.448 7.448 0 01-1.646 2c-1.365 1.169-3.083 1.925-4.924 2.165l.242.542a31.754 31.754 0 002.225-1.829 9.991 9.991 0 001.892-2.169c.133-.226.211-.476.23-.732a.677.677 0 00-.14-.41.762.762 0 00-.369-.261 3.535 3.535 0 00-1.538-.086 20.76 20.76 0 00-2.886.61.067.067 0 00-.021.009.046.046 0 00-.014.017.037.037 0 00-.007.02.038.038 0 00.002.021.053.053 0 00.027.032.064.064 0 00.043.006z" fill="#000"/><path d="M73.862 212.036a15.94 15.94 0 01-1.244-2.001 5.603 5.603 0 01-.424-1.064 1.61 1.61 0 01-.02-1.043.9.9 0 01.343-.363c.148-.088.321-.136.498-.138.394-.042.792-.03 1.183.035.807.135 1.598.343 2.362.62.756.297 1.474.671 2.14 1.116.697.434 1.41.851 2.13 1.257.724.402 1.454.795 2.214 1.151a10.39 10.39 0 002.44.876c.079.015.16.006.234-.025a.37.37 0 00.173-.148.33.33 0 00-.054-.412l-.018-.017a56.432 56.432 0 01-4.921-5.401l.094.264v-.009a.402.402 0 00-.085-.253l-.008-.01a22.407 22.407 0 01-1.31-1.875 5.913 5.913 0 01-.85-1.938c-.1-.669.133-.871.865-.967a3.994 3.994 0 012.072.391c.332.162.646.355.935.577.33.24.666.466 1.003.688.677.443 1.334.908 2.027 1.333a62.875 62.875 0 004.233 2.432 43.676 43.676 0 009.202 3.64 26.92 26.92 0 005.009.786c1.728.084 3.46-.075 5.136-.472a.81.81 0 00.336-.173.722.722 0 00.207-.301.685.685 0 00-.129-.681l-.012-.014-4.016-4.658-1.972-2.293a.867.867 0 01-.137-.782.82.82 0 01.2-.334c.056-.054.118-.104.184-.148a.959.959 0 01.176-.094c.156-.058.323-.084.49-.077a18.062 18.062 0 012.275.1 15.69 15.69 0 012.99.61c.485.157.962.293 1.455.465.47.173.933.37 1.386.586l2.833 1.413a.863.863 0 00.379.09h.033l-.397-.088c5.333 2.467 10.714 4.645 15.788 7.362l1.91 1.031a21.757 21.757 0 006.473 2.261c1.512.282 3.05.42 4.592.412 1.565-.01 3.024-.182 4.493-.281l17.662-1.369 17.656-1.436c11.771-.943 23.543-1.904 35.32-2.739l4.415-.268a58.432 58.432 0 012.192-.088c.438.007.87-.086 1.26-.272.369-.197.687-.466.932-.789a9.811 9.811 0 001.551-3.984c.261-1.361.439-2.734.533-4.113.3-5.484.196-10.98-.313-16.451l-.232.314c4.066-1.158 8.129-2.347 12.078-3.825 3.966-1.44 7.85-3.065 11.637-4.871 3.786-1.807 7.474-3.786 11.134-5.771 3.661-1.965 7.355-3.935 11.366-4.948l-.695-.488a737.66 737.66 0 01-.742 32.51c-.255 5.413-.579 10.823-1.058 16.216-.103 1.35-.249 2.695-.385 4.04a112.889 112.889 0 01-.455 4.031c-.167 1.344-.297 2.694-.564 3.962a20.383 20.383 0 01-1.15 3.759c-2.093 4.898-5.888 9.011-10.786 11.688a31.186 31.186 0 01-7.792 3.053c-1.37.338-2.763.592-4.169.761-1.416.161-2.893.269-4.336.406l-4.354.387-4.364.261c-2.907.21-5.823.268-8.735.378-2.913.123-5.83.073-8.745.119-2.914-.066-5.831-.057-8.742-.201a263.656 263.656 0 01-34.74-3.626c-5.725-.984-11.485-2.107-17.28-3-5.793-.909-11.6-1.671-17.409-2.4-11.616-1.474-23.254-2.724-34.873-4.068-5.804-.688-11.62-1.363-17.359-2.316l-2.134-.4c-.714-.13-1.376-.345-2.07-.513a41.28 41.28 0 01-1.968-.782 16.074 16.074 0 01-1.838-1.014 8.283 8.283 0 01-2.813-2.859 3.095 3.095 0 01-.415-1.808c.029-.296.14-.579.323-.822s.432-.438.72-.565a.264.264 0 00.1-.074.236.236 0 00.041-.227.246.246 0 00-.069-.1l-.017-.014a22.259 22.259 0 01-1.81-1.546 7.452 7.452 0 01-1.37-1.869 2.589 2.589 0 01-.19-2.132 3.454 3.454 0 011.598-1.616.13.13 0 00.063-.078.118.118 0 00-.016-.096l-.012-.016-1.477-1.767-.005-.006a.103.103 0 00-.07-.037.107.107 0 00-.077.019.095.095 0 00-.041.063.094.094 0 00.02.073l1.441 1.817.036-.189a3.755 3.755 0 00-1.773 1.72 2.916 2.916 0 00.136 2.392c.35.729.818 1.404 1.388 2.003.58.581 1.193 1.132 1.84 1.65l.054-.415a2.384 2.384 0 00-.955.709 2.136 2.136 0 00-.453 1.053c-.085.731.06 1.469.415 2.127a8.861 8.861 0 002.95 3.168c.606.41 1.241.782 1.902 1.111.671.305 1.352.601 2.043.87.717.195 1.437.442 2.157.591l2.16.454c5.774 1.055 11.576 1.822 17.375 2.605l34.797 4.521c5.79.785 11.574 1.603 17.321 2.563 2.878.449 5.737 1.023 8.601 1.538 2.861.547 5.737 1.115 8.626 1.612a266.1 266.1 0 0035.034 3.732c11.76.491 23.543.161 35.249-.987 1.469-.149 2.913-.26 4.402-.438a36.96 36.96 0 004.438-.836 33.371 33.371 0 008.314-3.312c5.262-2.92 9.322-7.38 11.541-12.676a22.01 22.01 0 001.215-4.066c.283-1.398.404-2.754.559-4.105.16-1.355.294-2.711.402-4.068.119-1.356.246-2.712.331-4.069.406-5.427.656-10.856.835-16.285.353-10.859.449-21.717.288-32.575v-.01a.481.481 0 00-.165-.355.568.568 0 00-.531-.124c-4.201 1.122-7.913 3.183-11.551 5.194-3.643 2.028-7.261 4.065-11.02 5.874a129.736 129.736 0 01-11.542 4.895c-3.92 1.488-7.956 2.691-11.999 3.863a.334.334 0 00-.175.12.293.293 0 00-.057.195c.506 5.437.582 10.901.229 16.349a33.414 33.414 0 01-.551 4.03 9.256 9.256 0 01-1.434 3.674 2.085 2.085 0 01-.684.582c-.27.126-.571.186-.873.173-.751.015-1.501.034-2.236.075l-4.43.23c-11.802.652-23.589 1.421-35.378 2.188l-17.681 1.175-17.672 1.284c-1.476.095-2.956.256-4.348.255-1.414 0-2.825-.134-4.211-.399a21.578 21.578 0 01-4.023-1.185 20.208 20.208 0 01-1.886-.879l-1.926-1.024c-5.185-2.734-10.667-4.915-15.918-7.307l-.013-.005a.933.933 0 00-.384-.083h-.011l.401.09-2.845-1.397a17.818 17.818 0 00-1.546-.642c-.512-.175-1.062-.333-1.591-.498a17.55 17.55 0 00-3.292-.649 20.151 20.151 0 00-1.684-.1c-.293-.002-.533-.006-.861.007a3.017 3.017 0 00-1.078.208 2.641 2.641 0 00-.518.281c-.149.104-.288.22-.414.348a2.335 2.335 0 00-.566.963 2.285 2.285 0 00-.056 1.071c.067.356.217.694.442.99l2.053 2.361 4.051 4.638.402-1.169a17.456 17.456 0 01-4.632.479 25.43 25.43 0 01-4.707-.67 42.449 42.449 0 01-8.95-3.392 61.872 61.872 0 01-4.184-2.32c-.685-.406-1.342-.856-2.015-1.281-.337-.215-.67-.432-.99-.657a6.82 6.82 0 00-1.127-.666 5.186 5.186 0 00-2.704-.458 2.24 2.24 0 00-1.447.644 1.744 1.744 0 00-.34.704 1.68 1.68 0 00.006.772c.192.804.535 1.57 1.013 2.263.434.666.906 1.31 1.416 1.928l-.093-.262v.023a.4.4 0 00.094.251 57.458 57.458 0 005.147 5.374l.335-.602a18.07 18.07 0 01-4.452-1.84 54.455 54.455 0 01-2.144-1.196 11.854 11.854 0 00-2.264-1.111 14.103 14.103 0 00-2.485-.591 4.82 4.82 0 00-1.32.005 1.385 1.385 0 00-.674.233 1.25 1.25 0 00-.445.524c-.126.41-.11.846.047 1.247.122.381.284.751.483 1.103.393.693.839 1.359 1.334 1.993a.11.11 0 00.146.024.093.093 0 00.028-.135z" fill="#000"/><path d="M85.214 212.58a67.105 67.105 0 004.861 2.398 28.887 28.887 0 005.121 1.81 28.197 28.197 0 01-4.84-2.288 65.154 65.154 0 01-4.485-2.823l-.008-.006a.621.621 0 00-.824.114.516.516 0 00-.11.405.54.54 0 00.285.39zM74.885 214.328a161.123 161.123 0 008.34 4.932c1.421.774 2.853 1.534 4.333 2.211.735.348 1.488.662 2.257.94.381.148.773.27 1.174.363.396.107.805.166 1.218.175a5.01 5.01 0 01-1.197-.24 8.373 8.373 0 01-1.138-.424 24.67 24.67 0 01-2.175-1.055c-1.423-.751-2.797-1.584-4.158-2.43a158.496 158.496 0 01-7.958-5.351l-.005-.003a.617.617 0 00-.435-.109.6.6 0 00-.39.207.518.518 0 00.106.765l.028.019zM76.538 221.771a28.873 28.873 0 003.351 1.952 34.737 34.737 0 003.54 1.552 34.056 34.056 0 007.491 1.908 33.426 33.426 0 01-7.25-2.405 33.654 33.654 0 01-3.33-1.757 27.599 27.599 0 01-3.047-2.086l-.019-.015a.608.608 0 00-.428-.133.589.589 0 00-.404.187.533.533 0 00-.143.397.52.52 0 00.204.374l.035.026zM105.144 180.825a.554.554 0 00.441-.219l4.566-6.389a.475.475 0 00.078-.177.462.462 0 00-.08-.368.541.541 0 00-.544-.206.52.52 0 00-.336.209l-4.566 6.389a.463.463 0 00-.077.368.49.49 0 00.226.311.55.55 0 00.292.082zM81.634 164.858c.088 0 .174-.02.25-.058a.528.528 0 00.191-.161l4.567-6.388a.474.474 0 00.078-.368.48.48 0 00-.226-.311.559.559 0 00-.734.137l-4.567 6.388a.467.467 0 00-.025.503.514.514 0 00.195.189.566.566 0 00.271.069z" fill="#000"/></svg>