<svg width="519" height="412" viewBox="0 0 519 412" fill="none" xmlns="http://www.w3.org/2000/svg">
<path d="M207.678 103.073C207.678 103.073 212.077 100.571 216.183 105.019C216.183 105.019 223.516 95.1429 254.605 103.695C254.605 103.695 250.499 111.136 247.566 111.136C244.633 111.136 253.138 123.925 261.057 123.369C261.057 123.369 274.549 141.997 264.283 160.068C254.166 177.88 246.897 183.538 236.862 171.984C236.554 171.626 236.211 171.296 235.836 171C232.95 168.744 220.173 159.364 215.645 166.358C214.68 167.912 214.404 169.765 214.877 171.511C216.944 179.718 226.61 209.943 254.605 197.88C254.605 197.88 287.229 186.282 279.534 158.808C278.711 156.014 277.518 153.329 275.983 150.82C274.503 148.256 273.591 145.432 273.302 142.522C273.014 139.612 273.355 136.677 274.306 133.897C275.485 129.933 278.146 126.512 281.791 124.271C285.325 122.181 289.984 121.247 293.513 127.09C294.973 129.521 295.743 132.27 295.747 135.067C295.754 137.628 295.251 140.768 293.026 142.275L295.747 147.279C297.227 144.425 299.12 141.78 301.37 139.421C305.139 135.802 307.559 131.118 308.265 126.077C309.262 118.081 308.062 106.143 298.012 92.23C298.012 92.23 284.52 66.6516 259.297 67.2077C234.074 67.7637 212.371 74.1582 207.678 103.073Z" fill="black"/>
<path d="M249.912 136.436C245.531 135.486 241.029 135.135 236.543 135.392C234.283 135.498 232.041 135.821 229.849 136.354C227.613 136.809 225.535 137.794 223.809 139.216C225.801 138.339 227.93 137.771 230.112 137.534C232.268 137.24 234.444 137.026 236.639 136.933C241.024 136.675 245.433 136.655 249.912 136.436Z" fill="black"/>
<path d="M207.678 136.039C209.282 136.501 210.767 137.277 212.036 138.315C212.638 138.786 213.128 139.371 213.475 140.034C213.821 140.696 214.017 141.42 214.049 142.159C213.93 143.675 213.511 145.156 212.813 146.524L210.895 150.994C209.464 154.018 208.633 157.266 208.443 160.576C208.445 161.448 208.614 162.312 208.941 163.127C209.292 163.952 209.866 164.675 210.605 165.223C212.106 166.12 213.879 166.519 215.645 166.358C213.989 166.225 212.412 165.627 211.116 164.641C210.584 164.103 210.183 163.461 209.941 162.761C209.698 162.06 209.621 161.317 209.714 160.585C209.84 159.037 210.172 157.51 210.701 156.041C211.194 154.536 211.783 153.044 212.411 151.558C213.014 150.061 213.666 148.573 214.252 147.04C214.533 146.266 214.818 145.494 215.038 144.678C215.313 143.834 215.406 142.947 215.312 142.069C215.214 141.195 214.913 140.353 214.432 139.602C213.951 138.852 213.302 138.211 212.529 137.725C211.077 136.805 209.414 136.227 207.678 136.039Z" fill="black"/>
<path d="M207.678 103.073C207.129 106.189 206.72 109.322 206.452 112.472C206.147 115.617 205.958 118.771 205.886 121.935C205.834 125.098 205.884 128.267 206.145 131.438C206.298 134.671 207.059 137.851 208.394 140.83C208.413 140.867 208.438 140.901 208.467 140.931C209.497 141.982 210.463 143.086 211.361 144.24C211.807 144.818 212.204 145.428 212.548 146.066C212.93 146.686 213.083 147.41 212.982 148.123C213.218 147.406 213.175 146.633 212.862 145.943C212.592 145.248 212.264 144.574 211.881 143.928C211.115 142.641 210.23 141.42 209.235 140.282L209.309 140.383C208.74 138.96 208.362 137.476 208.182 135.965C207.928 134.44 207.825 132.883 207.704 131.332C207.51 128.217 207.476 125.084 207.457 121.949C207.458 115.674 207.603 109.387 207.678 103.073Z" fill="black"/>
<path d="M225.275 157.566C225.585 158.169 225.835 158.799 226.023 159.446C226.214 160.043 226.255 160.675 226.145 161.291C226.054 161.901 225.772 162.471 225.337 162.929C224.876 163.434 224.365 163.895 223.809 164.306C224.164 164.206 224.513 164.087 224.855 163.95C225.187 163.777 225.5 163.573 225.789 163.34C226.394 162.843 226.803 162.166 226.947 161.419C227.05 160.68 226.933 159.928 226.61 159.248C226.309 158.597 225.852 158.021 225.275 157.566Z" fill="black"/>
<path d="M293.026 142.275C292.011 143.482 291.201 144.833 290.625 146.278C290.317 147.015 290.094 147.782 289.96 148.565C289.888 148.976 289.859 149.392 289.874 149.808L289.883 150.128L289.863 150.302C289.871 150.415 289.844 150.528 289.788 150.627C289.536 151.136 289.092 151.536 288.543 151.748C287.892 152.064 287.205 152.31 286.497 152.483C284.99 152.868 283.44 153.081 281.881 153.118C283.421 153.69 285.091 153.88 286.731 153.668C287.587 153.585 288.425 153.382 289.217 153.064C289.683 152.893 290.109 152.635 290.47 152.307C290.83 151.979 291.119 151.587 291.319 151.152C291.424 150.908 291.476 150.645 291.47 150.381L291.476 149.991L291.464 149.747C291.445 149.411 291.453 149.074 291.487 148.739C291.552 148.026 291.67 147.319 291.839 146.622C292.171 145.194 292.609 143.758 293.026 142.275Z" fill="black"/>
<path d="M295.747 147.279C296.402 149.528 297.325 151.699 298.498 153.749C299.646 155.83 301.033 157.785 302.632 159.578C304.232 161.405 306.13 162.978 308.254 164.237C310.384 165.489 312.821 166.192 315.325 166.276C313.033 165.623 310.88 164.595 308.964 163.237C307.088 161.869 305.38 160.306 303.872 158.577C302.324 156.851 300.892 155.033 299.586 153.134C298.271 151.227 296.965 149.293 295.747 147.279Z" fill="black"/>
<path d="M274.255 212.337C272.402 211.567 270.649 210.595 269.033 209.44C267.43 208.305 265.908 207.069 264.48 205.74C263.007 204.451 261.686 203.009 260.314 201.598L258.317 199.412C257.667 198.666 257.018 197.915 256.303 197.195C256.711 198.097 257.186 198.968 257.66 199.844C258.196 200.681 258.723 201.531 259.313 202.341C260.502 203.964 261.855 205.475 263.351 206.853C264.854 208.241 266.531 209.448 268.346 210.449C270.144 211.484 272.162 212.129 274.255 212.337Z" fill="black"/>
<path d="M303.597 159.077C305.056 157.026 306.862 155.218 308.941 153.723C309.373 153.361 309.898 153.11 310.462 152.997C311.027 152.883 311.614 152.91 312.164 153.075C313.137 153.701 313.835 154.643 314.128 155.722C314.529 156.874 314.817 158.058 314.99 159.259C315.078 159.856 315.155 160.478 315.212 161.053C315.208 161.6 315.158 162.243 315.1 162.84C314.848 165.292 314.368 167.718 313.667 170.091C312.376 174.917 310.371 179.546 307.711 183.84C305.016 188.132 301.792 192.104 298.107 195.674C296.259 197.446 294.338 199.152 292.389 200.814C290.365 202.397 288.431 204.098 286.323 205.551C285.307 206.33 284.186 206.961 283.125 207.674C282.001 208.286 280.922 208.982 279.751 209.502C277.489 210.667 275.083 211.561 272.589 212.163C267.606 213.416 262.312 212.889 257.713 210.683C253.091 208.344 249.209 204.882 246.465 200.651C246.455 200.633 246.438 200.619 246.417 200.613C246.397 200.607 246.374 200.609 246.355 200.618C246.337 200.628 246.324 200.645 246.317 200.664C246.311 200.683 246.312 200.703 246.32 200.721C248.707 205.315 252.458 209.148 257.112 211.747C259.495 213.029 262.117 213.863 264.834 214.202C267.56 214.507 270.321 214.341 272.984 213.711C275.627 213.116 278.172 212.178 280.546 210.924C281.758 210.354 282.858 209.615 284.008 208.956C285.087 208.201 286.229 207.523 287.253 206.706C289.399 205.178 291.278 203.393 293.264 201.716C294.277 200.899 295.136 199.924 296.066 199.025C296.962 198.094 297.932 197.231 298.764 196.246C302.236 192.441 305.389 188.385 308.195 184.114C311.051 179.844 313.327 175.249 314.966 170.438C315.766 168.003 316.289 165.495 316.525 162.955C316.57 162.304 316.61 161.697 316.595 160.991C316.518 160.322 316.422 159.7 316.314 159.06C316.098 157.783 315.759 156.527 315.299 155.309C315.093 154.637 314.747 154.01 314.282 153.466C313.817 152.922 313.243 152.471 312.592 152.14C311.861 151.868 311.051 151.852 310.309 152.096C309.634 152.315 309.004 152.642 308.445 153.063C306.396 154.718 304.702 156.733 303.458 158.996C303.452 159.005 303.449 159.015 303.448 159.025C303.446 159.035 303.447 159.045 303.45 159.055C303.453 159.065 303.458 159.074 303.464 159.082C303.471 159.09 303.479 159.097 303.488 159.102C303.507 159.111 303.528 159.113 303.548 159.108C303.568 159.104 303.585 159.092 303.597 159.077Z" fill="black"/>
<path d="M379.102 180.086C376.966 180.66 375.027 181.759 373.483 183.271C371.891 184.758 370.617 186.524 369.733 188.471C368.847 190.406 368.349 192.481 368.264 194.589C368.222 195.626 368.278 196.665 368.432 197.693C368.618 198.714 368.903 199.715 369.282 200.686C369.662 199.682 369.833 198.712 370.113 197.765C370.412 196.823 370.592 195.885 370.925 194.989C371.457 193.21 372.108 191.464 372.876 189.764C373.646 188.073 374.546 186.438 375.569 184.873C376.641 183.209 377.821 181.611 379.102 180.086Z" fill="black"/>
<path d="M371.628 219.01C370.968 226.22 370.646 233.427 370.443 240.634C370.219 247.842 370.195 255.048 370.209 262.253C370.288 269.459 370.41 276.664 370.731 283.868C371.031 291.072 371.453 298.275 372.215 305.476C372.879 298.266 373.203 291.058 373.405 283.851C373.629 276.644 373.653 269.438 373.634 262.232C373.551 255.027 373.429 247.822 373.107 240.618C372.806 233.414 372.386 226.211 371.628 219.01Z" fill="black"/>
<path d="M214.777 171.38C208.502 175.102 202.342 178.978 196.297 183.009C193.272 185.022 190.271 187.071 187.296 189.156L182.867 192.363C182.09 192.915 181.359 193.522 180.679 194.178L179.626 195.22L178.741 196.285C176.445 199.09 174.351 202.039 172.473 205.112C170.581 208.139 168.739 211.186 166.948 214.253C163.408 220.414 159.763 226.507 156.012 232.531C154.136 235.545 152.224 238.54 150.276 241.514L147.363 245.974C146.499 247.432 145.473 248.798 144.302 250.049C143.06 251.203 141.582 252.347 140.296 253.784C138.773 255.288 137.855 257.252 137.704 259.332C137.82 261.465 138.8 263.473 140.44 264.937C141.141 265.609 141.878 266.245 142.649 266.845C143.338 267.372 144.008 267.925 144.664 268.496C145.983 269.644 147.195 270.85 148.429 272.147C149.685 273.462 150.986 274.739 152.305 276.001C154.969 278.523 157.798 280.883 160.775 283.068C163.81 285.296 167.114 287.173 170.617 288.66C172.454 289.397 174.385 289.904 176.361 290.167C178.435 290.459 180.553 290.284 182.544 289.658C182.861 289.567 183.131 289.368 183.303 289.099L183.314 289.081C184.6 287.062 186.008 285.048 187.432 283.077C188.855 281.097 190.345 279.165 191.902 277.28C193.466 275.409 195.137 273.622 196.908 271.926C198.612 270.181 200.7 268.812 203.024 267.915L203.037 267.911C203.078 267.897 203.112 267.869 203.132 267.833C203.152 267.797 203.156 267.755 203.145 267.715C203.134 267.675 203.107 267.641 203.07 267.62C203.033 267.598 202.989 267.591 202.946 267.599C200.407 268.22 198.06 269.403 196.096 271.05C194.082 272.594 192.195 274.281 190.45 276.097C186.945 279.695 183.724 283.533 180.814 287.58L181.584 287.004C178.321 287.635 174.929 287.168 171.991 285.682C168.783 284.232 165.769 282.428 163.009 280.306C160.15 278.202 157.416 275.949 154.82 273.558C153.507 272.367 152.207 271.159 150.95 269.911C149.677 268.641 148.304 267.344 146.868 266.162C146.146 265.568 145.407 264.989 144.644 264.437C143.952 263.89 143.295 263.423 142.716 262.865C141.594 261.949 140.861 260.677 140.654 259.287C140.742 257.845 141.349 256.474 142.373 255.404C143.423 254.124 144.748 252.965 146.034 251.572C146.374 251.208 146.691 250.826 146.985 250.429L147.728 249.238L149.064 246.913L151.677 242.276C153.4 239.178 155.161 236.102 156.958 233.047C160.563 226.943 164.363 220.94 168.479 215.134C172.56 209.336 176.699 203.467 181.12 198.11L181.956 197.12L182.827 196.275C183.425 195.669 184.073 195.11 184.766 194.602L189.073 191.359L197.77 184.886C203.581 180.575 209.317 176.161 214.978 171.643C215.011 171.616 215.033 171.579 215.038 171.538C215.043 171.497 215.032 171.456 215.007 171.422C214.981 171.389 214.943 171.366 214.9 171.358C214.858 171.35 214.813 171.358 214.777 171.38V171.38Z" fill="black"/>
<path d="M191.84 223.829C194.839 234.513 197.672 245.224 200.037 255.977C201.254 261.307 202.104 266.706 202.581 272.141C202.743 274.754 202.76 277.639 203.002 280.436C203.237 283.287 203.741 286.113 204.506 288.88C206.306 294.35 209.191 299.443 213.006 303.888C214.769 306.116 216.636 308.271 218.385 310.436C219.226 311.511 220.079 312.578 220.835 313.728C221.645 314.838 222.377 316.005 223.106 317.176C225.975 321.929 228.541 326.842 230.788 331.887C233.16 336.913 235.204 342.077 237.203 347.273C234.658 336.411 230.709 325.889 225.444 315.945C224.084 313.431 222.527 311.018 220.785 308.726C219.058 306.461 217.288 304.3 215.62 302.066C212.111 297.884 209.46 293.117 207.805 288.009C207.07 285.438 206.577 282.81 206.333 280.156C206.061 277.45 206.07 274.807 205.807 271.912C205.195 266.347 204.135 260.834 202.636 255.422C199.759 244.681 196.153 234.128 191.84 223.829Z" fill="black"/>
<path d="M62.5802 368.512C63.2618 368.513 63.9156 368.257 64.3979 367.8C64.8802 367.343 65.1514 366.724 65.1519 366.078C65.1523 365.432 64.882 364.812 64.4003 364.355C63.9187 363.898 63.2652 363.641 62.5836 363.64L2.75797 363.566H2.75463C2.41713 363.565 2.0829 363.628 1.77102 363.75C1.45913 363.873 1.17564 364.052 0.936836 364.278C0.698036 364.504 0.508568 364.772 0.379204 365.068C0.249847 365.363 0.183151 365.68 0.182922 366C0.182701 366.32 0.248955 366.637 0.377899 366.932C0.506844 367.228 0.695946 367.497 0.934433 367.723C1.17292 367.95 1.45611 368.129 1.76783 368.252C2.07954 368.374 2.41368 368.438 2.75117 368.438L62.5768 368.512H62.5802Z" fill="black"/>
<path d="M443.159 366.896L518.592 367.571L518.543 372.443L443.11 371.768L443.159 366.896Z" fill="black"/>
<path d="M234.074 146.816C233.44 146.795 232.84 146.542 232.4 146.109C231.959 145.677 231.713 145.1 231.713 144.499C231.713 143.898 231.959 143.32 232.4 142.888C232.84 142.456 233.44 142.203 234.074 142.182C234.708 142.203 235.308 142.456 235.749 142.888C236.189 143.32 236.435 143.898 236.435 144.499C236.435 145.1 236.189 145.677 235.749 146.109C235.308 146.542 234.708 146.795 234.074 146.816Z" fill="black"/>
<path d="M169.389 386.998C160.751 392.58 151.031 396.482 140.792 398.478C135.708 399.407 130.525 399.759 125.353 399.526C120.194 399.262 115.082 398.44 110.119 397.076C100.207 394.215 90.8547 389.835 82.4348 384.11C80.3209 382.758 78.3231 381.25 76.46 379.599C74.6005 377.927 72.8488 376.151 71.2146 374.279C67.9462 370.536 65.1184 366.465 62.7813 362.14L62.9453 362.797L62.945 362.781L62.9446 362.747C62.9407 362.531 62.8854 362.32 62.7828 362.127C60.7629 358.368 59.1127 354.441 57.8533 350.395C56.6019 346.33 55.7933 342.155 55.4404 337.934L55.4332 337.845L55.4226 337.788C55.3978 337.705 55.4274 337.744 55.399 337.896L55.4134 337.64C54.7093 329.096 55.9766 320.509 59.1271 312.476C62.3442 304.456 67.3264 297.178 73.7421 291.125C80.0825 285.176 87.6164 280.492 95.8988 277.349C104.181 274.207 113.044 272.67 121.963 272.829C130.883 272.988 139.678 274.841 147.83 278.277C155.982 281.713 163.324 286.663 169.424 292.834C175.541 299.028 180.302 306.31 183.431 314.259C186.549 322.312 187.998 330.859 187.698 339.433C187.698 339.454 187.702 339.476 187.71 339.497C187.718 339.517 187.731 339.536 187.746 339.552C187.762 339.568 187.781 339.581 187.802 339.59C187.824 339.599 187.846 339.604 187.869 339.604C187.914 339.604 187.957 339.589 187.99 339.561C188.024 339.533 188.045 339.494 188.05 339.452C189.142 330.757 188.265 321.941 185.479 313.593C182.672 305.156 178.012 297.379 171.805 290.773C165.581 284.115 157.952 278.771 149.41 275.087C140.852 271.411 131.565 269.508 122.169 269.507C112.834 269.419 103.585 271.195 95.0214 274.719C86.4583 278.243 78.7735 283.436 72.4668 289.96C66.2211 296.4 61.3506 303.925 58.1247 312.121C54.9036 320.331 53.3474 329.044 53.5378 337.801L53.5521 337.546C53.514 337.743 53.5177 337.945 53.5628 338.141L53.545 337.996C53.6703 342.385 54.2778 346.75 55.3577 351.02C56.4224 355.308 57.9832 359.471 60.0119 363.435L59.8498 362.781L59.8496 362.797C59.8461 363.015 59.8971 363.231 59.9984 363.427L60.0137 363.455C62.3865 368.026 65.3524 372.297 68.8427 376.171C70.5796 378.109 72.438 379.946 74.4077 381.673C76.4133 383.379 78.5494 384.942 80.7986 386.349C89.5224 392.157 99.231 396.506 109.504 399.209C119.823 401.866 130.668 402.117 141.113 399.941C151.42 397.611 161.112 393.3 169.589 387.274C169.627 387.248 169.652 387.209 169.659 387.167C169.667 387.124 169.657 387.079 169.631 387.043C169.605 387.008 169.565 386.983 169.52 386.974C169.475 386.966 169.428 386.974 169.389 386.998L169.389 386.998Z" fill="black"/>
<path d="M154.276 279.69C154.746 280.885 155.142 282.096 155.54 283.301C155.93 284.509 156.312 285.715 156.654 286.932C157.036 288.134 157.344 289.358 157.647 290.584L158.639 294.227L158.589 293.922C158.593 294.06 158.621 294.197 158.672 294.326C158.734 294.484 158.829 294.628 158.952 294.751C159.075 294.872 159.222 294.97 159.386 295.037C159.549 295.104 159.725 295.14 159.903 295.142L158.654 294.242C159.376 297.769 160.267 301.24 161.026 304.745C161.722 308.263 162.422 311.783 163.009 315.327C163.62 318.868 164.226 322.411 164.737 325.983C165.32 329.546 165.871 333.126 166.526 336.714C166.869 333.089 166.982 329.447 166.865 325.809C166.8 322.167 166.537 318.532 166.077 314.916C165.598 311.303 165.021 307.693 164.182 304.132C163.8 302.344 163.288 300.58 162.761 298.823C162.232 297.067 161.744 295.302 161.172 293.562L159.923 292.661C160.096 292.663 160.268 292.698 160.427 292.764C160.586 292.83 160.73 292.925 160.85 293.044C160.969 293.163 161.061 293.304 161.122 293.458C161.172 293.583 161.199 293.715 161.203 293.849L161.152 293.544C160.206 291.14 159.332 288.728 158.209 286.393C157.117 284.049 155.801 281.806 154.276 279.69Z" fill="black"/>
<path d="M87.7747 279.69C85.4395 283.5 83.5108 287.521 82.0171 291.694C81.1877 293.76 80.5992 295.89 79.8832 297.993C79.2478 300.113 78.7194 302.261 78.1368 304.398C76.105 313.008 74.7993 321.757 74.2322 330.562C73.6466 339.349 73.6393 348.163 74.2104 356.951C74.4944 361.338 75.0139 365.709 75.4566 370.075C76.1673 374.42 76.7833 378.768 77.5997 383.083C77.5248 378.687 77.2293 374.324 77.0651 369.957L76.777 356.865C76.8006 354.685 76.8125 352.506 76.7956 350.328L76.784 347.063L76.9066 343.8L77.0887 337.276L77.5142 330.767C78.0587 322.091 79.1034 313.45 80.6437 304.882L81.9659 298.486C82.496 296.376 82.9226 294.23 83.5506 292.14C84.6137 287.892 86.026 283.729 87.7747 279.69Z" fill="black"/>
<path d="M122.529 365.494C121.469 364.485 120.569 363.336 119.856 362.083C119.873 363.545 119.907 364.99 119.941 366.452C120.164 377.009 120.593 387.566 121.226 398.122C121.86 387.566 122.289 377.009 122.511 366.452C122.511 366.127 122.529 365.818 122.529 365.494Z" fill="black"/>
<path d="M122.066 355.05C122.066 355.05 120.935 353.767 119.702 352.078C119.719 353.718 119.736 355.375 119.77 357.016C120.363 356.2 121.149 355.527 122.066 355.05Z" fill="black"/>
<path d="M119.582 333.206V336.324L119.633 343.974C120.716 344.057 121.785 344.259 122.82 344.575C122.837 341.814 122.854 339.069 122.871 336.324V333.206C122.803 312.595 122.494 292.001 121.226 271.391C119.976 292.001 119.65 312.595 119.582 333.206Z" fill="black"/>
<path d="M181.991 308.364C172.473 304.354 162.51 301.367 152.29 299.46C142.055 297.477 131.644 296.429 121.199 296.33C115.972 296.182 110.754 296.58 105.54 296.855C102.943 297.13 100.355 297.487 97.765 297.8C96.4722 297.973 95.1728 298.099 93.8868 298.31L90.0548 299.089C79.8353 301.035 69.9028 304.149 60.4755 308.364C62.9776 307.688 65.4601 306.986 67.9231 306.258L71.6202 305.181C72.8571 304.84 74.1371 304.634 75.391 304.355L82.9076 302.697C85.4314 302.239 87.9793 301.893 90.5089 301.486L94.3061 300.896C95.5772 300.737 96.8586 300.642 98.1336 300.511C100.687 300.277 103.235 299.998 105.788 299.8C110.914 299.621 116.03 299.25 121.162 299.448C131.435 299.532 141.687 300.334 151.835 301.847L159.442 303.096C161.959 303.6 164.495 304.049 167.006 304.6C172.056 305.617 177.035 306.917 181.991 308.364Z" fill="black"/>
<path d="M122.751 370.756L106.993 368.828C101.78 368.131 96.5786 367.391 91.4103 366.503C86.2345 365.661 81.0804 364.665 75.935 363.619C73.387 363.011 70.8156 362.462 68.2302 361.923L66.2808 361.543L64.3644 361.071C63.0822 360.761 61.7845 360.473 60.4719 360.199C61.6516 360.778 62.8463 361.339 64.0561 361.885C65.2543 362.447 66.4837 362.947 67.7391 363.382C70.234 364.272 72.7427 365.152 75.275 365.972C80.3758 367.489 85.5746 368.692 90.8389 369.573C101.362 371.413 112.109 371.812 122.751 370.756Z" fill="black"/>
<path d="M188.063 334.765C184.688 334.57 181.312 334.408 177.937 334.278C178.858 334.511 179.762 334.798 180.644 335.138C183.128 335.025 185.596 334.895 188.063 334.765Z" fill="black"/>
<path d="M54.3898 334.765C65.5264 335.366 76.6629 335.772 87.7995 335.983C98.4049 336.21 108.993 336.291 119.581 336.324H122.871C124.207 336.324 125.527 336.308 126.863 336.308C126.726 334.96 127.428 334.067 129.416 333.969C131.166 333.924 132.876 334.464 134.247 335.496C134.556 335.723 134.898 335.967 135.293 336.243C145.692 336.178 156.086 335.988 166.475 335.674C166.517 335.324 166.633 334.986 166.815 334.679C166.998 334.372 167.243 334.103 167.537 333.888C152.648 333.401 137.76 333.255 122.871 333.206H119.581C108.993 333.238 98.4049 333.319 87.7995 333.547C76.6629 333.742 65.5264 334.148 54.3898 334.765Z" fill="black"/>
<path d="M159.896 293.885C159.896 293.887 159.896 293.889 159.897 293.891C159.898 293.893 159.899 293.895 159.901 293.897C159.902 293.898 159.904 293.899 159.906 293.9C159.909 293.901 159.911 293.901 159.913 293.901C161.499 296.741 162.735 299.743 163.597 302.85C163.614 302.883 163.614 302.932 163.631 302.964C164.916 307.658 164.282 308.519 165.978 313.147C166.938 315.762 167.794 317.273 167.315 319.433C166.858 320.793 166.279 322.114 165.584 323.38C165.378 323.786 165.173 324.224 164.933 324.711C163.751 327.18 163.46 327.765 163.717 328.512C164.042 329.421 164.796 329.535 166.184 330.331C166.673 330.602 167.137 330.912 167.572 331.257C168.394 331.843 169.152 332.507 169.833 333.238C174.969 333.187 180.026 334.438 184.482 336.86C185.544 337.428 186.692 337.997 187.926 338.598H187.943C187.994 337.899 188.011 337.201 188.046 336.503C188.063 335.918 188.063 335.35 188.063 334.765C188.075 325.65 186.006 316.641 181.998 308.356L181.981 308.34H181.963C180.352 304.983 178.426 301.771 176.207 298.741C168.754 291.855 160.718 288.282 158.045 288.298C157.756 288.273 157.468 288.354 157.24 288.525C156.641 289.094 158.08 290.653 159.896 293.885Z" fill="black"/>
<path d="M54.3898 334.765C54.3898 335.301 54.3898 335.837 54.4241 336.373C54.4241 336.828 54.4583 337.266 54.4755 337.721C54.4755 337.802 54.4926 337.883 54.4926 337.964C54.4956 338.437 54.5241 338.908 54.5783 339.377C55.1821 347.493 57.4457 355.42 61.2431 362.716C61.2911 362.745 61.343 362.767 61.3973 362.781V362.798C61.846 362.999 62.3262 363.131 62.8193 363.187C63.3954 363.243 63.9775 363.182 64.5269 363.008C65.0763 362.835 65.5805 362.553 66.0062 362.18C66.0233 362.164 66.0405 362.132 66.0747 362.115C67.4625 360.67 66.3489 358.656 66.7943 355.635C67.1713 353.134 68.559 351.364 71.3175 347.839C72.5185 346.221 73.8595 344.699 75.3266 343.292C76.3375 342.366 77.2797 341.797 77.948 342.057C78.7875 342.415 79.0445 344.104 78.7362 345.338C78.2736 347.19 76.6973 347.352 76.3546 348.846C75.892 350.811 77.9994 353.085 79.7984 354.125C80.8028 354.765 81.9651 355.148 83.1722 355.237C84.3792 355.325 85.5898 355.115 86.6859 354.628C89.1531 353.264 89.0846 350.357 90.4039 350.357C91.449 350.373 92.3742 352.192 92.5284 353.621C92.6496 354.515 92.488 355.423 92.064 356.23C91.64 357.037 90.9727 357.706 90.1469 358.152C88.4507 358.835 87.3542 357.422 85.3667 358.152C84.772 358.338 84.2391 358.668 83.8212 359.11C83.4032 359.551 83.115 360.089 82.9853 360.67C82.8996 362.213 85.1269 363.415 88.0224 364.941C91.3291 366.679 92.3571 366.598 96.2463 368.466C96.6232 368.644 96.9659 368.807 97.2915 368.969C98.8116 369.633 100.239 370.473 101.54 371.47C104.213 373.549 103.956 374.475 106.578 376.505C108.289 378.011 110.396 379.054 112.677 379.526C114.75 379.851 115.178 379.25 118.776 379.023C119.592 378.967 120.409 378.951 121.227 378.974C122.801 378.994 124.374 379.091 125.938 379.266C127.769 379.438 129.584 379.736 131.369 380.16C122.186 375.726 120.969 369.018 124.79 367.426C124.79 367.426 113.928 359.614 122.066 355.05C122.066 355.05 108.908 340.206 123.762 344.851C124.997 345.252 126.172 345.804 127.257 346.491C127.72 346.767 128.251 347.108 128.851 347.466L130.615 343.21V343.194C127.137 338.712 124.807 334.18 129.416 333.969C131.166 333.924 132.877 334.464 134.248 335.496C135.31 336.259 136.835 337.331 138.754 338.565L142.643 334.765C143.531 333.395 144.076 331.851 144.236 330.25C144.307 328.484 143.991 326.723 143.306 325.079C142.622 323.435 141.585 321.944 140.261 320.7C137.82 318.248 134.695 316.502 131.249 315.665C128.547 314.674 125.628 314.328 122.751 314.658C122.272 314.739 121.758 314.837 121.227 314.967C119.547 315.34 117.817 315.892 116.926 316.169C115.41 316.82 113.798 317.247 112.146 317.435C109.987 317.533 109.387 316.916 108.445 317.435C107.263 318.053 107.451 319.352 106.578 322.454C105.704 325.524 104.984 328.122 103.134 328.739C101.746 329.194 100.992 328.122 99.416 328.739C98.388 329.145 98.388 329.73 96.7774 331.257C95.3554 332.589 94.6358 333.255 93.5907 333.514C92.5944 333.73 91.5524 333.653 90.6036 333.293C89.6547 332.933 88.844 332.308 88.2794 331.5C88.0738 331.159 87.6969 330.445 88.0224 327.489C88.4165 323.753 88.6049 321.886 89.8728 320.7C91.4148 319.254 92.6141 320.31 96.2463 319.189C100.41 317.906 100.101 316.12 104.727 314.414C107.828 313.278 108.651 313.814 111.084 312.401C113.054 311.264 115.555 309.152 115.076 307.869C114.545 306.505 111.118 307.561 109.764 305.612C108.702 304.101 110.176 302.623 108.976 300.577C108.274 299.408 106.817 298.287 105.789 298.579C104.659 298.888 105.087 300.626 103.665 302.851C102.348 304.753 100.383 306.169 98.0967 306.862C96.3663 307.463 94.2246 308.21 92.5284 307.122C91.0207 306.164 90.1812 303.971 90.935 302.851C91.9116 301.405 94.8757 302.64 95.7152 301.34C95.8535 301.029 95.9232 300.694 95.9203 300.356C95.9174 300.018 95.8417 299.684 95.698 299.375C95.4768 298.656 95.0718 297.999 94.5189 297.464C93.966 296.928 93.2823 296.531 92.5284 296.305C91.6546 296.176 90.7637 296.484 85.6238 300.577C85.3496 300.804 85.0755 301.015 84.8356 301.21L84.8185 301.227C82.0943 303.419 81.5975 303.906 80.5866 303.858C80.2512 303.838 79.9214 303.766 79.61 303.647C79.0683 303.431 78.5698 303.129 78.1365 302.753C76.9246 301.634 75.958 300.298 75.2924 298.823C74.4186 296.906 74.7613 296.127 74.2301 295.802C72.9965 295.055 68.5933 297.556 63.9673 302.055C62.6709 304.087 61.5038 306.192 60.4722 308.356C57.1102 315.275 55.1016 322.716 54.5441 330.315C54.4927 331.046 54.4585 331.793 54.4242 332.54C54.407 333.271 54.3898 334.018 54.3898 334.765Z" fill="black"/>
<path d="M249.912 0.420654C248.953 4.11518 248.216 7.85819 247.704 11.6317C247.138 15.3807 246.772 19.1436 246.445 22.9092C246.181 26.6793 245.961 30.4524 245.939 34.2394C245.86 38.0436 246.012 41.8489 246.392 45.6367C247.355 41.9429 248.094 38.1999 248.606 34.426C249.171 30.677 249.537 26.914 249.86 23.1481C250.119 19.3777 250.34 15.6046 250.36 11.8176C250.438 8.01362 250.288 4.20856 249.912 0.420654Z" fill="black"/>
<path d="M225.208 48.7548C224.293 44.9036 223.158 41.1027 221.807 37.3689C220.515 33.6341 219.037 29.9703 217.523 26.3201C215.95 22.6926 214.336 19.0804 212.538 15.5389C210.783 11.9587 208.821 8.47318 206.661 5.09814C207.571 8.95039 208.705 12.7521 210.058 16.4858C211.351 20.2203 212.828 23.8842 214.346 27.5328C215.923 31.1588 217.537 34.771 219.336 38.3122C221.091 41.8918 223.051 45.3778 225.208 48.7548Z" fill="black"/>
<path d="M287.453 8.99609C285.333 12.0308 283.403 15.1818 281.675 18.4326C279.906 21.6425 278.32 24.9282 276.77 28.2285C275.278 31.5531 273.826 34.8939 272.557 38.31C271.228 41.7255 270.116 45.2133 269.227 48.7548C271.351 45.722 273.282 42.5715 275.01 39.3202C276.778 36.1099 278.364 32.8242 279.91 29.5223C281.398 26.1962 282.85 22.8554 284.118 19.4389C285.446 16.0233 286.56 12.5363 287.453 8.99609Z" fill="black"/>
<path d="M447.021 273.038C448.554 272.668 450.114 272.409 451.688 272.264C452.433 272.174 453.19 272.246 453.901 272.474C454.575 272.705 454.363 273.406 453.99 274.017C453.12 275.235 452.078 276.335 450.894 277.286C449.739 278.293 448.515 279.253 447.271 280.152C447.159 280.233 447.086 280.353 447.067 280.485C447.048 280.618 447.086 280.752 447.171 280.858C447.229 280.927 447.304 280.981 447.39 281.015C447.476 281.049 447.57 281.062 447.663 281.051C450.904 280.71 453.958 279.438 456.415 277.405C457.66 276.385 458.694 275.154 459.463 273.775C459.869 273.06 460.159 272.29 460.322 271.493C460.417 271.029 460.407 270.552 460.293 270.092C460.209 269.797 460.055 269.524 459.844 269.294C459.778 269.181 459.717 269.143 459.62 268.968C458.19 266.502 456.97 263.712 455.728 261.037L452.083 252.898C450.86 250.178 449.622 247.491 448.574 244.738C447.495 241.985 446.62 239.197 445.606 236.383L442.633 227.968C441.622 225.171 440.384 222.448 439.271 219.688C434.818 208.626 429.116 198.052 422.265 188.152C418.805 183.185 414.721 178.634 410.104 174.601C409.52 174.1 408.952 173.582 408.356 173.094L406.487 171.716C405.248 170.782 403.95 169.921 402.6 169.137C399.889 167.458 396.893 166.235 393.744 165.523L393.92 165.563C388.565 164.051 383.042 163.141 377.464 162.851C371.947 162.426 366.42 162.29 360.904 162.285C355.387 162.287 349.875 162.389 344.366 162.59C338.859 162.837 333.364 163.151 327.862 163.576L328.44 163.762C326.311 161.695 324.348 159.48 322.568 157.136L319.818 153.6C318.938 152.307 317.783 151.202 316.428 150.355C313.612 148.835 310.301 148.36 307.136 149.023C304.045 149.549 301.101 150.67 298.484 152.316C298.474 152.322 298.465 152.331 298.458 152.341C298.451 152.35 298.446 152.361 298.443 152.373C298.441 152.385 298.441 152.396 298.443 152.408C298.445 152.42 298.45 152.431 298.457 152.441C298.472 152.46 298.494 152.473 298.519 152.477C298.544 152.482 298.57 152.478 298.591 152.465C301.236 150.97 304.175 150.002 307.228 149.623C310.208 149.143 313.27 149.688 315.864 151.158C317.078 151.973 318.098 153.021 318.855 154.234L321.496 157.878C323.251 160.36 325.227 162.697 327.402 164.861C327.471 164.926 327.553 164.976 327.644 165.009C327.734 165.041 327.831 165.055 327.928 165.05L327.98 165.047C333.452 164.73 338.947 164.522 344.434 164.383C349.922 164.219 355.411 164.132 360.896 164.157C366.381 164.172 371.858 164.385 377.313 164.709C382.735 164.931 388.111 165.751 393.333 167.153L393.449 167.182L393.509 167.193C396.424 167.864 399.209 168.964 401.764 170.452C403.089 171.18 404.366 171.983 405.587 172.858L407.439 174.155C408.032 174.617 408.6 175.111 409.182 175.587C410.369 176.519 411.498 177.515 412.563 178.571C413.623 179.634 414.753 180.638 415.758 181.75C417.726 184.01 419.784 186.209 421.513 188.654C428.634 198.323 434.364 208.848 438.552 219.951C439.566 222.737 440.704 225.479 441.615 228.296L444.291 236.759C445.204 239.558 445.978 242.467 447.068 245.252C448.105 248.063 449.333 250.8 450.522 253.521C451.707 256.254 452.979 258.951 454.24 261.656C455.545 264.363 456.732 267.034 458.338 269.723C458.469 269.927 458.618 270.121 458.784 270.302C458.773 270.393 458.853 270.332 458.855 270.479C458.912 270.741 458.913 271.01 458.861 271.271C458.73 271.925 458.498 272.557 458.172 273.146C457.491 274.388 456.589 275.51 455.506 276.462C453.295 278.401 450.512 279.653 447.529 280.051L447.921 280.95C449.175 279.984 450.374 278.985 451.526 277.917C452.723 276.862 453.755 275.652 454.59 274.321C454.806 273.946 454.933 273.532 454.964 273.107C454.963 272.863 454.884 272.626 454.736 272.427C454.588 272.228 454.38 272.077 454.138 271.994C453.332 271.76 452.478 271.712 451.648 271.852C450.064 272.076 448.501 272.414 446.971 272.863C446.959 272.866 446.948 272.872 446.938 272.879C446.928 272.887 446.92 272.896 446.914 272.906C446.908 272.917 446.904 272.928 446.903 272.94C446.902 272.952 446.903 272.963 446.906 272.975C446.913 272.997 446.929 273.016 446.951 273.028C446.972 273.039 446.997 273.043 447.021 273.038Z" fill="black"/>
<path d="M119.843 351.986C119.088 350.927 118.415 349.818 117.827 348.668C117.539 348.103 117.308 347.512 117.14 346.904C116.942 346.344 116.931 345.74 117.108 345.174C117.23 344.928 117.422 344.72 117.663 344.573C117.903 344.426 118.183 344.347 118.469 344.343C119.108 344.274 119.753 344.294 120.386 344.401C121.693 344.627 122.975 344.971 124.212 345.43C125.437 345.922 126.6 346.543 127.679 347.281C128.808 348.001 129.963 348.691 131.131 349.364C132.302 350.031 133.486 350.683 134.717 351.274C135.961 351.921 137.29 352.409 138.67 352.726C138.797 352.75 138.93 352.736 139.049 352.684C139.167 352.633 139.265 352.547 139.329 352.439C139.393 352.331 139.418 352.207 139.403 352.084C139.387 351.961 139.33 351.846 139.241 351.756L139.213 351.727C136.356 348.907 133.693 345.916 131.24 342.772L131.392 343.21L131.393 343.194C131.395 343.044 131.346 342.897 131.254 342.775L131.242 342.759C130.482 341.745 129.756 340.71 129.118 339.651C128.47 338.661 128.005 337.574 127.743 336.436C127.582 335.327 127.958 334.992 129.144 334.833C130.305 334.739 131.47 334.964 132.5 335.481C133.039 335.75 133.547 336.071 134.016 336.438C134.551 336.836 135.095 337.211 135.64 337.579C136.737 338.313 137.802 339.084 138.925 339.789C141.155 341.214 143.434 342.568 145.782 343.822C150.479 346.391 155.484 348.417 160.689 349.857C163.341 350.55 166.06 350.987 168.805 351.161C171.604 351.299 174.409 351.035 177.124 350.378C177.328 350.326 177.515 350.227 177.669 350.09C177.823 349.953 177.938 349.781 178.005 349.592C178.071 349.402 178.087 349.199 178.051 349.002C178.014 348.805 177.927 348.62 177.796 348.463L177.775 348.439L171.27 340.715L168.075 336.913C167.937 336.727 167.845 336.514 167.807 336.289C167.769 336.065 167.785 335.835 167.854 335.617C167.915 335.412 168.025 335.222 168.177 335.064C168.268 334.974 168.368 334.892 168.475 334.819C168.564 334.756 168.659 334.704 168.761 334.663C169.012 334.566 169.283 334.523 169.554 334.535C169.891 334.522 170.372 334.528 170.766 334.535C171.594 334.553 172.419 334.611 173.24 334.7C174.887 334.877 176.51 335.216 178.083 335.712C178.869 335.973 179.641 336.199 180.441 336.484C181.203 336.77 181.952 337.096 182.686 337.454L187.275 339.797C187.464 339.894 187.674 339.945 187.889 339.946L187.926 339.946H187.942L187.3 339.801C195.939 343.891 204.656 347.503 212.877 352.007L215.971 353.716C219.219 355.515 222.765 356.782 226.457 357.465C228.906 357.933 231.399 358.162 233.897 358.149C236.432 358.132 238.795 357.847 241.175 357.682L269.788 355.412L298.391 353.032C317.461 351.468 336.532 349.876 355.611 348.491L362.764 348.046C363.961 347.969 365.139 347.932 366.314 347.9C367.023 347.912 367.724 347.758 368.355 347.45C368.953 347.124 369.469 346.677 369.865 346.141C371.177 344.128 372.033 341.879 372.378 339.535C372.801 337.279 373.089 335.003 373.241 332.717C373.728 323.624 373.559 314.51 372.735 305.439L372.359 305.96C378.946 304.041 385.527 302.069 391.926 299.617C398.351 297.231 404.643 294.536 410.778 291.542C416.911 288.546 422.886 285.265 428.815 281.973C434.746 278.714 440.73 275.449 447.229 273.769L446.102 272.959C446.089 290.929 445.688 308.897 444.899 326.864C444.488 335.839 443.962 344.808 443.187 353.75C443.019 355.988 442.783 358.218 442.562 360.449C442.355 362.683 442.11 364.91 441.826 367.132C441.555 369.36 441.345 371.599 440.911 373.701C440.491 375.828 439.867 377.914 439.049 379.934C435.659 388.055 429.51 394.874 421.576 399.314C417.642 401.559 413.392 403.263 408.952 404.374C406.732 404.935 404.475 405.356 402.197 405.636C399.903 405.904 397.511 406.083 395.173 406.31L388.12 406.951L381.05 407.385C376.34 407.733 371.617 407.829 366.898 408.011C362.18 408.215 357.455 408.133 352.733 408.209C348.012 408.099 343.286 408.114 338.569 407.875C319.682 407.145 300.875 405.136 282.29 401.863C273.015 400.231 263.684 398.369 254.296 396.89C244.911 395.382 235.504 394.119 226.093 392.909C207.275 390.466 188.421 388.393 169.598 386.165C160.195 385.024 150.773 383.905 141.476 382.324L138.018 381.662C136.862 381.446 135.788 381.089 134.666 380.812C133.593 380.412 132.53 379.971 131.478 379.514C130.445 379.018 129.45 378.457 128.499 377.833C126.595 376.629 125.03 375.001 123.942 373.092C123.421 372.174 123.187 371.134 123.269 370.094C123.316 369.605 123.497 369.135 123.794 368.732C124.09 368.329 124.493 368.006 124.961 367.795C125.025 367.768 125.08 367.725 125.123 367.673C125.165 367.62 125.193 367.558 125.205 367.492C125.216 367.427 125.21 367.36 125.188 367.297C125.166 367.234 125.127 367.177 125.076 367.131L125.049 367.107C124.023 366.303 123.043 365.448 122.115 364.543C121.213 363.623 120.465 362.579 119.895 361.445C119.601 360.904 119.422 360.313 119.37 359.706C119.317 359.099 119.392 358.489 119.589 357.909C120.11 356.766 121.022 355.823 122.177 355.231C122.202 355.217 122.224 355.198 122.242 355.176C122.259 355.153 122.272 355.128 122.279 355.101C122.286 355.074 122.287 355.046 122.283 355.019C122.279 354.991 122.269 354.965 122.253 354.941L122.235 354.916L119.842 351.986L119.834 351.975C119.806 351.942 119.766 351.92 119.721 351.914C119.676 351.908 119.631 351.92 119.595 351.945C119.559 351.971 119.536 352.009 119.529 352.051C119.523 352.093 119.534 352.136 119.56 352.171L121.896 355.184L121.954 354.87C120.685 355.488 119.673 356.493 119.082 357.723C118.842 358.366 118.738 359.046 118.776 359.727C118.813 360.407 118.993 361.074 119.303 361.688C119.87 362.898 120.628 364.017 121.552 365.009C122.49 365.973 123.484 366.887 124.53 367.746L124.619 367.058C124.005 367.316 123.472 367.722 123.073 368.233C122.673 368.745 122.42 369.346 122.338 369.978C122.201 371.191 122.434 372.415 123.01 373.505C124.125 375.601 125.766 377.405 127.789 378.759C128.771 379.439 129.801 380.054 130.871 380.601C131.958 381.107 133.062 381.597 134.181 382.043C135.343 382.366 136.509 382.776 137.675 383.022L141.175 383.776C150.529 385.525 159.927 386.796 169.323 388.094L225.694 395.591C235.074 396.893 244.445 398.248 253.754 399.84C258.417 400.584 263.049 401.537 267.688 402.39C272.324 403.298 276.983 404.239 281.664 405.064C300.402 408.405 319.369 410.472 338.419 411.25C357.47 412.065 376.559 411.518 395.524 409.614C397.903 409.368 400.242 409.183 402.655 408.888C405.08 408.576 407.482 408.113 409.844 407.503C414.586 406.286 419.122 404.437 423.314 402.01C431.837 397.169 438.416 389.774 442.01 380.993C442.88 378.807 443.538 376.551 443.979 374.252C444.436 371.934 444.633 369.686 444.885 367.445C445.143 365.198 445.36 362.95 445.535 360.701C445.727 358.452 445.934 356.204 446.072 353.954C446.73 344.956 447.134 335.955 447.425 326.953C447.997 308.948 448.152 290.944 447.891 272.942L447.89 272.925C447.889 272.815 447.865 272.706 447.819 272.605C447.773 272.505 447.707 272.413 447.624 272.336C447.541 272.26 447.443 272.199 447.335 272.158C447.227 272.118 447.112 272.097 446.997 272.099C446.918 272.1 446.839 272.111 446.763 272.132C439.958 273.992 433.944 277.408 428.05 280.743C422.148 284.105 416.287 287.483 410.197 290.482C404.114 293.487 397.873 296.195 391.499 298.598C385.15 301.066 378.61 303.06 372.061 305.003C371.945 305.037 371.845 305.108 371.777 305.202C371.709 305.297 371.677 305.411 371.685 305.525C372.504 314.541 372.628 323.601 372.056 332.633C371.891 334.875 371.593 337.106 371.163 339.315C370.832 341.474 370.042 343.546 368.839 345.406C368.55 345.801 368.172 346.131 367.732 346.371C367.294 346.58 366.807 346.68 366.318 346.659C365.101 346.683 363.887 346.714 362.696 346.783L355.518 347.164C336.399 348.245 317.303 349.52 298.204 350.792L269.561 352.741L240.933 354.869C238.541 355.026 236.143 355.293 233.889 355.292C231.597 355.292 229.312 355.07 227.067 354.63C224.829 354.191 222.644 353.533 220.549 352.665C219.504 352.232 218.483 351.746 217.493 351.208L214.373 349.51C205.974 344.977 197.093 341.362 188.586 337.395L188.566 337.386C188.372 337.296 188.158 337.25 187.942 337.25H187.925L188.575 337.399L183.966 335.082C183.152 334.691 182.317 334.333 181.46 334.018C180.631 333.727 179.741 333.466 178.883 333.191C177.149 332.661 175.363 332.301 173.551 332.116C172.644 332.023 171.734 331.966 170.823 331.951C170.348 331.946 169.959 331.94 169.428 331.961C168.827 331.966 168.233 332.084 167.681 332.307C167.383 332.43 167.102 332.587 166.843 332.773C166.6 332.945 166.375 333.138 166.171 333.349C165.738 333.806 165.424 334.353 165.255 334.946C165.087 335.524 165.056 336.13 165.164 336.721C165.272 337.312 165.516 337.873 165.879 338.364L169.205 342.278L175.768 349.968L176.419 348.03C173.971 348.635 171.444 348.903 168.916 348.824C166.341 348.697 163.787 348.325 161.291 347.712C156.239 346.393 151.371 344.505 146.792 342.09C144.479 340.9 142.22 339.605 140.013 338.242C138.903 337.57 137.838 336.823 136.748 336.118C136.203 335.762 135.663 335.403 135.144 335.029C134.576 334.604 133.965 334.234 133.319 333.925C131.967 333.276 130.445 333.012 128.938 333.165C128.041 333.223 127.202 333.606 126.594 334.233C126.323 334.58 126.135 334.978 126.042 335.401C125.949 335.823 125.953 336.259 126.054 336.68C126.364 338.013 126.919 339.283 127.695 340.433C128.397 341.537 129.162 342.604 129.988 343.63L129.837 343.195L129.838 343.21L129.838 343.232C129.84 343.383 129.893 343.529 129.99 343.649C132.565 346.785 135.35 349.762 138.328 352.559L138.871 351.561C136.328 350.871 133.9 349.844 131.659 348.511C130.489 347.874 129.329 347.218 128.185 346.528C127.039 345.786 125.809 345.168 124.517 344.686C123.212 344.236 121.864 343.908 120.491 343.706C119.782 343.608 119.062 343.611 118.353 343.713C117.959 343.744 117.581 343.878 117.261 344.099C116.941 344.321 116.691 344.622 116.54 344.969C116.336 345.648 116.362 346.372 116.616 347.036C116.814 347.669 117.077 348.281 117.399 348.865C118.036 350.014 118.758 351.119 119.56 352.17C119.587 352.205 119.626 352.229 119.67 352.236C119.715 352.243 119.76 352.234 119.797 352.21C119.834 352.186 119.86 352.149 119.868 352.107C119.877 352.065 119.867 352.022 119.843 351.986V351.986Z" fill="black"/>
<path d="M138.232 352.888C140.817 354.324 143.425 355.648 146.107 356.864C148.76 358.123 151.54 359.128 154.403 359.865C151.663 358.85 149.037 357.58 146.563 356.071C144.069 354.61 141.633 353.031 139.296 351.389L139.283 351.38C139.08 351.238 138.825 351.178 138.575 351.213C138.325 351.249 138.1 351.377 137.949 351.569C137.798 351.762 137.735 352.003 137.772 352.241C137.809 352.478 137.943 352.691 138.146 352.834C138.174 352.854 138.202 352.872 138.232 352.888Z" fill="black"/>
<path d="M121.499 355.785C125.928 358.641 130.412 361.379 135.01 363.963C137.312 365.246 139.632 366.506 142.03 367.628C143.22 368.207 144.44 368.727 145.686 369.187C146.303 369.434 146.939 369.635 147.588 369.79C148.229 369.967 148.892 370.064 149.56 370.079C148.898 370.027 148.246 369.894 147.621 369.681C146.989 369.492 146.373 369.257 145.778 368.979C144.573 368.453 143.397 367.869 142.254 367.23C139.949 365.984 137.724 364.602 135.519 363.2C131.12 360.379 126.822 357.396 122.626 354.329L122.618 354.322C122.417 354.176 122.164 354.111 121.913 354.142C121.663 354.172 121.435 354.296 121.28 354.486C121.126 354.676 121.058 354.916 121.09 355.154C121.122 355.391 121.253 355.607 121.453 355.754L121.499 355.785Z" fill="black"/>
<path d="M124.176 368.125C125.904 369.323 127.718 370.405 129.605 371.363C131.462 372.326 133.377 373.185 135.34 373.936C139.235 375.453 143.31 376.516 147.476 377.1C143.405 376.228 139.462 374.889 135.732 373.113C133.875 372.242 132.073 371.269 130.335 370.198C128.608 369.154 126.959 367.999 125.399 366.74L125.369 366.715C125.274 366.637 125.164 366.577 125.045 366.539C124.926 366.501 124.8 366.486 124.675 366.494C124.55 366.502 124.427 366.534 124.315 366.587C124.203 366.64 124.102 366.714 124.02 366.804C123.938 366.894 123.875 366.999 123.836 367.112C123.796 367.225 123.781 367.344 123.79 367.463C123.799 367.581 123.833 367.697 123.889 367.804C123.946 367.91 124.024 368.005 124.119 368.082C124.137 368.097 124.157 368.112 124.176 368.125Z" fill="black"/>
<path d="M170.519 300.235C170.661 300.235 170.8 300.202 170.924 300.139C171.049 300.075 171.155 299.984 171.234 299.872L178.631 289.28C178.693 289.191 178.736 289.092 178.757 288.987C178.779 288.882 178.778 288.774 178.756 288.67C178.734 288.565 178.69 288.466 178.627 288.377C178.564 288.289 178.483 288.213 178.39 288.154C178.296 288.095 178.191 288.054 178.08 288.034C177.97 288.013 177.856 288.014 177.746 288.035C177.635 288.056 177.531 288.098 177.437 288.157C177.344 288.217 177.264 288.294 177.202 288.382L169.805 298.974C169.68 299.154 169.635 299.374 169.68 299.585C169.725 299.796 169.856 299.981 170.046 300.101C170.186 300.189 170.351 300.236 170.519 300.235Z" fill="black"/>
<path d="M132.433 273.762C132.574 273.762 132.714 273.729 132.838 273.665C132.963 273.602 133.069 273.51 133.147 273.399L140.546 262.807C140.608 262.718 140.651 262.619 140.673 262.514C140.694 262.409 140.694 262.301 140.672 262.197C140.649 262.092 140.605 261.993 140.542 261.904C140.48 261.816 140.399 261.74 140.305 261.681C140.211 261.622 140.106 261.581 139.996 261.561C139.885 261.54 139.772 261.541 139.661 261.562C139.551 261.583 139.446 261.625 139.353 261.684C139.259 261.744 139.179 261.82 139.117 261.909L131.719 272.501C131.633 272.623 131.584 272.766 131.577 272.912C131.569 273.059 131.604 273.205 131.678 273.334C131.751 273.464 131.86 273.572 131.993 273.647C132.126 273.722 132.278 273.762 132.433 273.762Z" fill="black"/>
</svg>
