<svg width="300" height="248" viewBox="0 0 300 248" fill="none" xmlns="http://www.w3.org/2000/svg">
<path d="M128.081 61.9118C128.081 61.9118 130.797 60.4026 133.331 63.0856C133.331 63.0856 137.857 57.129 157.048 62.2872C157.048 62.2872 154.513 66.7747 152.703 66.7747C150.892 66.7747 156.143 74.4881 161.031 74.1527C161.031 74.1527 169.359 85.3875 163.022 96.287C156.777 107.03 152.29 110.442 146.096 103.474C145.906 103.258 145.694 103.059 145.463 102.88C143.681 101.52 135.794 95.8619 132.999 100.081C132.404 101.018 132.233 102.135 132.525 103.189C133.801 108.138 139.767 126.367 157.048 119.092C157.048 119.092 177.186 112.097 172.436 95.5269C171.928 93.8415 171.192 92.2226 170.244 90.7089C169.33 89.1625 168.767 87.4597 168.589 85.7046C168.411 83.9496 168.622 82.1794 169.209 80.5025C169.937 78.1119 171.579 76.0483 173.829 74.6969C176.011 73.4366 178.886 72.8731 181.065 76.3972C181.966 77.8633 182.441 79.521 182.444 81.2082C182.448 82.7524 182.138 84.6464 180.764 85.5552L182.444 88.5735C183.357 86.8519 184.526 85.2567 185.915 83.8339C188.241 81.6516 189.735 78.8262 190.171 75.7863C190.786 70.9638 190.046 63.7633 183.842 55.3722C183.842 55.3722 175.514 39.9453 159.944 40.2807C144.375 40.616 130.978 44.4727 128.081 61.9118Z" fill="black"/>
<path d="M154.151 82.0341C151.447 81.4611 148.668 81.249 145.899 81.4042C144.504 81.4685 143.12 81.663 141.767 81.9848C140.387 82.2592 139.104 82.8532 138.038 83.7112C139.268 83.1821 140.582 82.8394 141.929 82.6961C143.26 82.5189 144.603 82.3899 145.958 82.3338C148.665 82.1782 151.386 82.1663 154.151 82.0341Z" fill="black"/>
<path d="M128.081 81.7941C129.071 82.0729 129.988 82.5405 130.771 83.1669C131.143 83.4507 131.445 83.8039 131.659 84.2034C131.873 84.6029 131.994 85.0396 132.014 85.4852C131.941 86.3994 131.682 87.2926 131.251 88.1179L130.067 90.8137C129.184 92.6377 128.671 94.5967 128.553 96.5927C128.555 97.1187 128.659 97.64 128.861 98.1317C129.077 98.6293 129.432 99.0653 129.888 99.3959C130.815 99.9365 131.909 100.177 132.999 100.081C131.977 99.9999 131.004 99.6394 130.203 99.0449C129.875 98.7205 129.627 98.3333 129.478 97.9107C129.328 97.488 129.28 97.0402 129.338 96.5986C129.416 95.6649 129.621 94.744 129.947 93.8577C130.251 92.9499 130.615 92.0503 131.003 91.154C131.375 90.2512 131.777 89.3534 132.139 88.4289C132.313 87.9621 132.488 87.4966 132.624 87.0044C132.794 86.4956 132.851 85.9605 132.793 85.4308C132.733 84.904 132.547 84.3961 132.25 83.9433C131.954 83.4904 131.552 83.1039 131.076 82.8112C130.179 82.2559 129.152 81.9072 128.081 81.7941V81.7941Z" fill="black"/>
<path d="M128.081 61.9117C127.742 63.7912 127.49 65.6808 127.325 67.5806C127.136 69.4773 127.019 71.3797 126.975 73.2877C126.943 75.1955 126.974 77.1068 127.135 79.0195C127.229 80.9691 127.699 82.8873 128.523 84.6836C128.535 84.706 128.55 84.7266 128.568 84.7449C129.204 85.3785 129.8 86.0448 130.355 86.7405C130.63 87.089 130.875 87.4572 131.087 87.8417C131.323 88.216 131.417 88.6525 131.355 89.0822C131.501 88.6499 131.474 88.1838 131.281 87.7679C131.115 87.3484 130.912 86.9419 130.676 86.5524C130.203 85.7759 129.656 85.0399 129.042 84.3532L129.088 84.4142C128.737 83.5563 128.503 82.6611 128.392 81.7496C128.235 80.8299 128.172 79.8909 128.097 78.9551C127.977 77.0766 127.957 75.1869 127.945 73.296C127.945 69.5116 128.035 65.7201 128.081 61.9117Z" fill="black"/>
<path d="M138.944 94.7776C139.135 95.1417 139.289 95.5212 139.405 95.9115C139.523 96.2721 139.549 96.6531 139.48 97.0245C139.424 97.3925 139.25 97.7366 138.982 98.0126C138.697 98.3173 138.381 98.5955 138.039 98.8431C138.258 98.7829 138.473 98.7114 138.684 98.6288C138.889 98.5243 139.082 98.4009 139.261 98.2607C139.634 97.961 139.887 97.5522 139.976 97.1019C140.039 96.6559 139.967 96.2023 139.768 95.7921C139.582 95.3993 139.3 95.052 138.944 94.7776V94.7776Z" fill="black"/>
<path d="M180.764 85.5552C180.138 86.2837 179.638 87.0982 179.282 87.9695C179.092 88.4142 178.954 88.8768 178.872 89.3491C178.827 89.5967 178.809 89.8477 178.819 90.0985L178.824 90.2916L178.812 90.3964C178.816 90.4645 178.8 90.5325 178.765 90.5926C178.61 90.8994 178.336 91.1407 177.997 91.2687C177.595 91.459 177.171 91.6076 176.734 91.7118C175.804 91.944 174.847 92.0725 173.884 92.0946C174.836 92.4398 175.866 92.554 176.878 92.4263C177.407 92.3765 177.924 92.2537 178.413 92.0621C178.701 91.9588 178.964 91.8037 179.186 91.6058C179.409 91.408 179.587 91.1713 179.711 90.9093C179.776 90.7618 179.807 90.6035 179.804 90.4442L179.808 90.2089L179.8 90.0619C179.789 89.8591 179.794 89.6558 179.815 89.4536C179.855 89.024 179.927 88.5975 180.031 88.1772C180.237 87.3158 180.507 86.4496 180.764 85.5552Z" fill="black"/>
<path d="M182.444 88.5735C182.848 89.9297 183.418 91.2389 184.142 92.4757C184.851 93.7307 185.707 94.9096 186.694 95.9912C187.682 97.0933 188.853 98.042 190.164 98.8015C191.479 99.5564 192.983 99.9802 194.529 100.031C193.114 99.6374 191.785 99.0171 190.602 98.1981C189.444 97.3732 188.39 96.4305 187.459 95.3878C186.504 94.3463 185.62 93.2498 184.813 92.1049C184.002 90.9546 183.196 89.7883 182.444 88.5735Z" fill="black"/>
<path d="M169.178 127.811C168.034 127.347 166.952 126.76 165.954 126.064C164.964 125.379 164.025 124.634 163.144 123.833C162.234 123.055 161.419 122.185 160.572 121.334L159.34 120.016C158.938 119.566 158.538 119.113 158.096 118.679C158.348 119.223 158.642 119.748 158.934 120.277C159.265 120.781 159.59 121.294 159.954 121.782C160.689 122.762 161.523 123.673 162.447 124.503C163.375 125.341 164.41 126.069 165.53 126.672C166.64 127.297 167.886 127.686 169.178 127.811V127.811Z" fill="black"/>
<path d="M187.29 95.6888C188.19 94.4522 189.305 93.3614 190.588 92.4599C190.855 92.2413 191.179 92.0905 191.527 92.0219C191.876 91.9534 192.238 91.9697 192.578 92.069C193.178 92.4468 193.609 93.0146 193.79 93.6658C194.037 94.3602 194.216 95.0742 194.322 95.7987C194.376 96.159 194.424 96.534 194.459 96.8806C194.457 97.2105 194.426 97.5983 194.39 97.9589C194.234 99.4376 193.938 100.901 193.506 102.331C192.709 105.243 191.471 108.034 189.829 110.624C188.165 113.212 186.175 115.609 183.901 117.762C182.76 118.83 181.574 119.859 180.371 120.862C179.122 121.816 177.928 122.842 176.627 123.718C176 124.188 175.308 124.569 174.653 124.999C173.959 125.368 173.293 125.788 172.57 126.101C171.174 126.804 169.689 127.343 168.149 127.706C165.074 128.462 161.806 128.144 158.967 126.813C156.114 125.403 153.717 123.315 152.024 120.763C152.017 120.752 152.007 120.744 151.994 120.74C151.981 120.736 151.968 120.737 151.956 120.743C151.945 120.749 151.936 120.759 151.932 120.771C151.928 120.782 151.929 120.794 151.934 120.806C153.407 123.576 155.723 125.888 158.596 127.456C160.067 128.228 161.685 128.731 163.362 128.936C165.045 129.12 166.749 129.02 168.393 128.64C170.025 128.281 171.595 127.715 173.061 126.959C173.809 126.615 174.488 126.17 175.198 125.772C175.864 125.317 176.569 124.908 177.201 124.415C178.526 123.493 179.686 122.417 180.912 121.405C181.537 120.913 182.067 120.325 182.641 119.783C183.194 119.221 183.793 118.701 184.306 118.107C186.449 115.812 188.396 113.365 190.128 110.79C191.891 108.214 193.295 105.443 194.308 102.541C194.802 101.073 195.124 99.5596 195.27 98.0277C195.297 97.6353 195.322 97.2691 195.313 96.8433C195.265 96.4399 195.206 96.0646 195.139 95.6787C195.006 94.9084 194.797 94.1511 194.513 93.4165C194.386 93.0111 194.172 92.6333 193.885 92.3051C193.598 91.9769 193.244 91.7049 192.842 91.5049C192.391 91.341 191.891 91.3316 191.433 91.4785C191.016 91.6106 190.627 91.8079 190.282 92.0618C189.017 93.0603 187.972 94.2754 187.204 95.6405C187.2 95.6458 187.198 95.6517 187.197 95.6577C187.197 95.6638 187.197 95.6699 187.199 95.6758C187.201 95.6817 187.204 95.6872 187.208 95.6921C187.212 95.6969 187.217 95.701 187.222 95.704C187.234 95.7093 187.247 95.7107 187.259 95.7079C187.271 95.7051 187.282 95.6983 187.29 95.6888V95.6888Z" fill="black"/>
<path d="M233.896 108.36C232.578 108.706 231.381 109.369 230.428 110.281C229.445 111.178 228.659 112.243 228.114 113.417C227.567 114.584 227.259 115.835 227.207 117.107C227.181 117.733 227.215 118.359 227.31 118.979C227.425 119.595 227.601 120.199 227.835 120.785C228.069 120.179 228.175 119.594 228.348 119.022C228.533 118.454 228.644 117.889 228.849 117.348C229.177 116.275 229.579 115.222 230.053 114.197C230.529 113.177 231.084 112.191 231.716 111.247C232.378 110.244 233.106 109.279 233.896 108.36V108.36Z" fill="black"/>
<path d="M229.283 131.836C228.876 136.184 228.677 140.531 228.552 144.878C228.413 149.225 228.399 153.571 228.408 157.917C228.456 162.262 228.531 166.608 228.73 170.953C228.915 175.297 229.175 179.642 229.646 183.985C230.056 179.637 230.256 175.289 230.38 170.943C230.518 166.596 230.533 162.25 230.521 157.904C230.47 153.559 230.395 149.213 230.196 144.868C230.01 140.523 229.751 136.179 229.283 131.836Z" fill="black"/>
<path d="M132.463 103.109C128.59 105.354 124.787 107.692 121.056 110.123C119.189 111.337 117.337 112.573 115.5 113.83L112.766 115.764C112.287 116.097 111.835 116.463 111.415 116.859L110.766 117.488L110.219 118.13C108.802 119.822 107.509 121.601 106.35 123.453C105.182 125.279 104.045 127.117 102.94 128.967C100.755 132.683 98.5044 136.357 96.1892 139.99C95.0311 141.808 93.851 143.615 92.6486 145.409L90.8501 148.098C90.3171 148.978 89.6836 149.802 88.9607 150.556C88.1943 151.252 87.2819 151.942 86.488 152.808C85.5477 153.716 84.9815 154.9 84.8883 156.155C84.9596 157.441 85.5646 158.652 86.5771 159.536C87.0099 159.94 87.4649 160.324 87.9403 160.686C88.366 161.004 88.7796 161.338 89.1842 161.682C89.9982 162.374 90.7469 163.101 91.5085 163.884C92.2837 164.677 93.0865 165.447 93.9011 166.208C95.5456 167.729 97.2918 169.153 99.1293 170.471C101.003 171.814 103.042 172.946 105.205 173.843C106.339 174.288 107.53 174.593 108.75 174.752C110.03 174.928 111.338 174.823 112.566 174.445C112.762 174.39 112.929 174.27 113.035 174.108L113.042 174.097C113.836 172.879 114.705 171.665 115.584 170.476C116.462 169.282 117.382 168.116 118.343 166.98C119.308 165.851 120.34 164.773 121.433 163.75C122.485 162.698 123.774 161.872 125.208 161.332L125.216 161.329C125.242 161.321 125.262 161.304 125.275 161.282C125.287 161.26 125.29 161.235 125.283 161.211C125.276 161.187 125.259 161.166 125.237 161.153C125.214 161.14 125.187 161.136 125.161 161.141C123.593 161.515 122.144 162.229 120.932 163.222C119.689 164.153 118.524 165.171 117.447 166.266C115.283 168.436 113.295 170.751 111.499 173.192L111.974 172.844C109.96 173.225 107.866 172.943 106.052 172.047C104.073 171.173 102.212 170.084 100.508 168.805C98.7433 167.536 97.0557 166.177 95.4533 164.735C94.6426 164.017 93.8404 163.288 93.0647 162.535C92.2785 161.769 91.4309 160.987 90.5446 160.274C90.0993 159.916 89.6431 159.567 89.1718 159.234C88.7447 158.904 88.3394 158.622 87.9819 158.286C87.2892 157.733 86.8368 156.966 86.7089 156.128C86.7637 155.258 87.1382 154.431 87.7702 153.786C88.4181 153.014 89.236 152.315 90.0303 151.475C90.2397 151.255 90.4357 151.025 90.6172 150.785L91.0757 150.067L91.9004 148.665L93.5131 145.868C94.5771 143.999 95.6638 142.144 96.7733 140.302C98.9986 136.62 101.344 133 103.885 129.498C106.404 126.001 108.959 122.461 111.688 119.231L112.204 118.633L112.742 118.124C113.111 117.759 113.511 117.421 113.938 117.115L116.597 115.159L121.965 111.255C125.552 108.655 129.093 105.993 132.587 103.268C132.608 103.252 132.621 103.229 132.624 103.205C132.628 103.18 132.621 103.155 132.605 103.135C132.589 103.115 132.566 103.101 132.539 103.096C132.513 103.091 132.486 103.096 132.463 103.109V103.109Z" fill="black"/>
<path d="M118.305 134.742C120.156 141.186 121.904 147.646 123.365 154.131C124.116 157.346 124.64 160.603 124.935 163.88C125.035 165.456 125.045 167.196 125.194 168.883C125.34 170.603 125.651 172.307 126.123 173.976C127.234 177.275 129.015 180.347 131.37 183.027C132.458 184.371 133.611 185.671 134.69 186.977C135.209 187.625 135.736 188.268 136.202 188.962C136.702 189.632 137.154 190.335 137.604 191.042C139.375 193.909 140.959 196.872 142.346 199.915C143.81 202.946 145.072 206.06 146.306 209.194C144.735 202.643 142.297 196.297 139.047 190.3C138.208 188.783 137.247 187.328 136.172 185.945C135.105 184.58 134.013 183.276 132.984 181.929C130.818 179.407 129.181 176.531 128.159 173.451C127.706 171.9 127.402 170.315 127.251 168.714C127.083 167.082 127.088 165.488 126.926 163.742C126.549 160.386 125.894 157.061 124.969 153.796C123.193 147.319 120.967 140.954 118.305 134.742V134.742Z" fill="black"/>
<path d="M38.5161 222.004C38.9368 222.005 39.3404 221.85 39.6381 221.575C39.9358 221.299 40.1032 220.926 40.1035 220.536C40.1038 220.146 39.9369 219.772 39.6396 219.497C39.3423 219.221 38.9389 219.066 38.5182 219.066L1.58942 219.021H1.58735C1.37902 219.02 1.17272 219.058 0.980194 219.132C0.787672 219.206 0.612686 219.314 0.465279 219.45C0.317872 219.587 0.200918 219.749 0.121067 219.927C0.0412155 220.105 4.54572e-05 220.296 -9.3427e-05 220.489C-0.000232311 220.682 0.0406652 220.873 0.12026 221.051C0.199855 221.23 0.316584 221.392 0.463795 221.528C0.611005 221.665 0.78581 221.773 0.978225 221.847C1.17064 221.921 1.37689 221.959 1.58522 221.959L38.514 222.004H38.5161Z" fill="black"/>
<path d="M273.437 221.029L320 221.436L319.97 224.375L273.407 223.968L273.437 221.029Z" fill="black"/>
<path d="M144.375 88.2947C143.984 88.2822 143.613 88.1294 143.341 87.8687C143.069 87.6079 142.917 87.2595 142.917 86.8969C142.917 86.5343 143.069 86.1859 143.341 85.9251C143.613 85.6643 143.984 85.5116 144.375 85.4991C144.766 85.5116 145.136 85.6643 145.408 85.9251C145.68 86.1859 145.832 86.5343 145.832 86.8969C145.832 87.2595 145.68 87.6079 145.408 87.8687C145.136 88.1294 144.766 88.2822 144.375 88.2947V88.2947Z" fill="black"/>
<path d="M104.446 233.153C99.1145 236.519 93.1146 238.873 86.794 240.077C83.6558 240.637 80.4567 240.849 77.2643 240.709C74.0792 240.549 70.9243 240.053 67.8607 239.231C61.7418 237.505 55.9692 234.864 50.7718 231.411C49.4669 230.595 48.2337 229.686 47.0837 228.69C45.9358 227.682 44.8546 226.611 43.8458 225.482C41.8283 223.224 40.0828 220.769 38.6402 218.161L38.7414 218.557L38.7413 218.547L38.741 218.526C38.7386 218.396 38.7044 218.269 38.6411 218.153C37.3943 215.886 36.3757 213.517 35.5983 211.077C34.8258 208.625 34.3267 206.107 34.1089 203.561L34.1044 203.508L34.0978 203.473C34.0826 203.423 34.1008 203.447 34.0833 203.538L34.0922 203.384C33.6576 198.231 34.4398 193.052 36.3846 188.207C38.3704 183.37 41.4458 178.98 45.406 175.33C49.3198 171.742 53.9703 168.917 59.0827 167.022C64.1952 165.126 69.6659 164.199 75.1717 164.295C80.6776 164.391 86.1067 165.509 91.1385 167.581C96.1703 169.653 100.703 172.639 104.468 176.361C108.244 180.096 111.182 184.488 113.114 189.283C115.039 194.139 115.933 199.294 115.748 204.465C115.748 204.478 115.75 204.492 115.755 204.504C115.76 204.516 115.768 204.528 115.778 204.537C115.788 204.547 115.799 204.555 115.812 204.56C115.825 204.565 115.84 204.568 115.854 204.569C115.881 204.569 115.908 204.559 115.929 204.543C115.949 204.526 115.962 204.502 115.965 204.477C116.639 199.233 116.098 193.916 114.378 188.881C112.645 183.792 109.769 179.102 105.937 175.118C102.096 171.102 97.3863 167.879 92.114 165.657C86.8312 163.44 81.0984 162.293 75.2986 162.291C69.5365 162.239 63.8269 163.31 58.5412 165.435C53.2554 167.56 48.5118 170.692 44.6188 174.628C40.7635 178.511 37.7571 183.05 35.7658 187.993C33.7775 192.944 32.8169 198.199 32.9344 203.481L32.9433 203.328C32.9197 203.446 32.922 203.568 32.9499 203.686L32.9389 203.598C33.0162 206.246 33.3912 208.878 34.0578 211.454C34.715 214.04 35.6785 216.551 36.9307 218.941L36.8306 218.547L36.8305 218.557C36.8284 218.688 36.8599 218.818 36.9224 218.936L36.9318 218.954C38.3965 221.71 40.2273 224.287 42.3817 226.623C43.4539 227.792 44.601 228.9 45.8169 229.941C47.0549 230.97 48.3734 231.913 49.7618 232.761C55.1468 236.264 61.1396 238.888 67.4806 240.517C73.8508 242.12 80.545 242.271 86.9922 240.959C93.3543 239.554 99.3372 236.953 104.57 233.319C104.593 233.303 104.608 233.28 104.613 233.254C104.618 233.228 104.612 233.202 104.596 233.18C104.58 233.159 104.555 233.144 104.527 233.138C104.499 233.133 104.47 233.139 104.447 233.153L104.446 233.153Z" fill="black"/>
<path d="M95.1177 168.434C95.4078 169.154 95.652 169.884 95.8976 170.611C96.1385 171.34 96.3742 172.067 96.5858 172.801C96.821 173.526 97.0112 174.264 97.1982 175.004L97.8108 177.201L97.7799 177.017C97.7821 177.1 97.7995 177.183 97.8313 177.261C97.8696 177.356 97.9283 177.443 98.0037 177.517C98.0797 177.59 98.1708 177.649 98.2717 177.69C98.3725 177.73 98.4811 177.752 98.591 177.753L97.8202 177.21C98.2658 179.337 98.8157 181.43 99.2845 183.544C99.7139 185.666 100.146 187.789 100.508 189.926C100.885 192.062 101.259 194.199 101.575 196.353C101.935 198.502 102.275 200.661 102.679 202.825C102.891 200.639 102.961 198.442 102.889 196.248C102.848 194.052 102.686 191.859 102.402 189.679C102.106 187.5 101.75 185.323 101.232 183.174C100.997 182.096 100.68 181.032 100.355 179.973C100.029 178.914 99.7276 177.849 99.3741 176.8L98.6031 176.256C98.7102 176.258 98.8161 176.279 98.9143 176.319C99.0126 176.358 99.1013 176.416 99.1753 176.487C99.2489 176.559 99.3061 176.644 99.3435 176.737C99.3743 176.812 99.3911 176.892 99.3932 176.973L99.3623 176.789C98.7778 175.339 98.2384 173.884 97.5451 172.476C96.8714 171.063 96.0589 169.709 95.1177 168.434V168.434Z" fill="black"/>
<path d="M54.0679 168.433C52.6265 170.731 51.4359 173.157 50.5139 175.673C50.0019 176.919 49.6387 178.204 49.1967 179.472C48.8045 180.751 48.4783 182.046 48.1187 183.335C46.8645 188.528 46.0585 193.805 45.7085 199.116C45.347 204.415 45.3425 209.731 45.695 215.031C45.8703 217.677 46.191 220.313 46.4643 222.947C46.903 225.567 47.2832 228.189 47.7872 230.792C47.7409 228.141 47.5585 225.51 47.4572 222.875L47.2793 214.979C47.2939 213.664 47.3012 212.35 47.2908 211.037L47.2836 209.067L47.3593 207.099L47.4717 203.165L47.7344 199.239C48.0705 194.006 48.7153 188.795 49.6661 183.627L50.4823 179.77C50.8095 178.497 51.0728 177.203 51.4604 175.942C52.1167 173.38 52.9885 170.869 54.0679 168.433V168.433Z" fill="black"/>
<path d="M75.5205 220.183C74.8666 219.574 74.3109 218.881 73.8707 218.126C73.8813 219.007 73.9024 219.879 73.9236 220.761C74.061 227.128 74.3254 233.495 74.7167 239.862C75.108 233.495 75.3724 227.128 75.5099 220.761C75.5099 220.565 75.5205 220.379 75.5205 220.183Z" fill="black"/>
<path d="M75.2351 213.885C75.2351 213.885 74.5371 213.111 73.7757 212.092C73.7863 213.081 73.7969 214.081 73.818 215.07C74.1842 214.578 74.6695 214.172 75.2351 213.885V213.885Z" fill="black"/>
<path d="M73.7016 200.709V202.59L73.7334 207.204C74.4019 207.254 75.0619 207.376 75.7005 207.566C75.711 205.901 75.7216 204.246 75.7322 202.59V200.709C75.6899 188.279 75.4995 175.858 74.7169 163.428C73.9449 175.858 73.744 188.279 73.7016 200.709Z" fill="black"/>
<path d="M112.225 185.727C106.35 183.309 100.2 181.507 93.8915 180.357C87.574 179.161 81.1474 178.529 74.6996 178.469C71.4735 178.38 68.2526 178.62 65.0338 178.786C63.431 178.952 61.8334 179.167 60.2347 179.356C59.4367 179.46 58.6346 179.536 57.8408 179.663L55.4754 180.133C49.1672 181.307 43.0361 183.185 37.2169 185.727C38.7614 185.319 40.2938 184.896 41.8141 184.457L44.0962 183.807C44.8597 183.602 45.6499 183.478 46.4239 183.309L51.0636 182.309C52.6215 182.033 54.1943 181.824 55.7557 181.579L58.0996 181.223C58.8843 181.127 59.6752 181.07 60.4622 180.991C62.0386 180.85 63.6111 180.681 65.1873 180.562C68.3515 180.454 71.5094 180.23 74.6771 180.349C81.0182 180.4 87.3466 180.884 93.6109 181.796L98.3061 182.55C99.8597 182.854 101.425 183.124 102.975 183.457C106.093 184.07 109.166 184.854 112.225 185.727Z" fill="black"/>
<path d="M75.6582 223.357L65.9311 222.195C62.7132 221.774 59.5025 221.328 56.3123 220.792C53.1174 220.284 49.9359 219.684 46.7598 219.053C45.187 218.686 43.5997 218.355 42.0038 218.03L40.8005 217.801L39.6176 217.516C38.8261 217.329 38.0251 217.155 37.2148 216.99C37.943 217.339 38.6805 217.678 39.4273 218.007C40.1668 218.346 40.9258 218.647 41.7007 218.91C43.2407 219.446 44.7893 219.977 46.3524 220.472C49.501 221.387 52.71 222.112 55.9596 222.644C62.4551 223.754 69.089 223.994 75.6582 223.357Z" fill="black"/>
<path d="M115.973 201.65C113.89 201.533 111.806 201.435 109.723 201.356C110.291 201.497 110.849 201.67 111.394 201.876C112.927 201.807 114.45 201.729 115.973 201.65Z" fill="black"/>
<path d="M33.4604 201.65C40.3347 202.013 47.209 202.258 54.0833 202.385C60.6297 202.522 67.1656 202.571 73.7015 202.591H75.732C76.5569 202.591 77.3713 202.581 78.1962 202.581C78.1116 201.768 78.5452 201.229 79.772 201.17C80.8521 201.143 81.908 201.469 82.7544 202.091C82.9447 202.228 83.1563 202.375 83.3995 202.542C89.819 202.503 96.235 202.388 102.648 202.199C102.674 201.988 102.745 201.784 102.858 201.599C102.97 201.414 103.122 201.251 103.303 201.121C94.1128 200.828 84.9224 200.739 75.732 200.71H73.7015C67.1656 200.73 60.6297 200.779 54.0833 200.916C47.209 201.033 40.3347 201.278 33.4604 201.65Z" fill="black"/>
<path d="M98.5864 176.995C98.5864 176.996 98.5866 176.998 98.5872 176.999C98.5877 177 98.5884 177.001 98.5894 177.002C98.5904 177.003 98.5916 177.004 98.5929 177.004C98.5942 177.005 98.5956 177.005 98.597 177.005C99.5758 178.717 100.339 180.528 100.871 182.402C100.881 182.422 100.881 182.451 100.892 182.471C101.685 185.301 101.294 185.821 102.341 188.612C102.933 190.189 103.462 191.1 103.166 192.403C102.884 193.224 102.527 194.02 102.098 194.783C101.971 195.028 101.844 195.293 101.696 195.587C100.966 197.076 100.786 197.428 100.945 197.879C101.146 198.427 101.611 198.496 102.468 198.976C102.77 199.139 103.056 199.326 103.324 199.534C103.832 199.888 104.3 200.288 104.72 200.729C107.891 200.698 111.012 201.453 113.763 202.914C114.418 203.256 115.127 203.599 115.889 203.962H115.899C115.931 203.541 115.941 203.119 115.963 202.698C115.973 202.345 115.973 202.003 115.973 201.65C115.981 196.153 114.704 190.719 112.229 185.723L112.219 185.713H112.208C111.214 183.688 110.024 181.751 108.655 179.924C104.054 175.771 99.094 173.616 97.4441 173.625C97.2656 173.61 97.0875 173.659 96.9471 173.762C96.577 174.105 97.4654 175.046 98.5864 176.995Z" fill="black"/>
<path d="M33.4604 201.65C33.4604 201.974 33.4604 202.297 33.4815 202.62C33.4815 202.894 33.5027 203.159 33.5132 203.433C33.5132 203.482 33.5238 203.531 33.5238 203.58C33.5256 203.865 33.5433 204.149 33.5767 204.432C33.9494 209.327 35.3467 214.108 37.6907 218.508C37.7203 218.526 37.7524 218.539 37.7859 218.548V218.557C38.0629 218.679 38.3593 218.759 38.6637 218.793C39.0193 218.826 39.3786 218.789 39.7177 218.685C40.0568 218.58 40.3681 218.41 40.6308 218.185C40.6414 218.175 40.652 218.156 40.6731 218.146C41.5298 217.274 40.8424 216.06 41.1173 214.238C41.35 212.729 42.2066 211.661 43.9094 209.536C44.6507 208.56 45.4785 207.642 46.3841 206.793C47.0081 206.235 47.5897 205.892 48.0022 206.049C48.5204 206.264 48.6791 207.283 48.4887 208.027C48.2032 209.144 47.2302 209.242 47.0187 210.143C46.7331 211.328 48.0339 212.7 49.1444 213.327C49.7644 213.713 50.4819 213.944 51.227 213.997C51.972 214.051 52.7193 213.924 53.3959 213.63C54.9188 212.807 54.8765 211.054 55.6909 211.054C56.336 211.064 56.9071 212.161 57.0023 213.023C57.0771 213.562 56.9774 214.11 56.7156 214.596C56.4539 215.083 56.042 215.487 55.5323 215.756C54.4853 216.167 53.8084 215.315 52.5816 215.756C52.2145 215.868 51.8855 216.067 51.6275 216.333C51.3696 216.6 51.1916 216.924 51.1116 217.274C51.0587 218.205 52.4336 218.93 54.2209 219.85C56.262 220.899 56.8966 220.85 59.2973 221.976C59.5299 222.084 59.7415 222.182 59.9424 222.28C60.8807 222.68 61.7617 223.187 62.5652 223.788C64.215 225.042 64.0564 225.6 65.6745 226.825C66.7311 227.733 68.0312 228.362 69.4395 228.647C70.7192 228.843 70.9836 228.48 73.2045 228.343C73.7078 228.31 74.2126 228.3 74.7169 228.314C75.689 228.326 76.6598 228.385 77.6252 228.49C78.7555 228.594 79.876 228.774 80.9778 229.029C75.3091 226.355 74.5582 222.309 76.9166 221.349C76.9166 221.349 70.2116 216.638 75.2351 213.885C75.2351 213.885 67.1128 204.932 76.2821 207.733C77.0444 207.975 77.7696 208.308 78.4396 208.723C78.7251 208.889 79.0529 209.095 79.4231 209.311L80.5124 206.744V206.734C78.3655 204.031 76.9272 201.298 79.7721 201.17C80.8522 201.143 81.9082 201.469 82.7545 202.091C83.4102 202.552 84.3515 203.198 85.536 203.943L87.9367 201.65C88.485 200.824 88.8214 199.893 88.9202 198.927C88.964 197.862 88.7686 196.8 88.3462 195.809C87.9239 194.817 87.2838 193.918 86.4666 193.168C84.9594 191.689 83.0306 190.636 80.9037 190.131C79.2354 189.533 77.434 189.325 75.6581 189.524C75.362 189.573 75.0447 189.631 74.7169 189.71C73.6804 189.935 72.6123 190.268 72.0623 190.435C71.1268 190.828 70.1316 191.085 69.1117 191.199C67.7791 191.257 67.4089 190.885 66.8273 191.199C66.0975 191.571 66.2139 192.354 65.6745 194.225C65.1351 196.077 64.691 197.644 63.5488 198.016C62.6921 198.291 62.2268 197.644 61.2538 198.016C60.6193 198.261 60.6192 198.614 59.6251 199.535C58.7473 200.338 58.3032 200.739 57.658 200.896C57.043 201.026 56.3999 200.98 55.8142 200.763C55.2285 200.546 54.728 200.169 54.3795 199.682C54.2526 199.476 54.0199 199.045 54.2209 197.262C54.4641 195.009 54.5804 193.883 55.3631 193.168C56.3149 192.296 57.0552 192.932 59.2973 192.256C61.8672 191.483 61.6768 190.405 64.5323 189.377C66.4466 188.691 66.9542 189.014 68.456 188.162C69.6722 187.476 71.2163 186.203 70.9202 185.429C70.5923 184.606 68.4771 185.243 67.6416 184.068C66.9859 183.157 67.8954 182.265 67.1551 181.031C66.7215 180.326 65.8226 179.65 65.188 179.826C64.49 180.012 64.7544 181.06 63.8766 182.402C63.0639 183.55 61.8505 184.404 60.4395 184.822C59.3713 185.184 58.0493 185.635 57.0023 184.978C56.0717 184.401 55.5534 183.078 56.0187 182.402C56.6216 181.53 58.4512 182.275 58.9694 181.491C59.0548 181.303 59.0979 181.101 59.096 180.898C59.0942 180.694 59.0475 180.493 58.9588 180.306C58.8223 179.872 58.5723 179.476 58.231 179.153C57.8897 178.83 57.4677 178.59 57.0023 178.455C56.463 178.376 55.913 178.562 52.7403 181.031C52.571 181.168 52.4018 181.295 52.2537 181.413L52.2432 181.423C50.5616 182.745 50.2549 183.039 49.631 183.01C49.4239 182.997 49.2204 182.954 49.0281 182.882C48.6938 182.752 48.3861 182.57 48.1186 182.343C47.3705 181.668 46.7738 180.863 46.363 179.973C45.8236 178.817 46.0351 178.347 45.7073 178.151C44.9458 177.7 42.2278 179.209 39.3723 181.922C38.572 183.148 37.8516 184.417 37.2149 185.723C35.1396 189.896 33.8997 194.383 33.5556 198.966C33.5239 199.407 33.5027 199.858 33.4816 200.308C33.471 200.749 33.4604 201.2 33.4604 201.65Z" fill="black"/>
<path d="M154.151 0C153.56 2.22825 153.105 4.48573 152.788 6.76164C152.439 9.0227 152.213 11.2922 152.011 13.5633C151.848 15.8371 151.712 18.1128 151.699 20.3968C151.651 22.6912 151.744 24.9862 151.979 27.2707C152.573 25.0429 153.029 22.7854 153.345 20.5093C153.694 18.2482 153.92 15.9787 154.119 13.7074C154.279 11.4334 154.415 9.15777 154.428 6.87371C154.476 4.57947 154.384 2.28456 154.151 0V0Z" fill="black"/>
<path d="M138.902 29.1518C138.338 26.8291 137.637 24.5367 136.803 22.2848C136.005 20.0322 135.093 17.8225 134.158 15.621C133.187 13.4332 132.191 11.2546 131.081 9.11857C129.998 6.95931 128.787 4.8571 127.454 2.82153C128.016 5.14491 128.716 7.43778 129.55 9.68967C130.348 11.942 131.261 14.1518 132.197 16.3524C133.171 18.5393 134.167 20.7179 135.277 22.8537C136.361 25.0126 137.571 27.1151 138.902 29.1518Z" fill="black"/>
<path d="M177.324 5.172C176.015 7.0023 174.824 8.90272 173.757 10.8633C172.665 12.7993 171.686 14.781 170.729 16.7715C169.809 18.7766 168.912 20.7915 168.129 22.8518C167.309 24.9117 166.622 27.0153 166.073 29.1512C167.385 27.3221 168.577 25.422 169.643 23.4611C170.735 21.5248 171.714 19.5432 172.668 17.5518C173.586 15.5457 174.483 13.5308 175.266 11.4703C176.085 9.41027 176.773 7.30719 177.324 5.172V5.172Z" fill="black"/>
<path d="M275.821 164.421C276.768 164.198 277.731 164.042 278.702 163.954C279.162 163.9 279.629 163.943 280.069 164.081C280.484 164.22 280.353 164.643 280.123 165.011C279.586 165.746 278.943 166.41 278.212 166.983C277.499 167.591 276.743 168.169 275.976 168.712C275.907 168.761 275.861 168.833 275.85 168.913C275.838 168.993 275.861 169.073 275.914 169.137C275.95 169.179 275.996 169.212 276.049 169.232C276.102 169.253 276.16 169.26 276.217 169.254C278.218 169.048 280.103 168.281 281.62 167.055C282.389 166.44 283.027 165.698 283.501 164.866C283.752 164.434 283.931 163.97 284.032 163.489C284.091 163.209 284.084 162.922 284.014 162.644C283.962 162.466 283.867 162.302 283.737 162.163C283.696 162.095 283.658 162.072 283.598 161.966C282.716 160.479 281.963 158.797 281.196 157.183L278.946 152.274C278.191 150.634 277.427 149.013 276.78 147.353C276.114 145.693 275.574 144.011 274.948 142.314L273.113 137.238C272.489 135.551 271.724 133.91 271.038 132.245C268.289 125.573 264.769 119.196 260.54 113.225C258.404 110.229 255.884 107.485 253.033 105.052C252.673 104.75 252.323 104.437 251.954 104.143L250.801 103.312C250.036 102.749 249.235 102.229 248.401 101.756C246.728 100.744 244.879 100.006 242.935 99.5768L243.043 99.6007C239.738 98.689 236.329 98.1401 232.886 97.9654C229.48 97.7088 226.069 97.627 222.664 97.624C219.258 97.6253 215.856 97.6867 212.455 97.8081C209.056 97.9569 205.664 98.1461 202.268 98.4028L202.624 98.5149C201.31 97.2683 200.099 95.9324 199 94.5184L197.302 92.3857C196.759 91.6058 196.046 90.9393 195.21 90.4286C193.472 89.5117 191.428 89.2255 189.474 89.6255C187.566 89.9425 185.749 90.6184 184.134 91.6113C184.127 91.6152 184.122 91.6202 184.117 91.6261C184.113 91.6321 184.11 91.6387 184.108 91.6457C184.107 91.6527 184.107 91.6599 184.108 91.6669C184.11 91.6739 184.113 91.6806 184.117 91.6866C184.126 91.6981 184.14 91.706 184.155 91.7087C184.17 91.7114 184.186 91.7088 184.2 91.7014C185.832 90.7993 187.646 90.2159 189.531 89.987C191.37 89.6977 193.261 90.0261 194.862 90.913C195.611 91.4043 196.24 92.0365 196.708 92.7683L198.338 94.9657C199.422 96.4631 200.641 97.8722 201.984 99.1774C202.026 99.2165 202.077 99.2469 202.133 99.2665C202.189 99.2862 202.249 99.2946 202.309 99.2914L202.34 99.2896C205.718 99.0984 209.11 98.9732 212.497 98.8891C215.885 98.79 219.273 98.738 222.658 98.7531C226.045 98.7617 229.425 98.8906 232.792 99.0858C236.139 99.2194 239.458 99.7142 242.681 100.56L242.753 100.577L242.79 100.584C244.589 100.989 246.308 101.652 247.886 102.55C248.703 102.988 249.491 103.473 250.245 104.001L251.388 104.783C251.755 105.061 252.105 105.359 252.465 105.647C253.197 106.209 253.894 106.81 254.552 107.446C255.206 108.087 255.903 108.693 256.524 109.364C257.738 110.727 259.009 112.053 260.076 113.528C264.471 119.359 268.009 125.707 270.594 132.403C271.22 134.084 271.922 135.737 272.484 137.436L274.136 142.541C274.7 144.229 275.178 145.983 275.851 147.663C276.491 149.358 277.248 151.009 277.982 152.65C278.714 154.298 279.499 155.925 280.278 157.556C281.083 159.189 281.816 160.8 282.807 162.422C282.888 162.545 282.98 162.662 283.082 162.771C283.075 162.826 283.125 162.789 283.126 162.878C283.161 163.036 283.162 163.198 283.13 163.356C283.049 163.75 282.906 164.131 282.705 164.486C282.284 165.236 281.727 165.912 281.059 166.486C279.694 167.655 277.976 168.411 276.135 168.651L276.377 169.193C277.151 168.61 277.891 168.008 278.602 167.364C279.341 166.728 279.978 165.998 280.494 165.195C280.627 164.969 280.705 164.719 280.724 164.463C280.724 164.316 280.675 164.173 280.584 164.053C280.493 163.933 280.364 163.841 280.215 163.792C279.717 163.651 279.19 163.621 278.677 163.706C277.7 163.841 276.735 164.045 275.791 164.316C275.783 164.318 275.776 164.321 275.77 164.325C275.764 164.33 275.759 164.335 275.756 164.342C275.752 164.348 275.749 164.355 275.749 164.362C275.748 164.369 275.748 164.376 275.751 164.383C275.755 164.397 275.765 164.408 275.778 164.415C275.791 164.422 275.807 164.424 275.821 164.421Z" fill="black"/>
<path d="M73.8625 212.036C73.397 211.397 72.9812 210.729 72.6184 210.035C72.4403 209.694 72.2982 209.338 72.194 208.971C72.0719 208.634 72.0652 208.269 72.1746 207.928C72.2496 207.78 72.3682 207.654 72.5168 207.565C72.6654 207.477 72.838 207.429 73.0147 207.427C73.4088 207.385 73.8074 207.397 74.1978 207.462C75.0048 207.597 75.7958 207.805 76.5597 208.082C77.316 208.379 78.0338 208.753 78.6998 209.198C79.3965 209.632 80.1096 210.049 80.8303 210.455C81.5535 210.857 82.2844 211.25 83.044 211.606C83.812 211.997 84.6324 212.291 85.4839 212.482C85.5628 212.497 85.6447 212.488 85.7179 212.457C85.7911 212.426 85.8517 212.374 85.8909 212.309C85.9302 212.244 85.9461 212.169 85.9364 212.095C85.9267 212.021 85.8918 211.952 85.8368 211.897L85.8191 211.88C84.0557 210.179 82.4119 208.375 80.8979 206.479L80.9919 206.743L80.9921 206.734C80.9934 206.643 80.9635 206.554 80.9067 206.481L80.8993 206.471C80.4299 205.86 79.9821 205.235 79.5882 204.596C79.1882 204 78.901 203.344 78.7393 202.658C78.6396 201.989 78.8716 201.787 79.6038 201.691C80.3206 201.634 81.0399 201.77 81.6755 202.082C82.0081 202.244 82.3217 202.437 82.6114 202.659C82.9417 202.899 83.2771 203.125 83.614 203.347C84.2907 203.79 84.9484 204.255 85.6415 204.68C87.0182 205.54 88.425 206.356 89.8744 207.112C92.7735 208.662 95.8628 209.884 99.076 210.752C100.713 211.17 102.391 211.434 104.085 211.538C105.813 211.622 107.545 211.463 109.221 211.066C109.347 211.035 109.462 210.975 109.557 210.893C109.652 210.81 109.723 210.707 109.764 210.592C109.805 210.478 109.815 210.355 109.793 210.236C109.77 210.118 109.716 210.006 109.635 209.911L109.623 209.897L105.607 205.239L103.635 202.946C103.55 202.833 103.493 202.705 103.47 202.569C103.446 202.434 103.456 202.295 103.498 202.164C103.536 202.04 103.604 201.926 103.698 201.83C103.754 201.776 103.816 201.726 103.882 201.682C103.937 201.645 103.996 201.613 104.058 201.588C104.214 201.53 104.381 201.504 104.548 201.511C104.756 201.503 105.053 201.507 105.296 201.511C105.807 201.522 106.317 201.557 106.823 201.611C107.84 201.717 108.842 201.922 109.813 202.221C110.298 202.378 110.775 202.514 111.268 202.686C111.738 202.859 112.201 203.056 112.654 203.272L115.487 204.685C115.603 204.743 115.733 204.774 115.866 204.775L115.888 204.775H115.899L115.502 204.687C120.835 207.154 126.216 209.332 131.29 212.049L133.2 213.08C135.205 214.164 137.394 214.929 139.673 215.341C141.185 215.623 142.723 215.761 144.265 215.753C145.83 215.743 147.289 215.571 148.758 215.472L166.42 214.103L184.076 212.667C195.847 211.724 207.619 210.763 219.396 209.928L223.811 209.66C224.55 209.613 225.277 209.591 226.003 209.572C226.441 209.579 226.873 209.486 227.263 209.3C227.632 209.103 227.95 208.834 228.195 208.511C229.005 207.297 229.533 205.94 229.746 204.527C230.007 203.166 230.185 201.793 230.279 200.414C230.579 194.93 230.475 189.434 229.966 183.963L229.734 184.277C233.8 183.119 237.863 181.93 241.812 180.452C245.778 179.012 249.662 177.387 253.449 175.581C257.235 173.774 260.923 171.795 264.583 169.81C268.244 167.845 271.938 165.875 275.949 164.862L275.254 164.374C275.246 175.211 274.998 186.048 274.512 196.884C274.257 202.297 273.933 207.707 273.454 213.1C273.351 214.45 273.205 215.795 273.069 217.14C272.941 218.488 272.79 219.831 272.614 221.171C272.447 222.515 272.317 223.865 272.05 225.133C271.79 226.416 271.405 227.674 270.9 228.892C268.807 233.79 265.012 237.903 260.114 240.58C257.686 241.935 255.063 242.963 252.322 243.633C250.952 243.971 249.559 244.225 248.153 244.394C246.737 244.555 245.26 244.663 243.817 244.8L239.463 245.187L235.099 245.448C232.192 245.658 229.276 245.716 226.364 245.826C223.451 245.949 220.534 245.899 217.619 245.945C214.705 245.879 211.788 245.888 208.877 245.744C197.218 245.303 185.609 244.092 174.137 242.118C168.412 241.134 162.652 240.011 156.857 239.118C151.064 238.209 145.257 237.447 139.448 236.718C127.832 235.244 116.194 233.994 104.575 232.65C98.7709 231.962 92.955 231.287 87.2163 230.334L85.0815 229.934C84.368 229.804 83.7055 229.589 83.0123 229.421C82.3503 229.18 81.694 228.914 81.0445 228.639C80.4074 228.34 79.7931 228.001 79.2059 227.625C78.0305 226.899 77.0648 225.917 76.393 224.766C76.0712 224.212 75.9271 223.585 75.9777 222.958C76.0067 222.662 76.1182 222.379 76.3013 222.136C76.4844 221.893 76.7328 221.698 77.0219 221.571C77.0612 221.554 77.0954 221.529 77.1217 221.497C77.1479 221.465 77.1653 221.428 77.1723 221.388C77.1794 221.349 77.1758 221.308 77.162 221.27C77.1483 221.232 77.1246 221.198 77.0932 221.17L77.0765 221.156C76.4429 220.671 75.8383 220.155 75.2653 219.61C74.7087 219.055 74.2466 218.425 73.8951 217.741C73.7133 217.415 73.6031 217.058 73.5706 216.692C73.5382 216.326 73.5842 215.958 73.706 215.609C74.0277 214.919 74.5904 214.35 75.3037 213.993C75.3192 213.985 75.3326 213.973 75.3434 213.96C75.3541 213.946 75.3619 213.931 75.3662 213.915C75.3706 213.899 75.3715 213.882 75.3688 213.865C75.3661 213.849 75.36 213.833 75.3507 213.819L75.3393 213.803L73.8623 212.036L73.857 212.03C73.84 212.009 73.815 211.996 73.7875 211.993C73.7599 211.989 73.7321 211.996 73.7099 212.012C73.6877 212.027 73.6731 212.05 73.669 212.075C73.665 212.101 73.6719 212.127 73.6884 212.148L75.1302 213.965L75.1657 213.776C74.3825 214.148 73.7579 214.754 73.3931 215.496C73.2448 215.884 73.1805 216.294 73.2038 216.705C73.2272 217.115 73.3378 217.517 73.5292 217.888C73.8792 218.617 74.3473 219.292 74.9174 219.891C75.4965 220.472 76.1104 221.023 76.7561 221.541L76.8106 221.126C76.4318 221.282 76.103 221.527 75.8563 221.835C75.6095 222.144 75.4532 222.506 75.4025 222.888C75.3183 223.619 75.4623 224.357 75.8176 225.015C76.5057 226.279 77.5188 227.367 78.7677 228.183C79.3737 228.593 80.0093 228.965 80.67 229.294C81.341 229.599 82.0222 229.895 82.7131 230.164C83.4304 230.359 84.1504 230.606 84.8701 230.755L87.0303 231.209C92.8043 232.264 98.6056 233.031 104.405 233.814L139.202 238.335C144.992 239.12 150.776 239.938 156.523 240.898C159.401 241.347 162.26 241.921 165.124 242.436C167.985 242.983 170.861 243.551 173.75 244.048C185.317 246.063 197.025 247.31 208.784 247.78C220.544 248.271 232.327 247.941 244.033 246.793C245.502 246.644 246.946 246.533 248.435 246.355C249.932 246.167 251.415 245.887 252.873 245.519C255.8 244.786 258.599 243.67 261.187 242.207C266.449 239.287 270.509 234.827 272.728 229.531C273.265 228.212 273.671 226.852 273.943 225.465C274.226 224.067 274.347 222.711 274.502 221.36C274.662 220.005 274.796 218.649 274.904 217.292C275.023 215.936 275.15 214.58 275.235 213.223C275.641 207.796 275.891 202.367 276.07 196.938C276.423 186.079 276.519 175.221 276.358 164.363L276.358 164.353C276.357 164.287 276.342 164.221 276.314 164.16C276.285 164.099 276.244 164.044 276.193 163.998C276.142 163.952 276.081 163.915 276.015 163.891C275.949 163.866 275.878 163.854 275.806 163.855C275.757 163.855 275.709 163.862 275.662 163.874C271.461 164.996 267.749 167.057 264.111 169.068C260.468 171.096 256.85 173.133 253.091 174.942C249.336 176.754 245.483 178.388 241.549 179.837C237.629 181.325 233.593 182.528 229.55 183.7C229.479 183.721 229.417 183.763 229.375 183.82C229.333 183.877 229.313 183.946 229.318 184.015C229.824 189.452 229.9 194.916 229.547 200.364C229.445 201.716 229.262 203.062 228.996 204.394C228.792 205.696 228.304 206.946 227.562 208.068C227.383 208.306 227.149 208.505 226.878 208.65C226.608 208.776 226.307 208.836 226.005 208.823C225.254 208.838 224.504 208.857 223.769 208.898L219.339 209.128C207.537 209.78 195.75 210.549 183.961 211.316L166.28 212.491L148.608 213.775C147.132 213.87 145.652 214.031 144.26 214.03C142.846 214.03 141.435 213.896 140.049 213.631C138.668 213.366 137.319 212.969 136.026 212.446C135.381 212.185 134.751 211.891 134.14 211.567L132.214 210.543C127.029 207.809 121.547 205.628 116.296 203.236L116.283 203.231C116.164 203.177 116.032 203.148 115.899 203.148H115.888L116.289 203.238L113.444 201.841C112.942 201.605 112.426 201.389 111.898 201.199C111.386 201.024 110.836 200.866 110.307 200.701C109.236 200.381 108.134 200.163 107.015 200.052C106.456 199.996 105.893 199.961 105.331 199.952C105.038 199.95 104.798 199.946 104.47 199.959C104.099 199.962 103.733 200.033 103.392 200.167C103.208 200.242 103.034 200.336 102.874 200.448C102.725 200.552 102.586 200.668 102.46 200.796C102.193 201.072 101.999 201.402 101.894 201.759C101.791 202.108 101.771 202.473 101.838 202.83C101.905 203.186 102.055 203.524 102.28 203.82L104.333 206.181L108.384 210.819L108.786 209.65C107.275 210.015 105.715 210.177 104.154 210.129C102.565 210.053 100.988 209.828 99.4474 209.459C96.3289 208.663 93.3244 207.524 90.4979 206.067C89.0701 205.35 87.6757 204.569 86.313 203.747C85.628 203.341 84.9707 202.891 84.2978 202.466C83.9611 202.251 83.6282 202.034 83.3078 201.809C82.9572 201.553 82.5798 201.33 82.181 201.143C81.3463 200.752 80.4072 200.593 79.4769 200.685C78.9234 200.72 78.4055 200.951 78.0298 201.329C77.8629 201.538 77.7467 201.778 77.6891 202.033C77.6316 202.288 77.6341 202.551 77.6964 202.805C77.8877 203.609 78.2306 204.375 78.7094 205.068C79.1428 205.734 79.6153 206.378 80.1247 206.996L80.032 206.734L80.0321 206.743L80.0323 206.757C80.0334 206.848 80.0664 206.936 80.1263 207.008C81.7157 208.9 83.4348 210.695 85.2731 212.382L85.6082 211.78C84.0383 211.364 82.5396 210.744 81.1565 209.94C80.4341 209.556 79.718 209.161 79.0122 208.744C78.3045 208.297 77.5451 207.924 76.7482 207.633C75.9425 207.362 75.1101 207.164 74.2629 207.042C73.8252 206.983 73.3805 206.985 72.9433 207.047C72.6996 207.065 72.4662 207.146 72.2687 207.28C72.0712 207.413 71.9173 207.595 71.8238 207.804C71.6978 208.214 71.7142 208.65 71.8707 209.051C71.9932 209.432 72.1552 209.802 72.3544 210.154C72.7472 210.847 73.193 211.513 73.6883 212.147C73.7044 212.168 73.7288 212.182 73.7561 212.187C73.7835 212.191 73.8116 212.186 73.8344 212.171C73.8573 212.157 73.873 212.134 73.8783 212.109C73.8835 212.084 73.8779 212.058 73.8625 212.036V212.036Z" fill="black"/>
<path d="M85.2141 212.58C86.8095 213.446 88.4193 214.245 90.0751 214.978C91.713 215.738 93.4284 216.344 95.196 216.788C93.5047 216.176 91.8835 215.41 90.3563 214.5C88.8173 213.619 87.3132 212.667 85.8709 211.677L85.8628 211.671C85.7372 211.585 85.58 211.549 85.4256 211.571C85.2712 211.592 85.1323 211.669 85.0394 211.785C84.9464 211.901 84.9071 212.047 84.9299 212.19C84.9527 212.333 85.0359 212.462 85.1612 212.548C85.1782 212.56 85.1958 212.571 85.2141 212.58V212.58Z" fill="black"/>
<path d="M74.8854 214.328C77.6192 216.05 80.387 217.702 83.2251 219.26C84.6464 220.034 86.0779 220.794 87.5582 221.471C88.2928 221.819 89.0461 222.133 89.8153 222.411C90.196 222.559 90.5883 222.681 90.989 222.774C91.3849 222.881 91.7942 222.94 92.2065 222.949C91.7979 222.918 91.3955 222.837 91.0095 222.709C90.6193 222.595 90.239 222.453 89.8721 222.285C89.1281 221.968 88.4021 221.616 87.6969 221.23C86.2737 220.479 84.9004 219.646 83.5392 218.8C80.8241 217.099 78.1712 215.299 75.5812 213.449L75.5757 213.446C75.4521 213.357 75.2957 213.318 75.1409 213.337C74.9861 213.355 74.8456 213.43 74.7503 213.544C74.655 213.659 74.6127 213.804 74.6327 213.947C74.6527 214.09 74.7334 214.221 74.857 214.309L74.8854 214.328Z" fill="black"/>
<path d="M76.5376 221.771C77.6043 222.493 78.7241 223.145 79.889 223.723C81.0352 224.304 82.2171 224.822 83.4286 225.275C85.833 226.19 88.3486 226.831 90.9202 227.183C88.4073 226.657 85.973 225.849 83.6709 224.778C82.5244 224.253 81.412 223.666 80.3394 223.021C79.2733 222.391 78.2553 221.694 77.2926 220.935L77.274 220.92C77.2156 220.873 77.1477 220.837 77.0742 220.814C77.0007 220.791 76.9231 220.782 76.8458 220.787C76.7684 220.792 76.6929 220.811 76.6235 220.843C76.5541 220.875 76.4923 220.92 76.4415 220.974C76.3907 221.028 76.352 221.091 76.3276 221.159C76.3032 221.227 76.2935 221.299 76.2992 221.371C76.3049 221.443 76.3258 221.512 76.3607 221.577C76.3957 221.641 76.4439 221.698 76.5027 221.745C76.5137 221.753 76.5261 221.763 76.5376 221.771Z" fill="black"/>
<path d="M105.144 180.825C105.231 180.825 105.317 180.805 105.394 180.766C105.471 180.728 105.537 180.673 105.585 180.606L110.151 174.217C110.189 174.163 110.216 174.103 110.229 174.04C110.243 173.977 110.242 173.912 110.228 173.849C110.215 173.786 110.188 173.726 110.149 173.672C110.11 173.619 110.06 173.573 110.002 173.538C109.944 173.502 109.879 173.477 109.811 173.465C109.743 173.453 109.673 173.453 109.605 173.466C109.537 173.479 109.472 173.504 109.414 173.54C109.357 173.576 109.307 173.622 109.269 173.675L104.703 180.064C104.626 180.173 104.598 180.305 104.626 180.432C104.654 180.56 104.735 180.671 104.852 180.743C104.938 180.797 105.04 180.825 105.144 180.825V180.825Z" fill="black"/>
<path d="M81.6344 164.858C81.7217 164.858 81.8077 164.838 81.8846 164.8C81.9616 164.761 82.0271 164.706 82.0754 164.639L86.6424 158.251C86.6808 158.197 86.7074 158.137 86.7207 158.074C86.734 158.011 86.7337 157.946 86.7199 157.883C86.7061 157.82 86.679 157.76 86.6402 157.706C86.6014 157.653 86.5516 157.607 86.4937 157.572C86.4358 157.536 86.3709 157.512 86.3027 157.499C86.2345 157.487 86.1643 157.487 86.0962 157.5C86.0281 157.513 85.9634 157.538 85.9058 157.574C85.8482 157.61 85.7988 157.656 85.7604 157.709L81.1934 164.097C81.1405 164.171 81.1102 164.257 81.1058 164.345C81.1013 164.434 81.1229 164.522 81.1681 164.6C81.2134 164.678 81.2807 164.743 81.3628 164.789C81.4449 164.834 81.5388 164.858 81.6344 164.858V164.858Z" fill="black"/>
</svg>
