<svg width="149" height="24" fill="none" xmlns="http://www.w3.org/2000/svg"><path d="M31.344 18.267h-3.87V2.454h3.87v6.79h.679l4.325-6.79h4.054l-5.324 7.877 5.858 7.936H36.59l-4.646-6.645h-.601v6.645zM51.216 17.597c-.64.317-1.277.55-1.91.699a8.413 8.413 0 01-2.008.233c-.925 0-1.765-.126-2.522-.379a5.398 5.398 0 01-1.94-1.105 4.979 4.979 0 01-1.25-1.786c-.298-.71-.446-1.52-.446-2.425 0-1.054.126-1.988.378-2.803.258-.822.633-1.507 1.125-2.057a4.752 4.752 0 011.833-1.261c.724-.291 1.558-.437 2.502-.437.782 0 1.47.133 2.066.398a4.21 4.21 0 011.513 1.106 4.74 4.74 0 01.921 1.688 6.87 6.87 0 01.32 2.144v.844c0 .278.003.56.01.844h-6.896c.013.407.081.782.204 1.125.13.336.307.627.533.873.233.24.511.427.834.563.33.136.699.204 1.106.204.582 0 1.112-.075 1.59-.223.485-.15.941-.379 1.368-.69l.67 2.445zm-2.376-6.063c0-.963-.158-1.668-.475-2.114-.31-.447-.802-.683-1.474-.709-.35.026-.65.117-.902.272-.252.155-.46.359-.62.611a2.668 2.668 0 00-.36.864c-.07.33-.106.679-.106 1.047h3.937v.03zM52.206 6.645h3.763l2.676 7.751 1.824-7.75h3.704l-3.927 11.94a9.476 9.476 0 01-.825 1.873c-.316.543-.701 1-1.154 1.368a4.564 4.564 0 01-1.58.834c-.608.194-1.32.294-2.134.301l-1.028-2.483c.646-.046 1.17-.127 1.57-.243.408-.11.738-.272.99-.485.252-.207.45-.469.592-.786.142-.317.271-.698.388-1.145l-4.86-11.175zM69.13 18.267h-3.86V2.454h10.978V4.89H69.13v4.026h6.226v2.377H69.13v6.975zM81.234 18.267h-3.676V1.358l3.675-.495v17.404zM84.017 18.267V6.645h3.657v11.622h-3.657zm-.194-16.24a2.028 2.028 0 01.582-1.435c.188-.188.401-.333.64-.437.246-.103.511-.155.796-.155.278 0 .54.052.785.155a2.1 2.1 0 01.65.427c.187.181.336.398.446.65.11.246.165.51.165.795a1.95 1.95 0 01-.62 1.446 2.1 2.1 0 01-.65.427 2.093 2.093 0 01-.776.145c-.291 0-.563-.051-.815-.155a1.983 1.983 0 01-.64-.427 2.067 2.067 0 01-.417-.64 2.147 2.147 0 01-.146-.796zM94.52 21.342c.757 0 1.359-.042 1.805-.126.446-.078.782-.19 1.008-.34.227-.142.372-.313.437-.514.065-.2.097-.423.097-.67 0-.277-.049-.5-.146-.669-.097-.168-.287-.307-.572-.417-.278-.11-.67-.203-1.173-.281a49.47 49.47 0 00-1.979-.252c-.162.052-.34.155-.533.31-.194.155-.375.33-.543.524-.162.2-.298.407-.408.62-.11.214-.165.405-.165.573 0 .31.072.55.214.718.142.168.32.291.533.369.22.077.456.123.708.136.259.012.498.019.718.019zm.99-9.255a.922.922 0 00.436-.184c.156-.116.301-.259.437-.427a2.34 2.34 0 00.33-.582c.09-.213.136-.424.136-.63 0-.53-.143-.919-.427-1.165-.285-.252-.718-.378-1.3-.378-.31 0-.582.03-.814.087a1.272 1.272 0 00-.563.272 1.114 1.114 0 00-.32.504 2.454 2.454 0 00-.107.786c0 .388.071.74.214 1.058.142.31.388.56.737.747l1.241-.088zm3.724-3.463c.42.64.63 1.138.63 1.494 0 .265-.025.54-.077.825-.045.284-.13.566-.252.844a3.652 3.652 0 01-.495.805c-.2.252-.456.482-.766.688a4.462 4.462 0 01-1.086.524c-.42.143-.909.24-1.465.291l-2.996.253.174 1.183 2.667.213c.918.085 1.72.224 2.406.418.691.187 1.267.443 1.726.766.459.323.802.721 1.028 1.193.233.472.349 1.029.349 1.669 0 1.37-.533 2.415-1.6 3.133-1.06.718-2.68 1.077-4.86 1.077-.95 0-1.755-.068-2.414-.204-.653-.136-1.183-.349-1.59-.64a2.48 2.48 0 01-.883-1.116c-.181-.452-.272-.992-.272-1.62 0-.284.049-.562.146-.834.103-.271.246-.534.427-.786a4.4 4.4 0 01.66-.688c.258-.22.542-.414.852-.582-.607-.052-1.063-.279-1.367-.68-.297-.4-.446-.96-.446-1.678 0-.349.045-.647.136-.892.097-.246.249-.46.456-.64.206-.188.478-.35.814-.486a8.878 8.878 0 011.261-.397 3.212 3.212 0 01-.96-.155 2.054 2.054 0 01-.737-.457 2.091 2.091 0 01-.485-.737 2.843 2.843 0 01-.165-1.009c0-.64.11-1.215.33-1.726a3.68 3.68 0 01.95-1.3 4.281 4.281 0 011.484-.815 6.3 6.3 0 011.94-.282c.724 0 1.341.052 1.852.156.517.097.934.239 1.251.427a5.833 5.833 0 011.58-.456 11.737 11.737 0 011.756-.127h.524v2.348h-2.483zM106.247 7.606c.142-.201.32-.382.533-.544a3.623 3.623 0 011.571-.689c.31-.064.63-.097.96-.097.66 0 1.248.104 1.765.31.517.208.951.509 1.3.903.355.395.627.883.814 1.465.188.576.282 1.232.282 1.97v7.343h-3.666V10.66c0-.297-.045-.566-.136-.805a1.939 1.939 0 00-.359-.62 1.464 1.464 0 00-.504-.389 1.304 1.304 0 00-.572-.136 5.58 5.58 0 00-.825.049c-.2.032-.368.08-.504.145a1.239 1.239 0 00-.339.224 10.22 10.22 0 01-.32.28v8.858h-3.657V1.465l3.657-.621v6.762zM120.077 18.529a4.445 4.445 0 01-1.571-.262 2.977 2.977 0 01-1.193-.844c-.324-.388-.573-.886-.747-1.494-.175-.614-.262-1.355-.262-2.222V8.14h-2.124V6.645h2.192V2.241l3.579-.873v5.277h3.268V8.14h-3.268v5.81c0 .298.019.576.058.835.045.252.113.475.203.67.091.187.211.336.359.446.155.11.343.165.563.165.136 0 .275-.02.417-.059a3.208 3.208 0 00.814-.349 6.48 6.48 0 00.32-.213l.835 2.192c-.02.013-.114.068-.282.165a5.71 5.71 0 01-.698.3c-.291.11-.647.208-1.067.292-.414.09-.879.136-1.396.136zM125.479 17.801c-.388-.368-.582-.84-.582-1.416 0-.265.049-.52.146-.767.097-.245.232-.462.407-.65.174-.194.378-.345.611-.456a1.75 1.75 0 01.776-.174 1.927 1.927 0 011.425.611c.181.188.324.408.427.66.104.245.155.504.155.776 0 .284-.051.55-.155.795a1.98 1.98 0 01-1.067 1.057 2 2 0 01-.785.156c-.569 0-1.022-.197-1.358-.592zM131.57 18.267V6.645h3.656v11.622h-3.656zm-.194-16.24a1.994 1.994 0 01.582-1.436c.187-.187.401-.332.64-.436a2.03 2.03 0 01.795-.155c.278 0 .54.052.786.155.245.104.462.246.649.427.188.181.337.398.447.65.11.246.164.51.164.795a1.948 1.948 0 01-.62 1.446 2.102 2.102 0 01-.65.427 2.094 2.094 0 01-.776.145 2.13 2.13 0 01-.815-.155 1.99 1.99 0 01-.64-.427 2.089 2.089 0 01-.417-.64 2.147 2.147 0 01-.145-.796zM142.743 16.045c.342 0 .643-.064.902-.194.258-.136.475-.349.649-.64.175-.291.308-.666.398-1.125.091-.466.136-1.029.136-1.688 0-.653-.045-1.213-.136-1.678-.09-.473-.223-.857-.398-1.155a1.649 1.649 0 00-.649-.65 1.844 1.844 0 00-.902-.213c-.343 0-.644.07-.902.213a1.65 1.65 0 00-.65.65c-.168.298-.297.68-.388 1.145a9.676 9.676 0 00-.126 1.688c0 .271.006.55.019.834.013.285.042.563.088.834.051.265.122.518.213.757.091.233.21.44.359.62.155.182.346.327.572.437.226.104.498.159.815.165zm5.731-3.618c0 .983-.129 1.853-.388 2.61-.252.756-.623 1.393-1.115 1.91a4.777 4.777 0 01-1.804 1.165c-.704.265-1.513.397-2.424.397-.905 0-1.714-.132-2.425-.397a4.784 4.784 0 01-1.804-1.164c-.491-.518-.866-1.155-1.125-1.912-.258-.756-.388-1.626-.388-2.61 0-.995.13-1.875.388-2.638.265-.77.644-1.413 1.135-1.93a4.667 4.667 0 011.804-1.184c.711-.271 1.513-.407 2.405-.407.892 0 1.691.136 2.395.407a4.66 4.66 0 011.804 1.184c.498.517.88 1.16 1.145 1.93.265.763.397 1.643.397 2.639z" fill="#000"/><path fill-rule="evenodd" clip-rule="evenodd" d="M16.42 12.986c2.045-1.185 2.045-4.147 0-5.332L4.6.804C2.555-.383 0 1.098 0 3.468V8.22l.01.055c.042.698.706.806.904.806h2.92c.119 0 .158-.073.119-.146l-1.816-5.17c-.04-.218.08-.4.316-.4h1.105c.237 0 .434.11.553.291l3.354 5.207a.44.44 0 00.395.218h3.79c2.13 0 2.17 2.476 0 2.476H7.86c-.158 0-.316.036-.395.182l-3.354 5.242a.642.642 0 01-.553.291H2.453c-.237 0-.355-.182-.316-.4l1.816-5.17c.079-.109 0-.145-.119-.145H.914c-.198 0-.82.126-.908.838L0 12.398v4.773c0 2.37 2.555 3.85 4.6 2.666l11.82-6.851z" fill="url(#paint0_linear)"/><defs><linearGradient id="paint0_linear" x1="18.951" y1="10.32" x2="-5.985" y2="10.32" gradientUnits="userSpaceOnUse"><stop stop-color="#85D5F4"/><stop offset="1" stop-color="#60AAC8"/></linearGradient></defs></svg>