<svg width="213" height="27" fill="none" xmlns="http://www.w3.org/2000/svg"><path d="M14.663 19.168c0-.893.496-1.03 1.346-.55 1.558.825 3.258 1.718 3.258 1.718.07-.481.496-.893 1.417-.687.85.206 1.841.412 1.841.412s-.495-1.168-.779-1.649c-.425-.962 0-1.374.425-1.511 0 0-.566-.412-.991-.687-.85-.55-.638-1.168.141-1.512 1.134-.48 2.55-1.099 2.55-1.099-.425-.275-.991-.962-.354-1.786a52.684 52.684 0 011.417-1.924h-2.55c-.921 0-1.134-.756-1.134-1.237 0 0-1.487 1.031-2.55 1.718-.92.618-1.7 0-1.558-1.03.213-1.58.425-3.367.425-3.367-.567.344-1.488.344-1.912-.55-.709-1.167-1.488-2.748-1.488-2.748s-.708 1.512-1.346 2.817c-.425.893-1.417.893-1.912.55 0 0 .212 1.786.425 3.366.141 1.03-.709 1.58-1.559 1.03-1.062-.686-2.55-1.717-2.55-1.717 0 .481-.212 1.237-1.133 1.237h-2.55s.85 1.168 1.416 1.924c.567.824.071 1.51-.354 1.786 0 0 1.417.618 2.55 1.099.85.343 1.063.893.142 1.511-.425.275-.992.688-.992.688.425.137.85.55.425 1.51-.212.482-.779 1.65-.779 1.65s.992-.206 1.842-.412c.92-.206 1.417.206 1.417.687 0 0 1.629-.893 3.187-1.718.85-.48 1.346-.275 1.346.55v2.06c0 1.237-.213 2.611-.708 3.298-6.092-.618-11.121-5.29-11.121-11.473 0-6.39 5.525-11.61 12.254-11.61 6.8 0 12.254 5.152 12.254 11.541 0 5.977-4.746 10.855-10.908 11.474v1.58c7.225-.618 12.82-6.252 12.82-13.054C28.406 5.84 22.03 0 14.168 0 6.375 0 0 5.84 0 13.122c0 6.39 4.888 11.68 11.475 12.848 1.134.206 1.771.343 2.409 1.03.708-1.237.85-3.847.85-5.359v-2.473h-.071zM71.968 20.13V6.115h7.012c3.755 0 5.455 1.511 5.525 3.503.071.894-.141 1.787-.779 2.474-.637.687-.92.962-2.125 1.511l5.313 6.527h-3.967l-4.675-5.771h-3.188v5.771h-3.116zm3.187-7.695h1.417c3.896 0 4.675-.618 4.675-2.473 0-1.786-1.7-2.061-4.25-2.061h-1.912v4.534h.07zM40.305 20.13l6.304-14.015h3.825l6.233 14.015h-3.895l-1.7-3.779h-6.659l-1.7 3.779h-2.408zm4.958-5.634h5.03l-2.48-5.565-2.55 5.565zM64.603 6.115h-3.4V20.13h3.4V6.115zM111.21 19.65c-1.629.617-3.613.892-5.95.892-2.834 0-5.1-.687-6.659-1.992-1.629-1.305-2.408-3.16-2.408-5.496 0-2.405.78-4.191 2.408-5.496 1.629-1.306 3.896-1.924 6.871-1.924 1.913 0 3.825.206 5.667.55V8.45c-2.125-.619-4.108-.893-5.525-.893-1.842 0-3.258.48-4.25 1.374-.992.961-1.488 2.267-1.488 4.053 0 1.718.496 3.023 1.629 3.985 1.063.962 2.551 1.443 4.463 1.443 1.7 0 3.613-.344 5.313-1.031v2.267h-.071zM115.32 20.13l6.304-14.015h3.825l6.233 14.015h-3.896l-1.7-3.779h-6.658l-1.7 3.779h-2.408zm4.958-5.634h5.029l-2.479-5.565-2.55 5.565zM157.041 20.13l6.304-14.015h3.825l6.234 14.015h-3.896l-1.7-3.779h-6.659l-1.7 3.779h-2.408zm4.958-5.634h5.03l-2.479-5.565-2.551 5.565zM196.637 20.13l6.305-14.015h3.825L213 20.13h-3.896l-1.7-3.779h-6.658l-1.7 3.779h-2.409zm4.959-5.634h5.029l-2.479-5.565-2.55 5.565zM136.499 20.13V6.115h3.895l9.067 9.961V6.115h2.763V20.13h-3.542l-9.421-10.511V20.13h-2.762zM178.22 20.13V6.115h7.013c2.479 0 4.392.618 5.737 1.717 1.346 1.168 1.984 2.817 1.984 4.947 0 2.336-.709 4.122-2.125 5.359-1.417 1.305-3.4 1.923-5.95 1.923h-6.659v.069zm3.329-1.992h2.48c1.771 0 3.046-.413 3.966-1.237.85-.825 1.275-2.13 1.346-3.847 0-1.306-.354-2.474-1.062-3.367a4.336 4.336 0 00-1.7-1.305c-.709-.206-1.629-.344-2.975-.344h-2.055v10.1z" fill="#000"/></svg>