<svg width="90" height="62" fill="none" xmlns="http://www.w3.org/2000/svg"><path fill-rule="evenodd" clip-rule="evenodd" d="M50.514 3.662c-.255.266-1.152 1.625-1.152 3.307 0 .403.007 10.049 0 10.394-.014.734-.462 1.78-.83 2.149-.261.26-1.86 1.715-2.001 1.867l.906.015c.295-.283 3.374-3.014 3.696-3.381.419-.477 1.417-1.685 1.417-3.58l.005-9.989c0-1.498.697-2.33 1.057-2.73C53.981 1.3 55.194.287 55.41.06L54.46.03c-.23.23-3.628 3.3-3.945 3.63zM42.891 41.46l3.77 3.296h2.524c2.568 0 4.914-1.1 6.462-2.65 1.55-1.55 2.119-3.632 2.119-5.58v-5.404c0-1.816-1.14-2.871-1.456-3.188-.172-.173-1.27-1.21-1.27-1.21v4.147s1.21 1.25 1.448 1.503c1.118 1.19 1.106 3.354-2.435 6.809-.62.605-2.389 2.276-4.822 2.276h-6.34z" fill="#000"/><path fill-rule="evenodd" clip-rule="evenodd" d="M53.379 19.284c-.42.445-.823 1.534-.823 2.493v2.046h2.073c.805 0 1.87-.735 2.1-1.123.013-.029 0-2.03 0-2.03s.531.763 1.106 1.166c.216-.273 2.104-2.564 3.684-2.577 2.639-.02 2.042 3.311.964 4.377-.35.343-1.908 1.774-2.39 2.232-1.245 1.188-3.38.62-3.38-2.448 0 0-2.288 2.175-2.631 2.463-.346.288-1.526 1.54-1.526 1.54v5.39c0 2.586-.85 3.453-1.555 4.231-.274.302-3.183 2.957-3.57 3.246l-.952.021s1.702-1.549 2.044-1.903c.388-.404.84-1.223.84-2.586 0-.345-.043-8.471-.043-8.471H36.088c-4.602 0-5.585-5.112-5.614-6.48-.007-.402 0-4.485 0-5.118 0-.84-.537-2.258-1.395-2.695h1.298c.149.062.965.392.965 3.526 0 0-.055 3.647-.055 3.841 0 1.59 1.262 3.412 3.086 3.412l14.975-.014c.015-.404.417-1.933 1.137-2.74.408-.456 3.62-3.398 3.987-3.68l.95-.011c-.143.131-1.696 1.526-2.043 1.892zm4.917 3.07s.867 1.152 1.28 1.483c1.612 1.296 2.378-.095 1.296-1.584-.428-.586-2.087-.417-2.576.102z" fill="#000"/><path fill-rule="evenodd" clip-rule="evenodd" d="M42.238 32.01c0 .724-2.31 2.646-2.445 2.78-.167-.778-.75-1.64-2.472-3.364l2.528-2.53c1.693 1.697 2.389 2.059 2.389 3.115zM46.621 3.012c.508.508 1.598 1.884.944 2.54-.579.58-1.475 1.498-1.475 1.498-.046-.332-.885-1.128-.885-1.128s.007 2.442 0 2.745c-.03 1.103-.444 1.418-.444 1.418s2.037 2.022 2.037 4.62c0 1.26.005 2.42.005 2.669 0 .532-.135.944-.505 1.353-.184.203-2.072 2.102-2.359 2.36-.547.494-1.122.576-1.553.576h-7.02c-1.106 0-2.244-.863-2.244-1.727 0-.216.014-2.605.014-2.605.36.417.726.905 1.611.892.69-.01 1.417-.554 1.61-.748.203-.203 5.312-5.55 5.312-5.55s-2.393-2.22-3.97-3.274c-.77-.516-1.79.135-1.945.813-.483 2.127 0 5.317 0 5.317l-1.938-1.936c-.78-.783-.752-2.553.178-3.483.147-.148 1.564-1.751 3.363-1.751h2.803c1.88 0 3.937 1.875 3.937 1.875s.303-.331.303-.652c0-.964-.037-3.566-.037-3.566-1.414-1.415-1.607-2.877-.93-3.555A193.537 193.537 0 0145.16 0s-.014 1.537 1.462 3.012zm-8.807 14.117c-.692.725-.813.907-1.46 1.295h7.907c2.143 0 1.717-1.33 1.332-2.002-.787-1.376-3.276-3.935-3.276-3.935s-4.359 4.489-4.503 4.642z" fill="#000"/><path fill-rule="evenodd" clip-rule="evenodd" d="M28.798 24.331H27.5s1.395.767 1.395 2.744v6.316c0 4.11 3.386 7.91 7.502 7.91h3.437c2.064 0 2.788-.5 4.036-1.61.457-.406 1.052-1.074 1.269-1.316.72-.806 1.485-1.458 1.485-3.574v-2.067c0-1.787-1.034-2.53-1.534-3.03-.32-.32-1.199-1.16-1.199-1.16v4.233s.867.923 1.248 1.224c1.785 1.41.365 3.859-1.29 3.859-.332 0-7.09.002-7.55.014-2.779.069-6.536-2.412-6.536-6.585v-3.431c0-3.527-.965-3.527-.965-3.527z" fill="#000"/><path fill-rule="evenodd" clip-rule="evenodd" d="M37.071 32.022c0 .721-2.31 2.644-2.444 2.78-.166-.78-.75-1.64-2.472-3.365l2.527-2.53c1.695 1.697 2.39 2.057 2.39 3.115zM10.643 60.108L6.6 60.103c-1.275 0-1.178-1.06-1.29-1.965v-5.806s.885-.022 1.888-.022c1.12 0 2.515-.165 3.872.603 0 0-.976-2.355-3.88-2.355H5.31v-1.861s0-1.62-.395-2.1l2.671.01c2.312.002 4.1-.034 5.958 1.205 0 0-.356-3.062-4.821-3.062H0s1.514 1.297 1.472 3.938l.042 10.58c0 2.656 1.062 2.73 1.062 2.73h8.597c1.948 0 2.626-1.395 2.626-2.15l.03-1.015s-.62 1.276-3.186 1.276zM33.528 59.214v-7.4c0-2.872-2.344-3.635-4.09-3.635-2.311 0-3.004 1.933-3.299 2.597-.515-1.802-2.317-2.618-3.795-2.618-2.792 0-3.5 2.66-3.5 2.66s-.066-2.568-2.308-2.568l-2.197.005s1.273.524 1.273 2.744l-.004 8.217c0 2.713 1.093 2.76 1.093 2.76h3.621c-.093-.047-1.39-1.025-1.39-2.783v-7.289c.045-.324.592-1.425 2.154-1.425.885 0 1.858.923 1.836 1.961l-.004 6.772c0 2.753 1.079 2.76 1.079 2.76h3.635s-1.39-.978-1.39-2.783l-.01-7.29c.136-.407.614-1.397 1.986-1.397 1.093 0 2.008.923 1.986 1.961 0 0-.007 6.182-.004 6.756.017 2.772 1.08 2.746 1.08 2.746 1.892 0 3.634.008 3.634.008s-1.386-.96-1.386-2.759zM39.88 59.21c0 1.825 1.394 2.763 1.394 2.763s-1.729-.007-3.62-.007c0 0-1.111.016-1.111-2.734v-.013l.003-8.24c0-2.173-1.258-2.731-1.258-2.731h2.197c.774 0 2.387 0 2.387 3.073l-.005 7.877.013.013zM51.035 49.284s-.35-.988-1.854-.988c-2.274 0-2.828 2.705-2.828 2.705-.185-2.137-.757-2.77-2.362-2.77l-2.197.006s1.273.522 1.273 2.742l-.004 8.228c0 2.715 1.093 2.76 1.093 2.76h3.62c-.093-.045-1.389-1.023-1.389-2.782l.004-6.736c.095-.612.41-1.081.888-1.39 1.194-.774 2.823-.59 3.756.55v-2.325zM67.931 49.78a4.64 4.64 0 012.141.537l.011-2.07h-3.045l.001-3.14s-.799 1.385-2.437 2.73c-1.028.846-3.187 1.89-3.187 1.89l2.299.04-.004 9.55c0 2.648 1.106 2.648 1.106 2.648 1.987 0 3.617.008 3.617.008s-1.399-.938-1.399-2.68l.004-9.518c.954.004.297.006.893.006zM78.94 53.927c-2.031 2.127-3.626 1.793-4.903 3.351 0 .003.205 2.113 1.818 2.858.552.255 2.788 1.063 4.238-1.44l-.011 2.216s-.93 1.081-3.882 1.081c-3.557 0-5.994-2.8-5.994-6.597 0-3.733 1.987-7.199 5.737-7.218 3.677-.02 5.666 2.953 2.997 5.749zm-2.224-.871c.602-1.112 1.075-3.935-.98-3.78-2.38.178-1.927 6.513-1.927 6.513.797-.866 1.99-1.042 2.907-2.733zM38.197 47.137c.933 0 1.69-.74 1.69-1.655 0-.913-.757-1.655-1.69-1.655-.933 0-1.69.742-1.69 1.655 0 .914.757 1.655 1.69 1.655zM54.807 60.416c-.826 0-1.415-.86-1.415-1.741 0-3.426 2.802-3.9 3.551-4.813l.006 5.775c-.33.295-.667.78-2.142.78zm2.136-7.877c-.843 1.477-7.396 1.79-6.39 6.862.397 2.012 1.736 2.599 3.42 2.599 1.637 0 2.62-.855 3.031-1.65.245 1.527 1.017 1.616 1.017 1.616 1.892 0 3.62.007 3.62.007s-1.41-.938-1.41-2.748v-7.711c0-1.845-2.043-3.28-4.215-3.28-2.087 0-3.4 1.005-3.4 1.005v2.393s.745-1.896 2.634-1.896c1.842 0 1.98.92 1.968 1.378 0 0 .186.621-.275 1.425zM86.957 58.246c.02.97-.847 2.244-2.69 2.244-1.889 0-2.644-1.934-2.644-1.934v2.45s1.363.972 3.45.972c2.477 0 4.982-1.884 4.926-4.507-.018-.923-.347-1.71-.85-2.388-.838-1.125-2.364-1.91-3.546-2.638-.674-.415-1.032-1.158-1.04-1.42-.02-.458.203-1.387 2.047-1.387 1.8 0 2.566 1.897 2.566 1.897l-.008-2.296s-1.377-1.094-3.464-1.094c-2.172 0-4.144 1.436-4.106 3.28.034 1.62.715 2.669 2.039 3.656.523.39 1.147.77 1.87 1.172 1.053.585 1.436 1.3 1.45 1.993z" fill="#000"/></svg>