<svg width="181" height="31" fill="none" xmlns="http://www.w3.org/2000/svg"><path d="M21.53 12.418c-.118 0-.217.003-.273.01a8.75 8.75 0 01-.304.495c2.221 0 4.238.183 6.469.583l-.63.607c-2.014-.356-3.686-.499-5.817-.499-.31 0-.376 0-.45.003a7.892 7.892 0 01-.41.53c.19-.012.556-.018 1.061-.018a31.8 31.8 0 015.169.415l-.63.61a30.769 30.769 0 00-4.49-.33c-.527 0-1.125.018-1.662.049-.121.14-.437.48-.534.586.71-.075 1.493-.109 2.423-.109 1.325 0 2.591.087 3.788.264l-.63.604a24.176 24.176 0 00-2.804-.167c-2.36 0-4.222.51-6.146 1.686 1.834 1.965 4.837 3.208 7.747 3.208h.273l-1.018.982c-4.197-.787-8.615-2.631-12.347-5.157-3.59-2.421-4.846-3.137-7.648-4.374l-.018-.719 1.895.812.645-.511 6.19 2.833-.404.322-3.176-1.38-.314.246 1.65.92c1.394.775 2.455 1.122 3.435 1.122 2.144 0 4.067-1.519 5.308-4.187.934-.121 1.93-.177 3.128-.177 2.457 0 4.843.236 7.545.74l-.658.636c-1.681-.35-4.539-.635-6.363-.635zM15.514 30.07C7.462 30.07.931 23.544.931 15.5S7.462.93 15.514.93 30.098 7.456 30.098 15.5s-6.532 14.57-14.584 14.57zm0-30.07C6.935 0 0 6.928 0 15.5S6.935 31 15.514 31c8.58 0 15.515-6.928 15.515-15.5S24.094 0 15.514 0zm40.988 21.67h8.894v4.163H51.714V5.167h4.788V21.67zm19.651-10.717h4.462v14.88H76.42v-1.712c-.62 1.151-1.891 2.155-4.226 2.155-3.812 0-5.792-1.712-5.792-6.613v-8.71h4.462v8.503c0 1.978.858 2.864 2.66 2.864 1.625 0 2.63-.886 2.63-2.864v-8.503zm7.89-.56c0-3.602 2.276-5.522 5.851-5.522 1.153 0 1.892.178 1.892.178V8.65s-.621-.058-1.153-.058c-1.389 0-2.128.472-2.128 1.77v.591h3.28v3.632h-3.28v11.248h-4.462V14.585h-2.246v-3.632h2.246v-.56zm15.603.56h3.398v3.632h-3.398v5.786c0 1.595.827 2.008 2.127 2.008.532 0 1.271-.088 1.271-.088v3.572s-1.034.236-2.127.236c-3.576 0-5.733-1.624-5.733-5.226v-6.288h-2.246v-3.632h2.246v-4.34h4.462v4.34zm13.278-.442c3.782 0 5.762 1.712 5.762 6.613v8.71h-4.462V17.33c0-1.978-.857-2.863-2.719-2.863-1.684 0-2.689.885-2.689 2.863v8.503h-4.462V5.196h4.492V12.4c.768-1.093 1.979-1.89 4.078-1.89zm17.139 9.536c0 1.623-1.537 2.834-3.901 2.834-1.152 0-1.832-.531-1.832-1.535 0-.768.473-1.417 1.98-1.624l2.571-.354c.443-.06.916-.148 1.182-.236v.915zm-2.482-9.537c-4.403 0-6.531 1.684-6.708 4.842h4.344c.059-.826.532-1.446 2.364-1.446 1.625 0 2.394.531 2.394 1.328 0 .709-.444.975-1.537 1.093l-2.837.295c-3.842.413-5.585 2.008-5.585 4.901 0 2.687 1.655 4.753 5.171 4.753 2.394 0 3.812-.767 5.054-2.303v1.86h4.078v-9.772c0-4.104-2.394-5.55-6.738-5.55zm17.055 0c3.872 0 5.852 1.713 5.852 6.614v8.71h-4.463V17.33c0-1.978-.857-2.863-2.718-2.863-1.685 0-2.689.885-2.689 2.863v8.503h-4.462v-14.88h4.196v1.713c.62-1.152 1.891-2.155 4.284-2.155zm15.265 5.994c3.782.502 5.674 1.683 5.674 4.783 0 3.13-2.217 4.99-6.915 4.99-5.113 0-6.915-2.038-7.004-5.02h4.403c.118 1.093.887 1.624 2.601 1.624 1.743 0 2.452-.413 2.452-1.24 0-.767-.591-1.122-2.127-1.328l-1.567-.207c-3.28-.443-5.171-1.713-5.171-4.665 0-2.834 2.098-4.93 6.501-4.93 4.078 0 6.265 1.623 6.472 4.841h-4.344c-.148-.856-.621-1.387-2.128-1.387-1.477 0-2.039.502-2.039 1.151 0 .65.355 1.004 1.625 1.181l1.567.207zm16.844 3.543c0 1.624-1.537 2.834-3.901 2.834-1.152 0-1.832-.531-1.832-1.535 0-.768.473-1.417 1.98-1.624l2.571-.354c.443-.06.916-.148 1.182-.236v.915zm-2.483-9.537c-4.403 0-6.53 1.684-6.708 4.842h4.344c.06-.826.532-1.446 2.364-1.446 1.626 0 2.394.531 2.394 1.328 0 .709-.443.975-1.537 1.093l-2.836.295c-3.842.413-5.586 2.008-5.586 4.901 0 2.687 1.655 4.753 5.172 4.753 2.393 0 3.812-.767 5.053-2.303v1.86H181v-9.772c0-4.104-2.394-5.55-6.738-5.55z" fill="#000"/></svg>