<svg width="145" height="33" fill="none" xmlns="http://www.w3.org/2000/svg"><path d="M106.038 27.023h-5.584V5.906h5.584v21.117zM92.819 5.906l-3.594 14.153L85.02 5.906H79.62l-4.203 14.153-3.603-14.153h-5.457l5.937 21.117h5.764l4.257-14.484 4.258 14.484h5.762l5.956-21.117h-5.472zM65.891 21.053c0-4.048-2.186-5.405-6.97-6.937-2.254-.722-4.359-1.277-4.359-2.997 0-1.511 1.564-2.012 2.732-2.012.991 0 2.853.206 3.004 2.446h5.28c-.093-4.276-3.634-6.138-8.19-6.138-2.826 0-5.16.786-6.63 2.207-1.026.994-1.651 2.45-1.651 3.964 0 3.93 2.675 5.507 5.696 6.41 3.395 1.018 5.641 1.624 5.641 3.46 0 1.227-.989 2.448-2.943 2.448-2.482 0-3.384-1.456-3.444-2.885h-5.342c0 4.866 4.177 6.645 8.786 6.645 5.887 0 8.39-3.29 8.39-6.611zm59.898 0c0-4.658-3.451-5.888-7.621-7.11-2.01-.583-3.816-1.103-3.816-2.824 0-1.511 1.564-2.012 2.733-2.012.994 0 2.849.206 2.998 2.446h5.284c-.091-4.276-3.628-6.138-8.194-6.138-2.82 0-5.163.786-6.626 2.207-1.02.994-1.65 2.45-1.65 3.964 0 3.93 2.669 5.507 5.701 6.41 3.392 1.018 5.641 1.624 5.641 3.46 0 1.227-.987 2.448-2.94 2.448-2.492 0-3.394-1.456-3.449-2.885h-5.344c0 4.866 4.173 6.645 8.792 6.645 5.878 0 8.491-3.29 8.491-6.611zm19.211 0c0-4.658-3.466-5.888-7.633-7.11-2.015-.583-3.809-1.103-3.809-2.824 0-1.511 1.555-2.012 2.724-2.012.987 0 2.85.206 3.002 2.446h5.295c-.092-4.276-3.646-6.138-8.199-6.138-2.822 0-5.164.786-6.637 2.207-1.019.994-1.645 2.45-1.645 3.964 0 3.93 2.669 5.507 5.693 6.41 3.395 1.018 5.643 1.624 5.643 3.46 0 1.227-.987 2.448-2.939 2.448-2.488 0-3.389-1.456-3.448-2.885h-5.346c0 4.866 4.171 6.645 8.794 6.645 5.892 0 8.505-3.29 8.505-6.611zM26.952 0h18.1l-8.28 33H0L26.952 0z" fill="#000"/><path d="M31.146 19.543h7.234v-6.088h-7.234V6.35h-6.203v7.105H17.71v6.088h7.23v7.108h6.201v-7.108h.006z" fill="#000"/><path d="M31.146 19.543h7.234v-6.088h-7.234V6.35h-6.203v7.105H17.71v6.088h7.23v7.108h6.201v-7.108h.006z" fill="#fff"/></svg>